<svg width="64" height="64" viewBox="0 0 64 64" fill="none" xmlns="http://www.w3.org/2000/svg">
<rect width="64" height="64" rx="32" fill="#039008" fill-opacity="0.1"/>
<g clip-path="url(#clip0_1515_3534)">
<path d="M19.5007 31.9894C19.5007 28.8755 19.5007 25.761 19.5007 22.6471C19.5015 20.7699 20.7686 19.5028 22.6458 19.502C25.6027 19.5013 28.5588 19.5087 31.5149 19.4983C32.4702 19.4953 33.2604 19.8264 33.9249 20.5117C35.535 22.1739 37.1533 23.8294 38.7783 25.4775C39.4271 26.1352 39.744 26.9098 39.7388 27.8302C39.7321 29.0668 39.7403 30.3026 39.7329 31.5392C39.7321 31.7111 39.785 31.8011 39.9382 31.8815C41.099 32.4924 42.3118 32.9693 43.5707 33.3331C44.1749 33.508 44.4792 33.9351 44.494 34.566C44.5246 35.8919 44.4464 37.1999 43.9896 38.4648C43.3519 40.2282 42.2894 41.6709 40.7634 42.7595C40.0685 43.255 39.3475 43.7141 38.6376 44.188C38.4821 44.2922 38.3125 44.3934 38.1243 44.383C37.5186 44.3488 36.9301 44.5028 36.3244 44.5005C31.7418 44.4864 27.1585 44.4938 22.5759 44.4916C21.1027 44.4916 19.9405 43.601 19.5885 42.2156C19.5164 41.9351 19.5 41.6494 19.5 41.3599C19.5015 38.2364 19.5007 35.1129 19.5007 31.9894ZM38.5275 31.0407C38.5275 29.8257 38.5253 28.6642 38.5298 27.5035C38.5305 27.3019 38.4606 27.2357 38.2507 27.2379C37.2009 27.2491 36.1503 27.2461 35.0997 27.2424C33.2768 27.2349 31.9985 25.9529 31.9955 24.1352C31.994 23.0846 31.9881 22.0348 32.0007 20.9842C32.003 20.7691 31.9427 20.6791 31.7307 20.6918C31.6749 20.6947 31.619 20.6888 31.5632 20.6888C28.5707 20.6888 25.5774 20.6866 22.5848 20.6895C21.4412 20.691 20.686 21.4507 20.686 22.5995C20.6838 28.8636 20.6853 35.1285 20.6845 41.3927C20.6845 41.598 20.7016 41.8011 20.7582 41.9991C20.9911 42.816 21.6808 43.3071 22.6101 43.3071C26.9598 43.3086 31.3095 43.3071 35.6592 43.3071H35.8475C35.8371 43.2669 35.8378 43.2424 35.8274 43.2349C35.7054 43.1508 35.5818 43.0683 35.4576 42.9864C33.936 41.9819 32.8214 40.6412 32.0975 38.9656C31.4702 37.5139 31.3385 35.9909 31.4018 34.438C31.4241 33.8912 31.7701 33.4879 32.3103 33.3361C33.9799 32.8659 35.5588 32.1866 37.0223 31.2543C37.4948 30.9529 37.9576 30.758 38.526 31.0407H38.5275ZM43.3058 35.479C43.3058 35.2372 43.2917 34.9946 43.3103 34.7543C43.3259 34.5511 43.2567 34.4633 43.058 34.4075C41.3237 33.9232 39.6979 33.191 38.1808 32.223C38.0082 32.1129 37.8869 32.1122 37.7143 32.223C36.253 33.156 34.689 33.8688 33.026 34.3629C32.6071 34.4872 32.6079 34.4886 32.6034 34.9328C32.6019 35.1002 32.5975 35.2677 32.5975 35.4351C32.5945 37.5385 33.317 39.354 34.7649 40.8793C35.6585 41.8205 36.8043 42.4202 37.8534 43.1523C37.974 43.2364 38.0379 43.1553 38.1176 43.1025C38.6897 42.7223 39.2656 42.3488 39.8311 41.9589C42.0975 40.3949 43.2284 38.2193 43.3058 35.4805V35.479ZM33.1815 21.4641C33.1815 22.4053 33.1815 23.2662 33.1815 24.127C33.1815 24.2014 33.1815 24.2758 33.1875 24.3495C33.2619 25.2595 33.9338 25.9953 34.7865 26.0258C35.7128 26.0593 36.6421 26.0348 37.5699 26.034C37.5804 26.034 37.59 26.0095 37.6057 25.9901C36.1488 24.4998 34.6912 23.0087 33.1815 21.4641Z" fill="#039008"/>
<path d="M28.425 32.5982C26.9101 32.5982 25.3952 32.5982 23.8803 32.5967C23.7605 32.5967 23.637 32.593 23.5217 32.5655C23.2494 32.5015 23.0745 32.2738 23.0723 32.0022C23.0693 31.7314 23.2419 31.5 23.5105 31.4308C23.608 31.4055 23.7122 31.3973 23.8134 31.3973C26.8893 31.3958 29.9659 31.3951 33.0418 31.3966C33.5366 31.3966 33.8409 31.6867 33.7754 32.0878C33.7219 32.4144 33.4696 32.596 33.0537 32.5967C31.5671 32.5982 30.0797 32.5967 28.5931 32.5967C28.5373 32.5967 28.4815 32.5967 28.4257 32.5967L28.425 32.5982Z" fill="#039008"/>
<path d="M27.84 27.8267C29.1495 27.8267 30.459 27.8267 31.7686 27.8267C31.8519 27.8267 31.9367 27.823 32.0193 27.8319C32.3593 27.8684 32.5997 28.1236 32.593 28.4361C32.587 28.7411 32.3571 28.9822 32.0282 29.0216C31.9456 29.0313 31.8616 29.0276 31.7775 29.0276C29.1488 29.0276 26.5208 29.0276 23.8921 29.0276C23.3482 29.0276 23.0654 28.817 23.0714 28.4175C23.0773 28.0291 23.3549 27.826 23.8824 27.826C25.2016 27.826 26.52 27.826 27.8392 27.826L27.84 27.8267Z" fill="#039008"/>
<path d="M26.6371 36.1681C25.6803 36.1681 24.7227 36.1718 23.7659 36.1666C23.2443 36.1636 22.934 35.7507 23.1252 35.3273C23.2376 35.0788 23.4444 34.9695 23.7049 34.9687C25.6654 34.9657 27.626 34.9635 29.5866 34.9702C29.966 34.9717 30.2175 35.2373 30.2108 35.5781C30.2041 35.9174 29.9504 36.1614 29.5642 36.1644C28.5888 36.1718 27.6133 36.1666 26.6371 36.1674V36.1681Z" fill="#039008"/>
<path d="M26.6645 38.5372C27.6214 38.5372 28.579 38.5335 29.5358 38.5387C29.9421 38.5409 30.204 38.7775 30.2107 39.1257C30.2174 39.4851 29.9502 39.7262 29.5306 39.7381C29.4659 39.7396 29.4004 39.7381 29.3357 39.7381C27.6355 39.7381 25.9346 39.7381 24.2345 39.7381C24.0767 39.7381 23.9183 39.741 23.7605 39.7381C23.3357 39.7291 23.0708 39.4955 23.0723 39.1354C23.0738 38.7768 23.3409 38.5402 23.7657 38.5387C24.7322 38.5349 25.698 38.5372 26.6645 38.5372Z" fill="#039008"/>
<path d="M26.0274 25.4584C25.2662 25.4584 24.5051 25.4628 23.7439 25.4569C23.3191 25.4532 23.0445 25.1801 23.0728 24.8118C23.0996 24.468 23.36 24.259 23.7796 24.2582C24.7915 24.2552 25.8035 24.2575 26.8154 24.2575C27.3168 24.2575 27.8176 24.2545 28.3191 24.2582C28.7432 24.2619 29.0162 24.4941 29.0229 24.8475C29.0304 25.2106 28.7499 25.4554 28.3109 25.4576C27.5497 25.4613 26.7886 25.4584 26.0274 25.4584Z" fill="#039008"/>
<path d="M40.3124 36.163C40.3198 36.355 40.2387 36.4978 40.1174 36.6199C39.3444 37.3952 38.5728 38.1727 37.793 38.942C37.514 39.2173 37.1889 39.2106 36.9047 38.9346C36.5244 38.5663 36.1517 38.1913 35.7826 37.8126C35.5125 37.535 35.5036 37.192 35.7462 36.945C35.9843 36.7024 36.3414 36.7084 36.6152 36.9681C36.8169 37.1593 37.02 37.352 37.2038 37.5603C37.3228 37.695 37.389 37.6749 37.5051 37.5559C38.0899 36.9591 38.6799 36.3684 39.2759 35.7828C39.5832 35.4807 39.988 35.5112 40.2127 35.8356C40.2826 35.9376 40.3228 36.0492 40.3124 36.163Z" fill="#039008"/>
</g>
<defs>
<clipPath id="clip0_1515_3534">
<rect width="25" height="25.003" fill="white" transform="translate(19.5 19.4985)"/>
</clipPath>
</defs>
</svg>
