<svg width="116" height="89" viewBox="0 0 116 89" fill="none" xmlns="http://www.w3.org/2000/svg">
<rect width="154.061" height="64.0355" transform="translate(-46.5957 36.0127) rotate(-35.6735)" fill="#D86713"/>
<path d="M13.8109 45.5463L11.1042 47.4963L11.5892 49.1139L10.158 50.1451L7.69872 41.5787L9.28575 40.4353L16.6327 45.4804L15.1917 46.5186L13.8109 45.5463ZM12.6553 44.7224L9.6237 42.5878L10.6885 46.1393L12.6553 44.7224ZM15.2386 42.3584C14.8458 41.8132 14.6045 41.2524 14.5148 40.6762C14.4315 40.0953 14.4963 39.5557 14.7091 39.0572C14.9219 38.5588 15.2587 38.1436 15.7196 37.8116C16.0701 37.5591 16.4605 37.3961 16.8908 37.3228C17.3164 37.2429 17.7145 37.2618 18.0851 37.3793L16.2403 34.8186L17.6229 33.8226L22.8136 41.0275L21.431 42.0236L20.8558 41.2252C20.8788 41.6129 20.7962 41.9978 20.608 42.3799C20.4198 42.7619 20.1245 43.0979 19.7221 43.3878C19.2677 43.7152 18.7681 43.8976 18.2233 43.9352C17.6785 43.9727 17.1437 43.8601 16.6191 43.5971C16.0963 43.3231 15.6361 42.9101 15.2386 42.3584ZM19.4977 39.3196C19.2592 38.9886 18.9909 38.753 18.6927 38.6128C18.3899 38.4662 18.0837 38.4107 17.7742 38.4464C17.4599 38.4755 17.1763 38.5813 16.9231 38.7637C16.67 38.9461 16.4807 39.1761 16.3554 39.4537C16.23 39.7314 16.1857 40.0394 16.2224 40.3777C16.2609 40.7049 16.3971 41.0308 16.6309 41.3553C16.8647 41.6799 17.1354 41.9187 17.4429 42.0719C17.7523 42.2138 18.0608 42.2726 18.3685 42.2481C18.6827 42.2189 18.9632 42.1154 19.2098 41.9377C19.463 41.7554 19.6555 41.523 19.7873 41.2407C19.9145 40.9519 19.9588 40.6439 19.9203 40.3167C19.8771 39.983 19.7362 39.6506 19.4977 39.3196ZM21.8373 37.6045C21.4445 37.0592 21.2032 36.4985 21.1135 35.9223C21.0302 35.3414 21.095 34.8017 21.3078 34.3033C21.5206 33.8049 21.8574 33.3897 22.3183 33.0577C22.6688 32.8052 23.0592 32.6422 23.4895 32.5689C23.9151 32.489 24.3132 32.5079 24.6838 32.6254L22.839 30.0647L24.2216 29.0687L29.4122 36.2736L28.0297 37.2697L27.4545 36.4713C27.4775 36.859 27.3949 37.2439 27.2067 37.6259C27.0185 38.008 26.7232 38.344 26.3208 38.6339C25.8664 38.9613 25.3668 39.1437 24.822 39.1813C24.2772 39.2188 23.7424 39.1061 23.2178 38.8432C22.695 38.5691 22.2348 38.1562 21.8373 37.6045ZM26.0964 34.5657C25.8579 34.2346 25.5896 33.999 25.2914 33.8589C24.9886 33.7122 24.6824 33.6568 24.3729 33.6924C24.0586 33.7216 23.775 33.8274 23.5218 34.0097C23.2687 34.1921 23.0794 34.4221 22.9541 34.6998C22.8287 34.9774 22.7844 35.2854 22.8211 35.6238C22.8596 35.951 22.9958 36.2769 23.2296 36.6014C23.4634 36.926 23.7341 37.1648 24.0416 37.3179C24.3509 37.4599 24.6595 37.5186 24.9672 37.4941C25.2814 37.465 25.5619 37.3615 25.8085 37.1838C26.0617 37.0014 26.2542 36.7691 26.386 36.4868C26.5132 36.198 26.5575 35.89 26.519 35.5628C26.4758 35.2291 26.3349 34.8967 26.0964 34.5657ZM27.0859 28.7799C26.8457 28.9529 26.5907 29.0232 26.3209 28.9909C26.0529 28.9473 25.837 28.8119 25.6734 28.5848C25.5097 28.3576 25.452 28.1132 25.5002 27.8517C25.5502 27.579 25.6953 27.3561 25.9355 27.1831C26.1757 27.0101 26.4298 26.9454 26.6978 26.9889C26.9676 27.0213 27.1844 27.1511 27.348 27.3783C27.5117 27.6055 27.5685 27.8554 27.5185 28.1281C27.4702 28.3896 27.326 28.6069 27.0859 28.7799ZM28.2206 28.9385L32.1066 34.3325L30.7435 35.3145L26.8575 29.9205L28.2206 28.9385ZM31.9611 27.9446L33.841 30.5539C33.9719 30.7357 34.1099 30.8384 34.2551 30.862C34.4021 30.8744 34.5795 30.8058 34.7872 30.6561L35.42 30.2002L36.2477 31.3491L35.3909 31.9664C34.242 32.7941 33.2654 32.6497 32.4611 31.5332L30.5882 28.9336L29.9456 29.3966L29.139 28.2769L29.7816 27.8139L28.8206 26.4801L30.1934 25.491L31.1544 26.8249L32.3617 25.9551L33.1684 27.0748L31.9611 27.9446ZM33.5705 24.1082C33.3303 24.2812 33.0753 24.3515 32.8055 24.3191C32.5375 24.2756 32.3216 24.1402 32.158 23.913C31.9943 23.6858 31.9366 23.4415 31.9848 23.18C32.0348 22.9073 32.1799 22.6844 32.4201 22.5114C32.6603 22.3384 32.9144 22.2736 33.1824 22.3172C33.4522 22.3496 33.669 22.4794 33.8326 22.7065C33.9963 22.9337 34.0531 23.1837 34.0031 23.4563C33.9548 23.7179 33.8106 23.9351 33.5705 24.1082ZM34.7052 24.2668L38.5912 29.6607L37.2281 30.6428L33.3421 25.2488L34.7052 24.2668ZM42.3963 27.0526C41.877 27.4267 41.3278 27.6498 40.7487 27.7219C40.165 27.7875 39.601 27.6959 39.0569 27.447C38.5193 27.1934 38.0517 26.7908 37.6542 26.239C37.2567 25.6873 37.0261 25.114 36.9623 24.519C36.905 23.9194 37.0055 23.354 37.2637 22.8229C37.5173 22.2853 37.9037 21.8294 38.423 21.4553C38.9422 21.0812 39.497 20.859 40.0873 20.7887C40.6728 20.7119 41.2377 20.798 41.7818 21.0469C42.3324 21.2911 42.8065 21.6891 43.204 22.2408C43.6014 22.7925 43.8256 23.3705 43.8764 23.9748C43.9337 24.5744 43.8323 25.1454 43.5723 25.6877C43.314 26.2188 42.922 26.6738 42.3963 27.0526ZM41.5405 25.8647C41.7872 25.687 41.9755 25.4626 42.1055 25.1915C42.2374 24.9091 42.2817 24.6011 42.2385 24.2674C42.1953 23.9337 42.0498 23.5949 41.8019 23.2509C41.4325 22.7381 41.0133 22.4436 40.5442 22.3674C40.077 22.28 39.6487 22.3766 39.2592 22.6572C38.8698 22.9377 38.6425 23.3134 38.5775 23.7843C38.5143 24.244 38.6674 24.7302 39.0368 25.243C39.4062 25.7558 39.818 26.0605 40.2723 26.1572C40.7283 26.2428 41.1511 26.1453 41.5405 25.8647ZM45.1938 16.5921C45.8364 16.1292 46.503 15.9595 47.1935 16.0832C47.8794 16.2004 48.4842 16.6225 49.008 17.3495L51.2877 20.5138L49.9246 21.4958L47.7781 18.5165C47.4695 18.0881 47.1263 17.8374 46.7484 17.7646C46.3658 17.6852 45.9896 17.7788 45.6196 18.0454C45.2431 18.3166 45.0287 18.6485 44.9764 19.0412C44.9258 19.4227 45.0549 19.8277 45.3635 20.2561L47.5099 23.2354L46.1468 24.2174L42.2608 18.8235L43.6239 17.8414L44.1079 18.5132C44.1213 18.1486 44.2208 17.8009 44.4064 17.47C44.5938 17.1279 44.8563 16.8353 45.1938 16.5921ZM50.2764 17.116C49.8836 16.5708 49.6423 16.01 49.5525 15.4338C49.4692 14.8529 49.5308 14.3156 49.7371 13.8219C49.9499 13.3234 50.2867 12.9082 50.7476 12.5762C51.15 12.2863 51.559 12.1149 51.9745 12.0621C52.3964 12.0046 52.7872 12.0337 53.1466 12.1494L52.5925 11.3802L53.9653 10.3912L57.8513 15.7851L56.4785 16.7742L55.9103 15.9855C55.9174 16.3649 55.826 16.7512 55.636 17.1445C55.4478 17.5265 55.1525 17.8625 54.7501 18.1525C54.2957 18.4798 53.7961 18.6622 53.2513 18.6998C52.713 18.7327 52.1815 18.6176 51.6568 18.3547C51.134 18.0806 50.6738 17.6677 50.2764 17.116ZM54.5355 14.0772C54.297 13.7461 54.0286 13.5106 53.7305 13.3704C53.4276 13.2238 53.1214 13.1683 52.8119 13.2039C52.4977 13.2331 52.214 13.3389 51.9609 13.5213C51.7077 13.7036 51.5185 13.9337 51.3931 14.2113C51.2678 14.4889 51.2234 14.797 51.2602 15.1353C51.2987 15.4625 51.4349 15.7884 51.6687 16.1129C51.9025 16.4375 52.1731 16.6763 52.4807 16.8295C52.79 16.9714 53.0985 17.0301 53.4063 17.0057C53.7205 16.9765 54.0009 16.873 54.2476 16.6953C54.5007 16.513 54.6932 16.2806 54.825 15.9983C54.9522 15.7095 54.9965 15.4015 54.958 15.0743C54.9148 14.7406 54.774 14.4082 54.5355 14.0772ZM55.355 6.63905L60.5457 13.844L59.1826 14.826L53.9919 7.62107L55.355 6.63905Z" fill="white"/>
</svg>
