<svg width="51" height="51" viewBox="0 0 51 51" fill="none" xmlns="http://www.w3.org/2000/svg">
<circle cx="25.5" cy="25.3862" r="25" fill="#3B206A"/>
<g clip-path="url(#clip0_1973_11033)">
<path d="M16.3435 35.5789C16.1362 35.3924 15.9776 35.2652 15.8383 35.1219C15.5663 34.8412 15.5728 34.4875 15.8405 34.2519C16.0974 34.0254 16.4676 34.0164 16.7483 34.268C17.2901 34.754 17.8233 35.2491 18.3425 35.7562C18.6426 36.0489 18.6275 36.3536 18.3156 36.6512C17.819 37.1263 17.3149 37.5953 16.8001 38.0523C16.4568 38.357 16.0726 38.359 15.807 38.0884C15.5534 37.8298 15.5868 37.4931 15.902 37.1924C16.024 37.0762 16.1535 36.9679 16.3262 36.8156C15.7908 36.7544 15.3029 36.7384 14.8237 36.6522C11.7107 36.096 9.53351 33.7438 9.50005 30.8946C9.46551 27.9661 11.579 25.5267 14.6898 24.9084C15.0719 24.8322 15.4584 24.7881 15.8502 24.7891C16.6306 24.7901 17.411 24.7911 18.1914 24.7871C18.7268 24.7841 19.2622 24.7731 19.7976 24.7651C19.885 24.271 19.8149 23.7739 19.8364 23.2788C19.8408 23.1786 19.8364 23.0794 19.8375 22.9791C19.8613 21.9779 20.687 21.1962 21.7643 21.1922C24.3613 21.1832 26.9584 21.1822 29.5565 21.1922C30.6132 21.1962 31.4541 21.9749 31.4627 22.9561C31.4778 24.5797 31.4778 26.2042 31.4627 27.8288C31.453 28.7909 30.6197 29.5756 29.5856 29.5817C26.9616 29.5957 24.3376 29.5967 21.7135 29.5817C20.6816 29.5756 19.8623 28.7859 19.8397 27.8238C19.8267 27.2866 19.8375 26.7494 19.8354 26.2122C19.8354 26.106 19.8731 25.9817 19.6724 25.9868C18.1806 26.0228 16.6792 25.8725 15.1972 26.0569C12.7361 26.3646 10.8633 28.3269 10.7932 30.5829C10.7187 32.9862 12.3777 34.9465 14.9046 35.4426C15.3472 35.5297 15.793 35.5949 16.3413 35.5789H16.3435ZM25.662 28.387C26.899 28.387 28.136 28.389 29.373 28.387C29.9483 28.386 30.175 28.1746 30.1761 27.6374C30.1782 26.1391 30.1782 24.6408 30.1761 23.1435C30.1761 22.6023 29.9516 22.3908 29.3773 22.3908C26.9033 22.3888 24.4282 22.3888 21.9542 22.3908C21.3498 22.3908 21.1328 22.5943 21.1317 23.1585C21.1296 24.6438 21.1296 26.1301 21.1317 27.6153C21.1317 28.1806 21.3508 28.387 21.951 28.388C23.188 28.39 24.425 28.388 25.662 28.388V28.387Z" fill="white"/>
<path d="M34.9848 26.0146C35.1737 26.183 35.3334 26.3103 35.4738 26.4536C35.735 26.7222 35.7371 27.0589 35.4953 27.2975C35.2482 27.541 34.893 27.566 34.5994 27.3115C34.0392 26.8264 33.492 26.3253 32.9577 25.8162C32.6824 25.5546 32.6792 25.2459 32.9512 24.9783C33.4779 24.4612 34.0198 23.9571 34.5714 23.463C34.8488 23.2145 35.2266 23.2315 35.477 23.463C35.7296 23.6955 35.7425 24.0363 35.4856 24.3049C35.3453 24.4512 35.1704 24.5705 34.9395 24.7619C35.5407 24.816 36.021 24.7278 36.4938 24.6296C39.0369 24.1034 40.7661 21.9036 40.4984 19.5474C40.2188 17.079 38.0514 15.2169 35.4144 15.1928C34.2033 15.1818 32.9922 15.2008 31.7811 15.1828C31.494 15.1788 31.4573 15.277 31.4648 15.5015C31.48 16.0006 31.4778 16.5007 31.467 17.0008C31.4465 18.002 30.6186 18.7817 29.5392 18.7857C26.9562 18.7957 24.3721 18.7947 21.7891 18.7857C20.6859 18.7817 19.8483 18.003 19.8418 16.9818C19.8321 15.3832 19.831 13.7837 19.8418 12.1852C19.8483 11.183 20.6848 10.3983 21.761 10.3933C24.358 10.3832 26.9551 10.3832 29.5521 10.3933C30.6272 10.3973 31.4497 11.184 31.4681 12.1892C31.4767 12.7013 31.481 13.2135 31.4648 13.7256C31.4584 13.9371 31.5242 13.9962 31.753 13.9942C32.9372 13.9832 34.1213 13.9852 35.3054 13.9902C39.0585 14.0042 41.9502 16.8104 41.8034 20.291C41.6825 23.1603 39.2279 25.5897 36.1225 25.9124C35.7674 25.9495 35.4112 25.9765 34.9848 26.0146V26.0146ZM25.6533 11.5909C24.4023 11.5909 23.1523 11.5889 21.9013 11.5919C21.3724 11.5939 21.1339 11.8104 21.1328 12.2964C21.1285 13.8198 21.1295 15.3421 21.1328 16.8655C21.1328 17.3746 21.3681 17.5881 21.9229 17.5881C24.4109 17.5901 26.8979 17.5901 29.3859 17.5881C29.9396 17.5881 30.175 17.3726 30.176 16.8645C30.1793 15.3542 30.1793 13.8428 30.176 12.3325C30.176 11.7994 29.9472 11.5919 29.3643 11.5909C28.1273 11.5889 26.8903 11.5909 25.6533 11.5909V11.5909Z" fill="white"/>
<path d="M25.6533 40.385C24.4152 40.385 23.1761 40.386 21.938 40.385C20.647 40.383 19.8396 39.6414 19.8385 38.4538C19.8364 36.9415 19.8364 35.4291 19.8385 33.9178C19.8407 32.7302 20.6481 31.9876 21.938 31.9876C24.4152 31.9866 26.8914 31.9866 29.3686 31.9876C30.6607 31.9876 31.4659 32.7282 31.4681 33.9178C31.4713 35.4301 31.4713 36.9425 31.4681 38.4538C31.4659 39.6434 30.6596 40.383 29.3686 40.385C28.1305 40.387 26.8914 40.385 25.6533 40.385V40.385ZM25.6501 39.1854C26.8871 39.1854 28.1241 39.1864 29.3621 39.1854C29.9472 39.1844 30.1749 38.9779 30.176 38.4458C30.1792 36.9355 30.1792 35.4241 30.176 33.9138C30.176 33.4027 29.9428 33.1882 29.3891 33.1882C26.9011 33.1862 24.4131 33.1862 21.925 33.1882C21.3519 33.1882 21.1317 33.4007 21.1317 33.9459C21.1295 35.4442 21.1295 36.9425 21.1317 38.4408C21.1317 38.9759 21.3594 39.1854 21.9391 39.1864C23.1761 39.1884 24.4131 39.1864 25.6511 39.1864L25.6501 39.1854Z" fill="white"/>
<path d="M16.378 15.1898C15.8006 15.1898 15.3483 15.1898 14.8971 15.1898C13.3643 15.1898 11.8316 15.1908 10.2988 15.1898C9.7915 15.1898 9.49899 14.9633 9.50222 14.5865C9.50438 14.2096 9.79474 13.9912 10.3064 13.9902C12.2828 13.9882 14.2592 13.9902 16.3338 13.9902C16.1438 13.8128 15.9981 13.6855 15.8621 13.5492C15.5782 13.2646 15.5631 12.9278 15.8146 12.6793C16.0758 12.4217 16.4676 12.4197 16.7796 12.6993C17.2912 13.1603 17.7953 13.6274 18.2886 14.1044C18.6469 14.4502 18.6426 14.7438 18.2875 15.0826C17.8083 15.5376 17.3247 15.9896 16.8314 16.4315C16.4676 16.7572 16.0823 16.7723 15.8081 16.4957C15.5447 16.2311 15.5858 15.8883 15.9247 15.5736C16.0423 15.4634 16.1719 15.3642 16.3791 15.1908L16.378 15.1898Z" fill="white"/>
<path d="M25.6641 27.1883C24.8449 27.1883 24.0256 27.1903 23.2053 27.1883C22.7087 27.1863 22.4119 26.9478 22.4248 26.5709C22.4367 26.2081 22.7217 25.9907 23.2042 25.9907C24.8427 25.9887 26.4823 25.9877 28.1209 25.9907C28.5947 25.9907 28.8808 26.2232 28.8819 26.589C28.8819 26.9538 28.5947 27.1863 28.122 27.1893C27.3027 27.1933 26.4834 27.1903 25.6631 27.1903L25.6641 27.1883Z" fill="white"/>
<path d="M26.9389 24.7878C26.5233 24.7878 26.1067 24.7958 25.6911 24.7858C25.282 24.7757 25.0122 24.5312 25.01 24.1904C25.0079 23.8497 25.2777 23.5961 25.6847 23.5911C26.5298 23.5821 27.3761 23.5811 28.2213 23.5911C28.6228 23.5961 28.8926 23.8627 28.8829 24.2025C28.8732 24.5272 28.6109 24.7717 28.2277 24.7838C27.7981 24.7968 27.3685 24.7868 26.9389 24.7868V24.7878Z" fill="white"/>
<path d="M23.0832 24.788C22.7335 24.796 22.4366 24.5365 22.4226 24.2117C22.4086 23.872 22.7065 23.5864 23.0735 23.5894C23.4232 23.5924 23.7114 23.859 23.7146 24.1837C23.7179 24.5074 23.4329 24.78 23.0832 24.788Z" fill="white"/>
<path d="M25.6112 16.3894C24.8049 16.3894 23.9986 16.3924 23.1933 16.3884C22.7162 16.3864 22.4302 16.1609 22.4259 15.7961C22.4205 15.4303 22.7076 15.1908 23.1771 15.1898C24.8297 15.1867 26.4823 15.1867 28.1348 15.1898C28.6022 15.1898 28.8904 15.4333 28.8829 15.7991C28.8753 16.1619 28.5882 16.3854 28.1111 16.3874C27.2778 16.3904 26.4456 16.3874 25.6123 16.3874L25.6112 16.3894Z" fill="white"/>
<path d="M26.9476 12.7907C27.3631 12.7907 27.7798 12.7837 28.1953 12.7927C28.6066 12.8017 28.8775 13.0422 28.8819 13.382C28.8872 13.7217 28.6163 13.9813 28.2115 13.9863C27.3664 13.9963 26.5201 13.9963 25.6749 13.9863C25.2712 13.9813 25.0014 13.7187 25.0089 13.379C25.0165 13.0382 25.2853 12.8017 25.6987 12.7927C26.1143 12.7837 26.5309 12.7907 26.9465 12.7907H26.9476Z" fill="white"/>
<path d="M23.7147 13.3977C23.7093 13.7214 23.4189 13.989 23.0703 13.989C22.7055 13.989 22.4075 13.7004 22.4237 13.3616C22.4399 13.0359 22.7378 12.7793 23.0876 12.7893C23.4384 12.7994 23.719 13.072 23.7147 13.3967V13.3977Z" fill="white"/>
<path d="M28.558 34.7077C28.5688 35.0074 28.4598 35.1607 28.313 35.296C27.4084 36.1319 26.5114 36.9737 25.5961 37.7995C25.1017 38.2455 24.8815 38.2325 24.3764 37.7755C23.9144 37.3576 23.4589 36.9346 23.0088 36.5067C22.6763 36.191 22.6569 35.8452 22.9397 35.5867C23.2182 35.3321 23.6024 35.3602 23.9317 35.6658C24.2166 35.9304 24.5081 36.19 24.7736 36.4706C24.9463 36.653 25.0499 36.661 25.2399 36.4766C25.9545 35.7821 26.6906 35.1076 27.416 34.4231C27.6394 34.2126 27.9006 34.1565 28.1867 34.2698C28.4285 34.366 28.5483 34.5564 28.558 34.7057V34.7077Z" fill="white"/>
</g>
<defs>
<clipPath id="clip0_1973_11033">
<rect width="32.3077" height="30" fill="white" transform="translate(9.5 10.3862)"/>
</clipPath>
</defs>
</svg>
