<svg width="988" height="667" viewBox="0 0 988 667" fill="none" xmlns="http://www.w3.org/2000/svg">
<g clip-path="url(#clip0_21_256)">
<path d="M378.736 758.42C338.147 758.42 305.244 726.825 305.244 687.85C305.244 648.875 338.147 617.28 378.736 617.28C419.324 617.28 452.228 648.875 452.228 687.85C452.228 726.825 419.324 758.42 378.736 758.42Z" fill="#C9D1FA"/>
<path d="M-133.325 -215.66L-182.646 -168.3L186.98 186.64C200.602 199.72 222.68 199.72 236.301 186.64C249.923 173.56 249.923 152.36 236.301 139.28L-133.325 -215.66Z" fill="#FFECFE"/>
<path d="M950.145 323.29H1086.96V518.95H950.145V323.29Z" fill="#FFECFE"/>
<path d="M481.064 -47.79C481.064 -99.68 524.876 -141.75 578.915 -141.75C632.953 -141.75 676.765 -99.68 676.765 -47.79C676.765 4.10001 632.953 46.17 578.915 46.17C524.876 46.17 481.064 4.10001 481.064 -47.79Z" fill="#FFECFE"/>
<path d="M450.259 -47.79C450.259 20.33 507.974 75.75 578.915 75.75C649.855 75.75 707.57 20.33 707.57 -47.79" stroke="#C9D1FA" stroke-width="2.8735" stroke-miterlimit="10" stroke-linecap="round"/>
<path d="M922.693 544.75C922.693 545.94 923.703 546.91 924.943 546.91H1189.78C1191.02 546.91 1192.03 545.94 1192.03 544.75C1192.03 543.56 1191.02 542.59 1189.78 542.59H924.943C923.703 542.59 922.693 543.56 922.693 544.75Z" fill="#C9D1FA"/>
<path d="M922.693 532.29C922.693 533.48 923.703 534.45 924.943 534.45H1189.78C1191.02 534.45 1192.03 533.48 1192.03 532.29C1192.03 531.1 1191.02 530.13 1189.78 530.13H924.943C923.703 530.14 922.693 531.11 922.693 532.29Z" fill="#C9D1FA"/>
<path d="M922.693 519.84C922.693 521.03 923.703 522 924.943 522H1189.78C1191.02 522 1192.03 521.03 1192.03 519.84C1192.03 518.65 1191.02 517.68 1189.78 517.68H924.943C923.703 517.69 922.693 518.66 922.693 519.84Z" fill="#C9D1FA"/>
<path d="M922.693 507.39C922.693 508.58 923.703 509.55 924.943 509.55H1189.78C1191.02 509.55 1192.03 508.58 1192.03 507.39C1192.03 506.2 1191.02 505.23 1189.78 505.23H924.943C923.703 505.23 922.693 506.2 922.693 507.39Z" fill="#C9D1FA"/>
<path d="M922.693 494.94C922.693 496.13 923.703 497.1 924.943 497.1H1189.78C1191.02 497.1 1192.03 496.13 1192.03 494.94C1192.03 493.75 1191.02 492.78 1189.78 492.78H924.943C923.703 492.78 922.693 493.75 922.693 494.94Z" fill="#C9D1FA"/>
<path d="M922.693 482.49C922.693 483.68 923.703 484.65 924.943 484.65H1189.78C1191.02 484.65 1192.03 483.68 1192.03 482.49C1192.03 481.3 1191.02 480.33 1189.78 480.33H924.943C923.703 480.33 922.693 481.3 922.693 482.49Z" fill="#C9D1FA"/>
<path d="M922.693 470.03C922.693 471.22 923.703 472.19 924.943 472.19H1189.78C1191.02 472.19 1192.03 471.22 1192.03 470.03C1192.03 468.84 1191.02 467.87 1189.78 467.87H924.943C923.703 467.88 922.693 468.85 922.693 470.03Z" fill="#C9D1FA"/>
<path d="M957.862 1028.93L980.335 1007.35L597.275 639.52C591.068 633.56 581.008 633.56 574.801 639.52C568.594 645.48 568.594 655.14 574.801 661.1L957.862 1028.93Z" fill="#F4AEF0"/>
<path d="M986.219 957.97C988.583 955.7 988.583 952.01 986.219 949.74L600.503 579.35C598.139 577.08 594.296 577.08 591.932 579.35C589.568 581.62 589.568 585.31 591.932 587.58L977.648 957.97C980.012 960.24 983.855 960.24 986.219 957.97Z" fill="#C9D1FA"/>
<path d="M1029.66 195.06L946.344 115.07" stroke="#C9D1FA" stroke-width="2.8735" stroke-miterlimit="10" stroke-linecap="round"/>
<path d="M404.802 96.38L321.5 16.39" stroke="#C9D1FA" stroke-width="2.8735" stroke-miterlimit="10" stroke-linecap="round"/>
<path d="M321.5 574.33L238.198 494.33" stroke="#C9D1FA" stroke-width="2.8735" stroke-miterlimit="10" stroke-linecap="round"/>
<path d="M1265.9 483.65C1268.26 481.38 1268.26 477.69 1265.9 475.42L880.173 105.04C877.809 102.77 873.966 102.77 871.602 105.04C869.238 107.31 869.238 111 871.602 113.27L1257.33 483.66C1259.69 485.92 1263.54 485.92 1265.9 483.65Z" fill="white"/>
<path d="M711.957 559.113C705.334 552.418 705.616 541.835 712.588 535.474C719.56 529.114 730.581 529.385 737.205 536.08C743.829 542.775 743.547 553.358 736.575 559.718C729.603 566.079 718.581 565.808 711.957 559.113Z" stroke="#C9D1FA" stroke-width="2.8735" stroke-miterlimit="10" stroke-linecap="round"/>
<path d="M236.438 386.76H252.059V401.76H236.438V386.76Z" fill="#C9D1FA"/>
<path d="M727.878 79.88H743.499V94.88H727.878V79.88Z" fill="#C9D1FA"/>
<path d="M12.122 -242L-73 -159.52L101.099 9.17L275.197 177.86C298.707 200.64 336.809 200.64 360.319 177.86C383.829 155.08 383.829 118.16 360.319 95.38L12.122 -242Z" fill="#3147BA" fill-opacity="0.2"/>
</g>
<defs>
<clipPath id="clip0_21_256">
<rect width="1333" height="720" fill="white" transform="matrix(-1 0 0 1 988 -33)"/>
</clipPath>
</defs>
</svg>
