<svg width="525" height="400" viewBox="0 0 525 400" fill="none" xmlns="http://www.w3.org/2000/svg">
<g clip-path="url(#clip0_2665_25204)">
<path d="M389.442 310.585V389.535C389.442 391.787 387.604 393.627 385.35 393.627H278.475C276.221 393.627 274.383 391.789 274.383 389.535V310.585H389.44H389.442Z" fill="#4A5B6B"/>
<path d="M393.617 312.889V360.694C393.617 363.014 391.735 364.896 389.392 364.896H274.432C272.091 364.896 270.207 363.014 270.207 360.694V312.889C270.207 310.546 272.089 308.666 274.432 308.666H389.392C391.733 308.666 393.617 310.548 393.617 312.889Z" fill="#5B6F8B"/>
<path d="M360.957 308.666H354.39V302.69C354.39 300.407 352.525 298.552 350.234 298.552H313.592C311.301 298.552 309.436 300.407 309.436 302.69V308.666H302.869V302.69C302.869 296.789 307.681 291.985 313.592 291.985H350.234C356.147 291.985 360.959 296.789 360.959 302.69V308.666H360.957Z" fill="#4A5B6B"/>
<path d="M416.922 192.592C416.922 192.592 398.782 198.393 390.208 195.998C380.495 193.283 348.872 175.397 348.872 175.397L346.322 163.636C346.322 163.636 386.131 177.517 394.722 178.618C401.581 179.499 413.178 174.587 413.178 174.587L416.922 192.59V192.592Z" fill="#FFD1C4"/>
<path d="M419.649 391.359C419.691 391.954 419.778 392.469 419.866 392.859C419.966 393.308 420.363 393.627 420.822 393.627H451.808C452.244 393.627 452.564 393.223 452.466 392.799L451.28 387.756L447.645 372.31C447.533 371.83 447.08 371.509 446.59 371.561L435.956 372.68C435.472 372.73 435.103 373.124 435.082 373.61C434.994 375.611 433.982 380.674 426.268 382.875C420.227 384.603 419.472 388.747 419.647 391.359H419.649Z" fill="#AB26A3"/>
<path d="M430.289 381.153C434.354 378.672 435.013 375.19 435.084 373.608C435.105 373.122 435.476 372.728 435.958 372.678L446.592 371.559C447.082 371.507 447.535 371.828 447.648 372.308L449.728 381.153H430.291H430.289Z" fill="#74176E"/>
<path d="M467.917 391.359C467.958 391.954 468.046 392.469 468.134 392.859C468.234 393.308 468.63 393.627 469.089 393.627H500.076C500.512 393.627 500.831 393.223 500.733 392.799L499.548 387.756L495.913 372.31C495.8 371.83 495.348 371.509 494.857 371.561L484.224 372.68C483.74 372.73 483.37 373.124 483.349 373.61C483.262 375.611 482.25 380.674 474.535 382.875C468.495 384.603 467.739 388.747 467.915 391.359H467.917Z" fill="#AB26A3"/>
<path d="M478.559 381.153C482.623 378.672 483.283 375.19 483.354 373.608C483.375 373.122 483.746 372.728 484.228 372.678L494.861 371.559C495.352 371.507 495.805 371.828 495.917 372.308L497.998 381.153H478.561H478.559Z" fill="#74176E"/>
<path d="M457.737 374.958C460.057 362.188 456.357 340.285 455.936 337.067C454.713 327.738 462.649 261.52 467.897 240.068L432.891 235.807C426.763 251.321 419.735 344.535 417.926 374.958H457.737Z" fill="#191937"/>
<path d="M510.685 374.958C512.364 366.939 511.572 358.424 501.733 343.972C496.688 336.56 491.548 319.512 486.793 306.314C483.243 296.465 477.098 256.462 474.88 235.078H444.641C444.134 249.821 460.307 341.007 468.366 374.958H510.685Z" fill="#292561"/>
<path d="M431.885 178.284L427.862 183.057L429.104 193.565L420.01 194.199L411.897 194.758C410.107 195.259 407.257 174.382 409.055 173.902C419.24 171.709 440.015 168.652 440.015 168.652L431.883 178.284H431.885Z" fill="#AB26A3"/>
<path d="M427.864 183.056L429.105 193.565L420.012 194.199C420.147 193.738 420.3 193.285 420.446 192.843C421.706 189.118 422.958 185.396 424.208 181.679C424.824 179.87 426.816 175.609 430.885 174.906C431.918 174.727 431.722 177.022 431.887 178.284L427.864 183.056Z" fill="#8D1786"/>
<path d="M483.964 186.712C483.482 190.591 482.24 195.574 479.691 201.955C475.014 213.676 475.014 236.982 475.014 236.982C475.073 238.511 467.048 239.694 457.914 240.264C445.914 241.005 432.001 240.687 431.923 238.686C431.923 238.686 434.089 235.039 427.969 211.858C422.358 190.65 427.402 176.254 431.174 173.041C443.577 162.447 476.392 167.632 482.195 175.236C482.493 175.62 482.81 176.139 483.09 176.813C483.926 178.71 484.552 181.828 483.966 186.714L483.964 186.712Z" fill="#AB26A3"/>
<path d="M449.151 161.028L449.142 167.348C448.969 170.42 461.86 171.15 462.034 168.079C461.128 161.518 464.663 156.214 465.385 153.524C466.196 150.507 466.38 127.241 448.174 129.203C429.968 131.164 436.113 152.934 438.469 158.422C440.804 163.926 449.149 161.028 449.149 161.028H449.151Z" fill="#FFD1C4"/>
<path d="M463.338 158.689C463.338 158.689 456.054 154.43 456.742 150.501C457.431 146.572 461.137 145.883 457.23 144.155C453.324 142.428 453.61 147.354 451.471 146.849C449.332 146.344 456.907 130.932 436.604 137.522C436.604 137.522 424.808 130.747 432.639 124.48C440.471 118.214 440.304 127.921 452.177 123.548C464.05 119.172 469.502 129.716 464.596 138.674C464.596 138.674 480.878 143.715 463.338 158.689Z" fill="#292561"/>
<path d="M449.151 161.028C449.151 161.028 453.315 159.801 455.582 157.015C455.582 157.015 452.998 161.842 449.148 163.726L449.153 161.028H449.151Z" fill="#F1C0BA"/>
<path d="M483.964 186.712C483.482 190.591 482.24 195.574 479.691 201.955C475.014 213.676 475.014 236.981 475.014 236.981C475.073 238.511 467.048 239.694 457.914 240.264C457.837 238.551 458.818 236.877 460.051 235.654C461.418 234.288 463.11 233.307 464.554 232.026C469.491 227.648 470.895 220.468 470.674 213.868C470.453 207.266 468.903 200.732 469.163 194.141C469.278 191.196 469.76 188.271 470.587 185.452C471.317 182.969 472.31 180.553 473.55 178.282C473.973 177.502 474.626 175.78 475.465 175.396C476.206 175.061 477.833 175.54 478.601 175.657C480.131 175.908 481.633 176.283 483.086 176.811C483.922 178.708 484.548 181.825 483.962 186.712H483.964Z" fill="#8D1786"/>
<path d="M497.6 204.501C497.6 204.501 501.492 214.684 498.602 222.995C494.867 233.733 478.009 255.342 478.009 255.342C478.009 255.342 474.862 266.772 467.84 262.812C456.785 256.575 473.088 248.539 473.088 248.539C473.088 248.539 486.533 227.197 485.846 217.355C485.291 209.392 482.918 202.919 482.918 202.919L497.602 204.501H497.6Z" fill="#FFD1C4"/>
<path d="M478.545 172.363C478.545 172.363 487.194 175.841 492.696 186.047C498.199 196.25 498.599 205.054 498.599 205.054C498.676 205.415 481.167 209.117 481.092 208.756C481.092 208.756 472.875 192.434 473.088 184.146C473.341 174.357 477.539 171.58 478.545 172.363Z" fill="#AB26A3"/>
<path d="M387.655 208.422L392.223 215.497C396.718 222.458 394.696 231.779 387.735 236.272C380.79 240.756 371.463 238.761 366.968 231.8L245.499 44.1302C244.03 41.8537 244.685 38.8135 246.96 37.3445C249.236 35.8755 252.276 36.5307 253.745 38.8051L375.217 226.477C376.771 228.885 380.002 229.58 382.41 228.026C384.834 226.461 385.529 223.23 383.975 220.822L379.407 213.747C377.938 211.47 378.593 208.43 380.868 206.961C383.144 205.492 386.184 206.147 387.653 208.422H387.655Z" fill="#5B6F8B"/>
<path d="M421.051 51.5733C414.574 52.1722 408.052 54.3402 402.103 58.1817C392.617 64.306 386.407 73.4872 384.157 83.2631C384.049 83.7117 383.788 84.0581 383.421 84.2438C383.133 84.3794 382.789 84.4253 382.442 84.369C382.319 84.3481 382.184 84.3106 382.044 84.298C381.192 84.1415 380.337 84.0122 379.477 83.912C379.064 83.8515 378.661 83.8077 378.242 83.7764C378.033 83.7597 377.795 83.7367 377.587 83.72C377.057 83.6846 376.51 83.6595 375.976 83.6512C375.429 83.6262 374.895 83.6178 374.357 83.6387C373.891 83.6366 373.438 83.6512 372.969 83.6762C372.387 83.6992 371.79 83.7305 371.189 83.791C370.359 83.8724 369.513 83.9642 368.675 84.1019C368.17 84.1749 367.663 84.2772 367.168 84.3669C366.517 84.4858 365.876 84.6215 365.232 84.7842C364.428 84.9741 363.621 85.1932 362.836 85.4478C362.35 85.5834 361.876 85.7399 361.415 85.911C360.866 86.0884 360.347 86.272 359.821 86.4848C359.358 86.658 358.907 86.8479 358.452 87.0649C357.551 87.4447 356.67 87.862 355.788 88.3065C354.567 88.9429 353.363 89.644 352.18 90.4077C350.997 91.1714 349.862 91.979 348.779 92.8303C348.025 93.4417 347.301 94.0614 346.588 94.6999C346.183 95.063 345.803 95.4323 345.425 95.8038C345.031 96.1835 344.649 96.5842 344.265 96.9827C343.965 97.3041 343.664 97.6233 343.374 97.9613C342.769 98.6291 342.201 99.3239 341.651 100.008C341.267 100.507 340.895 101.027 340.538 101.534C340.52 101.571 340.488 101.592 340.467 101.63C340.221 101.966 339.985 102.318 339.762 102.69C339.556 102.95 339.387 103.236 339.203 103.531C338.928 103.96 338.681 104.397 338.433 104.835C338.418 104.845 338.414 104.872 338.41 104.902C338.076 105.444 337.772 105.995 337.502 106.573C337.271 107.001 337.066 107.435 336.876 107.86C336.68 108.24 336.511 108.626 336.353 109.031C336.015 109.805 335.697 110.615 335.424 111.422C335.282 111.817 335.155 112.201 335.04 112.603C334.913 112.987 334.783 113.4 334.679 113.822C334.535 114.318 334.389 114.842 334.272 115.345C334.264 115.401 334.256 115.456 334.237 115.493C334.132 115.913 333.903 116.24 333.579 116.424C333.283 116.616 332.908 116.681 332.524 116.599C322.671 114.636 311.764 116.507 302.278 122.632C292.792 128.756 286.597 137.927 284.333 147.713C284.249 148.095 284.032 148.412 283.738 148.602C283.438 148.821 283.045 148.896 282.62 148.819L282.538 148.796C281.96 148.69 281.357 148.575 280.763 148.506C280.212 148.408 279.659 148.335 279.116 148.283C278.993 148.262 278.88 148.258 278.741 148.247C278.269 148.199 277.808 148.168 277.33 148.149C276.479 148.093 275.621 148.066 274.774 148.084C274.227 148.059 273.689 148.078 273.146 148.126C272.495 148.143 271.855 148.178 271.222 148.258C270.695 148.295 270.162 148.362 269.632 148.427C269.372 148.468 269.113 148.51 268.869 148.541C268.364 148.614 267.857 148.717 267.362 148.806C266.711 148.925 266.071 149.061 265.426 149.224C264.622 149.414 263.815 149.633 263.03 149.887C262.544 150.025 262.07 150.179 261.609 150.351C261.063 150.528 260.541 150.712 260.017 150.924C259.554 151.098 259.103 151.287 258.648 151.504C257.747 151.884 256.866 152.302 255.984 152.746C254.763 153.382 253.559 154.084 252.376 154.849C251.193 155.613 250.06 156.421 248.975 157.272C248.207 157.894 247.466 158.524 246.748 159.19C246.362 159.515 246.003 159.847 245.655 160.197C245.246 160.588 244.862 160.986 244.476 161.414C244.13 161.764 243.791 162.132 243.468 162.518C242.913 163.129 242.381 163.774 241.876 164.429C241.461 164.949 241.073 165.477 240.697 166.021C240.411 166.432 240.109 166.854 239.835 167.284C239.706 167.494 239.562 167.713 239.416 167.933C239.138 168.39 238.859 168.849 238.608 169.312C238.274 169.854 237.966 170.434 237.682 171.021C237.431 171.486 237.206 171.958 237.008 172.44C236.626 173.216 236.284 174.017 235.994 174.835C235.816 175.278 235.654 175.709 235.503 176.16C235.455 176.292 235.412 176.394 235.38 176.517C235.205 177.032 235.044 177.567 234.907 178.109C234.725 178.681 234.581 179.278 234.441 179.847C234.437 179.874 234.433 179.904 234.429 179.931C234.349 180.285 234.166 180.582 233.895 180.78C233.575 181.037 233.166 181.124 232.716 181.037C222.863 179.073 211.941 180.953 202.455 187.077C196.504 190.919 191.845 195.971 188.633 201.628C187.876 202.948 185.841 202.295 185.591 200.641C175.982 138.279 198.242 76.7089 248.401 43.2414C248.557 43.1412 248.701 43.0223 248.841 42.9326C249.722 42.3128 250.231 42.0103 250.231 42.0103C250.231 42.0103 250.717 41.6701 251.643 41.1234C251.783 41.0337 251.95 40.9502 252.107 40.8501C303.252 8.9141 368.529 13.9679 421.408 48.3933C422.812 49.3031 422.572 51.4252 421.055 51.5733H421.051Z" fill="#48DBC5"/>
<path d="M250.23 42.0103C250.23 42.0103 236.977 67.0144 283.739 148.602C283.438 148.821 283.046 148.896 282.621 148.819L282.539 148.796C281.951 148.671 281.358 148.575 280.763 148.506C280.213 148.408 279.66 148.335 279.117 148.283C278.994 148.262 278.881 148.258 278.741 148.247C278.27 148.199 277.809 148.168 277.331 148.149C276.48 148.093 275.622 148.066 274.775 148.084C274.228 148.059 273.69 148.078 273.147 148.126C272.496 148.143 271.856 148.178 271.223 148.258C270.695 148.295 270.153 148.343 269.633 148.427C269.372 148.468 269.114 148.51 268.87 148.541C268.365 148.614 267.858 148.717 267.363 148.806C266.712 148.925 266.071 149.061 265.427 149.224C264.623 149.414 263.816 149.633 263.031 149.887C262.545 150.025 262.071 150.179 261.61 150.351C261.063 150.528 260.542 150.712 260.018 150.924C259.555 151.098 259.104 151.287 258.649 151.504C257.748 151.884 256.867 152.302 255.985 152.746C254.764 153.382 253.56 154.084 252.377 154.849C251.194 155.613 250.061 156.421 248.976 157.272C248.208 157.894 247.467 158.524 246.749 159.19C246.363 159.515 246.004 159.847 245.656 160.197C245.247 160.588 244.863 160.986 244.477 161.414C244.13 161.764 243.792 162.132 243.469 162.518C242.914 163.129 242.382 163.774 241.877 164.429C241.462 164.949 241.073 165.477 240.698 166.021C240.412 166.432 240.109 166.854 239.836 167.284C239.707 167.494 239.563 167.713 239.417 167.933C239.127 168.373 238.86 168.849 238.609 169.312C238.275 169.854 237.966 170.434 237.683 171.021C237.432 171.486 237.207 171.958 237.009 172.44C236.627 173.216 236.285 174.017 235.995 174.835C235.817 175.278 235.654 175.709 235.504 176.16C235.456 176.292 235.412 176.394 235.381 176.517C235.206 177.032 235.045 177.567 234.907 178.109C234.726 178.681 234.569 179.261 234.442 179.847C234.438 179.874 234.434 179.904 234.43 179.931C234.35 180.285 234.167 180.582 233.895 180.78C194.518 88.6487 238.63 50.3297 248.398 43.2414C248.554 43.1412 248.698 43.0223 248.838 42.9325C249.718 42.3128 250.228 42.0103 250.228 42.0103H250.23Z" fill="#2AB19F"/>
<path d="M383.421 84.2438C383.133 84.3794 382.788 84.4253 382.442 84.369C382.319 84.3481 382.183 84.3106 382.043 84.2981C381.192 84.1416 380.337 84.0122 379.477 83.912C379.064 83.8515 378.661 83.8077 378.242 83.7764C378.033 83.7597 377.795 83.7368 377.586 83.7201C377.056 83.6846 376.51 83.6596 375.976 83.6512C375.429 83.6262 374.895 83.6178 374.356 83.6387C373.891 83.6366 373.438 83.6512 372.969 83.6763C372.376 83.6804 371.79 83.7305 371.189 83.791C370.358 83.8724 369.513 83.9642 368.674 84.1019C368.169 84.1749 367.662 84.2772 367.168 84.3669C366.517 84.4859 365.876 84.6215 365.231 84.7843C364.428 84.9741 363.621 85.1932 362.836 85.4478C362.35 85.5834 361.876 85.7399 361.415 85.911C360.866 86.0884 360.347 86.272 359.821 86.4849C359.358 86.6581 358.907 86.8479 358.452 87.0649C357.551 87.4447 356.67 87.862 355.787 88.3065C354.567 88.9429 353.363 89.644 352.18 90.4077C350.996 91.1714 349.861 91.979 348.778 92.8303C348.025 93.4417 347.301 94.0614 346.587 94.7C346.183 95.063 345.803 95.4324 345.425 95.8038C345.031 96.1835 344.649 96.5842 344.265 96.9827C343.964 97.3041 343.664 97.6233 343.374 97.9614C342.769 98.6291 342.201 99.3239 341.65 100.008C341.266 100.507 340.895 101.027 340.538 101.534C340.519 101.571 340.488 101.592 340.467 101.63C340.221 101.966 339.985 102.318 339.762 102.69C339.555 102.951 339.386 103.236 339.203 103.531C338.927 103.96 338.681 104.397 338.433 104.835C338.418 104.845 338.414 104.872 338.41 104.902C338.076 105.444 337.771 105.995 337.502 106.573C337.271 107.001 337.066 107.435 336.876 107.86C336.68 108.24 336.511 108.626 336.352 109.031C336.014 109.805 335.697 110.615 335.424 111.422C335.282 111.817 335.155 112.201 335.04 112.603C334.913 112.987 334.783 113.4 334.679 113.822C334.535 114.319 334.389 114.842 334.272 115.345C334.264 115.401 334.255 115.456 334.237 115.493C334.132 115.913 333.903 116.24 333.579 116.424C278.469 40.2262 250.229 42.0124 250.229 42.0124C250.229 42.0124 250.715 41.6722 251.641 41.1255C251.781 41.0358 251.948 40.9524 252.104 40.8522C262.586 34.8677 315.649 10.4457 383.421 84.2459V84.2438Z" fill="#2AB19F"/>
<path d="M343.418 169.139C344.42 173.514 342.677 177.654 339.533 178.374C336.388 179.094 332.753 163.221 335.896 162.501C339.04 161.781 342.412 164.748 343.416 169.137L343.418 169.139Z" fill="#FFD1C4"/>
<path d="M136.22 393.627H191.493C206.646 386.093 216.758 372.55 216.758 357.094C216.758 333.434 193.072 290.128 163.857 290.128C134.642 290.128 110.957 333.434 110.957 357.094C110.957 372.55 121.067 386.093 136.222 393.627H136.22Z" fill="#D9E9FD"/>
<path d="M180.344 289.725C180.344 290.814 179.904 291.808 179.186 292.523C178.456 293.241 177.463 293.682 176.373 293.682H151.325C149.147 293.682 147.369 291.916 147.369 289.725C147.369 288.636 147.809 287.643 148.527 286.912C149.243 286.195 150.236 285.754 151.325 285.754H176.373C178.564 285.754 180.344 287.532 180.344 289.725Z" fill="#FCC800"/>
<path d="M189.271 258.503L176.726 285.757H152.27L138.968 256.836C138.499 255.803 139.506 254.714 140.566 255.112C142.194 255.732 143.723 256.587 145.184 257.51C147.459 258.931 150.244 260.087 152.752 259.164C155.041 258.338 156.406 256.022 158.211 254.367C158.818 253.802 159.48 253.305 160.252 252.961C162.829 251.83 165.779 252.85 168.221 254.367C168.511 254.547 168.786 254.726 169.047 254.906C171.624 256.698 174.051 258.945 177.112 259.621C179.703 260.187 182.433 259.525 184.776 258.311C185.74 257.814 186.65 257.359 187.52 256.863C188.582 256.27 189.78 257.401 189.271 258.503Z" fill="#D9E9FD"/>
<path d="M160.69 370.785C160.383 370.501 160.233 370.121 160.233 369.644V365.08C157.097 364.775 154.407 364.016 152.164 362.799C149.919 361.583 148.22 360.095 147.066 358.334C145.912 356.573 145.291 354.695 145.205 352.696C145.205 352.349 145.347 352.034 145.629 351.751C145.912 351.469 146.248 351.329 146.643 351.329H152.523C153.045 351.329 153.447 351.427 153.731 351.623C154.015 351.817 154.286 352.135 154.547 352.567C155.027 354.044 156.039 355.283 157.585 356.283C159.131 357.282 161.255 357.781 163.956 357.781C166.96 357.781 169.237 357.272 170.783 356.249C172.329 355.229 173.101 353.827 173.101 352.045C173.101 350.872 172.711 349.896 171.924 349.113C171.142 348.331 169.953 347.646 168.363 347.058C166.773 346.471 164.431 345.766 161.339 344.94C156.2 343.723 152.431 342.117 150.038 340.116C147.642 338.119 146.442 335.249 146.442 331.512C146.442 328.124 147.674 325.255 150.134 322.909C152.594 320.564 155.958 319.128 160.229 318.606V314.11C160.229 313.63 160.381 313.252 160.686 312.968C160.99 312.687 161.36 312.547 161.796 312.547H165.846C166.326 312.547 166.706 312.689 166.987 312.968C167.271 313.252 167.413 313.632 167.413 314.11V318.738C170.245 319.128 172.671 319.967 174.698 321.246C176.722 322.527 178.268 324.017 179.336 325.711C180.405 327.408 180.98 329.058 181.068 330.665C181.068 331.055 180.937 331.381 180.678 331.644C180.417 331.905 180.089 332.034 179.697 332.034H173.492C172.578 332.034 171.945 331.644 171.597 330.861C171.336 329.47 170.476 328.307 169.018 327.372C167.557 326.44 165.74 325.972 163.563 325.972C161.166 325.972 159.284 326.429 157.911 327.341C156.538 328.253 155.853 329.58 155.853 331.318C155.853 332.491 156.191 333.468 156.867 334.252C157.543 335.035 158.633 335.729 160.135 336.337C161.635 336.946 163.78 337.597 166.57 338.292C170.445 339.162 173.529 340.141 175.816 341.226C178.103 342.313 179.791 343.682 180.88 345.332C181.967 346.985 182.512 349.09 182.512 351.655C182.512 355.436 181.152 358.499 178.429 360.846C175.705 363.192 172.035 364.604 167.419 365.082V369.646C167.419 370.123 167.275 370.503 166.994 370.787C166.71 371.069 166.33 371.211 165.852 371.211H161.802C161.366 371.211 160.997 371.069 160.692 370.787L160.69 370.785Z" fill="white"/>
<path d="M260.567 393.008C259.148 393.834 257.359 393.834 255.955 393.008C170.313 341.879 176.632 259.457 179.096 241.724C179.371 239.715 180.997 238.173 183.019 237.925C225.392 232.679 247.571 213.365 255.171 205.256C256.877 203.424 259.74 203.355 261.545 205.104C269.737 213.129 293.636 232.625 336.299 237.91C338.377 238.171 340.03 239.796 340.249 241.889C342.231 259.937 346.016 342.014 260.567 393.006V393.008Z" fill="#92BFED"/>
<path d="M258.262 383.804C225.287 363.484 203.373 336.038 193.167 302.222C185.857 278.007 186.559 256.976 187.656 246.451C225.958 240.902 248.406 224.326 258.556 214.7C269.346 224.228 293.035 240.836 331.561 246.421C332.356 257.034 332.452 278.08 324.575 302.287C313.585 336.053 291.283 363.465 258.264 383.801L258.262 383.804Z" fill="#A3CAED"/>
<path d="M241.474 310.245H226.982V328.72H241.474V310.245Z" fill="white"/>
<path d="M265.455 301.26H250.963V328.72H265.455V301.26Z" fill="white"/>
<path d="M289.437 273.925H274.945V328.72H289.437V273.925Z" fill="white"/>
<path d="M280.548 266.912C280.594 267.841 279.601 268.454 278.775 267.999L273.712 265.187C253.067 294.988 222.014 298.608 221.569 298.681C221.494 298.69 221.411 298.7 221.338 298.7C220.614 298.7 219.981 298.189 219.86 297.465C219.731 296.657 220.288 295.904 221.096 295.775C221.523 295.699 251.156 292.294 271.104 263.736L266.415 261.126C265.589 260.671 265.608 259.511 266.424 259.064L278.247 252.629C279.008 252.201 279.983 252.74 280.002 253.614L280.55 266.912H280.548Z" fill="white"/>
<path d="M181.933 56.5562C182.012 62.5448 179.664 68.0014 175.781 71.989C171.923 75.9515 166.529 78.468 160.54 78.5473L61.9447 79.8577C49.9695 80.0163 40.1351 70.4177 39.9766 58.4425C39.8973 52.4539 42.2447 46.9973 46.128 43.0327C49.9862 39.0451 55.3801 36.5537 61.3688 36.4744L69.7758 36.3617C69.5901 35.2892 69.4774 34.1895 69.4628 33.0648C69.3189 22.2373 78.0014 13.3211 88.8519 13.1771C93.8389 13.1103 98.3836 14.9069 101.895 17.8929C105.891 7.5536 115.863 0.158559 127.645 0.00206109C143.115 -0.204516 155.82 12.1692 156.027 27.6396C156.062 30.2792 155.729 32.8019 155.101 35.2308L159.964 35.1661C171.942 35.0075 181.774 44.581 181.933 56.5583V56.5562Z" fill="#F0F4F9"/>
<path d="M181.934 56.5562C182.014 62.5427 179.67 67.9972 175.779 71.9931C175.482 72.2977 175.174 72.6024 174.852 72.8716C175.497 70.7578 175.829 68.5314 175.798 66.2215C175.639 54.2483 165.807 44.6748 153.834 44.8334L148.966 44.8981C149.594 42.4734 149.934 39.9444 149.898 37.3111C149.692 21.8387 136.986 9.46701 121.516 9.6715C109.735 9.828 99.7563 17.223 95.7688 27.5582C92.2549 24.5743 87.7102 22.7839 82.721 22.8507C77.9113 22.9154 73.5461 24.6911 70.1699 27.5978C72.4297 19.3911 79.8999 13.3043 88.8558 13.1854C93.8324 13.1186 98.3896 14.9111 101.893 17.8949C105.891 7.54731 115.869 0.164784 127.64 0.00828668C143.112 -0.19829 155.818 12.1755 156.023 27.6354C156.058 30.2791 155.73 32.7977 155.102 35.2349L159.96 35.1702C171.946 35.0116 181.776 44.583 181.936 56.5562H181.934Z" fill="#DDE3EA"/>
<path d="M132.711 100.524L112.17 100.797C111.692 100.803 111.346 101.279 111.494 101.738L120.728 131.519C120.982 132.314 119.905 132.831 119.436 132.14L90.4629 89.7232C90.1291 89.2245 90.4984 88.5568 91.1035 88.5902L113.804 89.7566C114.434 89.79 114.801 89.0555 114.401 88.5735L89.2255 58.4362C88.8333 57.9709 89.1588 57.2531 89.7722 57.2447L112.051 56.9484C112.329 56.9443 112.59 57.1091 112.711 57.3595L133.354 99.4845C133.587 99.9603 133.249 100.517 132.713 100.526L132.711 100.524Z" fill="#FDD333"/>
<path d="M172.336 107.627L161.056 107.777C160.793 107.781 160.603 108.042 160.685 108.294L165.755 124.649C165.895 125.086 165.304 125.369 165.046 124.992L149.135 101.699C148.951 101.425 149.154 101.058 149.486 101.077L161.951 101.717C162.298 101.736 162.5 101.331 162.279 101.068L148.453 84.5172C148.238 84.2626 148.417 83.8682 148.753 83.8641L160.987 83.7013C161.14 83.7013 161.283 83.7889 161.35 83.9266L172.687 107.061C172.814 107.322 172.631 107.629 172.334 107.633L172.336 107.627Z" fill="#FDD333"/>
<path d="M101.674 132.286L90.3939 132.437C90.131 132.441 89.9411 132.702 90.0225 132.954L95.093 149.309C95.2328 149.745 94.6423 150.029 94.3836 149.651L78.473 126.358C78.2893 126.085 78.4917 125.718 78.8235 125.737L91.2891 126.377C91.6355 126.396 91.8379 125.991 91.6167 125.728L77.7906 109.177C77.5757 108.922 77.7552 108.528 78.0911 108.524L90.3251 108.361C90.4774 108.361 90.6214 108.449 90.6881 108.586L102.025 131.721C102.152 131.982 101.969 132.289 101.672 132.293L101.674 132.286Z" fill="#FDD333"/>
<path d="M66.3398 378.04V390.716C66.3398 392.321 67.6461 393.625 69.2486 393.625H135.395C136.989 393.625 138.304 392.319 138.304 390.716V378.04C138.304 376.436 136.987 375.121 135.395 375.121H69.2507C67.6461 375.121 66.3419 376.438 66.3419 378.04H66.3398Z" fill="#FCC800"/>
<path d="M75.8457 379.217V389.54C75.8457 389.899 76.1441 390.197 76.5134 390.197H78.8671C79.2365 390.197 79.5349 389.899 79.5349 389.54V379.217C79.5349 378.848 79.2365 378.549 78.8671 378.549H76.5134C76.1441 378.549 75.8457 378.848 75.8457 379.217Z" fill="#E3B400"/>
<path d="M85.6992 379.217V389.54C85.6992 389.899 85.9976 390.197 86.3669 390.197H88.7207C89.09 390.197 89.3884 389.899 89.3884 389.54V379.217C89.3884 378.848 89.09 378.549 88.7207 378.549H86.3669C85.9976 378.549 85.6992 378.848 85.6992 379.217Z" fill="#E3B400"/>
<path d="M95.5527 379.217V389.54C95.5527 389.899 95.8511 390.197 96.2205 390.197H98.5742C98.9435 390.197 99.2419 389.899 99.2419 389.54V379.217C99.2419 378.848 98.9435 378.549 98.5742 378.549H96.2205C95.8511 378.549 95.5527 378.848 95.5527 379.217Z" fill="#E3B400"/>
<path d="M105.402 379.217V389.54C105.402 389.899 105.701 390.197 106.07 390.197H108.424C108.793 390.197 109.092 389.899 109.092 389.54V379.217C109.092 378.848 108.793 378.549 108.424 378.549H106.07C105.701 378.549 105.402 378.848 105.402 379.217Z" fill="#E3B400"/>
<path d="M115.256 379.217V389.54C115.256 389.899 115.554 390.197 115.924 390.197H118.277C118.647 390.197 118.945 389.899 118.945 389.54V379.217C118.945 378.848 118.647 378.549 118.277 378.549H115.924C115.554 378.549 115.256 378.848 115.256 379.217Z" fill="#E3B400"/>
<path d="M125.109 379.217V389.54C125.109 389.899 125.408 390.197 125.777 390.197H128.131C128.5 390.197 128.799 389.899 128.799 389.54V379.217C128.799 378.848 128.5 378.549 128.131 378.549H125.777C125.408 378.549 125.109 378.848 125.109 379.217Z" fill="#E3B400"/>
<path d="M53.1445 359.532V372.208C53.1445 373.813 54.4508 375.117 56.0533 375.117H122.2C123.794 375.117 125.108 373.811 125.108 372.208V359.532C125.108 357.927 123.792 356.613 122.2 356.613H56.0533C54.4487 356.613 53.1445 357.929 53.1445 359.532Z" fill="#FCC800"/>
<path d="M62.6504 360.709V371.031C62.6504 371.39 62.9488 371.689 63.3181 371.689H65.6718C66.0412 371.689 66.3396 371.39 66.3396 371.031V360.709C66.3396 360.339 66.0412 360.041 65.6718 360.041H63.3181C62.9488 360.041 62.6504 360.339 62.6504 360.709Z" fill="#E3B400"/>
<path d="M72.502 360.709V371.031C72.502 371.39 72.8003 371.689 73.1697 371.689H75.5234C75.8927 371.689 76.1911 371.39 76.1911 371.031V360.709C76.1911 360.339 75.8927 360.041 75.5234 360.041H73.1697C72.8003 360.041 72.502 360.339 72.502 360.709Z" fill="#E3B400"/>
<path d="M82.3555 360.709V371.031C82.3555 371.39 82.6539 371.689 83.0232 371.689H85.3769C85.7463 371.689 86.0446 371.39 86.0446 371.031V360.709C86.0446 360.339 85.7463 360.041 85.3769 360.041H83.0232C82.6539 360.041 82.3555 360.339 82.3555 360.709Z" fill="#E3B400"/>
<path d="M92.207 360.709V371.031C92.207 371.39 92.5054 371.689 92.8748 371.689H95.2285C95.5978 371.689 95.8962 371.39 95.8962 371.031V360.709C95.8962 360.339 95.5978 360.041 95.2285 360.041H92.8748C92.5054 360.041 92.207 360.339 92.207 360.709Z" fill="#E3B400"/>
<path d="M102.059 360.709V371.031C102.059 371.39 102.357 371.689 102.726 371.689H105.08C105.449 371.689 105.748 371.39 105.748 371.031V360.709C105.748 360.339 105.449 360.041 105.08 360.041H102.726C102.357 360.041 102.059 360.339 102.059 360.709Z" fill="#E3B400"/>
<path d="M111.912 360.709V371.031C111.912 371.39 112.211 371.689 112.58 371.689H114.934C115.303 371.689 115.601 371.39 115.601 371.031V360.709C115.601 360.339 115.303 360.041 114.934 360.041H112.58C112.211 360.041 111.912 360.339 111.912 360.709Z" fill="#E3B400"/>
<path d="M338.72 357.045V370.015C338.72 371.14 337.814 372.045 336.698 372.045H327.602C326.486 372.045 325.58 371.14 325.58 370.015V357.045C325.58 355.928 326.486 355.021 327.602 355.021H336.698C337.814 355.021 338.72 355.926 338.72 357.045Z" fill="white"/>
</g>
<defs>
<clipPath id="clip0_2665_25204">
<rect width="524.835" height="400" fill="white" transform="translate(0.0820312)"/>
</clipPath>
</defs>
</svg>
