<svg width="20" height="28" viewBox="0 0 20 28" fill="none" xmlns="http://www.w3.org/2000/svg">
<path d="M5.26131 8.17898C4.68741 8.02564 4.31847 7.72578 4.15753 7.21868C3.88045 6.34493 4.53178 5.4651 5.46399 5.45827C6.66645 5.44916 7.86891 5.45599 9.07061 5.45599C10.6519 5.45599 12.2324 5.45219 13.8136 5.4613C14.0201 5.46282 14.071 5.40892 14.0323 5.21231C13.7734 3.89674 13.0606 2.91746 11.8809 2.27676C11.7336 2.19705 11.6744 2.20616 11.6471 2.39139C11.5636 2.96149 11.4626 3.52932 11.3662 4.09791C11.3131 4.40991 11.162 4.54428 10.8493 4.54731C10.2814 4.55187 9.7136 4.55187 9.14501 4.54731C8.83301 4.54503 8.68877 4.41371 8.63412 4.09411C8.53922 3.5445 8.43295 2.99641 8.36235 2.44377C8.32895 2.18414 8.24772 2.20616 8.06553 2.30788C7.28287 2.7459 6.68391 3.35472 6.30055 4.16927C6.22312 4.334 6.14417 4.50025 5.943 4.542C5.76233 4.5792 5.60443 4.52378 5.48145 4.38714C5.34481 4.23379 5.3524 4.06071 5.43059 3.88383C5.79877 3.05107 6.35749 2.37317 7.09612 1.84254C7.38079 1.63757 7.68445 1.46373 8.00783 1.33012C8.12626 1.28154 8.17484 1.22537 8.19989 1.09328C8.32211 0.449536 8.84439 0.0191099 9.5018 0.00468649C9.8138 -0.00214566 10.1266 0.000890851 10.4393 0.00316824C11.1658 0.0100004 11.6744 0.424485 11.8164 1.13655C11.8369 1.23751 11.8817 1.27699 11.9652 1.31494C13.6998 2.11355 14.7071 3.45265 14.9599 5.35123C14.9759 5.47041 15.0161 5.54632 15.1368 5.60857C15.6864 5.89552 15.9711 6.42008 15.902 6.975C15.8314 7.54359 15.4359 7.97933 14.8483 8.13647C14.8256 8.14254 14.8051 8.15925 14.7876 8.16835C14.7899 8.18885 14.7884 8.20479 14.7922 8.20555C15.7206 8.47201 16.1039 9.21595 15.8177 10.2059C15.5672 11.0713 14.9759 11.573 14.1105 11.7575C13.9328 11.7955 13.8349 11.8608 13.7689 12.0316C13.5707 12.5402 13.2671 12.9843 12.8701 13.3593C12.7653 13.458 12.7243 13.5597 12.7273 13.7039C12.7364 14.2148 12.7387 14.7265 12.7266 15.2374C12.7228 15.4104 12.7653 15.4575 12.9429 15.4575C13.7081 15.459 14.4764 15.4044 15.2355 15.5623C15.6439 15.6473 16.0371 15.7733 16.4258 15.9244C16.7097 16.0344 16.8259 16.2235 16.8244 16.5324C16.8168 18.8045 16.8244 21.0766 16.8137 23.3486C16.813 23.5855 16.8691 23.6462 17.1052 23.6386C17.7011 23.6197 18.2978 23.6326 18.8945 23.6326C18.9955 23.6326 19.1002 23.6622 19.0949 23.4883C19.0661 22.5713 19.1473 21.652 19.0471 20.7365C18.9438 19.7906 18.5734 18.9548 17.9828 18.2124C17.9243 18.1388 17.8537 18.0674 17.8188 17.9831C17.7292 17.7668 17.7778 17.5724 17.9676 17.429C18.168 17.2779 18.4064 17.3136 18.5962 17.5337C19.1534 18.1805 19.5428 18.9184 19.7758 19.739C19.9262 20.2696 20.0021 20.8109 20.0021 21.3635C20.0013 23.1338 20.0021 24.9041 20.0021 26.6744C20.0021 27.1162 19.8495 27.2673 19.4031 27.2673C13.1357 27.2673 6.86914 27.2673 0.601775 27.2673C0.158444 27.2673 0.00737773 27.1154 0.00737773 26.6706C0.00737773 24.8532 -0.00856397 23.0351 0.0142099 21.2178C0.0309107 19.8369 0.509162 18.6124 1.39582 17.5519C1.61142 17.2938 1.83688 17.2612 2.06006 17.4343C2.2711 17.5975 2.31057 17.8617 2.12459 18.0833C1.21515 19.1666 0.855324 20.4222 0.913018 21.8205C0.934274 22.3405 0.924405 22.862 0.912259 23.3821C0.907704 23.5688 0.938069 23.6439 1.15063 23.6379C1.75641 23.6219 2.36219 23.6227 2.96798 23.6379C3.16763 23.6432 3.19268 23.5703 3.19192 23.398C3.18661 21.1259 3.18813 18.8538 3.18889 16.5818C3.18889 16.1476 3.23899 16.0747 3.64436 15.9046C4.49611 15.5448 5.38808 15.4294 6.30663 15.4492C6.62394 15.456 7.05057 15.5881 7.23049 15.3953C7.38839 15.2267 7.25554 14.8024 7.28287 14.4934C7.33676 13.8914 7.26768 13.3562 6.76134 12.9251C6.49945 12.7019 6.3499 12.3595 6.23299 12.0285C6.16922 11.8486 6.06295 11.7917 5.88911 11.7583C4.89844 11.5685 4.18107 10.7539 4.10364 9.7481C4.04518 8.99201 4.40197 8.48719 5.26434 8.17822L5.26131 8.17898ZM10.0036 8.1805C9.01975 8.1805 8.03516 8.17898 7.05133 8.18278C6.95644 8.18278 6.81221 8.11522 6.8198 8.32094C6.85168 9.21823 6.74844 10.1201 6.87825 11.0136C7.09384 12.506 8.46103 13.6386 10.0142 13.6341C11.5681 13.6295 12.9186 12.4916 13.1282 10.99C13.2519 10.1057 13.154 9.21367 13.1851 8.32625C13.1919 8.12433 13.0545 8.18354 12.9566 8.18354C11.9728 8.1805 10.9882 8.18202 10.0043 8.18202L10.0036 8.1805ZM4.09529 19.7147C4.09529 20.6424 4.1006 21.5693 4.09073 22.4969C4.08845 22.6837 4.13931 22.7307 4.32378 22.7284C5.16566 22.7186 6.00829 22.7239 6.85016 22.7239C7.67382 22.7239 8.49671 22.7262 9.31961 22.7201C9.39552 22.7201 9.54355 22.7922 9.54127 22.6389C9.53672 22.3686 9.62554 22.0817 9.49117 21.8296C8.53998 20.0487 7.57893 18.2724 6.62394 16.493C6.57308 16.3981 6.51463 16.3616 6.40455 16.3594C5.70995 16.3419 5.02825 16.3981 4.3625 16.622C4.16285 16.6888 4.08618 16.7685 4.08921 16.9894C4.10364 17.8973 4.09529 18.806 4.09529 19.7147ZM15.9104 19.7041C15.9104 18.7863 15.905 17.8677 15.9149 16.95C15.9172 16.7678 15.8595 16.6941 15.6872 16.6357C15.051 16.4216 14.4005 16.3464 13.7324 16.3548C13.5275 16.3571 13.4189 16.4117 13.3195 16.5977C12.4556 18.2223 11.5864 19.8445 10.702 21.4584C10.5228 21.7848 10.4295 22.106 10.4492 22.4779C10.4591 22.6685 10.4909 22.7292 10.6951 22.7277C12.3516 22.7186 14.0072 22.7163 15.6636 22.7292C15.8975 22.7307 15.9157 22.6487 15.9142 22.4567C15.905 21.5389 15.9104 20.6211 15.9104 19.7026V19.7041ZM10.0013 6.36239C8.55289 6.36239 7.10523 6.36239 5.65681 6.36239C5.57179 6.36239 5.48525 6.3548 5.40175 6.3677C5.15199 6.40566 5.01459 6.559 5.007 6.80876C5.00017 7.04864 5.13301 7.20122 5.36075 7.25816C5.45033 7.28093 5.54902 7.27031 5.64315 7.27031C8.54909 7.27031 11.4543 7.27031 14.3602 7.27031C14.4452 7.27031 14.5325 7.27866 14.6153 7.26271C14.8612 7.21489 15.0009 7.05927 14.9956 6.808C14.9903 6.559 14.8521 6.40414 14.6009 6.36694C14.5174 6.3548 14.4308 6.36163 14.3458 6.36163C12.8974 6.36163 11.4497 6.36163 10.0013 6.36163V6.36239ZM12.3113 16.5643C12.2931 16.5484 12.2757 16.5317 12.2574 16.5157C10.7354 17.5481 9.20953 17.511 7.68217 16.5499C8.44889 17.9725 9.21637 19.3951 10.0043 20.8564C10.7923 19.3906 11.5522 17.9771 12.3113 16.5643ZM8.18395 14.126C8.18395 14.6384 8.18775 15.1182 8.18167 15.5979C8.18016 15.7194 8.2629 15.7574 8.33805 15.8105C9.35832 16.5355 10.6587 16.5332 11.6737 15.8067C11.7503 15.752 11.8247 15.7088 11.8232 15.5904C11.8164 15.1129 11.8202 14.6354 11.8202 14.1252C10.5972 14.6832 9.40084 14.6771 8.18471 14.126H8.18395ZM6.80917 24.5412H8.88159C9.5519 24.5412 9.54279 24.5412 9.55266 23.8709C9.5557 23.666 9.49573 23.6265 9.30215 23.628C7.79756 23.6364 6.29296 23.6326 4.78837 23.6326C4.08238 23.6326 4.08997 23.6326 4.08921 24.331C4.08921 24.5124 4.14159 24.5466 4.31088 24.545C5.14364 24.5359 5.97641 24.5412 6.80917 24.5412ZM13.1676 24.5412H15.2401C15.9134 24.5412 15.9043 24.5412 15.9142 23.8747C15.9172 23.6758 15.8663 23.6265 15.6674 23.628C14.153 23.6371 12.6393 23.6333 11.1248 23.6333C10.4446 23.6333 10.4515 23.6333 10.4515 24.3279C10.4515 24.5025 10.4932 24.5481 10.6693 24.5458C11.5021 24.5359 12.3349 24.5412 13.1676 24.5412ZM6.8031 26.3586H8.87552C9.55114 26.3586 9.54279 26.3586 9.5519 25.6944C9.55494 25.4985 9.51015 25.4438 9.30746 25.4446C7.79376 25.4545 6.2793 25.4499 4.76484 25.4499C4.08314 25.4499 4.08921 25.4499 4.08921 26.1422C4.08921 26.3123 4.12413 26.3654 4.3048 26.3631C5.13757 26.3525 5.97033 26.3586 6.8031 26.3586ZM13.1821 26.3586H15.2545C15.9111 26.3586 15.9005 26.3586 15.9142 25.7057C15.9187 25.4917 15.8625 25.4438 15.6515 25.4446C14.1469 25.4545 12.6423 25.4499 11.137 25.4499C10.4469 25.4499 10.4545 25.4499 10.45 26.1316C10.4484 26.3184 10.4993 26.3654 10.683 26.3631C11.5158 26.3533 12.3485 26.3586 13.1813 26.3586H13.1821ZM2.07297 26.3586C2.38497 26.3586 2.69773 26.3525 3.00973 26.3616C3.1403 26.3654 3.1904 26.3351 3.18813 26.1923C3.17902 25.7004 3.18054 25.2085 3.18813 24.7166C3.18965 24.586 3.1608 24.5367 3.01884 24.539C2.37586 24.5466 1.73212 24.5458 1.08838 24.539C0.957807 24.5374 0.907704 24.5655 0.909982 24.7082C0.919091 25.2002 0.921369 25.6921 0.908463 26.184C0.903909 26.3533 0.978303 26.3631 1.10811 26.3609C1.42998 26.3548 1.75186 26.3586 2.07297 26.3586ZM17.9274 26.3586C18.2583 26.3586 18.5901 26.3518 18.9211 26.3616C19.0607 26.3662 19.0949 26.3191 19.0926 26.1855C19.085 25.6936 19.0843 25.2017 19.0926 24.7098C19.0949 24.5701 19.0494 24.5367 18.9165 24.5382C18.2735 24.5443 17.6298 24.545 16.986 24.5382C16.8464 24.5367 16.8122 24.5807 16.8145 24.7143C16.8221 25.2062 16.8228 25.6982 16.8145 26.1901C16.8122 26.3297 16.857 26.3654 16.9906 26.3616C17.3026 26.3525 17.6154 26.3586 17.9274 26.3586ZM10.0127 0.911845C9.86163 0.911845 9.7098 0.905772 9.55949 0.913363C9.19891 0.931582 9.05239 1.11909 9.11161 1.46753C9.22244 2.11886 9.33403 2.76943 9.43727 3.42152C9.46157 3.57259 9.50104 3.65837 9.68171 3.64243C9.8882 3.62421 10.0985 3.62345 10.305 3.64243C10.4909 3.65913 10.5464 3.58322 10.5707 3.41241C10.6443 2.89848 10.7134 2.38304 10.8212 1.87594C11.0072 1.00294 10.9335 0.888312 10.0142 0.911086L10.0127 0.911845ZM5.92099 10.0108H5.9134C5.9134 9.79441 5.90884 9.57806 5.91492 9.3617C5.91795 9.25391 5.8762 9.18938 5.78283 9.13776C5.45489 8.95861 5.03357 9.18407 5.00776 9.55604C4.97512 10.029 5.31065 10.5718 5.74108 10.7676C5.9096 10.8443 5.9301 10.782 5.92327 10.6317C5.9134 10.4252 5.92099 10.218 5.92099 10.0108ZM14.0922 10.7927C14.7147 10.713 15.0806 9.92877 14.985 9.4733C14.9197 9.16281 14.5219 8.99049 14.238 9.13321C14.1469 9.17875 14.0892 9.23417 14.0907 9.34804C14.0953 9.82933 14.0922 10.3106 14.0922 10.7927Z" fill="#020202"/>
</svg>
