<svg xmlns="http://www.w3.org/2000/svg" xmlns:xlink="http://www.w3.org/1999/xlink" width="98.17" height="114.692" viewBox="0 0 98.17 114.692"><defs><style>.a{fill:#fb2929;}.b{fill:url(#a);}.c{fill:url(#b);}.d{fill:url(#c);}.e{fill:#ffeaaa;}</style><linearGradient id="a" x1="0.982" y1="0.952" x2="0.139" y2="0.161" gradientUnits="objectBoundingBox"><stop offset="0" stop-color="#ff9f0a"/><stop offset="1" stop-color="#ffd056"/></linearGradient><linearGradient id="b" x1="0.924" y1="0.926" x2="0.18" y2="0.179" gradientUnits="objectBoundingBox"><stop offset="0" stop-color="#e18010"/><stop offset="1" stop-color="#ffba2f"/></linearGradient><linearGradient id="c" x1="0.978" y1="0.905" x2="0.197" y2="0.242" gradientUnits="objectBoundingBox"><stop offset="0" stop-color="#ff9b00"/><stop offset="1" stop-color="#ffd056"/></linearGradient></defs><g transform="translate(0.077 -0.075)"><g transform="translate(-0.077)"><path class="a" d="M-4857.423,294.235l-31.783,50.863a2.383,2.383,0,0,0,2.427,3.611l12.551-2.171a2.384,2.384,0,0,1,2.695,1.684l3.55,12.232a2.383,2.383,0,0,0,4.31.6l31.782-50.863Z" transform="translate(4889.575 -247.406)"/><path class="a" d="M-4605.494,310.979l32.243,50.572a2.383,2.383,0,0,0,4.3-.638l3.44-12.263a2.382,2.382,0,0,1,2.679-1.708l12.569,2.057a2.383,2.383,0,0,0,2.395-3.633l-32.243-50.572Z" transform="translate(4644.981 -247.887)"/></g><g transform="translate(0)"><path class="b" d="M-4812.831,97.858l-13.129-7.72a5.111,5.111,0,0,1-2.355-5.687l3.824-14.742a8.715,8.715,0,0,0,0-4.381l-3.824-14.742a5.111,5.111,0,0,1,2.355-5.687l13.129-7.72a8.717,8.717,0,0,0,3.1-3.1l7.721-13.128a5.109,5.109,0,0,1,5.688-2.356l14.741,3.824a8.727,8.727,0,0,0,4.382,0l14.741-3.824a5.112,5.112,0,0,1,5.688,2.356l7.719,13.128a8.731,8.731,0,0,0,3.1,3.1l13.128,7.72a5.111,5.111,0,0,1,2.356,5.687l-3.824,14.742a8.715,8.715,0,0,0,0,4.381l3.824,14.742a5.111,5.111,0,0,1-2.356,5.687l-13.128,7.72a8.733,8.733,0,0,0-3.1,3.1l-7.719,13.128a5.112,5.112,0,0,1-5.688,2.356l-14.741-3.824a8.727,8.727,0,0,0-4.382,0l-14.741,3.824a5.11,5.11,0,0,1-5.687-2.356l-7.721-13.128A8.718,8.718,0,0,0-4812.831,97.858Z" transform="translate(4828.402 -18.359)"/><circle class="c" cx="36.197" cy="36.197" r="36.197" transform="translate(12.923 13.075)"/><circle class="d" cx="30.34" cy="30.34" r="30.34" transform="translate(18.923 19.075)"/><path class="e" d="M-4632.266,234.589l-4.86,2.555a2.729,2.729,0,0,1-3.96-2.878l.927-5.412a2.729,2.729,0,0,0-.785-2.416l-3.932-3.833a2.73,2.73,0,0,1,1.513-4.656l5.434-.79a2.729,2.729,0,0,0,2.055-1.493l2.43-4.924a2.73,2.73,0,0,1,4.9,0l2.43,4.924a2.728,2.728,0,0,0,2.055,1.493l5.434.79a2.73,2.73,0,0,1,1.513,4.656l-3.932,3.833a2.729,2.729,0,0,0-.784,2.416l.928,5.412a2.73,2.73,0,0,1-3.961,2.878l-4.86-2.555A2.73,2.73,0,0,0-4632.266,234.589Z" transform="translate(4679.626 -174.146)"/></g></g></svg>