<svg width="290" height="250" viewBox="0 0 290 250" fill="none" xmlns="http://www.w3.org/2000/svg">
<path d="M39.7666 92.5073C42.0787 95.1687 45.9905 96.7488 45.5644 98.8664C45.1802 100.747 43.35 106.435 43.5177 108.341C43.7342 110.823 46.221 112.544 48.5121 113.881C50.8033 115.218 53.3529 116.792 53.8209 119.242C54.2261 121.36 52.8989 123.529 53.3529 125.64C53.9257 128.314 56.9922 129.798 59.7375 130.841C64.4246 132.626 69.1955 134.238 74.0293 135.671C75.126 131.167 73.3657 126.177 69.5937 123.113C67.8194 121.673 65.619 120.599 64.3617 118.762C62.8599 116.568 63.0345 113.804 62.8389 111.22C62.6433 108.642 61.7213 105.718 59.1367 104.675C57.6978 104.093 55.8956 104.176 54.764 103.172C53.3669 101.937 53.793 99.8452 53.3669 98.1115C52.7801 95.6932 50.3982 93.9083 47.8206 93.1343C45.243 92.3666 42.4699 92.4369 39.7666 92.5073Z" fill="#AB26A3"/>
<path d="M81.2872 141.608C78.074 136.835 79.4151 131.084 82.0975 126.043C84.7798 121.002 89.2643 116.978 93.7908 113.197C98.4011 109.345 103.898 105.392 110.108 105.916C106.546 107.561 105.079 111.482 104.332 115.071C103.584 118.66 103.095 122.55 100.462 125.301C99.1415 126.683 97.2625 127.815 96.8503 129.613C96.4801 131.244 97.4581 132.958 96.99 134.571C96.2286 137.181 92.268 137.916 91.0456 140.373C90.4518 141.563 90.5776 143.022 89.7463 144.077C88.6915 145.421 86.4423 145.536 84.8287 144.781C83.2221 144.026 82.1044 142.638 81.0427 141.301" fill="#AB26A3"/>
<path d="M82.474 155.081C82.474 155.081 81.7825 154.192 80.8535 152.426C79.9174 150.66 78.7788 148.024 77.4516 144.743C76.7811 143.105 76.0686 141.307 75.2443 139.394C74.42 137.488 73.5259 135.441 72.3454 133.413C71.7656 132.395 71.0601 131.404 70.2009 130.515C69.2998 129.657 68.2101 128.928 67.0646 128.25C65.919 127.565 64.7105 126.919 63.551 126.139C62.3984 125.365 61.2947 124.463 60.4635 123.324C59.6183 122.192 59.2341 120.829 59.1433 119.524C59.0315 118.212 59.1223 116.926 59.0106 115.692C58.8988 114.457 58.5845 113.241 57.8789 112.263C57.5157 111.783 57.0687 111.367 56.5308 111.073C55.9929 110.772 55.4062 110.567 54.8124 110.375C53.6389 109.998 52.3815 109.684 51.4595 108.878C50.5235 108.066 50.286 106.876 50.279 105.859C50.265 104.816 50.3977 103.831 50.3628 102.884C50.3349 101.944 50.0974 101.054 49.7481 100.255C49.0356 98.6489 47.925 97.4014 46.8492 96.4481C45.7595 95.4885 44.6908 94.7976 43.8176 94.2474C42.9375 93.7036 42.232 93.3006 41.757 93.0255C41.5334 92.8976 41.3588 92.7888 41.2191 92.712C41.1004 92.6417 41.0375 92.5969 41.0445 92.5969C41.0445 92.5905 41.1143 92.6225 41.2401 92.6864C41.3798 92.7632 41.5684 92.8528 41.7989 92.9743C42.2878 93.2302 43.0003 93.6141 43.9014 94.1451C44.7956 94.6824 45.8783 95.367 46.9959 96.3202C48.0996 97.2734 49.2452 98.5273 49.9926 100.171C50.3558 100.99 50.6143 101.905 50.6492 102.878C50.6911 103.844 50.5584 104.842 50.5863 105.852C50.6003 106.85 50.8378 107.938 51.683 108.667C52.5213 109.403 53.7297 109.71 54.9172 110.081C55.5179 110.273 56.1256 110.484 56.6984 110.798C57.2782 111.105 57.7742 111.559 58.1584 112.077C58.9198 113.126 59.2411 114.393 59.3598 115.66C59.4786 116.933 59.3947 118.212 59.4995 119.498C59.5903 120.778 59.9536 122.057 60.7569 123.145C61.5462 124.232 62.6219 125.115 63.7535 125.876C64.8852 126.638 66.0936 127.284 67.2462 127.981C68.3987 128.672 69.5094 129.414 70.4384 130.304C71.3326 131.231 72.0381 132.242 72.6248 133.272C73.8123 135.326 74.6994 137.379 75.5097 139.298C76.32 141.218 77.0186 143.022 77.6752 144.666C78.9744 147.954 80.0711 150.596 80.9652 152.375C81.4263 153.258 81.7755 153.942 82.0619 154.384C82.1876 154.595 82.2854 154.767 82.3693 154.895C82.4531 155.017 82.481 155.081 82.474 155.081Z" fill="#263238"/>
<path d="M109.961 105.852C109.968 105.865 109.78 105.955 109.409 106.128C109.046 106.294 108.508 106.55 107.845 106.914C106.517 107.637 104.645 108.821 102.752 110.67C101.809 111.597 100.866 112.691 100.007 113.952C99.5881 114.591 99.1759 115.263 98.8057 115.98C98.4355 116.696 98.0723 117.451 97.6601 118.206C97.241 118.961 96.759 119.722 96.1164 120.413C95.4807 121.104 94.6355 121.654 93.7414 122.083C92.8543 122.524 91.9183 122.889 91.101 123.433C90.2837 123.964 89.662 124.731 89.3826 125.646C88.7958 127.469 89.1172 129.446 88.4396 131.244C87.762 133.029 86.4837 134.417 85.6245 135.876C84.7444 137.334 84.2973 138.889 84.1297 140.367C83.9551 141.845 84.0389 143.239 84.2205 144.493C84.6117 147.007 85.3242 148.971 85.7782 150.334C86.0087 150.993 86.1903 151.511 86.3231 151.895C86.4488 152.253 86.5047 152.445 86.4907 152.445C86.4837 152.445 86.4628 152.4 86.4209 152.311C86.372 152.202 86.3161 152.074 86.2532 151.914C86.1065 151.562 85.897 151.044 85.6455 150.372C85.1495 149.022 84.3951 147.065 83.969 144.525C83.7665 143.258 83.6687 141.845 83.8293 140.341C83.99 138.838 84.4371 137.232 85.3312 135.735C86.2113 134.238 87.4617 132.85 88.1043 131.142C88.7539 129.44 88.4326 127.482 89.0403 125.55C89.3337 124.584 90.0253 123.721 90.8984 123.164C91.7576 122.588 92.7076 122.224 93.5808 121.788C94.4609 121.373 95.2502 120.861 95.8579 120.202C96.4726 119.549 96.9476 118.807 97.3668 118.065C97.7789 117.323 98.1421 116.568 98.5263 115.845C98.9035 115.122 99.3296 114.444 99.7557 113.798C100.636 112.525 101.6 111.425 102.571 110.497C104.513 108.642 106.42 107.484 107.775 106.793C108.452 106.441 109.004 106.204 109.381 106.057C109.752 105.916 109.954 105.84 109.961 105.852Z" fill="#263238"/>
<path d="M187.029 128.346C193.581 127.828 200.245 127.309 206.755 128.026C213.265 128.743 219.734 130.879 223.261 134.615C226.23 137.763 226.817 141.627 227.32 145.338C228.758 155.925 230.197 166.513 231.636 177.095C232 179.794 232.356 182.584 231.036 185.149C228.158 190.747 217.561 193.389 209.116 191.636C200.671 189.889 194.559 184.752 191.548 179.187C188.537 173.621 188.153 167.594 187.797 161.683C187.154 150.955 186.519 140.232 185.876 129.504C186.162 129.337 186.449 129.165 186.728 128.998" fill="#263238"/>
<path d="M4.94336 183.223L6.98306 189.774L201.089 241.402L267.855 201.047V195.538L4.94336 183.223Z" fill="#263238"/>
<path d="M74.5794 153.603L267.855 195.538L201.089 235.439L4.94336 183.223L74.5794 153.603Z" fill="#455A64"/>
<path d="M176.55 189.614L139.584 205.973L71.8135 189.045L105.084 172.399L176.55 189.614Z" fill="#263238"/>
<path d="M135.792 188.917L145.606 191.885L154.694 187.362L139.571 182.923L130.734 187.113L135.792 188.917Z" fill="#455A64"/>
<path d="M63.1865 143.342C63.4939 144.467 71.8133 189.045 71.8133 189.045L139.584 205.973L130.65 158.292L63.1865 143.342Z" fill="#263238"/>
<path d="M134.653 179.647C134.751 179.634 135.938 185.514 137.3 192.781C138.663 200.055 139.689 205.96 139.585 205.973C139.487 205.985 138.299 200.106 136.937 192.839C135.575 185.571 134.555 179.666 134.653 179.647Z" fill="#455A64"/>
<path d="M103.198 173.48C104.023 175.431 103.205 177.536 101.375 178.188C99.5451 178.841 97.3866 177.785 96.5624 175.834C95.7381 173.883 96.5554 171.778 98.3855 171.126C100.223 170.48 102.374 171.529 103.198 173.48Z" fill="#455A64"/>
<path d="M130.65 158.292C133.668 155.1 135.421 133.317 135.421 133.317L157.788 135.62C157.788 135.62 154.575 167.486 144.355 171.311C134.136 175.137 134.136 175.137 134.136 175.137" fill="#FFBE9D"/>
<path d="M204.079 165.118C204.079 165.118 213.977 175.265 213.376 183.722L195.822 179.916L202.591 165.118" fill="#3147BA"/>
<path d="M218.175 136.701C217.749 118.922 210.079 110.228 209.758 109.096C200.035 99.4101 187.433 100.101 187.433 100.101L166.596 100.408C166.596 100.408 158.661 101.067 151.166 104.515L150.649 104.65L150.656 104.746C144.767 107.567 138.432 111.956 137.433 119.357L134.918 133.771L149.405 134.404C147.931 139.228 146.304 139.849 148.001 144.615L153.52 152.995C153.52 159.687 153.031 155.637 150.788 170.134L206.761 182.276C210.009 179.346 207.537 171.414 198.875 156.962C197.583 154.806 204.296 133.048 204.296 133.048L216.82 137.066" fill="url(#paint0_linear_560_568)"/>
<path d="M152.661 128.934C152.682 128.947 152.5 129.267 152.158 129.843C151.815 130.419 151.306 131.238 150.719 132.274C149.566 134.321 147.974 137.302 147.82 140.853C147.736 142.612 148.099 144.295 148.784 145.683C149.461 147.078 150.363 148.204 151.152 149.106C151.948 150.008 152.654 150.705 153.129 151.191C153.604 151.677 153.869 151.946 153.848 151.965C153.834 151.978 153.534 151.741 153.024 151.281C152.514 150.82 151.788 150.148 150.956 149.259C150.132 148.364 149.189 147.238 148.477 145.811C147.757 144.391 147.373 142.651 147.457 140.847C147.527 139.036 148.002 137.353 148.581 135.901C149.175 134.443 149.874 133.195 150.495 132.172C151.117 131.148 151.662 130.342 152.039 129.792C152.416 129.222 152.64 128.922 152.661 128.934Z" fill="#263238"/>
<path d="M216.156 121.321C216.163 121.328 216.108 121.373 215.996 121.449C215.884 121.526 215.723 121.654 215.5 121.801C215.039 122.083 214.333 122.467 213.327 122.767C211.337 123.394 208.158 123.503 204.547 122.505C202.745 122.019 200.845 121.302 198.791 120.592C196.744 119.895 194.509 119.166 192.064 118.999C189.626 118.782 187.035 119.082 184.45 119.709C181.859 120.33 179.26 121.251 176.592 122.179C173.924 123.106 171.297 124.002 168.657 124.559C166.023 125.122 163.369 125.307 160.889 124.974C158.416 124.623 156.195 123.81 154.176 123.03C152.151 122.243 150.285 121.469 148.518 120.938C146.751 120.407 145.081 120.132 143.608 120.061C142.134 120.004 140.862 120.151 139.863 120.407C137.852 120.938 136.986 121.724 136.958 121.667C136.951 121.661 137.007 121.622 137.118 121.539C137.23 121.462 137.398 121.341 137.628 121.2C138.096 120.931 138.816 120.56 139.822 120.279C140.827 119.997 142.12 119.831 143.615 119.869C145.109 119.92 146.8 120.183 148.595 120.707C150.39 121.225 152.269 121.993 154.295 122.767C156.321 123.535 158.514 124.322 160.945 124.661C163.376 124.981 165.981 124.795 168.58 124.232C171.185 123.682 173.798 122.793 176.466 121.859C179.128 120.931 181.74 120.01 184.36 119.383C186.972 118.756 189.612 118.455 192.099 118.686C194.6 118.865 196.856 119.62 198.903 120.33C200.957 121.053 202.843 121.782 204.624 122.275C208.186 123.285 211.316 123.215 213.293 122.639C215.276 122.076 216.122 121.264 216.156 121.321Z" fill="#263238"/>
<path d="M198.973 153.104C198.98 153.117 198.819 153.168 198.526 153.264C198.191 153.36 197.75 153.488 197.213 153.648C196.067 153.961 194.398 154.428 192.267 154.729C191.205 154.883 190.018 154.966 188.746 154.921C187.475 154.87 186.127 154.646 184.758 154.275C182.013 153.539 179.233 152.202 176.194 151.146C174.671 150.635 173.141 150.232 171.64 149.95C170.138 149.681 168.664 149.521 167.26 149.445C164.445 149.323 161.902 149.534 159.807 149.912C157.711 150.283 156.055 150.756 154.938 151.14C154.372 151.313 153.953 151.492 153.653 151.594C153.359 151.697 153.198 151.748 153.198 151.735C153.191 151.722 153.338 151.652 153.625 151.53C153.911 151.415 154.323 151.21 154.889 151.018C156 150.596 157.655 150.084 159.758 149.675C161.86 149.266 164.431 149.029 167.281 149.131C168.706 149.202 170.194 149.355 171.716 149.624C173.239 149.899 174.783 150.308 176.327 150.827C179.4 151.895 182.159 153.232 184.863 153.974C186.211 154.345 187.524 154.575 188.767 154.633C190.011 154.691 191.177 154.62 192.232 154.486C194.342 154.217 196.018 153.789 197.171 153.513C197.723 153.379 198.163 153.27 198.505 153.187C198.805 153.13 198.966 153.098 198.973 153.104Z" fill="#263238"/>
<path d="M173.596 171.881C173.596 171.9 173.261 171.881 172.667 171.791C172.073 171.701 171.221 171.529 170.18 171.254C168.098 170.729 165.36 169.641 162.231 168.797C159.101 167.959 156.077 167.889 154.023 168.388C151.948 168.861 150.908 169.705 150.866 169.629C150.859 169.622 150.922 169.565 151.04 169.475C151.166 169.392 151.341 169.238 151.606 169.104C152.109 168.797 152.905 168.432 153.953 168.157C156.049 167.588 159.15 167.626 162.329 168.477C165.493 169.334 168.203 170.454 170.25 171.03C171.27 171.33 172.101 171.542 172.688 171.669C173.274 171.791 173.603 171.855 173.596 171.881Z" fill="#263238"/>
<g opacity="0.1">
<path d="M199.427 132.779C199.427 132.779 190.304 151.191 198.26 163.238L201.99 161.965L198.868 156.974C198.868 156.974 198.532 155.989 198.763 154.659C199.224 152.036 200.111 147.756 201.299 143.437L199.427 132.779Z" fill="black"/>
</g>
<path d="M184.199 66.2969C188.698 69.8859 190.702 75.5476 190.849 81.0111C190.996 86.4745 190.472 92.6736 190.612 98.3738L199.734 98.2074C205.77 98.3738 212.594 97.7916 218.364 97.3822C219.321 97.3118 220.327 97.2286 221.123 96.736C222.45 95.9108 222.751 94.2666 222.932 92.808C223.219 90.5113 223.498 88.1378 222.772 85.9243C222.052 83.7108 220.055 81.67 217.54 81.5101C216.653 81.4525 215.724 81.6188 214.899 81.3117C213.928 80.9535 213.356 80.0131 213.125 79.079C212.895 78.145 212.93 77.1726 212.776 76.2258C212.315 73.4045 210.024 70.8967 207.069 69.9818C205.197 69.4061 202.941 69.3229 201.711 67.9091C200.216 66.1881 201.194 63.6995 201.278 61.5052C201.383 58.4856 199.441 55.4788 196.493 54.1161C193.545 52.7535 189.752 53.1053 187.161 54.9798" fill="#263238"/>
<path d="M177.137 110.567C171.416 110.567 166.708 106.435 166.463 101.201C166.268 96.9919 166.107 92.9999 166.107 92.9999C166.107 92.9999 157.348 92.2578 156.705 84.3122C156.062 76.3729 156.335 58.0378 156.335 58.0378C166.114 53.5148 177.793 54.1993 186.867 59.8163L188.215 60.6479L187.817 100.869C187.768 106.243 182.997 110.567 177.137 110.567Z" fill="#FFBE9D"/>
<path d="M160.177 73.1102C160.666 72.656 160.652 71.9203 160.156 71.4725C159.66 71.0246 158.857 71.0374 158.368 71.4916C157.879 71.9459 157.893 72.6816 158.389 73.1294C158.892 73.5772 159.695 73.5644 160.177 73.1102Z" fill="#263238"/>
<path d="M157.089 70.6792C157.236 70.8071 158.046 70.161 159.241 70.0906C160.435 70.001 161.343 70.532 161.462 70.3849C161.525 70.3209 161.371 70.0778 160.973 69.8347C160.582 69.5916 159.932 69.3741 159.185 69.4253C158.437 69.4764 157.83 69.7771 157.48 70.0714C157.131 70.3593 157.019 70.6216 157.089 70.6792Z" fill="#263238"/>
<path d="M170.919 71.3573C170.346 71.722 170.214 72.4449 170.612 72.9695C171.01 73.494 171.799 73.6156 172.372 73.2509C172.945 72.8863 173.078 72.1634 172.679 71.6388C172.274 71.1142 171.485 70.9862 170.919 71.3573Z" fill="#263238"/>
<path d="M170.13 70.9223C170.277 71.0502 171.087 70.4041 172.282 70.3337C173.476 70.2441 174.384 70.7751 174.503 70.628C174.566 70.564 174.412 70.3209 174.014 70.0778C173.623 69.8347 172.973 69.6172 172.226 69.6684C171.478 69.7195 170.871 70.0202 170.521 70.3145C170.172 70.6088 170.06 70.8647 170.13 70.9223Z" fill="#263238"/>
<path d="M165.89 79.4245C165.89 79.3413 165.143 79.2454 163.934 79.1558C163.62 79.143 163.368 79.0918 163.334 78.9383C163.264 78.7656 163.368 78.4585 163.501 78.1066C163.76 77.3645 164.025 76.616 164.297 75.8291C165.387 72.5856 166.128 69.9179 165.946 69.8667C165.764 69.8155 164.738 72.4001 163.641 75.6436C163.382 76.4369 163.138 77.1918 162.893 77.9339C162.803 78.2729 162.607 78.6696 162.803 79.1366C162.907 79.3669 163.159 79.5269 163.375 79.5652C163.585 79.61 163.76 79.6036 163.913 79.5972C165.136 79.5716 165.89 79.5077 165.89 79.4245Z" fill="#263238"/>
<path d="M169.852 80.4161C171.053 79.6676 166.534 82.2778 164.096 82.3098C164.096 82.3098 165.625 84.2738 168.07 83.295C170.613 82.2714 169.852 80.4161 169.852 80.4161Z" fill="white"/>
<path d="M166.086 92.8912C166.086 92.8912 171.597 92.9871 177.199 89.3086C177.199 89.3086 174.908 95.1815 166.205 94.9511L166.086 92.8912Z" fill="#EB996E"/>
<path d="M187.628 77.0062C184.485 79.3221 180.692 73.3277 179.009 69.5724C177.325 65.8107 176.801 61.6587 176.557 57.5644C176.48 56.2209 176.466 54.7495 177.318 53.6939C178.219 52.5807 178.527 53.8666 179.602 52.9006C181.453 51.2245 179.693 51.2181 181.544 51.4228C184.709 51.7746 191.61 56.7967 192.183 59.8355C192.763 62.8742 192.295 65.9962 191.827 69.0542C191.61 70.4488 191.4 71.8435 191.184 73.2445C191.03 74.2297 190.863 75.2597 190.283 76.0722C189.689 76.8847 188.557 77.4157 187.628 77.0062Z" fill="#263238"/>
<path d="M187.74 70.4744C187.747 69.8347 188.292 69.2909 188.991 69.2717C190.611 69.2333 193.259 69.8219 193.503 73.9099C193.86 79.7571 187.719 78.2985 187.699 78.1322C187.685 77.9978 187.719 72.7455 187.74 70.4744Z" fill="#FFBE9D"/>
<path d="M189.109 75.8355C189.137 75.8163 189.228 75.8995 189.417 75.9698C189.605 76.0402 189.92 76.0722 190.248 75.9443C190.912 75.682 191.414 74.6712 191.387 73.6156C191.373 73.0846 191.219 72.5792 190.988 72.1761C190.765 71.7603 190.451 71.4724 190.101 71.434C189.759 71.3829 189.528 71.5812 189.459 71.7475C189.382 71.9139 189.431 72.029 189.396 72.0418C189.382 72.0546 189.256 71.9522 189.291 71.7091C189.312 71.594 189.375 71.4532 189.521 71.3317C189.668 71.2101 189.892 71.1398 190.129 71.1526C190.625 71.159 191.093 71.5492 191.345 71.997C191.624 72.4448 191.813 73.0078 191.827 73.6092C191.855 74.7863 191.268 75.9251 190.36 76.2193C189.92 76.3473 189.535 76.2449 189.333 76.117C189.13 75.9762 189.088 75.8419 189.109 75.8355Z" fill="#EB996E"/>
<path d="M177.277 53.7579C175.495 59.1381 170.871 63.6611 165.129 65.6444C164.64 65.8171 164.04 65.9514 163.628 65.6571C163.097 65.2733 163.299 64.4672 163.746 64.0002C164.193 63.5332 164.815 63.2069 165.143 62.6631C164.061 63.2261 162.978 63.7891 161.895 64.3457C161.364 64.6208 160.819 64.9022 160.219 64.9918C159.618 65.0814 158.933 64.947 158.556 64.512C158.172 64.077 158.242 63.3221 158.78 63.0598C158.046 64.1601 156.16 64.2625 155.085 63.4372C154.009 62.612 153.708 61.1405 154.072 59.893C154.428 58.6455 155.343 57.5963 156.349 56.6943C160.84 52.6895 167.372 51.2437 173.623 50.847C175.551 50.7255 177.514 50.6935 179.4 51.0773C181.286 51.4612 184.206 51.3204 187.608 54.7367" fill="#263238"/>
<path d="M161.93 67.6915C161.86 67.8707 160.714 67.6404 159.31 67.6788C157.906 67.6979 156.775 67.973 156.698 67.7939C156.614 67.634 157.739 67.039 159.296 67.0134C160.854 66.975 162.007 67.5252 161.93 67.6915Z" fill="#263238"/>
<path d="M174.685 67.8195C174.615 67.9986 173.512 67.7811 172.157 67.7235C170.801 67.6532 169.684 67.7683 169.628 67.5828C169.572 67.4164 170.711 66.9814 172.192 67.0582C173.679 67.1222 174.762 67.6596 174.685 67.8195Z" fill="#263238"/>
<path d="M191.387 64.3904C191.289 64.3393 191.632 63.7571 191.876 62.7527C192.128 61.7611 192.211 60.3089 191.646 58.8566C191.073 57.4044 189.99 56.336 189.11 55.7155C188.223 55.0885 187.559 54.839 187.594 54.7367C187.615 54.6599 188.369 54.7559 189.403 55.3252C190.423 55.8818 191.687 57.0078 192.33 58.6263C192.966 60.2449 192.77 61.8507 192.372 62.8742C191.974 63.9234 191.457 64.4352 191.387 64.3904Z" fill="#455A64"/>
<path d="M199.427 132.779L204.394 161.139L164.354 174.836L170.83 187.068L212.972 175.009C219.852 173.039 224.057 166.686 222.786 160.186L217.408 132.779H199.427Z" fill="#FFBE9D"/>
<path d="M164.599 174.747C164.599 174.747 157.146 172.572 153.569 171.733C152.179 171.407 146.214 174.292 142.092 176.685C142.092 176.685 136.42 179.769 136.875 180.715C137.377 181.758 139.473 181.547 142.805 180.108C142.805 180.108 141.638 183.204 143.93 183.14C143.93 183.14 142.798 186.486 144.936 186.831C147.08 187.177 147.583 182.91 149.469 182.679C151.362 182.449 155.267 182.219 155.267 182.219C155.267 182.219 158.522 187.151 161.037 187.497C163.558 187.842 171.067 187.062 171.067 187.062L164.599 174.747Z" fill="#FFBE9D"/>
<path d="M149.511 176.103C149.567 176.18 148.295 176.999 146.682 177.933C145.068 178.867 143.713 179.558 143.657 179.481C143.601 179.404 144.872 178.585 146.486 177.651C148.1 176.717 149.455 176.026 149.511 176.103Z" fill="#EB996E"/>
<path d="M150.146 178.003C150.188 178.086 148.651 178.822 146.709 179.641C144.768 180.46 143.161 181.055 143.119 180.971C143.077 180.888 144.614 180.159 146.556 179.334C148.498 178.521 150.104 177.92 150.146 178.003Z" fill="#EB996E"/>
<path d="M148.994 182.616C149.008 182.705 147.939 182.916 146.605 183.083C145.271 183.249 144.181 183.313 144.167 183.223C144.153 183.134 145.222 182.923 146.556 182.756C147.883 182.59 148.98 182.526 148.994 182.616Z" fill="#EB996E"/>
<path d="M128.201 20.088H68.2744V90.0699H128.201V20.088Z" fill="#FAFAFA"/>
<path d="M128.201 90.0635C128.201 90.0635 128.194 89.9483 128.194 89.7244C128.194 89.4941 128.187 89.1678 128.187 88.7456C128.18 87.8755 128.173 86.6024 128.166 84.9455C128.159 81.6188 128.138 76.7631 128.124 70.6152C128.103 58.3193 128.075 40.8414 128.04 20.088L128.201 20.2352C110.319 20.2416 89.8868 20.248 68.2814 20.2544H68.2744L68.456 20.088C68.442 46.0297 68.435 70.1162 68.4281 90.0699L68.2744 89.9291C86.3383 89.9611 101.301 89.9803 111.758 89.9995C116.99 90.0123 121.09 90.0251 123.898 90.0379C125.295 90.0443 126.364 90.0507 127.097 90.0507C127.824 90.0571 128.201 90.0635 128.201 90.0635C128.201 90.0635 127.838 90.0763 127.125 90.0763C126.399 90.0827 125.337 90.0827 123.954 90.0891C121.16 90.0955 117.066 90.1082 111.848 90.1274C101.371 90.1466 86.3732 90.1722 68.2744 90.1978H68.1207V90.0571C68.1137 70.1034 68.0998 46.0169 68.0928 20.0752V19.9089H68.2744H68.2814C89.8868 19.9153 110.326 19.9217 128.201 19.9281H128.362V20.0752C128.327 40.8734 128.299 58.3768 128.278 70.6983C128.257 76.8335 128.243 81.6764 128.236 84.9967C128.229 86.6408 128.222 87.9075 128.215 88.7712C128.208 89.1934 128.208 89.5133 128.208 89.7372C128.208 89.9611 128.201 90.0635 128.201 90.0635Z" fill="#263238"/>
<path d="M120.482 31.6866C120.482 31.8722 115.425 32.0193 109.187 32.0193C102.949 32.0193 97.8916 31.8722 97.8916 31.6866C97.8916 31.5011 102.949 31.354 109.187 31.354C115.425 31.354 120.482 31.5011 120.482 31.6866Z" fill="#263238"/>
<path d="M120.482 35.7362C120.482 35.9218 115.425 36.0689 109.187 36.0689C102.949 36.0689 97.8916 35.9218 97.8916 35.7362C97.8916 35.5507 102.949 35.4036 109.187 35.4036C115.425 35.4036 120.482 35.5507 120.482 35.7362Z" fill="#263238"/>
<path d="M120.482 40.3808C120.482 40.5663 115.425 40.7134 109.187 40.7134C102.949 40.7134 97.8916 40.5663 97.8916 40.3808C97.8916 40.1952 102.949 40.0481 109.187 40.0481C115.425 40.0481 120.482 40.1952 120.482 40.3808Z" fill="#263238"/>
<path d="M94.0566 50.1305C94.0566 50.316 89.5861 50.4632 84.0747 50.4632C78.5633 50.4632 74.0928 50.316 74.0928 50.1305C74.0928 49.945 78.5633 49.7979 84.0747 49.7979C89.5861 49.7979 94.0566 49.9514 94.0566 50.1305Z" fill="#263238"/>
<path d="M94.0566 54.1801C94.0566 54.3656 89.5861 54.5128 84.0747 54.5128C78.5633 54.5128 74.0928 54.3656 74.0928 54.1801C74.0928 53.9946 78.5633 53.8474 84.0747 53.8474C89.5861 53.8474 94.0566 53.9946 94.0566 54.1801Z" fill="#263238"/>
<path d="M94.0566 58.8247C94.0566 59.0102 89.5861 59.1573 84.0747 59.1573C78.5633 59.1573 74.0928 59.0102 74.0928 58.8247C74.0928 58.6391 78.5633 58.492 84.0747 58.492C89.5861 58.492 94.0566 58.6455 94.0566 58.8247Z" fill="#263238"/>
<path d="M94.0566 63.6867C94.0566 63.8723 89.5861 64.0194 84.0747 64.0194C78.5633 64.0194 74.0928 63.8723 74.0928 63.6867C74.0928 63.5012 78.5633 63.3541 84.0747 63.3541C89.5861 63.3541 94.0566 63.5076 94.0566 63.6867Z" fill="#263238"/>
<path d="M94.0566 67.7363C94.0566 67.9218 89.5861 68.069 84.0747 68.069C78.5633 68.069 74.0928 67.9218 74.0928 67.7363C74.0928 67.5508 78.5633 67.4037 84.0747 67.4037C89.5861 67.4037 94.0566 67.5508 94.0566 67.7363Z" fill="#263238"/>
<path d="M94.0566 72.3809C94.0566 72.5664 89.5861 72.7136 84.0747 72.7136C78.5633 72.7136 74.0928 72.5664 74.0928 72.3809C74.0928 72.1954 78.5633 72.0482 84.0747 72.0482C89.5861 72.0482 94.0566 72.2018 94.0566 72.3809Z" fill="#263238"/>
<path d="M94.0566 77.2429C94.0566 77.4285 89.5861 77.5756 84.0747 77.5756C78.5633 77.5756 74.0928 77.4285 74.0928 77.2429C74.0928 77.0574 78.5633 76.9103 84.0747 76.9103C89.5861 76.9103 94.0566 77.0638 94.0566 77.2429Z" fill="#263238"/>
<path d="M94.0566 81.2925C94.0566 81.4781 89.5861 81.6252 84.0747 81.6252C78.5633 81.6252 74.0928 81.4781 74.0928 81.2925C74.0928 81.107 78.5633 80.9599 84.0747 80.9599C89.5861 80.9599 94.0566 81.107 94.0566 81.2925Z" fill="#263238"/>
<path d="M121.621 81.2925C121.621 81.4781 116.752 81.6252 110.752 81.6252C104.752 81.6252 99.8828 81.4781 99.8828 81.2925C99.8828 81.107 104.745 80.9599 110.752 80.9599C116.759 80.9599 121.621 81.107 121.621 81.2925Z" fill="#263238"/>
<path d="M121.195 67.7363C121.195 67.9218 116.326 68.069 110.326 68.069C104.326 68.069 99.457 67.9218 99.457 67.7363C99.457 67.5508 104.319 67.4037 110.326 67.4037C116.326 67.4037 121.195 67.5508 121.195 67.7363Z" fill="#263238"/>
<path d="M121.195 71.7859C121.195 71.9714 116.326 72.1186 110.326 72.1186C104.326 72.1186 99.457 71.9714 99.457 71.7859C99.457 71.6004 104.319 71.4532 110.326 71.4532C116.326 71.4532 121.195 71.6004 121.195 71.7859Z" fill="#263238"/>
<path d="M121.195 76.4305C121.195 76.616 116.326 76.7631 110.326 76.7631C104.326 76.7631 99.457 76.616 99.457 76.4305C99.457 76.245 104.319 76.0978 110.326 76.0978C116.326 76.0978 121.195 76.245 121.195 76.4305Z" fill="#263238"/>
<path d="M119.735 47.4628H100.581V60.6543H119.735V47.4628Z" fill="#AB26A3"/>
<g opacity="0.3">
<path d="M100.581 56.6431L105.499 53.6427L110.759 56.6431L116.403 52.8302L119.735 54.7367V60.6543H100.581V56.6431Z" fill="black"/>
</g>
<g opacity="0.3">
<path d="M112.63 51.2501C112.63 52.1201 111.862 52.8302 110.905 52.8302C109.955 52.8302 109.18 52.1265 109.18 51.2501C109.18 50.38 109.948 49.6699 110.905 49.6699C111.862 49.6763 112.63 50.38 112.63 51.2501Z" fill="black"/>
</g>
<path d="M88.5172 31.162L88.6569 33.849H88.3076C88.2378 33.3756 88.147 33.0365 88.0282 32.8382C87.8396 32.5119 87.5812 32.2688 87.2668 32.1153C86.9525 31.9617 86.5334 31.885 86.0165 31.885H84.2562V40.6303C84.2562 41.334 84.34 41.7754 84.5077 41.9482C84.7382 42.1849 85.1014 42.3 85.5834 42.3H86.0165V42.6135H80.7147V42.3H81.1547C81.6856 42.3 82.0558 42.1529 82.2794 41.8586C82.4121 41.6795 82.4819 41.27 82.4819 40.6239V31.8786H80.9801C80.3933 31.8786 79.9812 31.9169 79.7367 32.0001C79.4154 32.1089 79.143 32.3136 78.9194 32.6143C78.6889 32.9214 78.5562 33.3308 78.5143 33.849H78.165L78.3117 31.162H88.5172Z" fill="#263238"/>
<defs>
<linearGradient id="paint0_linear_560_568" x1="176.547" y1="100.09" x2="176.547" y2="182.276" gradientUnits="userSpaceOnUse">
<stop stop-color="#AB26A3"/>
<stop offset="1" stop-color="#3147BA"/>
</linearGradient>
</defs>
</svg>
