<svg width="57" height="56" viewBox="0 0 57 56" fill="none" xmlns="http://www.w3.org/2000/svg">
<g clip-path="url(#clip0_4271_18463)">
<path d="M28.5 47.1875C23.2786 47.1875 18.271 45.1133 14.5788 41.4212C10.8867 37.729 8.8125 32.7214 8.8125 27.5C8.8125 22.2786 10.8867 17.271 14.5788 13.5788C18.271 9.88671 23.2786 7.8125 28.5 7.8125C33.7214 7.8125 38.729 9.88671 42.4212 13.5788C46.1133 17.271 48.1875 22.2786 48.1875 27.5C48.1875 32.7214 46.1133 37.729 42.4212 41.4212C38.729 45.1133 33.7214 47.1875 28.5 47.1875ZM28.5 50C34.4674 50 40.1903 47.6295 44.4099 43.4099C48.6295 39.1903 51 33.4674 51 27.5C51 21.5326 48.6295 15.8097 44.4099 11.5901C40.1903 7.37053 34.4674 5 28.5 5C22.5326 5 16.8097 7.37053 12.5901 11.5901C8.37053 15.8097 6 21.5326 6 27.5C6 33.4674 8.37053 39.1903 12.5901 43.4099C16.8097 47.6295 22.5326 50 28.5 50Z" fill="#E10722"/>
<path d="M25.6934 35.9379C25.6934 35.5685 25.7661 35.2028 25.9074 34.8616C26.0488 34.5204 26.256 34.2103 26.5171 33.9492C26.7783 33.688 27.0883 33.4808 27.4296 33.3395C27.7708 33.1981 28.1365 33.1254 28.5059 33.1254C28.8752 33.1254 29.2409 33.1981 29.5822 33.3395C29.9234 33.4808 30.2334 33.688 30.4946 33.9492C30.7558 34.2103 30.9629 34.5204 31.1043 34.8616C31.2456 35.2028 31.3184 35.5685 31.3184 35.9379C31.3184 36.6838 31.022 37.3992 30.4946 37.9266C29.9672 38.4541 29.2518 38.7504 28.5059 38.7504C27.7599 38.7504 27.0446 38.4541 26.5171 37.9266C25.9897 37.3992 25.6934 36.6838 25.6934 35.9379ZM25.969 19.0488C25.9315 18.694 25.9691 18.3353 26.0792 17.9959C26.1894 17.6565 26.3696 17.3441 26.6083 17.0789C26.847 16.8137 27.1388 16.6017 27.4647 16.4565C27.7906 16.3113 28.1434 16.2363 28.5002 16.2363C28.857 16.2363 29.2098 16.3113 29.5358 16.4565C29.8617 16.6017 30.1535 16.8137 30.3921 17.0789C30.6308 17.3441 30.8111 17.6565 30.9212 17.9959C31.0314 18.3353 31.0689 18.694 31.0315 19.0488L30.0471 28.9123C30.014 29.2997 29.8367 29.6607 29.5503 29.9237C29.2639 30.1868 28.8891 30.3327 28.5002 30.3327C28.1113 30.3327 27.7366 30.1868 27.4502 29.9237C27.1637 29.6607 26.9864 29.2997 26.9534 28.9123L25.969 19.0488Z" fill="#E10722"/>
</g>
<defs>
<clipPath id="clip0_4271_18463">
<rect width="45" height="45" fill="white" transform="translate(6 5)"/>
</clipPath>
</defs>
</svg>
