<svg width="20" height="28" viewBox="0 0 20 28" fill="none" xmlns="http://www.w3.org/2000/svg">
<g clip-path="url(#clip0_2665_7380)">
<path d="M5.26131 8.17849C4.68741 8.02515 4.31847 7.72529 4.15753 7.2182C3.88045 6.34444 4.53178 5.46461 5.46399 5.45778C6.66645 5.44867 7.86891 5.4555 9.07061 5.4555C10.6519 5.4555 12.2324 5.4517 13.8136 5.46081C14.0201 5.46233 14.071 5.40843 14.0323 5.21182C13.7734 3.89625 13.0606 2.91697 11.8809 2.27627C11.7336 2.19656 11.6744 2.20567 11.6471 2.3909C11.5636 2.961 11.4626 3.52883 11.3662 4.09742C11.3131 4.40942 11.162 4.54379 10.8493 4.54682C10.2814 4.55138 9.7136 4.55138 9.14501 4.54682C8.83301 4.54455 8.68877 4.41322 8.63412 4.09362C8.53922 3.54401 8.43295 2.99592 8.36235 2.44328C8.32895 2.18366 8.24772 2.20567 8.06553 2.30739C7.28287 2.74541 6.68391 3.35423 6.30055 4.16878C6.22312 4.33351 6.14417 4.49976 5.943 4.54151C5.76233 4.57871 5.60443 4.52329 5.48145 4.38665C5.34481 4.2333 5.3524 4.06022 5.43059 3.88335C5.79877 3.05058 6.35749 2.37268 7.09612 1.84205C7.38079 1.63708 7.68445 1.46324 8.00783 1.32964C8.12626 1.28105 8.17484 1.22488 8.19989 1.09279C8.32211 0.449048 8.84439 0.0186217 9.5018 0.00419821C9.8138 -0.00263394 10.1266 0.00040257 10.4393 0.00267996C11.1658 0.00951211 11.6744 0.423996 11.8164 1.13606C11.8369 1.23702 11.8817 1.2765 11.9652 1.31445C13.6998 2.11306 14.7071 3.45216 14.9599 5.35074C14.9759 5.46992 15.0161 5.54584 15.1368 5.60808C15.6864 5.89504 15.9711 6.41959 15.902 6.97452C15.8314 7.5431 15.4359 7.97884 14.8483 8.13598C14.8256 8.14206 14.8051 8.15876 14.7876 8.16787C14.7899 8.18836 14.7884 8.2043 14.7922 8.20506C15.7206 8.47152 16.1039 9.21546 15.8177 10.2054C15.5672 11.0708 14.9759 11.5726 14.1105 11.757C13.9328 11.795 13.8349 11.8603 13.7689 12.0311C13.5707 12.5397 13.2671 12.9838 12.8701 13.3588C12.7653 13.4575 12.7243 13.5592 12.7273 13.7034C12.7364 14.2143 12.7387 14.726 12.7266 15.2369C12.7228 15.41 12.7653 15.457 12.9429 15.457C13.7081 15.4585 14.4764 15.4039 15.2355 15.5618C15.6439 15.6468 16.0371 15.7728 16.4258 15.9239C16.7097 16.034 16.8259 16.223 16.8244 16.5319C16.8168 18.804 16.8244 21.0761 16.8137 23.3482C16.813 23.585 16.8691 23.6457 17.1052 23.6381C17.7011 23.6192 18.2978 23.6321 18.8945 23.6321C18.9955 23.6321 19.1002 23.6617 19.0949 23.4878C19.0661 22.5708 19.1473 21.6515 19.0471 20.736C18.9438 19.7901 18.5734 18.9543 17.9828 18.2119C17.9243 18.1383 17.8537 18.0669 17.8188 17.9826C17.7292 17.7663 17.7778 17.572 17.9676 17.4285C18.168 17.2774 18.4064 17.3131 18.5962 17.5332C19.1534 18.18 19.5428 18.9179 19.7758 19.7385C19.9262 20.2691 20.0021 20.8104 20.0021 21.363C20.0013 23.1333 20.0021 24.9036 20.0021 26.6739C20.0021 27.1157 19.8495 27.2668 19.4031 27.2668C13.1357 27.2668 6.86914 27.2668 0.601775 27.2668C0.158444 27.2668 0.00737773 27.115 0.00737773 26.6701C0.00737773 24.8528 -0.00856397 23.0346 0.0142099 21.2173C0.0309107 19.8364 0.509162 18.612 1.39582 17.5515C1.61142 17.2934 1.83688 17.2607 2.06006 17.4338C2.2711 17.597 2.31057 17.8612 2.12459 18.0828C1.21515 19.1661 0.855324 20.4217 0.913018 21.82C0.934274 22.34 0.924405 22.8616 0.912259 23.3816C0.907704 23.5683 0.938069 23.6435 1.15063 23.6374C1.75641 23.6214 2.36219 23.6222 2.96798 23.6374C3.16763 23.6427 3.19268 23.5698 3.19192 23.3975C3.18661 21.1254 3.18813 18.8534 3.18889 16.5813C3.18889 16.1471 3.23899 16.0742 3.64436 15.9041C4.49611 15.5443 5.38808 15.4289 6.30663 15.4487C6.62394 15.4555 7.05057 15.5876 7.23049 15.3948C7.38839 15.2262 7.25554 14.8019 7.28287 14.4929C7.33676 13.8909 7.26768 13.3558 6.76134 12.9246C6.49945 12.7014 6.3499 12.359 6.23299 12.028C6.16922 11.8481 6.06295 11.7912 5.88911 11.7578C4.89844 11.568 4.18107 10.7535 4.10364 9.74761C4.04518 8.99152 4.40197 8.4867 5.26434 8.17774L5.26131 8.17849ZM10.0036 8.18001C9.01975 8.18001 8.03516 8.17849 7.05133 8.18229C6.95644 8.18229 6.81221 8.11473 6.8198 8.32045C6.85168 9.21774 6.74844 10.1196 6.87825 11.0131C7.09384 12.5055 8.46103 13.6381 10.0142 13.6336C11.5681 13.629 12.9186 12.4911 13.1282 10.9895C13.2519 10.1052 13.154 9.21319 13.1851 8.32577C13.1919 8.12384 13.0545 8.18305 12.9566 8.18305C11.9728 8.18001 10.9882 8.18153 10.0043 8.18153L10.0036 8.18001ZM4.09529 19.7142C4.09529 20.6419 4.1006 21.5688 4.09073 22.4964C4.08845 22.6832 4.13931 22.7302 4.32378 22.728C5.16566 22.7181 6.00829 22.7234 6.85016 22.7234C7.67382 22.7234 8.49671 22.7257 9.31961 22.7196C9.39552 22.7196 9.54355 22.7917 9.54127 22.6384C9.53672 22.3681 9.62554 22.0812 9.49117 21.8291C8.53998 20.0482 7.57893 18.2719 6.62394 16.4925C6.57308 16.3976 6.51463 16.3611 6.40455 16.3589C5.70995 16.3414 5.02825 16.3976 4.3625 16.6215C4.16285 16.6883 4.08618 16.768 4.08921 16.9889C4.10364 17.8969 4.09529 18.8055 4.09529 19.7142ZM15.9104 19.7036C15.9104 18.7858 15.905 17.8673 15.9149 16.9495C15.9172 16.7673 15.8595 16.6936 15.6872 16.6352C15.051 16.4211 14.4005 16.346 13.7324 16.3543C13.5275 16.3566 13.4189 16.4112 13.3195 16.5972C12.4556 18.2218 11.5864 19.844 10.702 21.4579C10.5228 21.7844 10.4295 22.1055 10.4492 22.4774C10.4591 22.668 10.4909 22.7287 10.6951 22.7272C12.3516 22.7181 14.0072 22.7158 15.6636 22.7287C15.8975 22.7302 15.9157 22.6482 15.9142 22.4562C15.905 21.5384 15.9104 20.6206 15.9104 19.7021V19.7036ZM10.0013 6.3619C8.55289 6.3619 7.10523 6.3619 5.65681 6.3619C5.57179 6.3619 5.48525 6.35431 5.40175 6.36721C5.15199 6.40517 5.01459 6.55851 5.007 6.80827C5.00017 7.04815 5.13301 7.20074 5.36075 7.25767C5.45033 7.28045 5.54902 7.26982 5.64315 7.26982C8.54909 7.26982 11.4543 7.26982 14.3602 7.26982C14.4452 7.26982 14.5325 7.27817 14.6153 7.26223C14.8612 7.2144 15.0009 7.05878 14.9956 6.80751C14.9903 6.55851 14.8521 6.40365 14.6009 6.36645C14.5174 6.35431 14.4308 6.36114 14.3458 6.36114C12.8974 6.36114 11.4497 6.36114 10.0013 6.36114V6.3619ZM12.3113 16.5638C12.2931 16.5479 12.2757 16.5312 12.2574 16.5152C10.7354 17.5477 9.20953 17.5105 7.68217 16.5494C8.44889 17.972 9.21637 19.3946 10.0043 20.8559C10.7923 19.3901 11.5522 17.9766 12.3113 16.5638ZM8.18395 14.1255C8.18395 14.6379 8.18775 15.1177 8.18167 15.5975C8.18016 15.7189 8.2629 15.7569 8.33805 15.81C9.35832 16.535 10.6587 16.5327 11.6737 15.8062C11.7503 15.7516 11.8247 15.7083 11.8232 15.5899C11.8164 15.1124 11.8202 14.6349 11.8202 14.1247C10.5972 14.6827 9.40084 14.6766 8.18471 14.1255H8.18395ZM6.80917 24.5408H8.88159C9.5519 24.5408 9.54279 24.5408 9.55266 23.8704C9.5557 23.6655 9.49573 23.626 9.30215 23.6275C7.79756 23.6359 6.29296 23.6321 4.78837 23.6321C4.08238 23.6321 4.08997 23.6321 4.08921 24.3305C4.08921 24.5119 4.14159 24.5461 4.31088 24.5445C5.14364 24.5354 5.97641 24.5408 6.80917 24.5408ZM13.1676 24.5408H15.2401C15.9134 24.5408 15.9043 24.5408 15.9142 23.8742C15.9172 23.6753 15.8663 23.626 15.6674 23.6275C14.153 23.6366 12.6393 23.6328 11.1248 23.6328C10.4446 23.6328 10.4515 23.6328 10.4515 24.3274C10.4515 24.502 10.4932 24.5476 10.6693 24.5453C11.5021 24.5354 12.3349 24.5408 13.1676 24.5408ZM6.8031 26.3581H8.87552C9.55114 26.3581 9.54279 26.3581 9.5519 25.6939C9.55494 25.498 9.51015 25.4434 9.30746 25.4441C7.79376 25.454 6.2793 25.4494 4.76484 25.4494C4.08314 25.4494 4.08921 25.4494 4.08921 26.1418C4.08921 26.3118 4.12413 26.3649 4.3048 26.3627C5.13757 26.352 5.97033 26.3581 6.8031 26.3581ZM13.1821 26.3581H15.2545C15.9111 26.3581 15.9005 26.3581 15.9142 25.7053C15.9187 25.4912 15.8625 25.4434 15.6515 25.4441C14.1469 25.454 12.6423 25.4494 11.137 25.4494C10.4469 25.4494 10.4545 25.4494 10.45 26.1311C10.4484 26.3179 10.4993 26.3649 10.683 26.3627C11.5158 26.3528 12.3485 26.3581 13.1813 26.3581H13.1821ZM2.07297 26.3581C2.38497 26.3581 2.69773 26.352 3.00973 26.3611C3.1403 26.3649 3.1904 26.3346 3.18813 26.1919C3.17902 25.6999 3.18054 25.208 3.18813 24.7161C3.18965 24.5855 3.1608 24.5362 3.01884 24.5385C2.37586 24.5461 1.73212 24.5453 1.08838 24.5385C0.957807 24.537 0.907704 24.565 0.909982 24.7078C0.919091 25.1997 0.921369 25.6916 0.908463 26.1835C0.903909 26.3528 0.978303 26.3627 1.10811 26.3604C1.42998 26.3543 1.75186 26.3581 2.07297 26.3581ZM17.9274 26.3581C18.2583 26.3581 18.5901 26.3513 18.9211 26.3611C19.0607 26.3657 19.0949 26.3186 19.0926 26.185C19.085 25.6931 19.0843 25.2012 19.0926 24.7093C19.0949 24.5696 19.0494 24.5362 18.9165 24.5377C18.2735 24.5438 17.6298 24.5445 16.986 24.5377C16.8464 24.5362 16.8122 24.5802 16.8145 24.7138C16.8221 25.2057 16.8228 25.6977 16.8145 26.1896C16.8122 26.3293 16.857 26.3649 16.9906 26.3611C17.3026 26.352 17.6154 26.3581 17.9274 26.3581ZM10.0127 0.911357C9.86163 0.911357 9.7098 0.905284 9.55949 0.912875C9.19891 0.931094 9.05239 1.1186 9.11161 1.46704C9.22244 2.11837 9.33403 2.76894 9.43727 3.42104C9.46157 3.5721 9.50104 3.65788 9.68171 3.64194C9.8882 3.62372 10.0985 3.62296 10.305 3.64194C10.4909 3.65864 10.5464 3.58273 10.5707 3.41193C10.6443 2.898 10.7134 2.38255 10.8212 1.87545C11.0072 1.00245 10.9335 0.887824 10.0142 0.910598L10.0127 0.911357ZM5.92099 10.0103H5.9134C5.9134 9.79392 5.90884 9.57757 5.91492 9.36122C5.91795 9.25342 5.8762 9.18889 5.78283 9.13727C5.45489 8.95812 5.03357 9.18358 5.00776 9.55555C4.97512 10.0285 5.31065 10.5713 5.74108 10.7671C5.9096 10.8438 5.9301 10.7815 5.92327 10.6312C5.9134 10.4248 5.92099 10.2175 5.92099 10.0103ZM14.0922 10.7922C14.7147 10.7125 15.0806 9.92829 14.985 9.47281C14.9197 9.16232 14.5219 8.99 14.238 9.13272C14.1469 9.17827 14.0892 9.23368 14.0907 9.34755C14.0953 9.82884 14.0922 10.3101 14.0922 10.7922Z" fill="white"/>
</g>
<defs>
<clipPath id="clip0_2665_7380">
<rect width="20" height="27.2679" fill="white"/>
</clipPath>
</defs>
</svg>
