<svg width="1092" height="166" viewBox="0 0 1092 166" fill="none" xmlns="http://www.w3.org/2000/svg">
<rect x="0.5" y="0.5" width="1091" height="165" rx="7.5" fill="#FFD6FD"/>
<path d="M68.06 33.06L62.21 54H57.26L53.33 39.09L49.22 54L44.3 54.03L38.66 33.06H43.16L46.85 49.32L51.11 33.06H55.79L59.81 49.23L63.53 33.06H68.06ZM86.2524 45.33C86.2524 45.93 86.2124 46.47 86.1324 46.95H73.9824C74.0824 48.15 74.5024 49.09 75.2424 49.77C75.9824 50.45 76.8924 50.79 77.9724 50.79C79.5324 50.79 80.6424 50.12 81.3024 48.78H85.8324C85.3524 50.38 84.4324 51.7 83.0724 52.74C81.7124 53.76 80.0424 54.27 78.0624 54.27C76.4624 54.27 75.0224 53.92 73.7424 53.22C72.4824 52.5 71.4924 51.49 70.7724 50.19C70.0724 48.89 69.7224 47.39 69.7224 45.69C69.7224 43.97 70.0724 42.46 70.7724 41.16C71.4724 39.86 72.4524 38.86 73.7124 38.16C74.9724 37.46 76.4224 37.11 78.0624 37.11C79.6424 37.11 81.0524 37.45 82.2924 38.13C83.5524 38.81 84.5224 39.78 85.2024 41.04C85.9024 42.28 86.2524 43.71 86.2524 45.33ZM81.9024 44.13C81.8824 43.05 81.4924 42.19 80.7324 41.55C79.9724 40.89 79.0424 40.56 77.9424 40.56C76.9024 40.56 76.0224 40.88 75.3024 41.52C74.6024 42.14 74.1724 43.01 74.0124 44.13H81.9024ZM93.518 31.8V54H89.318V31.8H93.518ZM96.5877 45.69C96.5877 43.97 96.9377 42.47 97.6377 41.19C98.3377 39.89 99.3077 38.89 100.548 38.19C101.788 37.47 103.208 37.11 104.808 37.11C106.868 37.11 108.568 37.63 109.908 38.67C111.268 39.69 112.178 41.13 112.638 42.99H108.108C107.868 42.27 107.458 41.71 106.878 41.31C106.318 40.89 105.618 40.68 104.778 40.68C103.578 40.68 102.628 41.12 101.928 42C101.228 42.86 100.878 44.09 100.878 45.69C100.878 47.27 101.228 48.5 101.928 49.38C102.628 50.24 103.578 50.67 104.778 50.67C106.478 50.67 107.588 49.91 108.108 48.39H112.638C112.178 50.19 111.268 51.62 109.908 52.68C108.548 53.74 106.848 54.27 104.808 54.27C103.208 54.27 101.788 53.92 100.548 53.22C99.3077 52.5 98.3377 51.5 97.6377 50.22C96.9377 48.92 96.5877 47.41 96.5877 45.69ZM123.095 54.27C121.495 54.27 120.055 53.92 118.775 53.22C117.495 52.5 116.485 51.49 115.745 50.19C115.025 48.89 114.665 47.39 114.665 45.69C114.665 43.99 115.035 42.49 115.775 41.19C116.535 39.89 117.565 38.89 118.865 38.19C120.165 37.47 121.615 37.11 123.215 37.11C124.815 37.11 126.265 37.47 127.565 38.19C128.865 38.89 129.885 39.89 130.625 41.19C131.385 42.49 131.765 43.99 131.765 45.69C131.765 47.39 131.375 48.89 130.595 50.19C129.835 51.49 128.795 52.5 127.475 53.22C126.175 53.92 124.715 54.27 123.095 54.27ZM123.095 50.61C123.855 50.61 124.565 50.43 125.225 50.07C125.905 49.69 126.445 49.13 126.845 48.39C127.245 47.65 127.445 46.75 127.445 45.69C127.445 44.11 127.025 42.9 126.185 42.06C125.365 41.2 124.355 40.77 123.155 40.77C121.955 40.77 120.945 41.2 120.125 42.06C119.325 42.9 118.925 44.11 118.925 45.69C118.925 47.27 119.315 48.49 120.095 49.35C120.895 50.19 121.895 50.61 123.095 50.61ZM155.485 37.14C157.525 37.14 159.165 37.77 160.405 39.03C161.665 40.27 162.295 42.01 162.295 44.25V54H158.095V44.82C158.095 43.52 157.765 42.53 157.105 41.85C156.445 41.15 155.545 40.8 154.405 40.8C153.265 40.8 152.355 41.15 151.675 41.85C151.015 42.53 150.685 43.52 150.685 44.82V54H146.485V44.82C146.485 43.52 146.155 42.53 145.495 41.85C144.835 41.15 143.935 40.8 142.795 40.8C141.635 40.8 140.715 41.15 140.035 41.85C139.375 42.53 139.045 43.52 139.045 44.82V54H134.845V37.38H139.045V39.39C139.585 38.69 140.275 38.14 141.115 37.74C141.975 37.34 142.915 37.14 143.935 37.14C145.235 37.14 146.395 37.42 147.415 37.98C148.435 38.52 149.225 39.3 149.785 40.32C150.325 39.36 151.105 38.59 152.125 38.01C153.165 37.43 154.285 37.14 155.485 37.14ZM181.731 45.33C181.731 45.93 181.691 46.47 181.611 46.95H169.461C169.561 48.15 169.981 49.09 170.721 49.77C171.461 50.45 172.371 50.79 173.451 50.79C175.011 50.79 176.121 50.12 176.781 48.78H181.311C180.831 50.38 179.911 51.7 178.551 52.74C177.191 53.76 175.521 54.27 173.541 54.27C171.941 54.27 170.501 53.92 169.221 53.22C167.961 52.5 166.971 51.49 166.251 50.19C165.551 48.89 165.201 47.39 165.201 45.69C165.201 43.97 165.551 42.46 166.251 41.16C166.951 39.86 167.931 38.86 169.191 38.16C170.451 37.46 171.901 37.11 173.541 37.11C175.121 37.11 176.531 37.45 177.771 38.13C179.031 38.81 180.001 39.78 180.681 41.04C181.381 42.28 181.731 43.71 181.731 45.33ZM177.381 44.13C177.361 43.05 176.971 42.19 176.211 41.55C175.451 40.89 174.521 40.56 173.421 40.56C172.381 40.56 171.501 40.88 170.781 41.52C170.081 42.14 169.651 43.01 169.491 44.13H177.381ZM206.195 33.06V36.45H200.615V54H196.415V36.45H190.835V33.06H206.195ZM216.639 54.27C215.039 54.27 213.599 53.92 212.319 53.22C211.039 52.5 210.029 51.49 209.289 50.19C208.569 48.89 208.209 47.39 208.209 45.69C208.209 43.99 208.579 42.49 209.319 41.19C210.079 39.89 211.109 38.89 212.409 38.19C213.709 37.47 215.159 37.11 216.759 37.11C218.359 37.11 219.809 37.47 221.109 38.19C222.409 38.89 223.429 39.89 224.169 41.19C224.929 42.49 225.309 43.99 225.309 45.69C225.309 47.39 224.919 48.89 224.139 50.19C223.379 51.49 222.339 52.5 221.019 53.22C219.719 53.92 218.259 54.27 216.639 54.27ZM216.639 50.61C217.399 50.61 218.109 50.43 218.769 50.07C219.449 49.69 219.989 49.13 220.389 48.39C220.789 47.65 220.989 46.75 220.989 45.69C220.989 44.11 220.569 42.9 219.729 42.06C218.909 41.2 217.899 40.77 216.699 40.77C215.499 40.77 214.489 41.2 213.669 42.06C212.869 42.9 212.469 44.11 212.469 45.69C212.469 47.27 212.859 48.49 213.639 49.35C214.439 50.19 215.439 50.61 216.639 50.61ZM258.369 33.06V54H254.169V40.38L248.559 54H245.379L239.739 40.38V54H235.539V33.06H240.309L246.969 48.63L253.629 33.06H258.369ZM279.891 33.06V54H275.691V45.09H266.721V54H262.521V33.06H266.721V41.67H275.691V33.06H279.891ZM298.275 33.06V36.45H292.695V54H288.495V36.45H282.915V33.06H298.275ZM312.688 33.06V54H308.488V33.06H312.688ZM326.048 37.14C328.028 37.14 329.628 37.77 330.848 39.03C332.068 40.27 332.678 42.01 332.678 44.25V54H328.478V44.82C328.478 43.5 328.148 42.49 327.488 41.79C326.828 41.07 325.928 40.71 324.788 40.71C323.628 40.71 322.708 41.07 322.028 41.79C321.368 42.49 321.038 43.5 321.038 44.82V54H316.838V37.38H321.038V39.45C321.598 38.73 322.308 38.17 323.168 37.77C324.048 37.35 325.008 37.14 326.048 37.14ZM343.032 54.27C341.672 54.27 340.452 54.03 339.372 53.55C338.292 53.05 337.432 52.38 336.792 51.54C336.172 50.7 335.832 49.77 335.772 48.75H340.002C340.082 49.39 340.392 49.92 340.932 50.34C341.492 50.76 342.182 50.97 343.002 50.97C343.802 50.97 344.422 50.81 344.862 50.49C345.322 50.17 345.552 49.76 345.552 49.26C345.552 48.72 345.272 48.32 344.712 48.06C344.172 47.78 343.302 47.48 342.102 47.16C340.862 46.86 339.842 46.55 339.042 46.23C338.262 45.91 337.582 45.42 337.002 44.76C336.442 44.1 336.162 43.21 336.162 42.09C336.162 41.17 336.422 40.33 336.942 39.57C337.482 38.81 338.242 38.21 339.222 37.77C340.222 37.33 341.392 37.11 342.732 37.11C344.712 37.11 346.292 37.61 347.472 38.61C348.652 39.59 349.302 40.92 349.422 42.6H345.402C345.342 41.94 345.062 41.42 344.562 41.04C344.082 40.64 343.432 40.44 342.612 40.44C341.852 40.44 341.262 40.58 340.842 40.86C340.442 41.14 340.242 41.53 340.242 42.03C340.242 42.59 340.522 43.02 341.082 43.32C341.642 43.6 342.512 43.89 343.692 44.19C344.892 44.49 345.882 44.8 346.662 45.12C347.442 45.44 348.112 45.94 348.672 46.62C349.252 47.28 349.552 48.16 349.572 49.26C349.572 50.22 349.302 51.08 348.762 51.84C348.242 52.6 347.482 53.2 346.482 53.64C345.502 54.06 344.352 54.27 343.032 54.27ZM368.709 37.38V54H364.479V51.9C363.939 52.62 363.229 53.19 362.349 53.61C361.489 54.01 360.549 54.21 359.529 54.21C358.229 54.21 357.079 53.94 356.079 53.4C355.079 52.84 354.289 52.03 353.709 50.97C353.149 49.89 352.869 48.61 352.869 47.13V37.38H357.069V46.53C357.069 47.85 357.399 48.87 358.059 49.59C358.719 50.29 359.619 50.64 360.759 50.64C361.919 50.64 362.829 50.29 363.489 49.59C364.149 48.87 364.479 47.85 364.479 46.53V37.38H368.709ZM377.053 39.96C377.593 39.08 378.293 38.39 379.153 37.89C380.033 37.39 381.033 37.14 382.153 37.14V41.55H381.043C379.723 41.55 378.723 41.86 378.043 42.48C377.383 43.1 377.053 44.18 377.053 45.72V54H372.853V37.38H377.053V39.96ZM383.902 45.63C383.902 43.95 384.232 42.46 384.892 41.16C385.572 39.86 386.482 38.86 387.622 38.16C388.782 37.46 390.072 37.11 391.492 37.11C392.732 37.11 393.812 37.36 394.732 37.86C395.672 38.36 396.422 38.99 396.982 39.75V37.38H401.212V54H396.982V51.57C396.442 52.35 395.692 53 394.732 53.52C393.792 54.02 392.702 54.27 391.462 54.27C390.062 54.27 388.782 53.91 387.622 53.19C386.482 52.47 385.572 51.46 384.892 50.16C384.232 48.84 383.902 47.33 383.902 45.63ZM396.982 45.69C396.982 44.67 396.782 43.8 396.382 43.08C395.982 42.34 395.442 41.78 394.762 41.4C394.082 41 393.352 40.8 392.572 40.8C391.792 40.8 391.072 40.99 390.412 41.37C389.752 41.75 389.212 42.31 388.792 43.05C388.392 43.77 388.192 44.63 388.192 45.63C388.192 46.63 388.392 47.51 388.792 48.27C389.212 49.01 389.752 49.58 390.412 49.98C391.092 50.38 391.812 50.58 392.572 50.58C393.352 50.58 394.082 50.39 394.762 50.01C395.442 49.61 395.982 49.05 396.382 48.33C396.782 47.59 396.982 46.71 396.982 45.69ZM414.524 37.14C416.504 37.14 418.104 37.77 419.324 39.03C420.544 40.27 421.154 42.01 421.154 44.25V54H416.954V44.82C416.954 43.5 416.624 42.49 415.964 41.79C415.304 41.07 414.404 40.71 413.264 40.71C412.104 40.71 411.184 41.07 410.504 41.79C409.844 42.49 409.514 43.5 409.514 44.82V54H405.314V37.38H409.514V39.45C410.074 38.73 410.784 38.17 411.644 37.77C412.524 37.35 413.484 37.14 414.524 37.14ZM424.068 45.69C424.068 43.97 424.418 42.47 425.118 41.19C425.818 39.89 426.788 38.89 428.028 38.19C429.268 37.47 430.688 37.11 432.288 37.11C434.348 37.11 436.048 37.63 437.388 38.67C438.748 39.69 439.658 41.13 440.118 42.99H435.588C435.348 42.27 434.938 41.71 434.358 41.31C433.798 40.89 433.098 40.68 432.258 40.68C431.058 40.68 430.108 41.12 429.408 42C428.708 42.86 428.358 44.09 428.358 45.69C428.358 47.27 428.708 48.5 429.408 49.38C430.108 50.24 431.058 50.67 432.258 50.67C433.958 50.67 435.068 49.91 435.588 48.39H440.118C439.658 50.19 438.748 51.62 437.388 52.68C436.028 53.74 434.328 54.27 432.288 54.27C430.688 54.27 429.268 53.92 428.028 53.22C426.788 52.5 425.818 51.5 425.118 50.22C424.418 48.92 424.068 47.41 424.068 45.69ZM458.645 45.33C458.645 45.93 458.605 46.47 458.525 46.95H446.375C446.475 48.15 446.895 49.09 447.635 49.77C448.375 50.45 449.285 50.79 450.365 50.79C451.925 50.79 453.035 50.12 453.695 48.78H458.225C457.745 50.38 456.825 51.7 455.465 52.74C454.105 53.76 452.435 54.27 450.455 54.27C448.855 54.27 447.415 53.92 446.135 53.22C444.875 52.5 443.885 51.49 443.165 50.19C442.465 48.89 442.115 47.39 442.115 45.69C442.115 43.97 442.465 42.46 443.165 41.16C443.865 39.86 444.845 38.86 446.105 38.16C447.365 37.46 448.815 37.11 450.455 37.11C452.035 37.11 453.445 37.45 454.685 38.13C455.945 38.81 456.915 39.78 457.595 41.04C458.295 42.28 458.645 43.71 458.645 45.33ZM454.295 44.13C454.275 43.05 453.885 42.19 453.125 41.55C452.365 40.89 451.435 40.56 450.335 40.56C449.295 40.56 448.415 40.88 447.695 41.52C446.995 42.14 446.565 43.01 446.405 44.13H454.295Z" fill="#263238"/>
<path d="M40.688 88.816H44.592V90H39.232V78.848H40.688V88.816ZM49.9623 90.144C49.1409 90.144 48.3943 89.9573 47.7223 89.584C47.0609 89.2107 46.5383 88.6827 46.1543 88C45.7809 87.3067 45.5943 86.5067 45.5943 85.6C45.5943 84.704 45.7863 83.9147 46.1703 83.232C46.5649 82.5387 47.0983 82.0107 47.7703 81.648C48.4423 81.2747 49.1943 81.088 50.0263 81.088C50.8583 81.088 51.6103 81.2747 52.2823 81.648C52.9543 82.0107 53.4823 82.5333 53.8663 83.216C54.2609 83.8987 54.4583 84.6933 54.4583 85.6C54.4583 86.5067 54.2556 87.3067 53.8503 88C53.4556 88.6827 52.9169 89.2107 52.2343 89.584C51.5516 89.9573 50.7943 90.144 49.9623 90.144ZM49.9623 88.864C50.4849 88.864 50.9756 88.7413 51.4343 88.496C51.8929 88.2507 52.2609 87.8827 52.5383 87.392C52.8263 86.9013 52.9703 86.304 52.9703 85.6C52.9703 84.896 52.8316 84.2987 52.5543 83.808C52.2769 83.3173 51.9143 82.9547 51.4663 82.72C51.0183 82.4747 50.5329 82.352 50.0103 82.352C49.4769 82.352 48.9863 82.4747 48.5383 82.72C48.1009 82.9547 47.7489 83.3173 47.4823 83.808C47.2156 84.2987 47.0823 84.896 47.0823 85.6C47.0823 86.3147 47.2103 86.9173 47.4663 87.408C47.7329 87.8987 48.0849 88.2667 48.5223 88.512C48.9596 88.7467 49.4396 88.864 49.9623 88.864ZM57.8286 82.656C58.0846 82.1547 58.4473 81.7653 58.9166 81.488C59.3966 81.2107 59.978 81.072 60.6606 81.072V82.576H60.2766C58.6446 82.576 57.8286 83.4613 57.8286 85.232V90H56.3726V81.232H57.8286V82.656ZM70.3414 85.28C70.3414 85.5573 70.3254 85.8507 70.2934 86.16H63.2854C63.3387 87.024 63.632 87.7013 64.1654 88.192C64.7094 88.672 65.3654 88.912 66.1334 88.912C66.7627 88.912 67.2854 88.768 67.7014 88.48C68.128 88.1813 68.4267 87.7867 68.5974 87.296H70.1654C69.9307 88.1387 69.4614 88.8267 68.7574 89.36C68.0534 89.8827 67.1787 90.144 66.1334 90.144C65.3014 90.144 64.5547 89.9573 63.8934 89.584C63.2427 89.2107 62.7307 88.6827 62.3574 88C61.984 87.3067 61.7974 86.5067 61.7974 85.6C61.7974 84.6933 61.9787 83.8987 62.3414 83.216C62.704 82.5333 63.2107 82.0107 63.8614 81.648C64.5227 81.2747 65.28 81.088 66.1334 81.088C66.9654 81.088 67.7014 81.2693 68.3414 81.632C68.9814 81.9947 69.472 82.496 69.8134 83.136C70.1654 83.7653 70.3414 84.48 70.3414 85.28ZM68.8374 84.976C68.8374 84.4213 68.7147 83.9467 68.4694 83.552C68.224 83.1467 67.888 82.8427 67.4614 82.64C67.0454 82.4267 66.5814 82.32 66.0694 82.32C65.3334 82.32 64.704 82.5547 64.1814 83.024C63.6694 83.4933 63.376 84.144 63.3014 84.976H68.8374ZM82.8073 81.072C83.4899 81.072 84.0979 81.216 84.6313 81.504C85.1646 81.7813 85.5859 82.2027 85.8953 82.768C86.2046 83.3333 86.3593 84.0213 86.3593 84.832V90H84.9193V85.04C84.9193 84.1653 84.7006 83.4987 84.2633 83.04C83.8366 82.5707 83.2553 82.336 82.5193 82.336C81.7619 82.336 81.1593 82.5813 80.7113 83.072C80.2633 83.552 80.0393 84.2507 80.0393 85.168V90H78.5993V85.04C78.5993 84.1653 78.3806 83.4987 77.9433 83.04C77.5166 82.5707 76.9353 82.336 76.1993 82.336C75.4419 82.336 74.8393 82.5813 74.3913 83.072C73.9433 83.552 73.7193 84.2507 73.7193 85.168V90H72.2633V81.232H73.7193V82.496C74.0073 82.0373 74.3913 81.6853 74.8713 81.44C75.3619 81.1947 75.9006 81.072 76.4873 81.072C77.2233 81.072 77.8739 81.2373 78.4393 81.568C79.0046 81.8987 79.4259 82.384 79.7033 83.024C79.9486 82.4053 80.3539 81.9253 80.9193 81.584C81.4846 81.2427 82.1139 81.072 82.8073 81.072ZM94.4693 78.848V90H93.0133V78.848H94.4693ZM98.4068 82.848C98.6948 82.3467 99.1214 81.9307 99.6868 81.6C100.263 81.2587 100.929 81.088 101.687 81.088C102.465 81.088 103.169 81.2747 103.799 81.648C104.439 82.0213 104.94 82.5493 105.303 83.232C105.665 83.904 105.847 84.688 105.847 85.584C105.847 86.4693 105.665 87.2587 105.303 87.952C104.94 88.6453 104.439 89.184 103.799 89.568C103.169 89.952 102.465 90.144 101.687 90.144C100.94 90.144 100.279 89.9787 99.7028 89.648C99.1374 89.3067 98.7054 88.8853 98.4068 88.384V94.16H96.9508V81.232H98.4068V82.848ZM104.359 85.584C104.359 84.9227 104.225 84.3467 103.959 83.856C103.692 83.3653 103.329 82.992 102.871 82.736C102.423 82.48 101.927 82.352 101.383 82.352C100.849 82.352 100.353 82.4853 99.8948 82.752C99.4468 83.008 99.0841 83.3867 98.8068 83.888C98.5401 84.3787 98.4068 84.9493 98.4068 85.6C98.4068 86.2613 98.5401 86.8427 98.8068 87.344C99.0841 87.8347 99.4468 88.2133 99.8948 88.48C100.353 88.736 100.849 88.864 101.383 88.864C101.927 88.864 102.423 88.736 102.871 88.48C103.329 88.2133 103.692 87.8347 103.959 87.344C104.225 86.8427 104.359 86.256 104.359 85.584ZM110.867 90.144C110.195 90.144 109.593 90.032 109.059 89.808C108.526 89.5733 108.105 89.2533 107.795 88.848C107.486 88.432 107.315 87.9573 107.283 87.424H108.787C108.83 87.8613 109.033 88.2187 109.395 88.496C109.769 88.7733 110.254 88.912 110.851 88.912C111.406 88.912 111.843 88.7893 112.163 88.544C112.483 88.2987 112.643 87.9893 112.643 87.616C112.643 87.232 112.473 86.9493 112.131 86.768C111.79 86.576 111.262 86.3893 110.547 86.208C109.897 86.0373 109.363 85.8667 108.947 85.696C108.542 85.5147 108.19 85.2533 107.891 84.912C107.603 84.56 107.459 84.1013 107.459 83.536C107.459 83.088 107.593 82.6773 107.859 82.304C108.126 81.9307 108.505 81.6373 108.995 81.424C109.486 81.2 110.046 81.088 110.675 81.088C111.646 81.088 112.43 81.3333 113.027 81.824C113.625 82.3147 113.945 82.9867 113.987 83.84H112.531C112.499 83.3813 112.313 83.0133 111.971 82.736C111.641 82.4587 111.193 82.32 110.627 82.32C110.105 82.32 109.689 82.432 109.379 82.656C109.07 82.88 108.915 83.1733 108.915 83.536C108.915 83.824 109.006 84.064 109.187 84.256C109.379 84.4373 109.614 84.5867 109.891 84.704C110.179 84.8107 110.574 84.9333 111.075 85.072C111.705 85.2427 112.217 85.4133 112.611 85.584C113.006 85.744 113.342 85.9893 113.619 86.32C113.907 86.6507 114.057 87.0827 114.067 87.616C114.067 88.096 113.934 88.528 113.667 88.912C113.401 89.296 113.022 89.6 112.531 89.824C112.051 90.0373 111.497 90.144 110.867 90.144ZM123.899 81.232V90H122.443V88.704C122.165 89.152 121.776 89.504 121.275 89.76C120.784 90.0053 120.24 90.128 119.643 90.128C118.96 90.128 118.347 89.9893 117.803 89.712C117.259 89.424 116.827 88.9973 116.507 88.432C116.197 87.8667 116.043 87.1787 116.043 86.368V81.232H117.483V86.176C117.483 87.04 117.701 87.7067 118.139 88.176C118.576 88.6347 119.173 88.864 119.931 88.864C120.709 88.864 121.323 88.624 121.771 88.144C122.219 87.664 122.443 86.9653 122.443 86.048V81.232H123.899ZM136.901 81.072C137.584 81.072 138.192 81.216 138.725 81.504C139.258 81.7813 139.68 82.2027 139.989 82.768C140.298 83.3333 140.453 84.0213 140.453 84.832V90H139.013V85.04C139.013 84.1653 138.794 83.4987 138.357 83.04C137.93 82.5707 137.349 82.336 136.613 82.336C135.856 82.336 135.253 82.5813 134.805 83.072C134.357 83.552 134.133 84.2507 134.133 85.168V90H132.693V85.04C132.693 84.1653 132.474 83.4987 132.037 83.04C131.61 82.5707 131.029 82.336 130.293 82.336C129.536 82.336 128.933 82.5813 128.485 83.072C128.037 83.552 127.813 84.2507 127.813 85.168V90H126.357V81.232H127.813V82.496C128.101 82.0373 128.485 81.6853 128.965 81.44C129.456 81.1947 129.994 81.072 130.581 81.072C131.317 81.072 131.968 81.2373 132.533 81.568C133.098 81.8987 133.52 82.384 133.797 83.024C134.042 82.4053 134.448 81.9253 135.013 81.584C135.578 81.2427 136.208 81.072 136.901 81.072ZM147.859 79.808C147.582 79.808 147.347 79.712 147.155 79.52C146.963 79.328 146.867 79.0933 146.867 78.816C146.867 78.5387 146.963 78.304 147.155 78.112C147.347 77.92 147.582 77.824 147.859 77.824C148.126 77.824 148.35 77.92 148.531 78.112C148.723 78.304 148.819 78.5387 148.819 78.816C148.819 79.0933 148.723 79.328 148.531 79.52C148.35 79.712 148.126 79.808 147.859 79.808ZM148.563 81.232V90H147.107V81.232H148.563ZM154.149 90.144C153.477 90.144 152.874 90.032 152.341 89.808C151.807 89.5733 151.386 89.2533 151.077 88.848C150.767 88.432 150.597 87.9573 150.565 87.424H152.069C152.111 87.8613 152.314 88.2187 152.677 88.496C153.05 88.7733 153.535 88.912 154.133 88.912C154.687 88.912 155.125 88.7893 155.445 88.544C155.765 88.2987 155.925 87.9893 155.925 87.616C155.925 87.232 155.754 86.9493 155.413 86.768C155.071 86.576 154.543 86.3893 153.829 86.208C153.178 86.0373 152.645 85.8667 152.229 85.696C151.823 85.5147 151.471 85.2533 151.173 84.912C150.885 84.56 150.741 84.1013 150.741 83.536C150.741 83.088 150.874 82.6773 151.141 82.304C151.407 81.9307 151.786 81.6373 152.277 81.424C152.767 81.2 153.327 81.088 153.957 81.088C154.927 81.088 155.711 81.3333 156.309 81.824C156.906 82.3147 157.226 82.9867 157.269 83.84H155.813C155.781 83.3813 155.594 83.0133 155.253 82.736C154.922 82.4587 154.474 82.32 153.909 82.32C153.386 82.32 152.97 82.432 152.661 82.656C152.351 82.88 152.197 83.1733 152.197 83.536C152.197 83.824 152.287 84.064 152.469 84.256C152.661 84.4373 152.895 84.5867 153.173 84.704C153.461 84.8107 153.855 84.9333 154.357 85.072C154.986 85.2427 155.498 85.4133 155.893 85.584C156.287 85.744 156.623 85.9893 156.901 86.32C157.189 86.6507 157.338 87.0827 157.349 87.616C157.349 88.096 157.215 88.528 156.949 88.912C156.682 89.296 156.303 89.6 155.813 89.824C155.333 90.0373 154.778 90.144 154.149 90.144ZM166.774 90.144C166.102 90.144 165.499 90.032 164.966 89.808C164.432 89.5733 164.011 89.2533 163.702 88.848C163.392 88.432 163.222 87.9573 163.19 87.424H164.694C164.736 87.8613 164.939 88.2187 165.302 88.496C165.675 88.7733 166.16 88.912 166.758 88.912C167.312 88.912 167.75 88.7893 168.07 88.544C168.39 88.2987 168.55 87.9893 168.55 87.616C168.55 87.232 168.379 86.9493 168.038 86.768C167.696 86.576 167.168 86.3893 166.454 86.208C165.803 86.0373 165.27 85.8667 164.854 85.696C164.448 85.5147 164.096 85.2533 163.798 84.912C163.51 84.56 163.366 84.1013 163.366 83.536C163.366 83.088 163.499 82.6773 163.766 82.304C164.032 81.9307 164.411 81.6373 164.902 81.424C165.392 81.2 165.952 81.088 166.582 81.088C167.552 81.088 168.336 81.3333 168.934 81.824C169.531 82.3147 169.851 82.9867 169.894 83.84H168.438C168.406 83.3813 168.219 83.0133 167.878 82.736C167.547 82.4587 167.099 82.32 166.534 82.32C166.011 82.32 165.595 82.432 165.286 82.656C164.976 82.88 164.822 83.1733 164.822 83.536C164.822 83.824 164.912 84.064 165.094 84.256C165.286 84.4373 165.52 84.5867 165.798 84.704C166.086 84.8107 166.48 84.9333 166.982 85.072C167.611 85.2427 168.123 85.4133 168.518 85.584C168.912 85.744 169.248 85.9893 169.526 86.32C169.814 86.6507 169.963 87.0827 169.974 87.616C169.974 88.096 169.84 88.528 169.574 88.912C169.307 89.296 168.928 89.6 168.438 89.824C167.958 90.0373 167.403 90.144 166.774 90.144ZM172.781 79.808C172.504 79.808 172.269 79.712 172.077 79.52C171.885 79.328 171.789 79.0933 171.789 78.816C171.789 78.5387 171.885 78.304 172.077 78.112C172.269 77.92 172.504 77.824 172.781 77.824C173.048 77.824 173.272 77.92 173.453 78.112C173.645 78.304 173.741 78.5387 173.741 78.816C173.741 79.0933 173.645 79.328 173.453 79.52C173.272 79.712 173.048 79.808 172.781 79.808ZM173.485 81.232V90H172.029V81.232H173.485ZM186.51 81.072C187.193 81.072 187.801 81.216 188.334 81.504C188.868 81.7813 189.289 82.2027 189.598 82.768C189.908 83.3333 190.062 84.0213 190.062 84.832V90H188.622V85.04C188.622 84.1653 188.404 83.4987 187.966 83.04C187.54 82.5707 186.958 82.336 186.222 82.336C185.465 82.336 184.862 82.5813 184.414 83.072C183.966 83.552 183.742 84.2507 183.742 85.168V90H182.302V85.04C182.302 84.1653 182.084 83.4987 181.646 83.04C181.22 82.5707 180.638 82.336 179.902 82.336C179.145 82.336 178.542 82.5813 178.094 83.072C177.646 83.552 177.422 84.2507 177.422 85.168V90H175.966V81.232H177.422V82.496C177.71 82.0373 178.094 81.6853 178.574 81.44C179.065 81.1947 179.604 81.072 180.19 81.072C180.926 81.072 181.577 81.2373 182.142 81.568C182.708 81.8987 183.129 82.384 183.406 83.024C183.652 82.4053 184.057 81.9253 184.622 81.584C185.188 81.2427 185.817 81.072 186.51 81.072ZM193.907 82.848C194.195 82.3467 194.621 81.9307 195.187 81.6C195.763 81.2587 196.429 81.088 197.187 81.088C197.965 81.088 198.669 81.2747 199.299 81.648C199.939 82.0213 200.44 82.5493 200.803 83.232C201.165 83.904 201.347 84.688 201.347 85.584C201.347 86.4693 201.165 87.2587 200.803 87.952C200.44 88.6453 199.939 89.184 199.299 89.568C198.669 89.952 197.965 90.144 197.187 90.144C196.44 90.144 195.779 89.9787 195.203 89.648C194.637 89.3067 194.205 88.8853 193.907 88.384V94.16H192.451V81.232H193.907V82.848ZM199.859 85.584C199.859 84.9227 199.725 84.3467 199.459 83.856C199.192 83.3653 198.829 82.992 198.371 82.736C197.923 82.48 197.427 82.352 196.883 82.352C196.349 82.352 195.853 82.4853 195.395 82.752C194.947 83.008 194.584 83.3867 194.307 83.888C194.04 84.3787 193.907 84.9493 193.907 85.6C193.907 86.2613 194.04 86.8427 194.307 87.344C194.584 87.8347 194.947 88.2133 195.395 88.48C195.853 88.736 196.349 88.864 196.883 88.864C197.427 88.864 197.923 88.736 198.371 88.48C198.829 88.2133 199.192 87.8347 199.459 87.344C199.725 86.8427 199.859 86.256 199.859 85.584ZM204.719 78.16V90H203.263V78.16H204.719ZM214.753 81.232L209.473 94.128H207.969L209.697 89.904L206.161 81.232H207.777L210.529 88.336L213.249 81.232H214.753ZM219.938 85.584C219.938 84.688 220.119 83.904 220.482 83.232C220.845 82.5493 221.341 82.0213 221.97 81.648C222.61 81.2747 223.325 81.088 224.114 81.088C224.797 81.088 225.431 81.248 226.018 81.568C226.605 81.8773 227.053 82.288 227.362 82.8V78.16H228.834V90H227.362V88.352C227.074 88.8747 226.647 89.3067 226.082 89.648C225.517 89.9787 224.855 90.144 224.098 90.144C223.319 90.144 222.61 89.952 221.97 89.568C221.341 89.184 220.845 88.6453 220.482 87.952C220.119 87.2587 219.938 86.4693 219.938 85.584ZM227.362 85.6C227.362 84.9387 227.229 84.3627 226.962 83.872C226.695 83.3813 226.333 83.008 225.874 82.752C225.426 82.4853 224.93 82.352 224.386 82.352C223.842 82.352 223.346 82.48 222.898 82.736C222.45 82.992 222.093 83.3653 221.826 83.856C221.559 84.3467 221.426 84.9227 221.426 85.584C221.426 86.256 221.559 86.8427 221.826 87.344C222.093 87.8347 222.45 88.2133 222.898 88.48C223.346 88.736 223.842 88.864 224.386 88.864C224.93 88.864 225.426 88.736 225.874 88.48C226.333 88.2133 226.695 87.8347 226.962 87.344C227.229 86.8427 227.362 86.2613 227.362 85.6ZM239.071 81.232V90H237.615V88.704C237.337 89.152 236.948 89.504 236.447 89.76C235.956 90.0053 235.412 90.128 234.815 90.128C234.132 90.128 233.519 89.9893 232.975 89.712C232.431 89.424 231.999 88.9973 231.679 88.432C231.369 87.8667 231.215 87.1787 231.215 86.368V81.232H232.655V86.176C232.655 87.04 232.873 87.7067 233.311 88.176C233.748 88.6347 234.345 88.864 235.103 88.864C235.881 88.864 236.495 88.624 236.943 88.144C237.391 87.664 237.615 86.9653 237.615 86.048V81.232H239.071ZM252.073 81.072C252.756 81.072 253.364 81.216 253.897 81.504C254.43 81.7813 254.852 82.2027 255.161 82.768C255.47 83.3333 255.625 84.0213 255.625 84.832V90H254.185V85.04C254.185 84.1653 253.966 83.4987 253.529 83.04C253.102 82.5707 252.521 82.336 251.785 82.336C251.028 82.336 250.425 82.5813 249.977 83.072C249.529 83.552 249.305 84.2507 249.305 85.168V90H247.865V85.04C247.865 84.1653 247.646 83.4987 247.209 83.04C246.782 82.5707 246.201 82.336 245.465 82.336C244.708 82.336 244.105 82.5813 243.657 83.072C243.209 83.552 242.985 84.2507 242.985 85.168V90H241.529V81.232H242.985V82.496C243.273 82.0373 243.657 81.6853 244.137 81.44C244.628 81.1947 245.166 81.072 245.753 81.072C246.489 81.072 247.14 81.2373 247.705 81.568C248.27 81.8987 248.692 82.384 248.969 83.024C249.214 82.4053 249.62 81.9253 250.185 81.584C250.75 81.2427 251.38 81.072 252.073 81.072ZM268.557 81.072C269.24 81.072 269.848 81.216 270.381 81.504C270.915 81.7813 271.336 82.2027 271.645 82.768C271.955 83.3333 272.109 84.0213 272.109 84.832V90H270.669V85.04C270.669 84.1653 270.451 83.4987 270.013 83.04C269.587 82.5707 269.005 82.336 268.269 82.336C267.512 82.336 266.909 82.5813 266.461 83.072C266.013 83.552 265.789 84.2507 265.789 85.168V90H264.349V85.04C264.349 84.1653 264.131 83.4987 263.693 83.04C263.267 82.5707 262.685 82.336 261.949 82.336C261.192 82.336 260.589 82.5813 260.141 83.072C259.693 83.552 259.469 84.2507 259.469 85.168V90H258.013V81.232H259.469V82.496C259.757 82.0373 260.141 81.6853 260.621 81.44C261.112 81.1947 261.651 81.072 262.237 81.072C262.973 81.072 263.624 81.2373 264.189 81.568C264.755 81.8987 265.176 82.384 265.453 83.024C265.699 82.4053 266.104 81.9253 266.669 81.584C267.235 81.2427 267.864 81.072 268.557 81.072ZM282.05 81.232L276.77 94.128H275.266L276.994 89.904L273.458 81.232H275.074L277.826 88.336L280.546 81.232H282.05ZM289.555 82.432V87.6C289.555 88.0267 289.646 88.3307 289.827 88.512C290.008 88.6827 290.323 88.768 290.771 88.768H291.843V90H290.531C289.72 90 289.112 89.8133 288.707 89.44C288.302 89.0667 288.099 88.4533 288.099 87.6V82.432H286.963V81.232H288.099V79.024H289.555V81.232H291.843V82.432H289.555ZM301.607 85.28C301.607 85.5573 301.591 85.8507 301.559 86.16H294.551C294.604 87.024 294.898 87.7013 295.431 88.192C295.975 88.672 296.631 88.912 297.399 88.912C298.028 88.912 298.551 88.768 298.967 88.48C299.394 88.1813 299.692 87.7867 299.863 87.296H301.431C301.196 88.1387 300.727 88.8267 300.023 89.36C299.319 89.8827 298.444 90.144 297.399 90.144C296.567 90.144 295.82 89.9573 295.159 89.584C294.508 89.2107 293.996 88.6827 293.623 88C293.25 87.3067 293.063 86.5067 293.063 85.6C293.063 84.6933 293.244 83.8987 293.607 83.216C293.97 82.5333 294.476 82.0107 295.127 81.648C295.788 81.2747 296.546 81.088 297.399 81.088C298.231 81.088 298.967 81.2693 299.607 81.632C300.247 81.9947 300.738 82.496 301.079 83.136C301.431 83.7653 301.607 84.48 301.607 85.28ZM300.103 84.976C300.103 84.4213 299.98 83.9467 299.735 83.552C299.49 83.1467 299.154 82.8427 298.727 82.64C298.311 82.4267 297.847 82.32 297.335 82.32C296.599 82.32 295.97 82.5547 295.447 83.024C294.935 83.4933 294.642 84.144 294.567 84.976H300.103ZM308.105 90L306.025 86.736L304.025 90H302.505L305.337 85.648L302.505 81.232H304.153L306.233 84.48L308.217 81.232H309.737L306.921 85.568L309.753 90H308.105ZM312.961 82.432V87.6C312.961 88.0267 313.052 88.3307 313.233 88.512C313.414 88.6827 313.729 88.768 314.177 88.768H315.249V90H313.937C313.126 90 312.518 89.8133 312.113 89.44C311.708 89.0667 311.505 88.4533 311.505 87.6V82.432H310.369V81.232H311.505V79.024H312.961V81.232H315.249V82.432H312.961ZM325.103 90.144C324.282 90.144 323.535 89.9573 322.863 89.584C322.202 89.2107 321.679 88.6827 321.295 88C320.922 87.3067 320.735 86.5067 320.735 85.6C320.735 84.704 320.927 83.9147 321.311 83.232C321.706 82.5387 322.239 82.0107 322.911 81.648C323.583 81.2747 324.335 81.088 325.167 81.088C325.999 81.088 326.751 81.2747 327.423 81.648C328.095 82.0107 328.623 82.5333 329.007 83.216C329.402 83.8987 329.599 84.6933 329.599 85.6C329.599 86.5067 329.396 87.3067 328.991 88C328.596 88.6827 328.058 89.2107 327.375 89.584C326.692 89.9573 325.935 90.144 325.103 90.144ZM325.103 88.864C325.626 88.864 326.116 88.7413 326.575 88.496C327.034 88.2507 327.402 87.8827 327.679 87.392C327.967 86.9013 328.111 86.304 328.111 85.6C328.111 84.896 327.972 84.2987 327.695 83.808C327.418 83.3173 327.055 82.9547 326.607 82.72C326.159 82.4747 325.674 82.352 325.151 82.352C324.618 82.352 324.127 82.4747 323.679 82.72C323.242 82.9547 322.89 83.3173 322.623 83.808C322.356 84.2987 322.223 84.896 322.223 85.6C322.223 86.3147 322.351 86.9173 322.607 87.408C322.874 87.8987 323.226 88.2667 323.663 88.512C324.1 88.7467 324.58 88.864 325.103 88.864ZM335.081 82.432H333.241V90H331.785V82.432H330.649V81.232H331.785V80.608C331.785 79.6267 332.036 78.912 332.537 78.464C333.049 78.0053 333.865 77.776 334.985 77.776V78.992C334.345 78.992 333.892 79.12 333.625 79.376C333.369 79.6213 333.241 80.032 333.241 80.608V81.232H335.081V82.432ZM342.821 82.432V87.6C342.821 88.0267 342.911 88.3307 343.093 88.512C343.274 88.6827 343.589 88.768 344.036 88.768H345.109V90H343.797C342.986 90 342.378 89.8133 341.973 89.44C341.567 89.0667 341.365 88.4533 341.365 87.6V82.432H340.229V81.232H341.365V79.024H342.821V81.232H345.109V82.432H342.821ZM351.225 81.072C351.886 81.072 352.483 81.216 353.017 81.504C353.55 81.7813 353.966 82.2027 354.265 82.768C354.574 83.3333 354.729 84.0213 354.729 84.832V90H353.289V85.04C353.289 84.1653 353.07 83.4987 352.633 83.04C352.195 82.5707 351.598 82.336 350.841 82.336C350.073 82.336 349.459 82.576 349.001 83.056C348.553 83.536 348.329 84.2347 348.329 85.152V90H346.873V78.16H348.329V82.48C348.617 82.032 349.011 81.6853 349.513 81.44C350.025 81.1947 350.595 81.072 351.225 81.072ZM365.107 85.28C365.107 85.5573 365.091 85.8507 365.059 86.16H358.051C358.104 87.024 358.398 87.7013 358.931 88.192C359.475 88.672 360.131 88.912 360.899 88.912C361.528 88.912 362.051 88.768 362.467 88.48C362.894 88.1813 363.192 87.7867 363.363 87.296H364.931C364.696 88.1387 364.227 88.8267 363.523 89.36C362.819 89.8827 361.944 90.144 360.899 90.144C360.067 90.144 359.32 89.9573 358.659 89.584C358.008 89.2107 357.496 88.6827 357.123 88C356.75 87.3067 356.563 86.5067 356.563 85.6C356.563 84.6933 356.744 83.8987 357.107 83.216C357.47 82.5333 357.976 82.0107 358.627 81.648C359.288 81.2747 360.046 81.088 360.899 81.088C361.731 81.088 362.467 81.2693 363.107 81.632C363.747 81.9947 364.238 82.496 364.579 83.136C364.931 83.7653 365.107 84.48 365.107 85.28ZM363.603 84.976C363.603 84.4213 363.48 83.9467 363.235 83.552C362.99 83.1467 362.654 82.8427 362.227 82.64C361.811 82.4267 361.347 82.32 360.835 82.32C360.099 82.32 359.47 82.5547 358.947 83.024C358.435 83.4933 358.142 84.144 358.067 84.976H363.603ZM372.751 82.848C373.039 82.3467 373.465 81.9307 374.031 81.6C374.607 81.2587 375.273 81.088 376.031 81.088C376.809 81.088 377.513 81.2747 378.142 81.648C378.782 82.0213 379.284 82.5493 379.647 83.232C380.009 83.904 380.191 84.688 380.191 85.584C380.191 86.4693 380.009 87.2587 379.647 87.952C379.284 88.6453 378.782 89.184 378.142 89.568C377.513 89.952 376.809 90.144 376.031 90.144C375.284 90.144 374.623 89.9787 374.047 89.648C373.481 89.3067 373.049 88.8853 372.751 88.384V94.16H371.295V81.232H372.751V82.848ZM378.703 85.584C378.703 84.9227 378.569 84.3467 378.303 83.856C378.036 83.3653 377.673 82.992 377.215 82.736C376.767 82.48 376.271 82.352 375.727 82.352C375.193 82.352 374.697 82.4853 374.239 82.752C373.791 83.008 373.428 83.3867 373.151 83.888C372.884 84.3787 372.751 84.9493 372.751 85.6C372.751 86.2613 372.884 86.8427 373.151 87.344C373.428 87.8347 373.791 88.2133 374.239 88.48C374.697 88.736 375.193 88.864 375.727 88.864C376.271 88.864 376.767 88.736 377.215 88.48C377.673 88.2133 378.036 87.8347 378.303 87.344C378.569 86.8427 378.703 86.256 378.703 85.584ZM383.563 82.656C383.819 82.1547 384.182 81.7653 384.651 81.488C385.131 81.2107 385.712 81.072 386.395 81.072V82.576H386.011C384.379 82.576 383.563 83.4613 383.563 85.232V90H382.107V81.232H383.563V82.656ZM388.828 79.808C388.55 79.808 388.316 79.712 388.124 79.52C387.932 79.328 387.836 79.0933 387.836 78.816C387.836 78.5387 387.932 78.304 388.124 78.112C388.316 77.92 388.55 77.824 388.828 77.824C389.094 77.824 389.318 77.92 389.5 78.112C389.692 78.304 389.788 78.5387 389.788 78.816C389.788 79.0933 389.692 79.328 389.5 79.52C389.318 79.712 389.094 79.808 388.828 79.808ZM389.532 81.232V90H388.076V81.232H389.532ZM396.285 81.072C397.352 81.072 398.216 81.3973 398.877 82.048C399.539 82.688 399.869 83.616 399.869 84.832V90H398.429V85.04C398.429 84.1653 398.211 83.4987 397.773 83.04C397.336 82.5707 396.739 82.336 395.981 82.336C395.213 82.336 394.6 82.576 394.141 83.056C393.693 83.536 393.469 84.2347 393.469 85.152V90H392.013V81.232H393.469V82.48C393.757 82.032 394.147 81.6853 394.637 81.44C395.139 81.1947 395.688 81.072 396.285 81.072ZM404.024 82.432V87.6C404.024 88.0267 404.114 88.3307 404.296 88.512C404.477 88.6827 404.792 88.768 405.24 88.768H406.312V90H405C404.189 90 403.581 89.8133 403.176 89.44C402.77 89.0667 402.568 88.4533 402.568 87.6V82.432H401.432V81.232H402.568V79.024H404.024V81.232H406.312V82.432H404.024ZM408.828 79.808C408.55 79.808 408.316 79.712 408.124 79.52C407.932 79.328 407.836 79.0933 407.836 78.816C407.836 78.5387 407.932 78.304 408.124 78.112C408.316 77.92 408.55 77.824 408.828 77.824C409.094 77.824 409.318 77.92 409.5 78.112C409.692 78.304 409.788 78.5387 409.788 78.816C409.788 79.0933 409.692 79.328 409.5 79.52C409.318 79.712 409.094 79.808 408.828 79.808ZM409.532 81.232V90H408.076V81.232H409.532ZM416.285 81.072C417.352 81.072 418.216 81.3973 418.877 82.048C419.539 82.688 419.869 83.616 419.869 84.832V90H418.429V85.04C418.429 84.1653 418.211 83.4987 417.773 83.04C417.336 82.5707 416.739 82.336 415.981 82.336C415.213 82.336 414.6 82.576 414.141 83.056C413.693 83.536 413.469 84.2347 413.469 85.152V90H412.013V81.232H413.469V82.48C413.757 82.032 414.147 81.6853 414.637 81.44C415.139 81.1947 415.688 81.072 416.285 81.072ZM425.864 81.088C426.621 81.088 427.282 81.2533 427.848 81.584C428.424 81.9147 428.85 82.3307 429.128 82.832V81.232H430.6V90.192C430.6 90.992 430.429 91.7013 430.088 92.32C429.746 92.9493 429.256 93.44 428.616 93.792C427.986 94.144 427.25 94.32 426.408 94.32C425.256 94.32 424.296 94.048 423.528 93.504C422.76 92.96 422.306 92.2187 422.168 91.28H423.608C423.768 91.8133 424.098 92.24 424.6 92.56C425.101 92.8907 425.704 93.056 426.408 93.056C427.208 93.056 427.858 92.8053 428.36 92.304C428.872 91.8027 429.128 91.0987 429.128 90.192V88.352C428.84 88.864 428.413 89.2907 427.848 89.632C427.282 89.9733 426.621 90.144 425.864 90.144C425.085 90.144 424.376 89.952 423.736 89.568C423.106 89.184 422.61 88.6453 422.248 87.952C421.885 87.2587 421.704 86.4693 421.704 85.584C421.704 84.688 421.885 83.904 422.248 83.232C422.61 82.5493 423.106 82.0213 423.736 81.648C424.376 81.2747 425.085 81.088 425.864 81.088ZM429.128 85.6C429.128 84.9387 428.994 84.3627 428.728 83.872C428.461 83.3813 428.098 83.008 427.64 82.752C427.192 82.4853 426.696 82.352 426.152 82.352C425.608 82.352 425.112 82.48 424.664 82.736C424.216 82.992 423.858 83.3653 423.592 83.856C423.325 84.3467 423.192 84.9227 423.192 85.584C423.192 86.256 423.325 86.8427 423.592 87.344C423.858 87.8347 424.216 88.2133 424.664 88.48C425.112 88.736 425.608 88.864 426.152 88.864C426.696 88.864 427.192 88.736 427.64 88.48C428.098 88.2133 428.461 87.8347 428.728 87.344C428.994 86.8427 429.128 86.2613 429.128 85.6ZM436.782 85.584C436.782 84.688 436.963 83.904 437.326 83.232C437.688 82.5493 438.184 82.0213 438.814 81.648C439.454 81.2747 440.163 81.088 440.942 81.088C441.71 81.088 442.376 81.2533 442.942 81.584C443.507 81.9147 443.928 82.3307 444.206 82.832V81.232H445.678V90H444.206V88.368C443.918 88.88 443.486 89.3067 442.91 89.648C442.344 89.9787 441.683 90.144 440.926 90.144C440.147 90.144 439.443 89.952 438.814 89.568C438.184 89.184 437.688 88.6453 437.326 87.952C436.963 87.2587 436.782 86.4693 436.782 85.584ZM444.206 85.6C444.206 84.9387 444.072 84.3627 443.806 83.872C443.539 83.3813 443.176 83.008 442.718 82.752C442.27 82.4853 441.774 82.352 441.23 82.352C440.686 82.352 440.19 82.48 439.742 82.736C439.294 82.992 438.936 83.3653 438.67 83.856C438.403 84.3467 438.27 84.9227 438.27 85.584C438.27 86.256 438.403 86.8427 438.67 87.344C438.936 87.8347 439.294 88.2133 439.742 88.48C440.19 88.736 440.686 88.864 441.23 88.864C441.774 88.864 442.27 88.736 442.718 88.48C443.176 88.2133 443.539 87.8347 443.806 87.344C444.072 86.8427 444.206 86.2613 444.206 85.6ZM452.41 81.072C453.477 81.072 454.341 81.3973 455.002 82.048C455.664 82.688 455.994 83.616 455.994 84.832V90H454.554V85.04C454.554 84.1653 454.336 83.4987 453.898 83.04C453.461 82.5707 452.864 82.336 452.106 82.336C451.338 82.336 450.725 82.576 450.266 83.056C449.818 83.536 449.594 84.2347 449.594 85.152V90H448.138V81.232H449.594V82.48C449.882 82.032 450.272 81.6853 450.762 81.44C451.264 81.1947 451.813 81.072 452.41 81.072ZM457.829 85.584C457.829 84.688 458.01 83.904 458.373 83.232C458.735 82.5493 459.231 82.0213 459.861 81.648C460.501 81.2747 461.215 81.088 462.005 81.088C462.687 81.088 463.322 81.248 463.909 81.568C464.495 81.8773 464.943 82.288 465.253 82.8V78.16H466.725V90H465.253V88.352C464.965 88.8747 464.538 89.3067 463.973 89.648C463.407 89.9787 462.746 90.144 461.989 90.144C461.21 90.144 460.501 89.952 459.861 89.568C459.231 89.184 458.735 88.6453 458.373 87.952C458.01 87.2587 457.829 86.4693 457.829 85.584ZM465.253 85.6C465.253 84.9387 465.119 84.3627 464.853 83.872C464.586 83.3813 464.223 83.008 463.765 82.752C463.317 82.4853 462.821 82.352 462.277 82.352C461.733 82.352 461.237 82.48 460.789 82.736C460.341 82.992 459.983 83.3653 459.717 83.856C459.45 84.3467 459.317 84.9227 459.317 85.584C459.317 86.256 459.45 86.8427 459.717 87.344C459.983 87.8347 460.341 88.2133 460.789 88.48C461.237 88.736 461.733 88.864 462.277 88.864C462.821 88.864 463.317 88.736 463.765 88.48C464.223 88.2133 464.586 87.8347 464.853 87.344C465.119 86.8427 465.253 86.2613 465.253 85.6ZM475.227 82.432V87.6C475.227 88.0267 475.317 88.3307 475.499 88.512C475.68 88.6827 475.995 88.768 476.443 88.768H477.515V90H476.203C475.392 90 474.784 89.8133 474.379 89.44C473.973 89.0667 473.771 88.4533 473.771 87.6V82.432H472.635V81.232H473.771V79.024H475.227V81.232H477.515V82.432H475.227ZM486.831 81.232L481.551 94.128H480.047L481.775 89.904L478.239 81.232H479.855L482.607 88.336L485.327 81.232H486.831ZM489.751 82.848C490.039 82.3467 490.465 81.9307 491.031 81.6C491.607 81.2587 492.273 81.088 493.031 81.088C493.809 81.088 494.513 81.2747 495.142 81.648C495.782 82.0213 496.284 82.5493 496.647 83.232C497.009 83.904 497.191 84.688 497.191 85.584C497.191 86.4693 497.009 87.2587 496.647 87.952C496.284 88.6453 495.782 89.184 495.142 89.568C494.513 89.952 493.809 90.144 493.031 90.144C492.284 90.144 491.623 89.9787 491.047 89.648C490.481 89.3067 490.049 88.8853 489.751 88.384V94.16H488.295V81.232H489.751V82.848ZM495.703 85.584C495.703 84.9227 495.569 84.3467 495.303 83.856C495.036 83.3653 494.673 82.992 494.215 82.736C493.767 82.48 493.271 82.352 492.727 82.352C492.193 82.352 491.697 82.4853 491.239 82.752C490.791 83.008 490.428 83.3867 490.151 83.888C489.884 84.3787 489.751 84.9493 489.751 85.6C489.751 86.2613 489.884 86.8427 490.151 87.344C490.428 87.8347 490.791 88.2133 491.239 88.48C491.697 88.736 492.193 88.864 492.727 88.864C493.271 88.864 493.767 88.736 494.215 88.48C494.673 88.2133 495.036 87.8347 495.303 87.344C495.569 86.8427 495.703 86.256 495.703 85.584ZM507.107 85.28C507.107 85.5573 507.091 85.8507 507.059 86.16H500.051C500.104 87.024 500.398 87.7013 500.931 88.192C501.475 88.672 502.131 88.912 502.899 88.912C503.528 88.912 504.051 88.768 504.467 88.48C504.894 88.1813 505.192 87.7867 505.363 87.296H506.931C506.696 88.1387 506.227 88.8267 505.523 89.36C504.819 89.8827 503.944 90.144 502.899 90.144C502.067 90.144 501.32 89.9573 500.659 89.584C500.008 89.2107 499.496 88.6827 499.123 88C498.75 87.3067 498.563 86.5067 498.563 85.6C498.563 84.6933 498.744 83.8987 499.107 83.216C499.47 82.5333 499.976 82.0107 500.627 81.648C501.288 81.2747 502.046 81.088 502.899 81.088C503.731 81.088 504.467 81.2693 505.107 81.632C505.747 81.9947 506.238 82.496 506.579 83.136C506.931 83.7653 507.107 84.48 507.107 85.28ZM505.603 84.976C505.603 84.4213 505.48 83.9467 505.235 83.552C504.99 83.1467 504.654 82.8427 504.227 82.64C503.811 82.4267 503.347 82.32 502.835 82.32C502.099 82.32 501.47 82.5547 500.947 83.024C500.435 83.4933 500.142 84.144 500.067 84.976H505.603ZM512.133 90.144C511.461 90.144 510.858 90.032 510.325 89.808C509.792 89.5733 509.37 89.2533 509.061 88.848C508.752 88.432 508.581 87.9573 508.549 87.424H510.053C510.096 87.8613 510.298 88.2187 510.661 88.496C511.034 88.7733 511.52 88.912 512.117 88.912C512.672 88.912 513.109 88.7893 513.429 88.544C513.749 88.2987 513.909 87.9893 513.909 87.616C513.909 87.232 513.738 86.9493 513.397 86.768C513.056 86.576 512.528 86.3893 511.813 86.208C511.162 86.0373 510.629 85.8667 510.213 85.696C509.808 85.5147 509.456 85.2533 509.157 84.912C508.869 84.56 508.725 84.1013 508.725 83.536C508.725 83.088 508.858 82.6773 509.125 82.304C509.392 81.9307 509.77 81.6373 510.261 81.424C510.752 81.2 511.312 81.088 511.941 81.088C512.912 81.088 513.696 81.3333 514.293 81.824C514.89 82.3147 515.21 82.9867 515.253 83.84H513.797C513.765 83.3813 513.578 83.0133 513.237 82.736C512.906 82.4587 512.458 82.32 511.893 82.32C511.37 82.32 510.954 82.432 510.645 82.656C510.336 82.88 510.181 83.1733 510.181 83.536C510.181 83.824 510.272 84.064 510.453 84.256C510.645 84.4373 510.88 84.5867 511.157 84.704C511.445 84.8107 511.84 84.9333 512.341 85.072C512.97 85.2427 513.482 85.4133 513.877 85.584C514.272 85.744 514.608 85.9893 514.885 86.32C515.173 86.6507 515.322 87.0827 515.333 87.616C515.333 88.096 515.2 88.528 514.933 88.912C514.666 89.296 514.288 89.6 513.797 89.824C513.317 90.0373 512.762 90.144 512.133 90.144ZM525.388 85.28C525.388 85.5573 525.372 85.8507 525.34 86.16H518.332C518.386 87.024 518.679 87.7013 519.212 88.192C519.756 88.672 520.412 88.912 521.18 88.912C521.81 88.912 522.332 88.768 522.748 88.48C523.175 88.1813 523.474 87.7867 523.644 87.296H525.212C524.978 88.1387 524.508 88.8267 523.804 89.36C523.1 89.8827 522.226 90.144 521.18 90.144C520.348 90.144 519.602 89.9573 518.94 89.584C518.29 89.2107 517.778 88.6827 517.404 88C517.031 87.3067 516.844 86.5067 516.844 85.6C516.844 84.6933 517.026 83.8987 517.388 83.216C517.751 82.5333 518.258 82.0107 518.908 81.648C519.57 81.2747 520.327 81.088 521.18 81.088C522.012 81.088 522.748 81.2693 523.388 81.632C524.028 81.9947 524.519 82.496 524.86 83.136C525.212 83.7653 525.388 84.48 525.388 85.28ZM523.884 84.976C523.884 84.4213 523.762 83.9467 523.516 83.552C523.271 83.1467 522.935 82.8427 522.508 82.64C522.092 82.4267 521.628 82.32 521.116 82.32C520.38 82.32 519.751 82.5547 519.228 83.024C518.716 83.4933 518.423 84.144 518.348 84.976H523.884ZM529.086 82.432V87.6C529.086 88.0267 529.177 88.3307 529.358 88.512C529.539 88.6827 529.854 88.768 530.302 88.768H531.374V90H530.062C529.251 90 528.643 89.8133 528.238 89.44C527.833 89.0667 527.63 88.4533 527.63 87.6V82.432H526.494V81.232H527.63V79.024H529.086V81.232H531.374V82.432H529.086ZM534.914 82.432V87.6C534.914 88.0267 535.005 88.3307 535.186 88.512C535.368 88.6827 535.682 88.768 536.13 88.768H537.202V90H535.89C535.08 90 534.472 89.8133 534.066 89.44C533.661 89.0667 533.458 88.4533 533.458 87.6V82.432H532.322V81.232H533.458V79.024H534.914V81.232H537.202V82.432H534.914ZM539.718 79.808C539.441 79.808 539.206 79.712 539.014 79.52C538.822 79.328 538.726 79.0933 538.726 78.816C538.726 78.5387 538.822 78.304 539.014 78.112C539.206 77.92 539.441 77.824 539.718 77.824C539.985 77.824 540.209 77.92 540.39 78.112C540.582 78.304 540.678 78.5387 540.678 78.816C540.678 79.0933 540.582 79.328 540.39 79.52C540.209 79.712 539.985 79.808 539.718 79.808ZM540.422 81.232V90H538.966V81.232H540.422ZM547.176 81.072C548.243 81.072 549.107 81.3973 549.768 82.048C550.429 82.688 550.76 83.616 550.76 84.832V90H549.32V85.04C549.32 84.1653 549.101 83.4987 548.664 83.04C548.227 82.5707 547.629 82.336 546.872 82.336C546.104 82.336 545.491 82.576 545.032 83.056C544.584 83.536 544.36 84.2347 544.36 85.152V90H542.904V81.232H544.36V82.48C544.648 82.032 545.037 81.6853 545.528 81.44C546.029 81.1947 546.579 81.072 547.176 81.072ZM556.754 81.088C557.512 81.088 558.173 81.2533 558.738 81.584C559.314 81.9147 559.741 82.3307 560.018 82.832V81.232H561.49V90.192C561.49 90.992 561.32 91.7013 560.978 92.32C560.637 92.9493 560.146 93.44 559.506 93.792C558.877 94.144 558.141 94.32 557.298 94.32C556.146 94.32 555.186 94.048 554.418 93.504C553.65 92.96 553.197 92.2187 553.058 91.28H554.498C554.658 91.8133 554.989 92.24 555.49 92.56C555.992 92.8907 556.594 93.056 557.298 93.056C558.098 93.056 558.749 92.8053 559.25 92.304C559.762 91.8027 560.018 91.0987 560.018 90.192V88.352C559.73 88.864 559.304 89.2907 558.738 89.632C558.173 89.9733 557.512 90.144 556.754 90.144C555.976 90.144 555.266 89.952 554.626 89.568C553.997 89.184 553.501 88.6453 553.138 87.952C552.776 87.2587 552.594 86.4693 552.594 85.584C552.594 84.688 552.776 83.904 553.138 83.232C553.501 82.5493 553.997 82.0213 554.626 81.648C555.266 81.2747 555.976 81.088 556.754 81.088ZM560.018 85.6C560.018 84.9387 559.885 84.3627 559.618 83.872C559.352 83.3813 558.989 83.008 558.53 82.752C558.082 82.4853 557.586 82.352 557.042 82.352C556.498 82.352 556.002 82.48 555.554 82.736C555.106 82.992 554.749 83.3653 554.482 83.856C554.216 84.3467 554.082 84.9227 554.082 85.584C554.082 86.256 554.216 86.8427 554.482 87.344C554.749 87.8347 555.106 88.2133 555.554 88.48C556.002 88.736 556.498 88.864 557.042 88.864C557.586 88.864 558.082 88.736 558.53 88.48C558.989 88.2133 559.352 87.8347 559.618 87.344C559.885 86.8427 560.018 86.2613 560.018 85.6ZM568.968 79.808C568.691 79.808 568.456 79.712 568.264 79.52C568.072 79.328 567.976 79.0933 567.976 78.816C567.976 78.5387 568.072 78.304 568.264 78.112C568.456 77.92 568.691 77.824 568.968 77.824C569.235 77.824 569.459 77.92 569.64 78.112C569.832 78.304 569.928 78.5387 569.928 78.816C569.928 79.0933 569.832 79.328 569.64 79.52C569.459 79.712 569.235 79.808 568.968 79.808ZM569.672 81.232V90H568.216V81.232H569.672ZM576.426 81.072C577.493 81.072 578.357 81.3973 579.018 82.048C579.679 82.688 580.01 83.616 580.01 84.832V90H578.57V85.04C578.57 84.1653 578.351 83.4987 577.914 83.04C577.477 82.5707 576.879 82.336 576.122 82.336C575.354 82.336 574.741 82.576 574.282 83.056C573.834 83.536 573.61 84.2347 573.61 85.152V90H572.154V81.232H573.61V82.48C573.898 82.032 574.287 81.6853 574.778 81.44C575.279 81.1947 575.829 81.072 576.426 81.072ZM581.844 85.584C581.844 84.688 582.026 83.904 582.388 83.232C582.751 82.5493 583.247 82.0213 583.876 81.648C584.516 81.2747 585.231 81.088 586.02 81.088C586.703 81.088 587.338 81.248 587.924 81.568C588.511 81.8773 588.959 82.288 589.268 82.8V78.16H590.74V90H589.268V88.352C588.98 88.8747 588.554 89.3067 587.988 89.648C587.423 89.9787 586.762 90.144 586.004 90.144C585.226 90.144 584.516 89.952 583.876 89.568C583.247 89.184 582.751 88.6453 582.388 87.952C582.026 87.2587 581.844 86.4693 581.844 85.584ZM589.268 85.6C589.268 84.9387 589.135 84.3627 588.868 83.872C588.602 83.3813 588.239 83.008 587.78 82.752C587.332 82.4853 586.836 82.352 586.292 82.352C585.748 82.352 585.252 82.48 584.804 82.736C584.356 82.992 583.999 83.3653 583.732 83.856C583.466 84.3467 583.332 84.9227 583.332 85.584C583.332 86.256 583.466 86.8427 583.732 87.344C583.999 87.8347 584.356 88.2133 584.804 88.48C585.252 88.736 585.748 88.864 586.292 88.864C586.836 88.864 587.332 88.736 587.78 88.48C588.239 88.2133 588.602 87.8347 588.868 87.344C589.135 86.8427 589.268 86.2613 589.268 85.6ZM600.977 81.232V90H599.521V88.704C599.243 89.152 598.854 89.504 598.353 89.76C597.862 90.0053 597.318 90.128 596.721 90.128C596.038 90.128 595.425 89.9893 594.881 89.712C594.337 89.424 593.905 88.9973 593.585 88.432C593.275 87.8667 593.121 87.1787 593.121 86.368V81.232H594.561V86.176C594.561 87.04 594.779 87.7067 595.217 88.176C595.654 88.6347 596.251 88.864 597.009 88.864C597.787 88.864 598.401 88.624 598.849 88.144C599.297 87.664 599.521 86.9653 599.521 86.048V81.232H600.977ZM606.539 90.144C605.867 90.144 605.264 90.032 604.731 89.808C604.198 89.5733 603.776 89.2533 603.467 88.848C603.158 88.432 602.987 87.9573 602.955 87.424H604.459C604.502 87.8613 604.704 88.2187 605.067 88.496C605.44 88.7733 605.926 88.912 606.523 88.912C607.078 88.912 607.515 88.7893 607.835 88.544C608.155 88.2987 608.315 87.9893 608.315 87.616C608.315 87.232 608.144 86.9493 607.803 86.768C607.462 86.576 606.934 86.3893 606.219 86.208C605.568 86.0373 605.035 85.8667 604.619 85.696C604.214 85.5147 603.862 85.2533 603.563 84.912C603.275 84.56 603.131 84.1013 603.131 83.536C603.131 83.088 603.264 82.6773 603.531 82.304C603.798 81.9307 604.176 81.6373 604.667 81.424C605.158 81.2 605.718 81.088 606.347 81.088C607.318 81.088 608.102 81.3333 608.699 81.824C609.296 82.3147 609.616 82.9867 609.659 83.84H608.203C608.171 83.3813 607.984 83.0133 607.643 82.736C607.312 82.4587 606.864 82.32 606.299 82.32C605.776 82.32 605.36 82.432 605.051 82.656C604.742 82.88 604.587 83.1733 604.587 83.536C604.587 83.824 604.678 84.064 604.859 84.256C605.051 84.4373 605.286 84.5867 605.563 84.704C605.851 84.8107 606.246 84.9333 606.747 85.072C607.376 85.2427 607.888 85.4133 608.283 85.584C608.678 85.744 609.014 85.9893 609.291 86.32C609.579 86.6507 609.728 87.0827 609.739 87.616C609.739 88.096 609.606 88.528 609.339 88.912C609.072 89.296 608.694 89.6 608.203 89.824C607.723 90.0373 607.168 90.144 606.539 90.144ZM613.571 82.432V87.6C613.571 88.0267 613.661 88.3307 613.843 88.512C614.024 88.6827 614.339 88.768 614.786 88.768H615.859V90H614.547C613.736 90 613.128 89.8133 612.723 89.44C612.317 89.0667 612.115 88.4533 612.115 87.6V82.432H610.979V81.232H612.115V79.024H613.571V81.232H615.859V82.432H613.571ZM619.079 82.656C619.335 82.1547 619.697 81.7653 620.167 81.488C620.647 81.2107 621.228 81.072 621.911 81.072V82.576H621.527C619.895 82.576 619.079 83.4613 619.079 85.232V90H617.623V81.232H619.079V82.656ZM631.143 81.232L625.863 94.128H624.359L626.087 89.904L622.551 81.232H624.167L626.919 88.336L629.639 81.232H631.143ZM633.071 90.096C632.794 90.096 632.559 90 632.367 89.808C632.175 89.616 632.079 89.3813 632.079 89.104C632.079 88.8267 632.175 88.592 632.367 88.4C632.559 88.208 632.794 88.112 633.071 88.112C633.338 88.112 633.562 88.208 633.743 88.4C633.935 88.592 634.031 88.8267 634.031 89.104C634.031 89.3813 633.935 89.616 633.743 89.808C633.562 90 633.338 90.096 633.071 90.096ZM40.688 112.816H44.592V114H39.232V102.848H40.688V112.816ZM49.9623 114.144C49.1409 114.144 48.3943 113.957 47.7223 113.584C47.0609 113.211 46.5383 112.683 46.1543 112C45.7809 111.307 45.5943 110.507 45.5943 109.6C45.5943 108.704 45.7863 107.915 46.1703 107.232C46.5649 106.539 47.0983 106.011 47.7703 105.648C48.4423 105.275 49.1943 105.088 50.0263 105.088C50.8583 105.088 51.6103 105.275 52.2823 105.648C52.9543 106.011 53.4823 106.533 53.8663 107.216C54.2609 107.899 54.4583 108.693 54.4583 109.6C54.4583 110.507 54.2556 111.307 53.8503 112C53.4556 112.683 52.9169 113.211 52.2343 113.584C51.5516 113.957 50.7943 114.144 49.9623 114.144ZM49.9623 112.864C50.4849 112.864 50.9756 112.741 51.4343 112.496C51.8929 112.251 52.2609 111.883 52.5383 111.392C52.8263 110.901 52.9703 110.304 52.9703 109.6C52.9703 108.896 52.8316 108.299 52.5543 107.808C52.2769 107.317 51.9143 106.955 51.4663 106.72C51.0183 106.475 50.5329 106.352 50.0103 106.352C49.4769 106.352 48.9863 106.475 48.5383 106.72C48.1009 106.955 47.7489 107.317 47.4823 107.808C47.2156 108.299 47.0823 108.896 47.0823 109.6C47.0823 110.315 47.2103 110.917 47.4663 111.408C47.7329 111.899 48.0849 112.267 48.5223 112.512C48.9596 112.747 49.4396 112.864 49.9623 112.864ZM57.8286 106.656C58.0846 106.155 58.4473 105.765 58.9166 105.488C59.3966 105.211 59.978 105.072 60.6606 105.072V106.576H60.2766C58.6446 106.576 57.8286 107.461 57.8286 109.232V114H56.3726V105.232H57.8286V106.656ZM70.3414 109.28C70.3414 109.557 70.3254 109.851 70.2934 110.16H63.2854C63.3387 111.024 63.632 111.701 64.1654 112.192C64.7094 112.672 65.3654 112.912 66.1334 112.912C66.7627 112.912 67.2854 112.768 67.7014 112.48C68.128 112.181 68.4267 111.787 68.5974 111.296H70.1654C69.9307 112.139 69.4614 112.827 68.7574 113.36C68.0534 113.883 67.1787 114.144 66.1334 114.144C65.3014 114.144 64.5547 113.957 63.8934 113.584C63.2427 113.211 62.7307 112.683 62.3574 112C61.984 111.307 61.7974 110.507 61.7974 109.6C61.7974 108.693 61.9787 107.899 62.3414 107.216C62.704 106.533 63.2107 106.011 63.8614 105.648C64.5227 105.275 65.28 105.088 66.1334 105.088C66.9654 105.088 67.7014 105.269 68.3414 105.632C68.9814 105.995 69.472 106.496 69.8134 107.136C70.1654 107.765 70.3414 108.48 70.3414 109.28ZM68.8374 108.976C68.8374 108.421 68.7147 107.947 68.4694 107.552C68.224 107.147 67.888 106.843 67.4614 106.64C67.0454 106.427 66.5814 106.32 66.0694 106.32C65.3334 106.32 64.704 106.555 64.1814 107.024C63.6694 107.493 63.376 108.144 63.3014 108.976H68.8374ZM82.8073 105.072C83.4899 105.072 84.0979 105.216 84.6313 105.504C85.1646 105.781 85.5859 106.203 85.8953 106.768C86.2046 107.333 86.3593 108.021 86.3593 108.832V114H84.9193V109.04C84.9193 108.165 84.7006 107.499 84.2633 107.04C83.8366 106.571 83.2553 106.336 82.5193 106.336C81.7619 106.336 81.1593 106.581 80.7113 107.072C80.2633 107.552 80.0393 108.251 80.0393 109.168V114H78.5993V109.04C78.5993 108.165 78.3806 107.499 77.9433 107.04C77.5166 106.571 76.9353 106.336 76.1993 106.336C75.4419 106.336 74.8393 106.581 74.3913 107.072C73.9433 107.552 73.7193 108.251 73.7193 109.168V114H72.2633V105.232H73.7193V106.496C74.0073 106.037 74.3913 105.685 74.8713 105.44C75.3619 105.195 75.9006 105.072 76.4873 105.072C77.2233 105.072 77.8739 105.237 78.4393 105.568C79.0046 105.899 79.4259 106.384 79.7033 107.024C79.9486 106.405 80.3539 105.925 80.9193 105.584C81.4846 105.243 82.1139 105.072 82.8073 105.072ZM94.4693 102.848V114H93.0133V102.848H94.4693ZM98.4068 106.848C98.6948 106.347 99.1214 105.931 99.6868 105.6C100.263 105.259 100.929 105.088 101.687 105.088C102.465 105.088 103.169 105.275 103.799 105.648C104.439 106.021 104.94 106.549 105.303 107.232C105.665 107.904 105.847 108.688 105.847 109.584C105.847 110.469 105.665 111.259 105.303 111.952C104.94 112.645 104.439 113.184 103.799 113.568C103.169 113.952 102.465 114.144 101.687 114.144C100.94 114.144 100.279 113.979 99.7028 113.648C99.1374 113.307 98.7054 112.885 98.4068 112.384V118.16H96.9508V105.232H98.4068V106.848ZM104.359 109.584C104.359 108.923 104.225 108.347 103.959 107.856C103.692 107.365 103.329 106.992 102.871 106.736C102.423 106.48 101.927 106.352 101.383 106.352C100.849 106.352 100.353 106.485 99.8948 106.752C99.4468 107.008 99.0841 107.387 98.8068 107.888C98.5401 108.379 98.4068 108.949 98.4068 109.6C98.4068 110.261 98.5401 110.843 98.8068 111.344C99.0841 111.835 99.4468 112.213 99.8948 112.48C100.353 112.736 100.849 112.864 101.383 112.864C101.927 112.864 102.423 112.736 102.871 112.48C103.329 112.213 103.692 111.835 103.959 111.344C104.225 110.843 104.359 110.256 104.359 109.584ZM110.867 114.144C110.195 114.144 109.593 114.032 109.059 113.808C108.526 113.573 108.105 113.253 107.795 112.848C107.486 112.432 107.315 111.957 107.283 111.424H108.787C108.83 111.861 109.033 112.219 109.395 112.496C109.769 112.773 110.254 112.912 110.851 112.912C111.406 112.912 111.843 112.789 112.163 112.544C112.483 112.299 112.643 111.989 112.643 111.616C112.643 111.232 112.473 110.949 112.131 110.768C111.79 110.576 111.262 110.389 110.547 110.208C109.897 110.037 109.363 109.867 108.947 109.696C108.542 109.515 108.19 109.253 107.891 108.912C107.603 108.56 107.459 108.101 107.459 107.536C107.459 107.088 107.593 106.677 107.859 106.304C108.126 105.931 108.505 105.637 108.995 105.424C109.486 105.2 110.046 105.088 110.675 105.088C111.646 105.088 112.43 105.333 113.027 105.824C113.625 106.315 113.945 106.987 113.987 107.84H112.531C112.499 107.381 112.313 107.013 111.971 106.736C111.641 106.459 111.193 106.32 110.627 106.32C110.105 106.32 109.689 106.432 109.379 106.656C109.07 106.88 108.915 107.173 108.915 107.536C108.915 107.824 109.006 108.064 109.187 108.256C109.379 108.437 109.614 108.587 109.891 108.704C110.179 108.811 110.574 108.933 111.075 109.072C111.705 109.243 112.217 109.413 112.611 109.584C113.006 109.744 113.342 109.989 113.619 110.32C113.907 110.651 114.057 111.083 114.067 111.616C114.067 112.096 113.934 112.528 113.667 112.912C113.401 113.296 113.022 113.6 112.531 113.824C112.051 114.037 111.497 114.144 110.867 114.144ZM123.899 105.232V114H122.443V112.704C122.165 113.152 121.776 113.504 121.275 113.76C120.784 114.005 120.24 114.128 119.643 114.128C118.96 114.128 118.347 113.989 117.803 113.712C117.259 113.424 116.827 112.997 116.507 112.432C116.197 111.867 116.043 111.179 116.043 110.368V105.232H117.483V110.176C117.483 111.04 117.701 111.707 118.139 112.176C118.576 112.635 119.173 112.864 119.931 112.864C120.709 112.864 121.323 112.624 121.771 112.144C122.219 111.664 122.443 110.965 122.443 110.048V105.232H123.899ZM136.901 105.072C137.584 105.072 138.192 105.216 138.725 105.504C139.258 105.781 139.68 106.203 139.989 106.768C140.298 107.333 140.453 108.021 140.453 108.832V114H139.013V109.04C139.013 108.165 138.794 107.499 138.357 107.04C137.93 106.571 137.349 106.336 136.613 106.336C135.856 106.336 135.253 106.581 134.805 107.072C134.357 107.552 134.133 108.251 134.133 109.168V114H132.693V109.04C132.693 108.165 132.474 107.499 132.037 107.04C131.61 106.571 131.029 106.336 130.293 106.336C129.536 106.336 128.933 106.581 128.485 107.072C128.037 107.552 127.813 108.251 127.813 109.168V114H126.357V105.232H127.813V106.496C128.101 106.037 128.485 105.685 128.965 105.44C129.456 105.195 129.994 105.072 130.581 105.072C131.317 105.072 131.968 105.237 132.533 105.568C133.098 105.899 133.52 106.384 133.797 107.024C134.042 106.405 134.448 105.925 135.013 105.584C135.578 105.243 136.208 105.072 136.901 105.072ZM151.459 105.072C152.12 105.072 152.718 105.216 153.251 105.504C153.784 105.781 154.2 106.203 154.499 106.768C154.808 107.333 154.963 108.021 154.963 108.832V114H153.523V109.04C153.523 108.165 153.304 107.499 152.867 107.04C152.43 106.571 151.832 106.336 151.075 106.336C150.307 106.336 149.694 106.576 149.235 107.056C148.787 107.536 148.563 108.235 148.563 109.152V114H147.107V102.16H148.563V106.48C148.851 106.032 149.246 105.685 149.747 105.44C150.259 105.195 150.83 105.072 151.459 105.072ZM156.797 109.584C156.797 108.688 156.979 107.904 157.341 107.232C157.704 106.549 158.2 106.021 158.829 105.648C159.469 105.275 160.179 105.088 160.957 105.088C161.725 105.088 162.392 105.253 162.957 105.584C163.523 105.915 163.944 106.331 164.221 106.832V105.232H165.693V114H164.221V112.368C163.933 112.88 163.501 113.307 162.925 113.648C162.36 113.979 161.699 114.144 160.941 114.144C160.163 114.144 159.459 113.952 158.829 113.568C158.2 113.184 157.704 112.645 157.341 111.952C156.979 111.259 156.797 110.469 156.797 109.584ZM164.221 109.6C164.221 108.939 164.088 108.363 163.821 107.872C163.555 107.381 163.192 107.008 162.733 106.752C162.285 106.485 161.789 106.352 161.245 106.352C160.701 106.352 160.205 106.48 159.757 106.736C159.309 106.992 158.952 107.365 158.685 107.856C158.419 108.347 158.285 108.923 158.285 109.584C158.285 110.256 158.419 110.843 158.685 111.344C158.952 111.835 159.309 112.213 159.757 112.48C160.205 112.736 160.701 112.864 161.245 112.864C161.789 112.864 162.285 112.736 162.733 112.48C163.192 112.213 163.555 111.835 163.821 111.344C164.088 110.843 164.221 110.261 164.221 109.6ZM171.258 114.144C170.586 114.144 169.983 114.032 169.45 113.808C168.917 113.573 168.495 113.253 168.186 112.848C167.877 112.432 167.706 111.957 167.674 111.424H169.178C169.221 111.861 169.423 112.219 169.786 112.496C170.159 112.773 170.645 112.912 171.242 112.912C171.797 112.912 172.234 112.789 172.554 112.544C172.874 112.299 173.034 111.989 173.034 111.616C173.034 111.232 172.863 110.949 172.522 110.768C172.181 110.576 171.653 110.389 170.938 110.208C170.287 110.037 169.754 109.867 169.338 109.696C168.933 109.515 168.581 109.253 168.282 108.912C167.994 108.56 167.85 108.101 167.85 107.536C167.85 107.088 167.983 106.677 168.25 106.304C168.517 105.931 168.895 105.637 169.386 105.424C169.877 105.2 170.437 105.088 171.066 105.088C172.037 105.088 172.821 105.333 173.418 105.824C174.015 106.315 174.335 106.987 174.378 107.84H172.922C172.89 107.381 172.703 107.013 172.362 106.736C172.031 106.459 171.583 106.32 171.018 106.32C170.495 106.32 170.079 106.432 169.77 106.656C169.461 106.88 169.306 107.173 169.306 107.536C169.306 107.824 169.397 108.064 169.578 108.256C169.77 108.437 170.005 108.587 170.282 108.704C170.57 108.811 170.965 108.933 171.466 109.072C172.095 109.243 172.607 109.413 173.002 109.584C173.397 109.744 173.733 109.989 174.01 110.32C174.298 110.651 174.447 111.083 174.458 111.616C174.458 112.096 174.325 112.528 174.058 112.912C173.791 113.296 173.413 113.6 172.922 113.824C172.442 114.037 171.887 114.144 171.258 114.144ZM182.235 106.864C182.534 106.341 182.971 105.915 183.547 105.584C184.123 105.253 184.779 105.088 185.515 105.088C186.304 105.088 187.014 105.275 187.643 105.648C188.272 106.021 188.768 106.549 189.131 107.232C189.494 107.904 189.675 108.688 189.675 109.584C189.675 110.469 189.494 111.259 189.131 111.952C188.768 112.645 188.267 113.184 187.627 113.568C186.998 113.952 186.294 114.144 185.515 114.144C184.758 114.144 184.091 113.979 183.515 113.648C182.95 113.317 182.523 112.896 182.235 112.384V114H180.779V102.16H182.235V106.864ZM188.187 109.584C188.187 108.923 188.054 108.347 187.787 107.856C187.52 107.365 187.158 106.992 186.699 106.736C186.251 106.48 185.755 106.352 185.211 106.352C184.678 106.352 184.182 106.485 183.723 106.752C183.275 107.008 182.912 107.387 182.635 107.888C182.368 108.379 182.235 108.949 182.235 109.6C182.235 110.261 182.368 110.843 182.635 111.344C182.912 111.835 183.275 112.213 183.723 112.48C184.182 112.736 184.678 112.864 185.211 112.864C185.755 112.864 186.251 112.736 186.699 112.48C187.158 112.213 187.52 111.835 187.787 111.344C188.054 110.843 188.187 110.256 188.187 109.584ZM199.591 109.28C199.591 109.557 199.575 109.851 199.543 110.16H192.535C192.589 111.024 192.882 111.701 193.415 112.192C193.959 112.672 194.615 112.912 195.383 112.912C196.013 112.912 196.535 112.768 196.951 112.48C197.378 112.181 197.677 111.787 197.847 111.296H199.415C199.181 112.139 198.711 112.827 198.007 113.36C197.303 113.883 196.429 114.144 195.383 114.144C194.551 114.144 193.805 113.957 193.143 113.584C192.493 113.211 191.981 112.683 191.607 112C191.234 111.307 191.047 110.507 191.047 109.6C191.047 108.693 191.229 107.899 191.591 107.216C191.954 106.533 192.461 106.011 193.111 105.648C193.773 105.275 194.53 105.088 195.383 105.088C196.215 105.088 196.951 105.269 197.591 105.632C198.231 105.995 198.722 106.496 199.063 107.136C199.415 107.765 199.591 108.48 199.591 109.28ZM198.087 108.976C198.087 108.421 197.965 107.947 197.719 107.552C197.474 107.147 197.138 106.843 196.711 106.64C196.295 106.427 195.831 106.32 195.319 106.32C194.583 106.32 193.954 106.555 193.431 107.024C192.919 107.493 192.626 108.144 192.551 108.976H198.087ZM209.513 109.28C209.513 109.557 209.497 109.851 209.465 110.16H202.457C202.511 111.024 202.804 111.701 203.337 112.192C203.881 112.672 204.537 112.912 205.305 112.912C205.935 112.912 206.457 112.768 206.873 112.48C207.3 112.181 207.599 111.787 207.769 111.296H209.337C209.103 112.139 208.633 112.827 207.929 113.36C207.225 113.883 206.351 114.144 205.305 114.144C204.473 114.144 203.727 113.957 203.065 113.584C202.415 113.211 201.903 112.683 201.529 112C201.156 111.307 200.969 110.507 200.969 109.6C200.969 108.693 201.151 107.899 201.513 107.216C201.876 106.533 202.383 106.011 203.033 105.648C203.695 105.275 204.452 105.088 205.305 105.088C206.137 105.088 206.873 105.269 207.513 105.632C208.153 105.995 208.644 106.496 208.985 107.136C209.337 107.765 209.513 108.48 209.513 109.28ZM208.009 108.976C208.009 108.421 207.887 107.947 207.641 107.552C207.396 107.147 207.06 106.843 206.633 106.64C206.217 106.427 205.753 106.32 205.241 106.32C204.505 106.32 203.876 106.555 203.353 107.024C202.841 107.493 202.548 108.144 202.473 108.976H208.009ZM215.707 105.072C216.774 105.072 217.638 105.397 218.299 106.048C218.96 106.688 219.291 107.616 219.291 108.832V114H217.851V109.04C217.851 108.165 217.632 107.499 217.195 107.04C216.758 106.571 216.16 106.336 215.403 106.336C214.635 106.336 214.022 106.576 213.563 107.056C213.115 107.536 212.891 108.235 212.891 109.152V114H211.435V105.232H212.891V106.48C213.179 106.032 213.568 105.685 214.059 105.44C214.56 105.195 215.11 105.072 215.707 105.072ZM227.711 106.432V111.6C227.711 112.027 227.802 112.331 227.983 112.512C228.164 112.683 228.479 112.768 228.927 112.768H229.999V114H228.687C227.876 114 227.268 113.813 226.863 113.44C226.458 113.067 226.255 112.453 226.255 111.6V106.432H225.119V105.232H226.255V103.024H227.711V105.232H229.999V106.432H227.711ZM236.115 105.072C236.777 105.072 237.374 105.216 237.907 105.504C238.441 105.781 238.857 106.203 239.155 106.768C239.465 107.333 239.619 108.021 239.619 108.832V114H238.179V109.04C238.179 108.165 237.961 107.499 237.523 107.04C237.086 106.571 236.489 106.336 235.731 106.336C234.963 106.336 234.35 106.576 233.891 107.056C233.443 107.536 233.219 108.235 233.219 109.152V114H231.763V102.16H233.219V106.48C233.507 106.032 233.902 105.685 234.403 105.44C234.915 105.195 235.486 105.072 236.115 105.072ZM249.998 109.28C249.998 109.557 249.982 109.851 249.95 110.16H242.942C242.995 111.024 243.288 111.701 243.822 112.192C244.366 112.672 245.022 112.912 245.79 112.912C246.419 112.912 246.942 112.768 247.358 112.48C247.784 112.181 248.083 111.787 248.254 111.296H249.822C249.587 112.139 249.118 112.827 248.414 113.36C247.71 113.883 246.835 114.144 245.79 114.144C244.958 114.144 244.211 113.957 243.55 113.584C242.899 113.211 242.387 112.683 242.014 112C241.64 111.307 241.454 110.507 241.454 109.6C241.454 108.693 241.635 107.899 241.998 107.216C242.36 106.533 242.867 106.011 243.518 105.648C244.179 105.275 244.936 105.088 245.79 105.088C246.622 105.088 247.358 105.269 247.998 105.632C248.638 105.995 249.128 106.496 249.47 107.136C249.822 107.765 249.998 108.48 249.998 109.28ZM248.494 108.976C248.494 108.421 248.371 107.947 248.126 107.552C247.88 107.147 247.544 106.843 247.118 106.64C246.702 106.427 246.238 106.32 245.726 106.32C244.99 106.32 244.36 106.555 243.838 107.024C243.326 107.493 243.032 108.144 242.958 108.976H248.494ZM256.937 103.808C256.66 103.808 256.425 103.712 256.233 103.52C256.041 103.328 255.945 103.093 255.945 102.816C255.945 102.539 256.041 102.304 256.233 102.112C256.425 101.92 256.66 101.824 256.937 101.824C257.204 101.824 257.428 101.92 257.609 102.112C257.801 102.304 257.897 102.539 257.897 102.816C257.897 103.093 257.801 103.328 257.609 103.52C257.428 103.712 257.204 103.808 256.937 103.808ZM257.641 105.232V114H256.185V105.232H257.641ZM264.395 105.072C265.461 105.072 266.325 105.397 266.987 106.048C267.648 106.688 267.979 107.616 267.979 108.832V114H266.539V109.04C266.539 108.165 266.32 107.499 265.883 107.04C265.445 106.571 264.848 106.336 264.091 106.336C263.323 106.336 262.709 106.576 262.251 107.056C261.803 107.536 261.579 108.235 261.579 109.152V114H260.123V105.232H261.579V106.48C261.867 106.032 262.256 105.685 262.747 105.44C263.248 105.195 263.797 105.072 264.395 105.072ZM269.813 109.584C269.813 108.688 269.994 107.904 270.357 107.232C270.72 106.549 271.216 106.021 271.845 105.648C272.485 105.275 273.2 105.088 273.989 105.088C274.672 105.088 275.306 105.248 275.893 105.568C276.48 105.877 276.928 106.288 277.237 106.8V102.16H278.709V114H277.237V112.352C276.949 112.875 276.522 113.307 275.957 113.648C275.392 113.979 274.73 114.144 273.973 114.144C273.194 114.144 272.485 113.952 271.845 113.568C271.216 113.184 270.72 112.645 270.357 111.952C269.994 111.259 269.813 110.469 269.813 109.584ZM277.237 109.6C277.237 108.939 277.104 108.363 276.837 107.872C276.57 107.381 276.208 107.008 275.749 106.752C275.301 106.485 274.805 106.352 274.261 106.352C273.717 106.352 273.221 106.48 272.773 106.736C272.325 106.992 271.968 107.365 271.701 107.856C271.434 108.347 271.301 108.923 271.301 109.584C271.301 110.256 271.434 110.843 271.701 111.344C271.968 111.835 272.325 112.213 272.773 112.48C273.221 112.736 273.717 112.864 274.261 112.864C274.805 112.864 275.301 112.736 275.749 112.48C276.208 112.213 276.57 111.835 276.837 111.344C277.104 110.843 277.237 110.261 277.237 109.6ZM288.946 105.232V114H287.49V112.704C287.212 113.152 286.823 113.504 286.322 113.76C285.831 114.005 285.287 114.128 284.69 114.128C284.007 114.128 283.394 113.989 282.85 113.712C282.306 113.424 281.874 112.997 281.554 112.432C281.244 111.867 281.09 111.179 281.09 110.368V105.232H282.53V110.176C282.53 111.04 282.748 111.707 283.186 112.176C283.623 112.635 284.22 112.864 284.978 112.864C285.756 112.864 286.37 112.624 286.818 112.144C287.266 111.664 287.49 110.965 287.49 110.048V105.232H288.946ZM294.508 114.144C293.836 114.144 293.233 114.032 292.7 113.808C292.167 113.573 291.745 113.253 291.436 112.848C291.127 112.432 290.956 111.957 290.924 111.424H292.428C292.471 111.861 292.673 112.219 293.036 112.496C293.409 112.773 293.895 112.912 294.492 112.912C295.047 112.912 295.484 112.789 295.804 112.544C296.124 112.299 296.284 111.989 296.284 111.616C296.284 111.232 296.113 110.949 295.772 110.768C295.431 110.576 294.903 110.389 294.188 110.208C293.537 110.037 293.004 109.867 292.588 109.696C292.183 109.515 291.831 109.253 291.532 108.912C291.244 108.56 291.1 108.101 291.1 107.536C291.1 107.088 291.233 106.677 291.5 106.304C291.767 105.931 292.145 105.637 292.636 105.424C293.127 105.2 293.687 105.088 294.316 105.088C295.287 105.088 296.071 105.333 296.668 105.824C297.265 106.315 297.585 106.987 297.628 107.84H296.172C296.14 107.381 295.953 107.013 295.612 106.736C295.281 106.459 294.833 106.32 294.268 106.32C293.745 106.32 293.329 106.432 293.02 106.656C292.711 106.88 292.556 107.173 292.556 107.536C292.556 107.824 292.647 108.064 292.828 108.256C293.02 108.437 293.255 108.587 293.532 108.704C293.82 108.811 294.215 108.933 294.716 109.072C295.345 109.243 295.857 109.413 296.252 109.584C296.647 109.744 296.983 109.989 297.26 110.32C297.548 110.651 297.697 111.083 297.708 111.616C297.708 112.096 297.575 112.528 297.308 112.912C297.041 113.296 296.663 113.6 296.172 113.824C295.692 114.037 295.137 114.144 294.508 114.144ZM301.539 106.432V111.6C301.539 112.027 301.63 112.331 301.811 112.512C301.993 112.683 302.307 112.768 302.755 112.768H303.827V114H302.515C301.705 114 301.097 113.813 300.691 113.44C300.286 113.067 300.083 112.453 300.083 111.6V106.432H298.947V105.232H300.083V103.024H301.539V105.232H303.827V106.432H301.539ZM307.047 106.656C307.303 106.155 307.666 105.765 308.135 105.488C308.615 105.211 309.197 105.072 309.879 105.072V106.576H309.495C307.863 106.576 307.047 107.461 307.047 109.232V114H305.591V105.232H307.047V106.656ZM319.112 105.232L313.832 118.128H312.328L314.056 113.904L310.52 105.232H312.136L314.888 112.336L317.608 105.232H319.112ZM321.312 101.264L321.12 104.448H320.112L319.904 101.264H321.312Z" fill="#444444"/>
<rect x="0.5" y="0.5" width="1091" height="165" rx="7.5" stroke="#FFB1FA"/>
</svg>
