<svg width="25" height="26" viewBox="0 0 25 26" fill="none" xmlns="http://www.w3.org/2000/svg">
<g clip-path="url(#clip0_2665_7369)">
<path d="M2.97249 25.3862C2.85212 25.2877 2.69935 25.3036 2.56113 25.2705C1.07047 24.9127 0.150547 23.7911 0.0460548 22.2244C-0.0491782 20.7978 0.301994 19.4566 0.814533 18.1492C1.74041 15.7855 3.11071 13.6831 4.66023 11.6899C5.02 11.2269 5.39564 10.7772 5.77459 10.309C5.98688 10.4922 6.29308 10.6324 6.35591 10.8447C6.42006 11.0616 6.09732 11.2421 5.94125 11.4346C4.33022 13.4219 2.89313 15.519 1.85681 17.8701C1.4104 18.8839 1.05394 19.9275 0.91704 21.0339C0.851568 21.561 0.843632 22.0901 0.954737 22.6126C1.1829 23.6866 1.94013 24.3578 3.04193 24.4954C4.17943 24.6369 5.25543 24.3737 6.32086 24.0272C6.57084 23.9458 6.81488 23.8479 7.10521 23.7415C6.46833 23.4227 5.88834 23.0927 5.34009 22.7098C4.06701 21.8196 2.99563 20.7317 2.12399 19.4454C2.03537 19.3145 2.0314 19.2477 2.18086 19.169C2.36207 19.0731 2.53468 18.8568 2.702 18.8661C2.88188 18.876 2.95265 19.1617 3.07433 19.3244C5.00809 21.9175 7.57939 23.4736 10.7644 23.9842C15.9103 24.8095 21.0727 21.9525 23.1473 17.1684C23.847 15.5541 24.1817 13.871 24.1334 12.1111C24.1281 11.9174 24.0858 11.8406 23.8715 11.8512C23.443 11.8711 23.0118 11.8433 22.5826 11.8618C22.2863 11.875 22.1117 11.754 21.9715 11.5007C21.5244 10.6932 21.0568 9.89696 20.6052 9.09145C20.5284 8.95455 20.4484 8.88974 20.2811 8.89305C19.7276 8.90495 19.174 8.90165 18.6205 8.89503C18.4816 8.89305 18.3936 8.93273 18.3182 9.05375C18.1397 9.34078 17.9399 9.61457 17.7594 9.90027C17.6423 10.0854 17.4902 10.1727 17.2687 10.1694C16.7561 10.1615 16.2443 10.1694 15.7317 10.1661C15.4004 10.1641 15.2384 10.0127 15.2364 9.68401C15.2311 8.74226 15.2318 7.79985 15.2364 6.8581C15.2377 6.5195 15.4011 6.35945 15.7436 6.35747C16.438 6.35284 17.1318 6.35218 17.8262 6.35879C17.9697 6.36011 18.0709 6.32043 18.1714 6.21726C18.6099 5.76755 19.0609 5.33041 19.5001 4.88136C19.6495 4.72859 19.8129 4.65716 20.0278 4.66444C20.3724 4.67568 20.7169 4.66708 21.1283 4.66708C20.9299 4.46471 20.7771 4.29938 20.6144 4.1433C18.7951 2.40265 16.6384 1.34649 14.1525 0.954976C14.005 0.931829 13.9726 0.96688 13.9712 1.11105C13.9679 1.55746 13.9044 1.63087 13.4733 1.73999C13.0738 1.84117 12.6757 1.94831 12.2729 2.03561C12.0203 2.0905 11.8272 2.23996 11.6222 2.37554C11.3814 2.53492 11.1374 2.68967 10.902 2.85699C10.7042 2.99786 10.5177 2.99984 10.3028 2.8894C9.59912 2.52897 8.88752 2.18309 8.18319 1.82398C8.06084 1.76115 7.9623 1.76115 7.83929 1.81604C5.51865 2.84906 3.71914 4.46339 2.42754 6.64846C2.35678 6.76816 2.37331 6.83297 2.45201 6.95797C2.90569 7.67486 3.33821 8.4063 3.76874 9.13774C3.87985 9.32689 3.81239 9.50413 3.66359 9.65293C3.33622 9.97963 3.01217 10.3103 2.68017 10.6324C2.58362 10.7263 2.54328 10.8228 2.54526 10.9578C2.5532 11.3704 2.55121 11.7838 2.54658 12.1971C2.54262 12.5628 2.39977 12.6991 2.02942 12.701C1.70734 12.7024 1.38461 12.7123 1.06254 12.6971C0.880005 12.6885 0.845616 12.7526 0.854213 12.9213C0.903814 13.8729 1.03674 14.8107 1.31649 15.7221C1.37469 15.9125 1.35617 15.982 1.15314 16.0408C0.557271 16.2148 0.560578 16.2253 0.404501 15.6328C-1.24488 9.354 2.29131 2.77168 8.43582 0.679858C9.36964 0.361753 10.3253 0.155415 11.3054 0.0522459C11.3563 0.0469552 11.4251 0.0773769 11.4529 0H13.4362C13.4494 0.0548913 13.4944 0.0449712 13.5334 0.0482779C16.2661 0.292974 18.7084 1.27903 20.7288 3.12682C24.3721 6.45865 25.7491 10.6125 24.6109 15.4132C22.8616 22.7872 15.2417 26.6441 8.39217 24.2586C8.23808 24.2051 8.11706 24.2176 7.97355 24.2824C7.14621 24.6568 6.29572 24.9669 5.40953 25.1693C5.04645 25.2526 4.67808 25.3141 4.3117 25.3856H2.97249V25.3862ZM19.4657 8.04852C19.8373 8.04852 20.209 8.05645 20.58 8.04587C20.8565 8.03794 21.0403 8.13846 21.1785 8.38845C21.6329 9.20983 22.1084 10.02 22.568 10.8381C22.6421 10.9697 22.7228 11.0212 22.8769 11.0146C23.1903 11.0007 23.5045 11.0027 23.8179 11.0133C23.9793 11.0186 24.0421 11.0047 24.0124 10.807C23.7247 8.91553 23.0263 7.19406 21.9126 5.63859C21.8412 5.53873 21.7625 5.50831 21.6441 5.50963C21.1818 5.51558 20.7196 5.5169 20.2573 5.50963C20.1224 5.50765 20.0271 5.54799 19.9326 5.64388C19.4815 6.10351 19.0212 6.55389 18.5695 7.01352C18.4393 7.14645 18.2957 7.20663 18.1086 7.20465C17.4975 7.19803 16.8864 7.20663 16.2754 7.19936C16.1279 7.19737 16.0717 7.23375 16.0763 7.39114C16.0875 7.74562 16.0776 8.10076 16.0803 8.4559C16.0822 8.73499 16.0908 9.01407 16.0968 9.29316C16.3891 9.35599 16.6854 9.3011 16.9784 9.32424C17.0934 9.3335 17.1556 9.28456 17.2145 9.19264C17.4016 8.90165 17.6033 8.61992 17.7872 8.32628C17.9095 8.13052 18.0735 8.04455 18.301 8.04786C18.6892 8.05315 19.0775 8.04918 19.465 8.04918L19.4657 8.04852ZM1.90574 7.66362C1.32178 8.96315 0.975238 10.2931 0.882651 11.6885C0.874715 11.8129 0.893894 11.8691 1.0341 11.8592C1.19811 11.8473 1.36477 11.8466 1.52944 11.8592C1.67692 11.8704 1.70734 11.8115 1.70337 11.6766C1.69412 11.3466 1.70337 11.016 1.69941 10.6859C1.69676 10.5014 1.7576 10.3533 1.89252 10.2237C2.18417 9.94326 2.46656 9.65425 2.75226 9.36789C2.80847 9.31168 2.87461 9.26671 2.81112 9.16354C2.50955 8.67282 2.21591 8.17814 1.90641 7.66362H1.90574ZM9.12163 1.34914C9.56804 1.57333 9.96683 1.76776 10.3597 1.97476C10.4992 2.04817 10.6057 2.05743 10.736 1.94897C11.3457 1.44106 12.058 1.16065 12.8351 1.03169C12.8919 1.02243 12.9468 1.00325 13.0024 0.988043C13.0559 0.973494 13.1175 0.96688 13.1069 0.85842C11.763 0.786334 10.4509 0.950347 9.12097 1.34847L9.12163 1.34914Z" fill="#020202"/>
<path d="M8.18162 6.92884C7.10892 6.45268 6.08517 5.999 5.06207 5.54466C4.58194 5.3317 4.53102 5.05262 4.90335 4.68095C5.11366 4.47064 5.33389 4.26893 5.53163 4.04738C5.72143 3.83509 5.92314 3.7921 6.19495 3.87609C7.40653 4.24975 8.62406 4.60489 9.83629 4.97789C9.99568 5.02683 10.0922 5.0017 10.204 4.8853C10.5122 4.56323 10.827 4.24644 11.1497 3.93892C11.7846 3.33247 12.5478 3.019 13.4221 2.98064C13.8176 2.96344 13.9902 3.13936 13.971 3.53021C13.9267 4.45741 13.5947 5.26226 12.9327 5.92228C12.6463 6.20798 12.3626 6.49765 12.0663 6.77343C11.9453 6.88585 11.9294 6.98704 11.9764 7.14113C12.3448 8.36329 12.6986 9.58942 13.0702 10.8109C13.1569 11.0953 13.1053 11.301 12.8752 11.4868C12.6245 11.6885 12.3911 11.9114 12.147 12.1224C11.8362 12.3909 11.5478 12.3274 11.3825 11.9471C10.9328 10.9134 10.4877 9.8771 10.0228 8.80044C9.80785 9.01405 9.60681 9.21377 9.40576 9.41416C9.34558 9.47434 9.3846 9.53585 9.39981 9.59801C9.50033 9.99746 9.59689 10.3982 9.70204 10.7964C9.76487 11.0344 9.72056 11.2282 9.53538 11.4008C9.28804 11.6316 9.05789 11.881 8.81386 12.1157C8.54602 12.373 8.2709 12.3379 8.07713 12.0205C7.7167 11.4293 7.35891 10.8367 7.0084 10.2402C6.9297 10.1066 6.83116 10.01 6.70022 9.93265C6.1189 9.58809 5.53956 9.23957 4.96089 8.89104C4.59847 8.67214 4.56409 8.40892 4.85772 8.11066C5.09514 7.86927 5.3405 7.63515 5.57461 7.39046C5.72738 7.23041 5.89801 7.18214 6.11228 7.23835C6.51901 7.34483 6.92904 7.43609 7.33444 7.54653C7.45348 7.57894 7.52887 7.56307 7.61485 7.47379C7.78614 7.29589 7.97065 7.13187 8.18294 6.93017L8.18162 6.92884ZM8.54139 11.1515C8.80857 11.0179 8.86412 10.8288 8.77484 10.5563C8.66969 10.2362 8.6181 9.89826 8.5189 9.57619C8.43557 9.30504 8.50038 9.10862 8.70143 8.9122C9.91102 7.72642 11.1114 6.53005 12.3163 5.33964C12.6523 5.00765 12.8904 4.61878 13.022 4.16576C13.0445 4.08905 13.0914 3.99514 13.0173 3.93429C12.9519 3.88072 12.8613 3.91114 12.7812 3.93561C12.3381 4.07317 11.9618 4.3139 11.6351 4.64259C10.4454 5.83697 9.24704 7.02275 8.06324 8.22309C7.84433 8.44463 7.62874 8.51275 7.33246 8.42347C6.96211 8.31171 6.58117 8.23565 6.20818 8.13116C5.98795 8.06899 5.89603 8.23896 5.82394 8.36197C5.76905 8.45654 5.93901 8.48564 6.01242 8.53127C6.43237 8.7925 6.85629 9.04844 7.28352 9.29776C7.43827 9.38837 7.55533 9.50278 7.64593 9.65753C7.94155 10.1608 8.24577 10.6588 8.54205 11.1522L8.54139 11.1515ZM11.9513 11.131C12.2059 11.0331 12.2237 10.8671 12.1417 10.6495C12.0637 10.4419 12.0108 10.225 11.9473 10.012C11.7119 9.21973 11.4764 8.42678 11.2271 7.5882C11.0499 7.77073 10.905 7.92747 10.7516 8.07495C10.6855 8.13777 10.6815 8.19465 10.7146 8.2707C11.1266 9.22171 11.5379 10.174 11.9513 11.1317V11.131ZM5.84113 4.96334C6.80206 5.39123 7.75307 5.81448 8.70408 6.23774C8.7722 6.26816 8.82378 6.25626 8.88132 6.20335C9.04334 6.05389 9.21265 5.9117 9.41965 5.73115C8.32381 5.40379 7.31526 5.11082 6.31267 4.79602C6.10633 4.73121 5.96745 4.74642 5.84113 4.96268V4.96334Z" fill="#020202"/>
<path d="M16.0783 18.4742C16.0783 17.7467 16.0743 17.0199 16.0816 16.2931C16.0829 16.135 16.0452 16.0768 15.8779 16.0835C15.5479 16.0967 15.2166 16.0914 14.8866 16.0861C14.5433 16.0808 14.3886 15.9254 14.3872 15.5815C14.3839 14.5075 14.3839 13.4328 14.3872 12.3588C14.3886 12.0162 14.5493 11.8575 14.8912 11.8568C16.2463 11.8548 17.602 11.8581 18.9571 11.8535C19.2018 11.8529 19.3579 11.954 19.4644 12.1716C19.7977 12.8521 20.1442 13.526 20.4755 14.2079C20.543 14.3461 20.6204 14.3997 20.7758 14.3944C21.1554 14.3825 21.5363 14.3917 21.9159 14.3904C22.1097 14.3898 22.2784 14.438 22.3743 14.6226C22.4695 14.8057 22.4153 14.9698 22.3075 15.1311C21.8154 15.8639 21.3274 16.6 20.8347 17.3327C20.7626 17.4399 20.7275 17.5457 20.7295 17.676C20.7361 18.1058 20.7269 18.535 20.7341 18.9649C20.7368 19.1428 20.6799 19.2817 20.5542 19.406C20.0252 19.9291 19.4994 20.4549 18.9756 20.9833C18.852 21.1083 18.7124 21.1692 18.5345 21.1678C17.8897 21.1632 17.2456 21.1678 16.6008 21.1652C16.233 21.1639 16.0803 21.0085 16.079 20.6308C16.0763 19.912 16.0783 19.1931 16.0783 18.4742ZM21.2156 15.2389C20.9127 15.2389 20.6673 15.2297 20.4226 15.2416C20.1581 15.2548 19.9941 15.1457 19.8784 14.9063C19.549 14.2244 19.2025 13.5505 18.8665 12.8713C18.8123 12.7615 18.76 12.6941 18.6132 12.6954C17.5471 12.704 16.4817 12.702 15.4156 12.6974C15.2814 12.6974 15.2271 12.7252 15.2285 12.8733C15.2357 13.6001 15.2371 14.3276 15.2278 15.0544C15.2258 15.2191 15.288 15.2455 15.4302 15.2416C15.7192 15.2323 16.0082 15.2389 16.2979 15.2389C16.8111 15.2389 16.9255 15.3527 16.9255 15.8632C16.9255 17.2759 16.9281 18.6885 16.9222 20.1011C16.9215 20.2704 16.9605 20.3312 17.1397 20.3246C17.5108 20.3107 17.8831 20.314 18.2548 20.3233C18.3917 20.3266 18.4843 20.2816 18.5782 20.1858C18.965 19.7896 19.3566 19.3981 19.752 19.0119C19.8473 18.9186 19.8916 18.8254 19.8889 18.6898C19.8803 18.3016 19.8936 17.9134 19.883 17.5252C19.8777 17.3255 19.9306 17.1575 20.0417 16.9935C20.4259 16.428 20.8029 15.8579 21.2156 15.2396V15.2389Z" fill="#020202"/>
<path d="M8.04291 19.9575C8.04291 19.2968 8.03828 18.6355 8.04622 17.9748C8.0482 17.826 8.01447 17.7764 7.85641 17.7804C7.40207 17.7916 6.94773 17.7863 6.49339 17.7837C6.07608 17.7817 5.9372 17.6461 5.93654 17.2387C5.93522 16.33 5.93522 15.4214 5.93654 14.5127C5.93654 14.1119 6.07079 13.977 6.46892 13.9763C7.10513 13.975 7.74134 13.9796 8.37755 13.9737C8.56404 13.9717 8.70888 14.0299 8.83916 14.1641C9.14338 14.4789 9.46016 14.7812 9.76372 15.0966C9.86292 15.1998 9.96477 15.2428 10.1089 15.2415C10.7861 15.2342 11.464 15.2368 12.1412 15.2388C12.5572 15.2401 12.6961 15.3777 12.6968 15.7851C12.6981 16.4127 12.6901 17.041 12.7007 17.6686C12.7047 17.8987 12.6187 18.0575 12.4421 18.1957C11.8701 18.6434 11.306 19.1017 10.7346 19.5501C10.6274 19.6341 10.5778 19.7221 10.5831 19.8616C10.5937 20.1341 10.5851 20.4065 10.5864 20.679C10.5871 20.8655 10.5157 21.0084 10.3622 21.1215C9.83117 21.5136 9.30342 21.9104 8.777 22.3099C8.62555 22.4243 8.46418 22.466 8.29157 22.3879C8.10441 22.3033 8.04291 22.1366 8.04291 21.9402C8.04357 21.2795 8.04291 20.6182 8.04291 19.9575ZM8.89009 21.1373C9.39337 20.8258 9.90657 20.5672 9.73991 19.8563C9.72139 19.7783 9.74189 19.6916 9.7366 19.609C9.72139 19.3762 9.8067 19.2049 9.99651 19.0581C10.5706 18.6136 11.1307 18.1507 11.7014 17.7017C11.8079 17.6183 11.8595 17.5357 11.8555 17.3955C11.845 17.0324 11.8383 16.668 11.8575 16.3062C11.8681 16.1065 11.7927 16.0794 11.6188 16.082C11.0408 16.092 10.4628 16.0801 9.88474 16.0887C9.66319 16.092 9.49124 16.0278 9.33649 15.8638C9.03624 15.5457 8.7188 15.2435 8.41194 14.932C8.33919 14.8579 8.26644 14.8156 8.156 14.8176C7.75126 14.8248 7.34652 14.8262 6.94244 14.8176C6.80752 14.8149 6.77909 14.8599 6.78041 14.9855C6.78636 15.5715 6.78835 16.1581 6.77975 16.744C6.77776 16.8968 6.82009 16.9418 6.97352 16.9378C7.40273 16.9279 7.83194 16.9338 8.26181 16.9345C8.78427 16.9345 8.89075 17.0383 8.89075 17.5515C8.89075 18.5422 8.89075 19.5329 8.89075 20.5236V21.136L8.89009 21.1373Z" fill="#020202"/>
</g>
<defs>
<clipPath id="clip0_2665_7369">
<rect width="25" height="25.3862" fill="white"/>
</clipPath>
</defs>
</svg>
