<svg width="25" height="26" viewBox="0 0 25 26" fill="none" xmlns="http://www.w3.org/2000/svg">
<g clip-path="url(#clip0_1944_9884)">
<path d="M2.972 25.3862C2.85163 25.2877 2.69887 25.3036 2.56065 25.2705C1.06998 24.9127 0.150058 23.7911 0.0455666 22.2244C-0.0496665 20.7978 0.301505 19.4566 0.814044 18.1492C1.73992 15.7855 3.11022 13.6831 4.65974 11.6899C5.01951 11.2269 5.39515 10.7772 5.7741 10.309C5.98639 10.4922 6.29259 10.6324 6.35542 10.8447C6.41957 11.0616 6.09683 11.2421 5.94076 11.4346C4.32973 13.4219 2.89264 15.519 1.85632 17.8701C1.40991 18.8839 1.05345 19.9275 0.916552 21.0339C0.851079 21.561 0.843143 22.0901 0.954249 22.6126C1.18241 23.6866 1.93965 24.3578 3.04144 24.4954C4.17895 24.6369 5.25495 24.3737 6.32037 24.0272C6.57035 23.9458 6.81439 23.8479 7.10472 23.7415C6.46785 23.4227 5.88785 23.0927 5.3396 22.7098C4.06652 21.8196 2.99515 20.7317 2.1235 19.4454C2.03488 19.3145 2.03091 19.2477 2.18037 19.169C2.36158 19.0731 2.53419 18.8568 2.70151 18.8661C2.8814 18.876 2.95216 19.1617 3.07385 19.3244C5.00761 21.9175 7.5789 23.4736 10.7639 23.9842C15.9098 24.8095 21.0722 21.9525 23.1469 17.1684C23.8466 15.5541 24.1812 13.871 24.1329 12.1111C24.1276 11.9174 24.0853 11.8406 23.871 11.8512C23.4425 11.8711 23.0113 11.8433 22.5821 11.8618C22.2858 11.875 22.1112 11.754 21.971 11.5007C21.5239 10.6932 21.0564 9.89696 20.6047 9.09145C20.5279 8.95455 20.4479 8.88974 20.2806 8.89305C19.7271 8.90495 19.1735 8.90165 18.62 8.89503C18.4811 8.89305 18.3931 8.93273 18.3177 9.05375C18.1392 9.34078 17.9395 9.61457 17.7589 9.90027C17.6419 10.0854 17.4897 10.1727 17.2682 10.1694C16.7557 10.1615 16.2438 10.1694 15.7312 10.1661C15.3999 10.1641 15.2379 10.0127 15.2359 9.68401C15.2306 8.74226 15.2313 7.79985 15.2359 6.8581C15.2372 6.5195 15.4006 6.35945 15.7431 6.35747C16.4376 6.35284 17.1313 6.35218 17.8257 6.35879C17.9692 6.36011 18.0704 6.32043 18.1709 6.21726C18.6094 5.76755 19.0604 5.33041 19.4996 4.88136C19.649 4.72859 19.8124 4.65716 20.0273 4.66444C20.3719 4.67568 20.7164 4.66708 21.1278 4.66708C20.9294 4.46471 20.7766 4.29938 20.6139 4.1433C18.7946 2.40265 16.6379 1.34649 14.152 0.954976C14.0045 0.931829 13.9721 0.96688 13.9708 1.11105C13.9674 1.55746 13.904 1.63087 13.4728 1.73999C13.0733 1.84117 12.6752 1.94831 12.2724 2.03561C12.0198 2.0905 11.8267 2.23996 11.6217 2.37554C11.3809 2.53492 11.1369 2.68967 10.9015 2.85699C10.7037 2.99786 10.5172 2.99984 10.3023 2.8894C9.59863 2.52897 8.88703 2.18309 8.1827 1.82398C8.06035 1.76115 7.96181 1.76115 7.8388 1.81604C5.51816 2.84906 3.71865 4.46339 2.42705 6.64846C2.35629 6.76816 2.37282 6.83297 2.45152 6.95797C2.9052 7.67486 3.33772 8.4063 3.76825 9.13774C3.87936 9.32689 3.8119 9.50413 3.6631 9.65293C3.33574 9.97963 3.01168 10.3103 2.67969 10.6324C2.58313 10.7263 2.54279 10.8228 2.54477 10.9578C2.55271 11.3704 2.55072 11.7838 2.5461 12.1971C2.54213 12.5628 2.39928 12.6991 2.02893 12.701C1.70685 12.7024 1.38412 12.7123 1.06205 12.6971C0.879517 12.6885 0.845127 12.7526 0.853725 12.9213C0.903325 13.8729 1.03625 14.8107 1.316 15.7221C1.3742 15.9125 1.35568 15.982 1.15265 16.0408C0.556783 16.2148 0.56009 16.2253 0.404013 15.6328C-1.24537 9.354 2.29082 2.77168 8.43533 0.679858C9.36915 0.361753 10.3248 0.155415 11.3049 0.0522459C11.3558 0.0469552 11.4246 0.0773769 11.4524 0H13.4357C13.449 0.0548913 13.4939 0.0449712 13.5329 0.0482779C16.2656 0.292974 18.7079 1.27903 20.7283 3.12682C24.3717 6.45865 25.7486 10.6125 24.6104 15.4132C22.8612 22.7872 15.2412 26.6441 8.39169 24.2586C8.23759 24.2051 8.11657 24.2176 7.97306 24.2824C7.14572 24.6568 6.29524 24.9669 5.40904 25.1693C5.04596 25.2526 4.6776 25.3141 4.31121 25.3856H2.972V25.3862ZM19.4652 8.04852C19.8368 8.04852 20.2085 8.05645 20.5795 8.04587C20.856 8.03794 21.0398 8.13846 21.178 8.38845C21.6324 9.20983 22.1079 10.02 22.5675 10.8381C22.6416 10.9697 22.7223 11.0212 22.8764 11.0146C23.1898 11.0007 23.504 11.0027 23.8175 11.0133C23.9788 11.0186 24.0416 11.0047 24.0119 10.807C23.7242 8.91553 23.0258 7.19406 21.9121 5.63859C21.8407 5.53873 21.762 5.50831 21.6436 5.50963C21.1814 5.51558 20.7191 5.5169 20.2568 5.50963C20.1219 5.50765 20.0267 5.54799 19.9321 5.64388C19.481 6.10351 19.0208 6.55389 18.5691 7.01352C18.4388 7.14645 18.2953 7.20663 18.1081 7.20465C17.497 7.19803 16.8859 7.20663 16.2749 7.19936C16.1274 7.19737 16.0712 7.23375 16.0758 7.39114C16.087 7.74562 16.0771 8.10076 16.0798 8.4559C16.0818 8.73499 16.0904 9.01407 16.0963 9.29316C16.3886 9.35599 16.6849 9.3011 16.9779 9.32424C17.0929 9.3335 17.1551 9.28456 17.214 9.19264C17.4011 8.90165 17.6028 8.61992 17.7867 8.32628C17.909 8.13052 18.0731 8.04455 18.3006 8.04786C18.6888 8.05315 19.077 8.04918 19.4645 8.04918L19.4652 8.04852ZM1.90526 7.66362C1.32129 8.96315 0.97475 10.2931 0.882162 11.6885C0.874226 11.8129 0.893405 11.8691 1.03361 11.8592C1.19762 11.8473 1.36428 11.8466 1.52895 11.8592C1.67643 11.8704 1.70685 11.8115 1.70289 11.6766C1.69363 11.3466 1.70289 11.016 1.69892 10.6859C1.69627 10.5014 1.75712 10.3533 1.89203 10.2237C2.18368 9.94326 2.46607 9.65425 2.75177 9.36789C2.80799 9.31168 2.87412 9.26671 2.81063 9.16354C2.50906 8.67282 2.21543 8.17814 1.90592 7.66362H1.90526ZM9.12114 1.34914C9.56755 1.57333 9.96634 1.76776 10.3592 1.97476C10.4987 2.04817 10.6052 2.05743 10.7355 1.94897C11.3452 1.44106 12.0575 1.16065 12.8346 1.03169C12.8914 1.02243 12.9463 1.00325 13.0019 0.988043C13.0555 0.973494 13.117 0.96688 13.1064 0.85842C11.7625 0.786334 10.4504 0.950347 9.12048 1.34847L9.12114 1.34914Z" fill="white"/>
<path d="M8.18089 6.92884C7.10819 6.45268 6.08444 5.999 5.06134 5.54466C4.58121 5.3317 4.53029 5.05262 4.90262 4.68095C5.11293 4.47064 5.33315 4.26893 5.53089 4.04738C5.7207 3.83509 5.92241 3.7921 6.19422 3.87609C7.4058 4.24975 8.62332 4.60489 9.83556 4.97789C9.99494 5.02683 10.0915 5.0017 10.2033 4.8853C10.5115 4.56323 10.8262 4.24644 11.149 3.93892C11.7839 3.33247 12.5471 3.019 13.4213 2.98064C13.8168 2.96344 13.9894 3.13936 13.9703 3.53021C13.926 4.45741 13.594 5.26226 12.932 5.92228C12.6456 6.20798 12.3619 6.49765 12.0656 6.77343C11.9446 6.88585 11.9287 6.98704 11.9757 7.14113C12.344 8.36329 12.6978 9.58942 13.0695 10.8109C13.1562 11.0953 13.1046 11.301 12.8744 11.4868C12.6238 11.6885 12.3903 11.9114 12.1463 12.1224C11.8355 12.3909 11.5471 12.3274 11.3818 11.9471C10.9321 10.9134 10.487 9.8771 10.0221 8.80044C9.80712 9.01405 9.60608 9.21377 9.40503 9.41416C9.34485 9.47434 9.38386 9.53585 9.39908 9.59801C9.4996 9.99746 9.59616 10.3982 9.70131 10.7964C9.76414 11.0344 9.71983 11.2282 9.53465 11.4008C9.28731 11.6316 9.05716 11.881 8.81313 12.1157C8.54528 12.373 8.27017 12.3379 8.07639 12.0205C7.71596 11.4293 7.35818 10.8367 7.00767 10.2402C6.92897 10.1066 6.83043 10.01 6.69948 9.93265C6.11816 9.58809 5.53883 9.23957 4.96016 8.89104C4.59774 8.67214 4.56335 8.40892 4.85699 8.11066C5.09441 7.86927 5.33977 7.63515 5.57388 7.39046C5.72665 7.23041 5.89728 7.18214 6.11155 7.23835C6.51828 7.34483 6.92831 7.43609 7.33371 7.54653C7.45275 7.57894 7.52814 7.56307 7.61412 7.47379C7.7854 7.29589 7.96992 7.13187 8.18221 6.93017L8.18089 6.92884ZM8.54066 11.1515C8.80784 11.0179 8.86339 10.8288 8.77411 10.5563C8.66896 10.2362 8.61737 9.89826 8.51817 9.57619C8.43484 9.30504 8.49965 9.10862 8.7007 8.9122C9.91029 7.72642 11.1106 6.53005 12.3156 5.33964C12.6515 5.00765 12.8896 4.61878 13.0212 4.16576C13.0437 4.08905 13.0907 3.99514 13.0166 3.93429C12.9511 3.88072 12.8605 3.91114 12.7805 3.93561C12.3374 4.07317 11.9611 4.3139 11.6344 4.64259C10.4447 5.83697 9.24631 7.02275 8.06251 8.22309C7.8436 8.44463 7.62801 8.51275 7.33172 8.42347C6.96137 8.31171 6.58044 8.23565 6.20745 8.13116C5.98722 8.06899 5.89529 8.23896 5.82321 8.36197C5.76832 8.45654 5.93828 8.48564 6.01169 8.53127C6.43164 8.7925 6.85556 9.04844 7.28279 9.29776C7.43754 9.38837 7.5546 9.50278 7.6452 9.65753C7.94082 10.1608 8.24504 10.6588 8.54132 11.1522L8.54066 11.1515ZM11.9505 11.131C12.2051 11.0331 12.223 10.8671 12.141 10.6495C12.063 10.4419 12.01 10.225 11.9466 10.012C11.7111 9.21973 11.4757 8.42678 11.2264 7.5882C11.0491 7.77073 10.9043 7.92747 10.7509 8.07495C10.6847 8.13777 10.6808 8.19465 10.7138 8.2707C11.1258 9.22171 11.5372 10.174 11.9505 11.1317V11.131ZM5.8404 4.96334C6.80133 5.39123 7.75234 5.81448 8.70335 6.23774C8.77146 6.26816 8.82305 6.25626 8.88058 6.20335C9.04261 6.05389 9.21192 5.9117 9.41892 5.73115C8.32307 5.40379 7.31453 5.11082 6.31194 4.79602C6.1056 4.73121 5.96672 4.74642 5.8404 4.96268V4.96334Z" fill="white"/>
<path d="M16.0793 18.4737C16.0793 17.7462 16.0753 17.0194 16.0826 16.2926C16.0839 16.1346 16.0462 16.0764 15.8789 16.083C15.5489 16.0962 15.2175 16.0909 14.8875 16.0856C14.5443 16.0803 14.3895 15.9249 14.3882 15.581C14.3849 14.507 14.3849 13.4323 14.3882 12.3583C14.3895 12.0157 14.5503 11.857 14.8922 11.8563C16.2473 11.8544 17.603 11.8577 18.9581 11.853C19.2028 11.8524 19.3589 11.9536 19.4653 12.1711C19.7986 12.8517 20.1452 13.5256 20.4765 14.2074C20.544 14.3456 20.6214 14.3992 20.7768 14.3939C21.1564 14.382 21.5373 14.3913 21.9169 14.3899C22.1107 14.3893 22.2793 14.4376 22.3752 14.6221C22.4705 14.8053 22.4162 14.9693 22.3084 15.1306C21.8164 15.8634 21.3283 16.5995 20.8356 17.3322C20.7635 17.4394 20.7285 17.5452 20.7305 17.6755C20.7371 18.1053 20.7278 18.5346 20.7351 18.9644C20.7378 19.1423 20.6809 19.2812 20.5552 19.4055C20.0262 19.9287 19.5004 20.4544 18.9766 20.9828C18.8529 21.1078 18.7134 21.1687 18.5355 21.1674C17.8907 21.1627 17.2465 21.1674 16.6017 21.1647C16.234 21.1634 16.0813 21.008 16.0799 20.6303C16.0773 19.9115 16.0793 19.1926 16.0793 18.4737ZM21.2166 15.2384C20.9137 15.2384 20.6683 15.2292 20.4236 15.2411C20.1591 15.2543 19.9951 15.1452 19.8793 14.9058C19.55 14.2239 19.2034 13.55 18.8675 12.8708C18.8133 12.7611 18.761 12.6936 18.6142 12.6949C17.5481 12.7035 16.4827 12.7015 15.4166 12.6969C15.2824 12.6969 15.2281 12.7247 15.2294 12.8728C15.2367 13.5996 15.238 14.3271 15.2288 15.0539C15.2268 15.2186 15.289 15.245 15.4312 15.2411C15.7202 15.2318 16.0092 15.2384 16.2988 15.2384C16.812 15.2384 16.9264 15.3522 16.9264 15.8627C16.9264 17.2754 16.9291 18.688 16.9231 20.1006C16.9225 20.2699 16.9615 20.3308 17.1407 20.3241C17.5117 20.3103 17.8841 20.3136 18.2557 20.3228C18.3926 20.3261 18.4852 20.2812 18.5791 20.1853C18.966 19.7891 19.3575 19.3976 19.753 19.0114C19.8483 18.9181 19.8926 18.8249 19.8899 18.6893C19.8813 18.3011 19.8945 17.9129 19.884 17.5247C19.8787 17.325 19.9316 17.157 20.0427 16.993C20.4269 16.4275 20.8039 15.8574 21.2166 15.2391V15.2384Z" fill="white"/>
<path d="M8.04266 19.9575C8.04266 19.2968 8.03804 18.6355 8.04597 17.9748C8.04796 17.826 8.01423 17.7764 7.85617 17.7804C7.40183 17.7916 6.94748 17.7863 6.49314 17.7837C6.07584 17.7817 5.93696 17.6461 5.93629 17.2387C5.93497 16.33 5.93497 15.4214 5.93629 14.5127C5.93629 14.1119 6.07055 13.977 6.46867 13.9763C7.10488 13.975 7.74109 13.9796 8.3773 13.9737C8.5638 13.9717 8.70863 14.0299 8.83892 14.1641C9.14314 14.4789 9.45992 14.7812 9.76347 15.0966C9.86267 15.1998 9.96452 15.2428 10.1087 15.2415C10.7859 15.2342 11.4638 15.2368 12.141 15.2388C12.557 15.2401 12.6959 15.3777 12.6965 15.7851C12.6978 16.4127 12.6899 17.041 12.7005 17.6686C12.7045 17.8987 12.6185 18.0575 12.4419 18.1957C11.8698 18.6434 11.3057 19.1017 10.7343 19.5501C10.6272 19.6341 10.5776 19.7221 10.5829 19.8616C10.5935 20.1341 10.5849 20.4065 10.5862 20.679C10.5868 20.8655 10.5154 21.0084 10.362 21.1215C9.83093 21.5136 9.30318 21.9104 8.77675 22.3099C8.62531 22.4243 8.46394 22.466 8.29133 22.3879C8.10417 22.3033 8.04266 22.1366 8.04266 21.9402C8.04333 21.2795 8.04266 20.6182 8.04266 19.9575ZM8.88984 21.1373C9.39312 20.8258 9.90632 20.5672 9.73967 19.8563C9.72115 19.7783 9.74165 19.6916 9.73636 19.609C9.72115 19.3762 9.80646 19.2049 9.99626 19.0581C10.5703 18.6136 11.1305 18.1507 11.7012 17.7017C11.8077 17.6183 11.8593 17.5357 11.8553 17.3955C11.8447 17.0324 11.8381 16.668 11.8573 16.3062C11.8679 16.1065 11.7925 16.0794 11.6185 16.082C11.0405 16.092 10.4625 16.0801 9.8845 16.0887C9.66295 16.092 9.491 16.0278 9.33625 15.8638C9.036 15.5457 8.71855 15.2435 8.41169 14.932C8.33895 14.8579 8.2662 14.8156 8.15575 14.8176C7.75101 14.8248 7.34627 14.8262 6.94219 14.8176C6.80728 14.8149 6.77884 14.8599 6.78017 14.9855C6.78612 15.5715 6.7881 16.1581 6.7795 16.744C6.77752 16.8968 6.81985 16.9418 6.97328 16.9378C7.40249 16.9279 7.8317 16.9338 8.26157 16.9345C8.78403 16.9345 8.8905 17.0383 8.8905 17.5515C8.8905 18.5422 8.8905 19.5329 8.8905 20.5236V21.136L8.88984 21.1373Z" fill="white"/>
</g>
<defs>
<clipPath id="clip0_1944_9884">
<rect width="25" height="25.3862" fill="white"/>
</clipPath>
</defs>
</svg>
