<svg width="64" height="64" viewBox="0 0 64 64" fill="none" xmlns="http://www.w3.org/2000/svg">
<rect width="64" height="64" rx="32" fill="#FF4A41" fill-opacity="0.1"/>
<g clip-path="url(#clip0_1515_3548)">
<path d="M20.5876 44.5207C20.5797 44.5076 20.5751 44.486 20.564 44.4821C19.7784 44.2174 19.4987 43.6527 19.5 42.8482C19.5111 35.5699 19.5065 28.2917 19.5065 21.0134C19.5065 20.2938 19.8386 19.7847 20.4438 19.5651C20.6144 19.5037 20.7895 19.4801 20.9706 19.4801C24.5482 19.4815 28.1259 19.4821 31.7036 19.4795C32.1271 19.4795 32.4774 19.6265 32.7755 19.9252C34.2316 21.3847 35.6891 22.8441 37.1499 24.2983C37.4682 24.6153 37.6191 24.9813 37.6178 25.4342C37.6106 28.1806 37.6146 30.9276 37.6146 33.6739C37.6146 33.7608 37.6146 33.8477 37.6146 33.9582C38.1237 33.7693 38.623 33.6425 39.1452 33.5987C41.5066 33.4 43.7268 34.9784 44.3039 37.2758C44.3797 37.5764 44.4288 37.8816 44.4503 38.1908C44.4536 38.2346 44.4314 38.2921 44.5 38.3097V38.7496C44.3987 38.879 44.432 39.0398 44.4137 39.1842C44.0628 41.9325 41.3792 43.8821 38.657 43.3658C38.306 43.2991 37.9708 43.1828 37.6204 43.0802C37.6021 43.6553 37.3557 44.0802 36.8675 44.3514C36.7329 44.4266 36.5773 44.4651 36.4316 44.5207H20.5876ZM20.4843 31.9752C20.4843 35.6346 20.4843 39.294 20.4843 42.9527C20.4843 43.4142 20.615 43.5423 21.0823 43.5423C25.0103 43.5423 28.9377 43.5423 32.8657 43.5423C33.9493 43.5423 35.0336 43.5403 36.1172 43.5442C36.2898 43.5442 36.4401 43.5102 36.5492 43.3671C36.7257 43.1364 36.6558 42.5358 36.4322 42.3547C33.9624 40.3548 33.9787 36.6176 36.4695 34.6425C36.5904 34.5471 36.6401 34.4562 36.6401 34.3007C36.6348 31.4321 36.6342 28.5629 36.6407 25.6944C36.6407 25.4983 36.5865 25.4538 36.3976 25.4552C35.1996 25.4636 34.0016 25.463 32.8042 25.4584C32.0735 25.4558 31.6389 25.0133 31.6382 24.2826C31.6369 23.0925 31.6304 21.903 31.6441 20.7128C31.6467 20.4899 31.5827 20.454 31.3768 20.454C27.9462 20.4605 24.5156 20.4586 21.0849 20.4586C20.6078 20.4586 20.4843 20.584 20.4843 21.0696C20.4843 24.7042 20.4843 28.3394 20.4843 31.9739V31.9752ZM43.4785 38.5189C43.4817 36.3281 41.7164 34.5562 39.5269 34.5536C37.3571 34.5503 35.5806 36.317 35.5663 38.4927C35.5519 40.6724 37.3283 42.4619 39.5126 42.4671C41.7053 42.473 43.4752 40.711 43.4785 38.5189ZM35.8865 24.4813C34.7891 23.3846 33.7062 22.3036 32.6258 21.2239C32.6258 21.2252 32.6167 21.2461 32.6167 21.267C32.616 22.2683 32.6186 23.2696 32.6127 24.2702C32.6121 24.429 32.6637 24.4839 32.8232 24.4833C33.8402 24.4787 34.8578 24.4807 35.8859 24.4807L35.8865 24.4813Z" fill="#FF4A41"/>
<path d="M28.5834 32.1498C30.4251 32.1498 32.2669 32.1498 34.108 32.1498C34.4505 32.1498 34.6557 32.31 34.6799 32.5877C34.7048 32.872 34.5178 33.0975 34.2342 33.1237C34.1616 33.1302 34.0878 33.1263 34.0146 33.1263C30.3885 33.1263 26.7618 33.1263 23.1358 33.1263C23.0626 33.1263 22.9887 33.1302 22.9162 33.1243C22.658 33.1027 22.4574 32.8897 22.4561 32.6413C22.4548 32.4034 22.6423 32.1884 22.8881 32.1557C22.9685 32.1452 23.0508 32.1505 23.1325 32.1505C24.9495 32.1505 26.7671 32.1505 28.584 32.1505L28.5834 32.1498Z" fill="#FF4A41"/>
<path d="M27.3033 29.2557C28.7118 29.2557 30.1202 29.2557 31.5287 29.2557C31.6104 29.2557 31.6921 29.2518 31.7725 29.2609C31.9947 29.2858 32.1613 29.4551 32.1875 29.674C32.2149 29.9021 32.1038 30.1008 31.9006 30.1877C31.777 30.2407 31.6463 30.2348 31.5163 30.2348C28.7072 30.2348 25.8988 30.2348 23.0897 30.2348C23.0165 30.2348 22.9426 30.2387 22.8701 30.2295C22.593 30.1962 22.3956 29.9779 22.4067 29.7224C22.4185 29.4609 22.6237 29.2616 22.9067 29.2583C23.4112 29.2524 23.9165 29.2564 24.421 29.2557C25.3818 29.2557 26.3425 29.2557 27.3033 29.2557Z" fill="#FF4A41"/>
<path d="M27.2142 38.0123C28.5658 38.0123 29.9174 38.0123 31.269 38.0123C31.3507 38.0123 31.4324 38.0084 31.5128 38.0175C31.735 38.0424 31.9056 38.2123 31.9337 38.4273C31.9637 38.6633 31.8441 38.8633 31.6258 38.9522C31.516 38.9973 31.4023 38.9907 31.2892 38.9907C28.5612 38.9907 25.8338 38.9907 23.1058 38.9901C23.0091 38.9901 22.9091 38.9881 22.8163 38.9633C22.581 38.8999 22.4293 38.6737 22.4574 38.4482C22.4869 38.2123 22.6718 38.0352 22.9143 38.0162C22.9868 38.0103 23.0607 38.013 23.1339 38.013C24.494 38.013 25.8534 38.013 27.2135 38.013L27.2142 38.0123Z" fill="#FF4A41"/>
<path d="M27.1865 36.0589C25.8186 36.0589 24.4507 36.0589 23.0827 36.0589C22.9775 36.0589 22.8729 36.0654 22.7703 36.0216C22.5651 35.934 22.4272 35.7268 22.4592 35.5197C22.4958 35.287 22.6324 35.1386 22.8651 35.089C22.9278 35.0759 22.9951 35.0811 23.0598 35.0811C25.8199 35.0811 28.5806 35.0811 31.3407 35.0811C31.3649 35.0811 31.3897 35.0811 31.4139 35.0811C31.7341 35.0916 31.9367 35.2811 31.9367 35.57C31.9367 35.8569 31.7309 36.0556 31.4119 36.0576C30.508 36.0615 29.6041 36.0589 28.7009 36.0589C28.1963 36.0589 27.6911 36.0589 27.1865 36.0589Z" fill="#FF4A41"/>
<path d="M26.3523 27.2636C25.2288 27.2636 24.1053 27.2669 22.9818 27.2617C22.5687 27.2597 22.3302 26.8793 22.5217 26.5421C22.6354 26.3421 22.8204 26.2859 23.0387 26.2859C24.2027 26.2885 25.3674 26.2872 26.5314 26.2872C27.5817 26.2872 28.632 26.2852 29.6823 26.2878C30.0241 26.2885 30.2352 26.4767 30.2398 26.7695C30.2444 27.0656 30.0346 27.261 29.6986 27.2623C28.8032 27.2649 27.9078 27.263 27.0118 27.263C26.7922 27.263 26.5719 27.263 26.3523 27.263V27.2636Z" fill="#FF4A41"/>
<path d="M34.1316 29.2569C34.412 29.2523 34.6277 29.4647 34.6257 29.7432C34.6244 30.0072 34.4113 30.2255 34.1499 30.2314C33.8858 30.2373 33.6486 30.0026 33.6499 29.7373C33.6519 29.4759 33.8669 29.2608 34.1316 29.2569Z" fill="#FF4A41"/>
<path d="M38.1625 36.6543C38.3187 36.6667 38.4429 36.7346 38.55 36.8431C38.8193 37.115 39.1017 37.3745 39.3572 37.6588C39.5003 37.8176 39.5781 37.7889 39.7075 37.6483C39.9663 37.3673 40.2428 37.1013 40.516 36.8333C40.7559 36.5974 41.0447 36.5811 41.2493 36.785C41.4545 36.9895 41.4408 37.2823 41.2068 37.5202C40.933 37.7993 40.6637 38.0836 40.3742 38.3457C40.2206 38.4843 40.2546 38.5607 40.384 38.6823C40.6572 38.9385 40.9179 39.2071 41.18 39.4751C41.4232 39.7235 41.4395 40.0267 41.2277 40.2293C41.0193 40.4287 40.7382 40.4091 40.4931 40.1692C40.2082 39.8901 39.9239 39.6097 39.6494 39.3208C39.5513 39.2176 39.4951 39.2254 39.4003 39.3235C39.1245 39.6117 38.8389 39.8908 38.5553 40.1712C38.3049 40.4189 38.0089 40.4457 37.8023 40.2424C37.588 40.0319 37.6076 39.7444 37.8586 39.4914C38.1389 39.2078 38.4174 38.9215 38.7069 38.647C38.8121 38.547 38.8265 38.4902 38.7121 38.3823C38.4043 38.0915 38.1076 37.7889 37.8128 37.4856C37.6618 37.3307 37.6291 37.1405 37.7174 36.9438C37.8017 36.7569 37.9625 36.6693 38.1618 36.6543H38.1625Z" fill="#FF4A41"/>
</g>
<defs>
<clipPath id="clip0_1515_3548">
<rect width="25" height="25.0412" fill="white" transform="translate(19.5 19.4795)"/>
</clipPath>
</defs>
</svg>
