<svg width="25" height="24" viewBox="0 0 25 24" fill="none" xmlns="http://www.w3.org/2000/svg">
<path d="M11.6465 12.909L11.219 13.5255L11.6465 12.909ZM13.3535 12.909L13.781 13.5255L13.3535 12.909ZM4.25 6H20.75V4.5H4.25V6ZM21.5 6.75V17.25H23V6.75H21.5ZM20.75 18H4.25V19.5H20.75V18ZM3.5 17.25V6.75H2V17.25H3.5ZM4.25 18C4.05109 18 3.86032 17.921 3.71967 17.7803C3.57902 17.6397 3.5 17.4489 3.5 17.25H2C2 17.8467 2.23705 18.419 2.65901 18.841C3.08097 19.2629 3.65326 19.5 4.25 19.5V18ZM21.5 17.25C21.5 17.4489 21.421 17.6397 21.2803 17.7803C21.1397 17.921 20.9489 18 20.75 18V19.5C21.3467 19.5 21.919 19.2629 22.341 18.841C22.7629 18.419 23 17.8467 23 17.25H21.5ZM20.75 6C20.9489 6 21.1397 6.07902 21.2803 6.21967C21.421 6.36032 21.5 6.55109 21.5 6.75H23C23 6.15326 22.7629 5.58097 22.341 5.15901C21.919 4.73705 21.3467 4.5 20.75 4.5V6ZM4.25 4.5C3.65326 4.5 3.08097 4.73705 2.65901 5.15901C2.23705 5.58097 2 6.15326 2 6.75H3.5C3.5 6.55109 3.57902 6.36032 3.71967 6.21967C3.86032 6.07902 4.05109 6 4.25 6V4.5ZM2.3225 7.3665L11.219 13.5255L12.0732 12.2925L3.17675 6.1335L2.32325 7.3665H2.3225ZM13.781 13.5255L22.6768 7.3665L21.8232 6.1335L12.9268 12.2925L13.781 13.5255ZM11.219 13.5255C11.5953 13.7861 12.0422 13.9258 12.5 13.9258C12.9578 13.9258 13.4047 13.7861 13.781 13.5255L12.9268 12.2925C12.8014 12.3793 12.6525 12.4257 12.5 12.4257C12.3475 12.4257 12.1986 12.3793 12.0732 12.2925L11.219 13.5255V13.5255Z" fill="white"/>
</svg>
