<svg width="35" height="36" viewBox="0 0 35 36" fill="none" xmlns="http://www.w3.org/2000/svg">
<rect y="0.5" width="35" height="35" rx="17.5" fill="#FFCCFC"/>
<path d="M16.324 22.5H14.364L9.926 15.794V22.5H7.966L7.966 12.714H9.926L14.364 19.434V12.714H16.324V22.5ZM21.6769 12.728C22.7036 12.728 23.6043 12.9287 24.3789 13.33C25.1629 13.7313 25.7649 14.3053 26.1849 15.052C26.6143 15.7893 26.8289 16.648 26.8289 17.628C26.8289 18.608 26.6143 19.4667 26.1849 20.204C25.7649 20.932 25.1629 21.4967 24.3789 21.898C23.6043 22.2993 22.7036 22.5 21.6769 22.5H18.2609V12.728H21.6769ZM21.6069 20.834C22.6336 20.834 23.4269 20.554 23.9869 19.994C24.5469 19.434 24.8269 18.6453 24.8269 17.628C24.8269 16.6107 24.5469 15.8173 23.9869 15.248C23.4269 14.6693 22.6336 14.38 21.6069 14.38H20.2209V20.834H21.6069Z" fill="#444444"/>
</svg>
