<svg xmlns="http://www.w3.org/2000/svg" xmlns:xlink="http://www.w3.org/1999/xlink" width="47.433" height="34.831" viewBox="0 0 47.433 34.831"><defs><style>.a{fill:url(#a);}.b{fill:url(#b);}.c{fill:url(#c);}.d{fill:url(#d);}.e{fill:url(#e);}.f{fill:url(#f);}.g{fill:url(#g);}.h{fill:url(#h);}.i{fill:url(#i);}.j{fill:url(#j);}.k{fill:url(#k);}</style><linearGradient id="a" x1="1.263" y1="1.424" x2="-0.281" y2="-0.446" gradientUnits="objectBoundingBox"><stop offset="0" stop-color="#49babc"/><stop offset="1" stop-color="#1b4b9b"/></linearGradient><linearGradient id="b" x1="6.153" y1="26.828" x2="-2.079" y2="-11.511" xlink:href="#a"/><linearGradient id="c" x1="2.452" y1="17.17" x2="-2.038" y2="-21.17" xlink:href="#a"/><linearGradient id="d" x1="2.333" y1="21.136" x2="-1.073" y2="-17.204" xlink:href="#a"/><linearGradient id="e" x1="3.319" y1="23.483" x2="-1.384" y2="-14.857" xlink:href="#a"/><linearGradient id="f" x1="3.204" y1="22.543" x2="-1.499" y2="-15.798" xlink:href="#a"/><linearGradient id="g" x1="2.572" y1="23.83" x2="-0.833" y2="-14.51" xlink:href="#a"/><linearGradient id="h" x1="6.814" y1="4.888" x2="-4.254" y2="-2.807" xlink:href="#a"/><linearGradient id="i" x1="6.041" y1="4.353" x2="-5.021" y2="-3.343" xlink:href="#a"/><linearGradient id="j" x1="3.142" y1="2.04" x2="-5.082" y2="-2.753" xlink:href="#a"/><linearGradient id="k" x1="2.45" y1="2.014" x2="-2.489" y2="-1.82" xlink:href="#a"/></defs><g transform="translate(-3.515 184.197)"><g transform="translate(3.515 -184.197)"><path class="a" d="M46.356-184.2H8.1a4.594,4.594,0,0,0-4.589,4.589V-158.4A4.594,4.594,0,0,0,8.1-153.813H32.731a.741.741,0,0,0,.741-.741.741.741,0,0,0-.741-.741H8.1A3.111,3.111,0,0,1,5-158.4v-21.206A3.111,3.111,0,0,1,8.1-182.715H46.357a3.11,3.11,0,0,1,3.11,3.107V-158.4a3.11,3.11,0,0,1-3.107,3.107h-5.5a.741.741,0,0,0-.741.741.741.741,0,0,0,.741.741h5.5a4.594,4.594,0,0,0,4.589-4.589v-21.206A4.594,4.594,0,0,0,46.356-184.2Z" transform="translate(-3.515 184.197)"/></g><g transform="translate(7.961 -179.751)"><path class="b" d="M15.363-180.5H7.952a.741.741,0,0,0-.741.741.741.741,0,0,0,.741.741h7.411a.741.741,0,0,0,.741-.741A.741.741,0,0,0,15.363-180.5Z" transform="translate(-7.211 180.501)"/></g><g transform="translate(30.931 -176.045)"><path class="c" d="M41.874-177.42H27.049a.742.742,0,0,0-.743.739.742.742,0,0,0,.74.743H41.872a.742.742,0,0,0,.74-.743.741.741,0,0,0-.74-.739Z" transform="translate(-26.306 177.42)"/></g><g transform="translate(19.078 -179.751)"><path class="d" d="M37.2-180.5H17.194a.741.741,0,0,0-.741.741.741.741,0,0,0,.741.741H37.2a.741.741,0,0,0,.741-.741A.741.741,0,0,0,37.2-180.5Z" transform="translate(-16.453 180.501)"/></g><g transform="translate(7.959 -170.858)"><path class="e" d="M22.034-173.108H7.952a.742.742,0,0,0-.743.739.742.742,0,0,0,.74.743H22.034a.741.741,0,0,0,.743-.739.741.741,0,0,0-.739-.743Z" transform="translate(-7.209 173.108)"/></g><g transform="translate(7.959 -167.152)"><path class="f" d="M22.034-170.027H7.952a.742.742,0,0,0-.743.739.742.742,0,0,0,.74.743H22.034a.741.741,0,0,0,.743-.739.741.741,0,0,0-.739-.743Z" transform="translate(-7.209 170.027)"/></g><g transform="translate(7.959 -176.045)"><path class="g" d="M27.962-177.42H7.952a.742.742,0,0,0-.743.739.742.742,0,0,0,.74.743H27.962a.741.741,0,0,0,.743-.739.741.741,0,0,0-.739-.743Z" transform="translate(-7.209 177.42)"/></g><g transform="translate(8.359 -164.161)"><path class="h" d="M13.414-163.863l.641-1.111a.741.741,0,0,0-.271-1.012.733.733,0,0,0-.372-.1H12.134l-.641-1.112a.771.771,0,0,0-1.069-.214.772.772,0,0,0-.214.214l-.641,1.112H8.283a.74.74,0,0,0-.741.74.744.744,0,0,0,.1.372l.641,1.111-.641,1.111a.74.74,0,0,0,.272,1.012.732.732,0,0,0,.37.1H9.564l.641,1.111a.741.741,0,0,0,1.013.272.751.751,0,0,0,.271-.272l.641-1.111h1.284a.741.741,0,0,0,.742-.74.745.745,0,0,0-.1-.372Zm-1.5.371.214.371H11.7a.741.741,0,0,0-.642.37l-.214.37-.214-.37a.74.74,0,0,0-.642-.37H9.564l.214-.371a.741.741,0,0,0,0-.741l-.214-.37h.428a.74.74,0,0,0,.642-.37l.214-.371.214.371a.741.741,0,0,0,.642.37h.428l-.214.37a.744.744,0,0,0,0,.741Z" transform="translate(-7.541 167.541)"/></g><g transform="translate(16.515 -164.161)"><path class="i" d="M20.2-163.863l.641-1.111a.741.741,0,0,0-.271-1.012.733.733,0,0,0-.372-.1H18.913l-.641-1.112a.771.771,0,0,0-1.069-.214.772.772,0,0,0-.214.214l-.641,1.112H15.064a.74.74,0,0,0-.741.74.744.744,0,0,0,.1.372l.641,1.111-.641,1.111a.74.74,0,0,0,.272,1.012.732.732,0,0,0,.37.1h1.285l.641,1.111a.741.741,0,0,0,1.013.272.751.751,0,0,0,.271-.272l.641-1.111H20.2a.741.741,0,0,0,.742-.74.745.745,0,0,0-.1-.372Zm-1.5.371.214.371h-.428a.741.741,0,0,0-.642.37l-.214.37-.214-.37a.74.74,0,0,0-.642-.37h-.425l.214-.371a.741.741,0,0,0,0-.741l-.214-.37h.428a.74.74,0,0,0,.642-.37l.214-.371.214.371a.741.741,0,0,0,.642.37h.428l-.214.37a.744.744,0,0,0-.007.741Z" transform="translate(-14.322 167.541)"/></g><g transform="translate(32.416 -161.223)"><path class="j" d="M35.694-165.1a.741.741,0,0,0-.741.741v8.833l-2.5-2a.742.742,0,0,0-.926,0l-2.5,2v-8.833a.74.74,0,0,0-.742-.739.741.741,0,0,0-.74.739v10.375a.741.741,0,0,0,.742.74.738.738,0,0,0,.461-.161L31.992-156,35.24-153.4a.742.742,0,0,0,1.042-.118.738.738,0,0,0,.161-.461v-10.375a.741.741,0,0,0-.741-.741Z" transform="translate(-27.541 165.098)"/></g><g transform="translate(29.453 -173.822)"><path class="k" d="M32.489-175.572a7.411,7.411,0,0,0-7.411,7.411,7.411,7.411,0,0,0,7.411,7.411,7.411,7.411,0,0,0,7.411-7.411h0A7.42,7.42,0,0,0,32.489-175.572Zm0,13.34a5.929,5.929,0,0,1-5.929-5.929,5.929,5.929,0,0,1,5.929-5.929,5.929,5.929,0,0,1,5.929,5.929A5.935,5.935,0,0,1,32.489-162.232Z" transform="translate(-25.078 175.572)"/></g></g></svg>