<svg width="25" height="25" viewBox="0 0 16 16" fill="none" xmlns="http://www.w3.org/2000/svg">
<circle cx="8" cy="8" r="7.5" fill="white" stroke="#FF8B04"/>
<circle cx="8" cy="8" r="6" fill="#FF8B04"/>
<g clip-path="url(#clip0_1162_700)">
<path d="M4 4.90512C4.02918 4.89116 4.0223 4.86031 4.02772 4.8376C4.14735 4.337 4.57062 4 5.08352 4C6.91169 4 8.73964 4 10.5678 4C11.1814 4 11.6442 4.44641 11.6513 5.06122C11.6593 5.74605 11.6545 6.43089 11.6528 7.11593C11.6524 7.30641 11.4823 7.48023 11.3045 7.48044C11.1245 7.48085 10.9567 7.3035 10.9555 7.10863C10.9542 6.90543 10.9536 6.70244 10.9563 6.49924C10.9569 6.44923 10.9448 6.43464 10.8929 6.43464C8.84864 6.4361 6.80456 6.4361 4.76028 6.43485C4.71213 6.43485 4.69442 6.4436 4.69463 6.49716C4.6965 7.26807 4.69838 8.03876 4.69442 8.80967C4.69338 9.02392 4.85594 9.22607 5.11207 9.2219C5.77857 9.21065 6.44527 9.21753 7.11197 9.21836C7.33538 9.21857 7.51545 9.42885 7.46939 9.63226C7.43646 9.77857 7.29328 9.91091 7.14135 9.91153C6.41755 9.91403 5.69333 9.92466 4.96994 9.90444C4.5156 9.89173 4.13338 9.52597 4.03001 9.06789C4.0223 9.03413 4.02855 8.99536 4.00021 8.96744V4.90512H4ZM7.82785 5.74001C8.45808 5.74001 9.08811 5.74001 9.71833 5.74001C10.1089 5.74001 10.4995 5.74001 10.8902 5.74001C10.9215 5.74001 10.9573 5.75314 10.9565 5.69478C10.9532 5.47866 10.9594 5.26234 10.9525 5.04642C10.9465 4.85344 10.7816 4.699 10.5905 4.6988C8.74694 4.69817 6.90335 4.69859 5.05955 4.69796C4.98932 4.69796 4.92555 4.71443 4.86886 4.75507C4.75277 4.83843 4.69588 4.95243 4.69609 5.0954C4.6965 5.28297 4.70005 5.47054 4.69421 5.6579C4.69192 5.7298 4.71484 5.74189 4.78112 5.74168C5.7967 5.73959 6.81228 5.74022 7.82785 5.74022V5.74001Z" fill="white"/>
<path d="M12.0002 9.79585C11.9635 9.87609 11.9635 9.96487 11.9431 10.0491C11.7305 10.9227 10.9898 11.5642 10.0986 11.6432C8.9997 11.7405 8.01725 10.9669 7.84761 9.87046C7.67776 8.77214 8.4522 7.69717 9.54594 7.51314C10.7341 7.31328 11.8226 8.11336 11.9839 9.30463C11.9858 9.31838 11.9785 9.33714 12.0002 9.34277V9.79585V9.79585ZM8.52119 9.56681C8.52202 10.331 9.14704 10.9554 9.9119 10.9561C10.6809 10.9569 11.3074 10.3292 11.3037 9.56139C11.3001 8.79632 10.6726 8.1713 9.91044 8.1738C9.14767 8.17609 8.52035 8.80528 8.52119 9.56681V9.56681Z" fill="white"/>
<path d="M6.08558 7.82701C5.96846 7.82701 5.85133 7.82847 5.7342 7.82659C5.53351 7.82347 5.39804 7.69259 5.39095 7.49772C5.38345 7.2889 5.50475 7.14238 5.71253 7.13488C5.962 7.12592 6.2125 7.12571 6.46197 7.13488C6.67038 7.1428 6.78771 7.2866 6.78104 7.49918C6.77479 7.693 6.6387 7.82347 6.43696 7.82638C6.31983 7.82805 6.20271 7.82659 6.08558 7.82659V7.82701Z" fill="white"/>
<path d="M9.56466 9.0208C9.56883 8.95931 9.5559 8.87574 9.57299 8.79321C9.60884 8.61982 9.73722 8.51999 9.92104 8.52395C10.1021 8.52791 10.2287 8.62919 10.2524 8.80176C10.2737 8.95661 10.2716 9.11416 10.2551 9.2688C10.2339 9.46804 10.094 9.57329 9.88519 9.56391C9.70096 9.55557 9.57466 9.42803 9.56507 9.23733C9.56174 9.17252 9.56466 9.10729 9.56466 9.0208V9.0208Z" fill="white"/>
<path d="M9.91063 10.6089C9.72222 10.608 9.56342 10.448 9.56446 10.2598C9.5655 10.0728 9.72743 9.91402 9.91563 9.91548C10.1032 9.91673 10.2639 10.0791 10.2618 10.265C10.2597 10.453 10.0997 10.6097 9.91042 10.6089H9.91063Z" fill="white"/>
</g>
<defs>
<clipPath id="clip0_1162_700">
<rect width="12.7035" height="7.65154" fill="white" transform="translate(4 4)"/>
</clipPath>
</defs>
</svg>
