<svg width="64" height="64" viewBox="0 0 64 64" fill="none" xmlns="http://www.w3.org/2000/svg">
<rect width="64" height="64" rx="32" fill="#FF8541" fill-opacity="0.1"/>
<g clip-path="url(#clip0_1515_3541)">
<path d="M42.5848 44.5456H25.3882C25.2939 44.448 25.1623 44.4755 25.0504 44.4579C21.2986 43.8561 18.7588 40.1031 19.6951 36.4272C20.4153 33.5993 22.2853 31.931 25.1538 31.3935C25.3404 31.3588 25.3941 31.3083 25.3934 31.1106C25.3849 28.0084 25.3876 24.9061 25.3876 21.8039C25.3889 20.3909 26.3193 19.4598 27.7322 19.4592C31.3812 19.4592 35.0302 19.4618 38.6792 19.4546C39.0236 19.4539 39.2828 19.5666 39.5231 19.8088C41.0644 21.3613 42.6123 22.9078 44.1634 24.4504C44.3919 24.6776 44.5006 24.9264 44.4993 25.2531C44.4914 27.5062 44.4954 29.7598 44.4954 32.0129C44.4954 35.4333 44.4967 38.8544 44.4947 42.2749C44.4941 43.3441 43.8459 44.1999 42.8532 44.4729C42.7642 44.4972 42.6562 44.4579 42.5848 44.545V44.5456ZM30.2779 43.0757C30.3801 43.0757 30.42 43.0757 30.46 43.0757C34.3787 43.0757 38.2974 43.0757 42.2168 43.0757C42.7321 43.0757 43.0254 42.7732 43.0254 42.2461C43.0254 36.8489 43.0241 31.4524 43.0313 26.0552C43.0313 25.849 42.9613 25.8247 42.7858 25.8261C41.5287 25.8326 40.2709 25.83 39.0137 25.8293C38.395 25.8293 38.1265 25.5576 38.1265 24.931C38.1265 23.6739 38.1239 22.4161 38.1298 21.1589C38.1305 20.9939 38.1161 20.9239 37.9144 20.9239C34.5018 20.9317 31.0892 20.9291 27.6759 20.9298C27.1554 20.9298 26.8588 21.2277 26.8581 21.7502C26.8575 24.8852 26.8581 28.0208 26.8555 31.1558C26.8555 31.2953 26.8706 31.3601 27.0402 31.3836C28.1677 31.5395 29.1904 31.9605 30.0966 32.6519C30.2288 32.7527 30.3565 32.7894 30.5189 32.7894C33.7272 32.7855 36.9362 32.7868 40.1445 32.7868C40.2263 32.7868 40.3082 32.7822 40.3894 32.7894C40.9125 32.8359 41.2222 33.3924 40.98 33.8547C40.8222 34.1559 40.559 34.2587 40.2296 34.258C37.462 34.2548 34.6943 34.2561 31.9266 34.2561C31.8402 34.2561 31.7531 34.2561 31.6765 34.2561C31.6425 34.3242 31.6831 34.3517 31.7027 34.3837C32.2114 35.1865 32.5382 36.058 32.6659 36.9989C32.6888 37.1671 32.7464 37.2012 32.9068 37.1999C34.1397 37.192 35.3726 37.1959 36.6055 37.1959C37.8384 37.1959 39.0714 37.194 40.3043 37.1972C40.7096 37.1986 41.0199 37.4722 41.0638 37.8514C41.1057 38.2154 40.8582 38.5631 40.4863 38.6469C40.3927 38.6678 40.2918 38.6652 40.1943 38.6652C37.7697 38.6659 35.3445 38.6678 32.9199 38.6626C32.7536 38.6626 32.6861 38.6901 32.6639 38.8754C32.6036 39.3861 32.4642 39.8804 32.2736 40.3597C31.8526 41.4185 31.1953 42.3057 30.2786 43.0757H30.2779ZM31.2673 37.9378C31.2706 35.1073 28.9697 32.7953 26.1418 32.7868C23.3002 32.7783 20.9817 35.0856 20.9784 37.924C20.9751 40.7545 23.2753 43.0665 26.1032 43.0757C28.9435 43.0848 31.2634 40.7768 31.2673 37.9378ZM39.5965 22.0226C39.5965 22.7677 39.5978 23.5128 39.5952 24.2579C39.5952 24.4013 39.696 24.3568 39.7654 24.3568C40.466 24.3594 41.1666 24.3581 41.8672 24.3581C41.8993 24.3581 41.932 24.3614 41.932 24.3607C41.145 23.573 40.3763 22.803 39.5965 22.0219V22.0226Z" fill="#FF8541"/>
<path d="M34.9437 29.8462C33.1647 29.8462 31.3851 29.8482 29.6061 29.8449C29.0339 29.8443 28.662 29.3296 28.8754 28.8333C29.0077 28.5262 29.2545 28.3757 29.5904 28.3757C30.4475 28.3757 31.3046 28.3757 32.161 28.3757C34.8625 28.3757 37.5641 28.375 40.2649 28.3763C40.8437 28.3763 41.2104 28.8713 41.0133 29.3768C40.8961 29.6767 40.6283 29.8449 40.2564 29.8449C38.575 29.8456 36.8942 29.8449 35.2128 29.8449C35.1231 29.8449 35.0334 29.8449 34.9437 29.8449V29.8462Z" fill="#FF8541"/>
<path d="M25.3881 36.4475C25.3881 35.9826 25.3861 35.5171 25.3881 35.0522C25.3907 34.5834 25.7024 34.2514 26.1306 34.2567C26.549 34.2612 26.8548 34.5893 26.8567 35.045C26.8593 35.6978 26.8639 36.3506 26.8534 37.0034C26.8508 37.169 26.9026 37.205 27.0571 37.1998C27.391 37.1887 27.7262 37.1926 28.0602 37.1972C28.493 37.2037 28.8158 37.52 28.8164 37.9299C28.8164 38.3404 28.4949 38.6606 28.0621 38.6645C27.4178 38.6697 26.7729 38.671 26.1286 38.6645C25.7017 38.6599 25.394 38.3463 25.3887 37.9168C25.3829 37.427 25.3874 36.9379 25.3874 36.4481L25.3881 36.4475Z" fill="#FF8541"/>
</g>
<defs>
<clipPath id="clip0_1515_3541">
<rect width="25" height="25.091" fill="white" transform="translate(19.5 19.4546)"/>
</clipPath>
</defs>
</svg>
