<svg width="24" height="24" viewBox="0 0 24 24" fill="none" xmlns="http://www.w3.org/2000/svg">
<path d="M18.9502 11.12C18.5502 7.93996 16.0602 5.44996 12.8802 5.04996C12.3702 4.98996 12.0002 4.55996 12.0002 4.05996C12.0002 4.01996 12.0002 3.97996 12.0102 3.93996C12.0802 3.38996 12.5802 2.99996 13.1302 3.06996C15.116 3.31571 16.9629 4.21757 18.3777 5.63244C19.7926 7.04732 20.6945 8.89417 20.9402 10.88C21.0002 11.43 20.6102 11.93 20.0602 11.99C19.5102 12.06 19.0102 11.67 18.9502 11.12V11.12ZM16.8402 10.74C16.9802 11.27 16.6602 11.82 16.1202 11.96C15.5802 12.1 15.0402 11.78 14.9002 11.24C14.7659 10.7225 14.4958 10.2504 14.1178 9.8724C13.7398 9.4944 13.2677 9.22427 12.7502 9.08996C12.4932 9.02335 12.273 8.85751 12.138 8.6288C12.0031 8.4001 11.9643 8.1272 12.0302 7.86996C12.1702 7.33996 12.7202 7.01996 13.2502 7.14996C14.1138 7.37506 14.9017 7.8264 15.5328 8.45744C16.1638 9.08848 16.6151 9.87639 16.8402 10.74V10.74ZM8.74023 4.76996L9.03023 7.30996C9.06531 7.60862 9.03225 7.91135 8.93352 8.1954C8.8348 8.47945 8.67298 8.73743 8.46023 8.94996L6.62023 10.79C8.06401 13.6288 10.3714 15.9362 13.2102 17.38L15.0602 15.53C15.4902 15.1 16.0902 14.89 16.7002 14.96L19.2202 15.25C19.7081 15.3067 20.158 15.5408 20.4844 15.9077C20.8108 16.2747 20.9908 16.7489 20.9902 17.24V18.97C20.9902 20.1 20.0502 21.04 18.9202 20.97C10.3802 20.44 3.56023 13.61 3.03023 5.07996C2.96023 3.94996 3.90023 3.00996 5.03023 3.00996H6.76023C7.77023 2.99996 8.62023 3.75996 8.74023 4.76996V4.76996Z" fill="white"/>
</svg>
