<svg width="50" height="51" viewBox="0 0 50 51" fill="none" xmlns="http://www.w3.org/2000/svg">
<circle cx="25" cy="25.3862" r="25" fill="#AB26A3"/>
<g clip-path="url(#clip0_1952_10699)">
<path d="M15.8434 35.5789C15.6361 35.3924 15.4774 35.2652 15.3382 35.1219C15.0662 34.8412 15.0727 34.4875 15.3404 34.2519C15.5973 34.0254 15.9675 34.0164 16.2481 34.268C16.79 34.754 17.3232 35.2491 17.8424 35.7562C18.1425 36.0489 18.1274 36.3536 17.8154 36.6512C17.3189 37.1263 16.8148 37.5953 16.3 38.0523C15.9567 38.357 15.5724 38.359 15.3069 38.0884C15.0532 37.8298 15.0867 37.4931 15.4019 37.1924C15.5239 37.0761 15.6534 36.9679 15.8261 36.8156C15.2907 36.7544 14.8028 36.7384 14.3236 36.6522C11.2106 36.096 9.03339 33.7438 8.99993 30.8946C8.96539 27.9661 11.0789 25.5267 14.1897 24.9084C14.5718 24.8322 14.9582 24.7881 15.3501 24.7891C16.1305 24.7901 16.9109 24.7911 17.6913 24.7871C18.2267 24.7841 18.7621 24.7731 19.2975 24.7651C19.3849 24.271 19.3147 23.7739 19.3363 23.2788C19.3406 23.1786 19.3363 23.0794 19.3374 22.9791C19.3611 21.9779 20.1869 21.1962 21.2641 21.1922C23.8612 21.1832 26.4582 21.1822 29.0564 21.1922C30.1131 21.1962 30.954 21.9749 30.9626 22.9561C30.9777 24.5797 30.9777 26.2042 30.9626 27.8288C30.9529 28.7909 30.1196 29.5756 29.0855 29.5817C26.4615 29.5957 23.8374 29.5967 21.2134 29.5817C20.1815 29.5756 19.3622 28.7859 19.3396 27.8238C19.3266 27.2866 19.3374 26.7494 19.3352 26.2122C19.3352 26.106 19.373 25.9817 19.1722 25.9868C17.6805 26.0228 16.1791 25.8725 14.697 26.0569C12.236 26.3646 10.3632 28.3269 10.2931 30.5829C10.2186 32.9862 11.8776 34.9465 14.4045 35.4426C14.8471 35.5297 15.2929 35.5949 15.8412 35.5789H15.8434ZM25.1619 28.387C26.3989 28.387 27.6359 28.389 28.8729 28.387C29.4482 28.386 29.6749 28.1746 29.6759 27.6374C29.6781 26.1391 29.6781 24.6408 29.6759 23.1435C29.6759 22.6023 29.4514 22.3908 28.8772 22.3908C26.4032 22.3888 23.9281 22.3888 21.4541 22.3908C20.8496 22.3908 20.6327 22.5943 20.6316 23.1585C20.6294 24.6438 20.6294 26.1301 20.6316 27.6153C20.6316 28.1806 20.8507 28.387 21.4509 28.388C22.6879 28.39 23.9249 28.388 25.1619 28.388V28.387Z" fill="white"/>
<path d="M34.4847 26.0146C34.6736 26.183 34.8333 26.3103 34.9736 26.4536C35.2349 26.7222 35.237 27.0589 34.9952 27.2975C34.748 27.541 34.3929 27.566 34.0993 27.3115C33.5391 26.8264 32.9918 26.3253 32.4575 25.8162C32.1823 25.5546 32.1791 25.2459 32.4511 24.9783C32.9778 24.4612 33.5197 23.9571 34.0713 23.463C34.3487 23.2145 34.7265 23.2315 34.9769 23.463C35.2295 23.6955 35.2424 24.0363 34.9855 24.3049C34.8452 24.4512 34.6703 24.5705 34.4393 24.7619C35.0406 24.816 35.5209 24.7278 35.9937 24.6296C38.5368 24.1034 40.266 21.9036 39.9983 19.5474C39.7187 17.079 37.5513 15.2169 34.9143 15.1928C33.7032 15.1818 32.4921 15.2008 31.281 15.1828C30.9939 15.1788 30.9572 15.277 30.9647 15.5015C30.9798 16.0006 30.9777 16.5007 30.9669 17.0008C30.9464 18.002 30.1185 18.7817 29.0391 18.7857C26.456 18.7957 23.8719 18.7947 21.2889 18.7857C20.1858 18.7817 19.3482 18.003 19.3417 16.9818C19.332 15.3832 19.3309 13.7837 19.3417 12.1852C19.3482 11.183 20.1847 10.3983 21.2609 10.3933C23.8579 10.3832 26.455 10.3832 29.052 10.3933C30.1271 10.3973 30.9496 11.184 30.968 12.1892C30.9766 12.7013 30.9809 13.2135 30.9647 13.7256C30.9582 13.9371 31.0241 13.9962 31.2529 13.9942C32.437 13.9832 33.6211 13.9852 34.8053 13.9902C38.5583 14.0042 41.4501 16.8104 41.3033 20.291C41.1824 23.1603 38.7278 25.5897 35.6224 25.9124C35.2672 25.9495 34.911 25.9765 34.4847 26.0146ZM25.1532 11.5909C23.9022 11.5909 22.6522 11.5889 21.4012 11.5919C20.8723 11.5939 20.6337 11.8104 20.6326 12.2964C20.6283 13.8198 20.6294 15.3421 20.6326 16.8655C20.6326 17.3746 20.868 17.5881 21.4228 17.5881C23.9108 17.5901 26.3978 17.5901 28.8858 17.5881C29.4395 17.5881 29.6748 17.3726 29.6759 16.8645C29.6792 15.3542 29.6792 13.8428 29.6759 12.3325C29.6759 11.7994 29.4471 11.5919 28.8642 11.5909C27.6272 11.5889 26.3902 11.5909 25.1532 11.5909Z" fill="white"/>
<path d="M25.1533 40.385C23.9152 40.385 22.6761 40.386 21.438 40.385C20.147 40.383 19.3396 39.6414 19.3385 38.4538C19.3364 36.9415 19.3364 35.4291 19.3385 33.9178C19.3407 32.7302 20.1481 31.9876 21.438 31.9876C23.9152 31.9866 26.3914 31.9866 28.8686 31.9876C30.1607 31.9876 30.9659 32.7282 30.9681 33.9178C30.9713 35.4301 30.9713 36.9425 30.9681 38.4538C30.9659 39.6434 30.1596 40.383 28.8686 40.385C27.6305 40.387 26.3914 40.385 25.1533 40.385ZM25.1501 39.1854C26.3871 39.1854 27.6241 39.1864 28.8621 39.1854C29.4472 39.1844 29.6749 38.9779 29.676 38.4458C29.6792 36.9355 29.6792 35.4241 29.676 33.9138C29.676 33.4027 29.4428 33.1882 28.8891 33.1882C26.4011 33.1862 23.9131 33.1862 21.425 33.1882C20.8519 33.1882 20.6317 33.4007 20.6317 33.9459C20.6295 35.4442 20.6295 36.9425 20.6317 38.4408C20.6317 38.9759 20.8594 39.1854 21.4391 39.1864C22.6761 39.1884 23.9131 39.1864 25.1511 39.1864L25.1501 39.1854Z" fill="white"/>
<path d="M15.878 15.1898C15.3006 15.1898 14.8483 15.1898 14.3971 15.1898C12.8643 15.1898 11.3316 15.1908 9.79883 15.1898C9.2915 15.1898 8.99899 14.9633 9.00222 14.5865C9.00438 14.2096 9.29474 13.9912 9.80638 13.9902C11.7828 13.9882 13.7592 13.9902 15.8338 13.9902C15.6438 13.8128 15.4981 13.6855 15.3621 13.5492C15.0782 13.2646 15.0631 12.9278 15.3146 12.6793C15.5758 12.4217 15.9676 12.4197 16.2796 12.6993C16.7912 13.1603 17.2953 13.6274 17.7886 14.1044C18.1469 14.4502 18.1426 14.7438 17.7875 15.0826C17.3083 15.5376 16.8247 15.9896 16.3314 16.4315C15.9676 16.7572 15.5823 16.7723 15.3081 16.4957C15.0447 16.2311 15.0858 15.8883 15.4247 15.5736C15.5423 15.4634 15.6719 15.3642 15.8791 15.1908L15.878 15.1898Z" fill="white"/>
<path d="M25.164 27.1883C24.3448 27.1883 23.5255 27.1903 22.7051 27.1883C22.2086 27.1863 21.9118 26.9478 21.9247 26.5709C21.9366 26.2081 22.2216 25.9907 22.7041 25.9907C24.3426 25.9887 25.9822 25.9877 27.6207 25.9907C28.0946 25.9907 28.3806 26.2232 28.3817 26.589C28.3817 26.9538 28.0946 27.1863 27.6218 27.1893C26.8026 27.1933 25.9833 27.1903 25.1629 27.1903L25.164 27.1883Z" fill="white"/>
<path d="M26.4389 24.7878C26.0233 24.7878 25.6067 24.7958 25.1911 24.7858C24.782 24.7757 24.5122 24.5312 24.51 24.1904C24.5079 23.8497 24.7777 23.5961 25.1847 23.5911C26.0298 23.5821 26.8761 23.5811 27.7213 23.5911C28.1228 23.5961 28.3926 23.8627 28.3829 24.2025C28.3732 24.5272 28.1109 24.7717 27.7277 24.7838C27.2981 24.7968 26.8685 24.7868 26.4389 24.7868V24.7878Z" fill="white"/>
<path d="M22.5832 24.788C22.2335 24.796 21.9366 24.5365 21.9226 24.2117C21.9086 23.872 22.2065 23.5864 22.5735 23.5894C22.9232 23.5924 23.2114 23.859 23.2146 24.1837C23.2179 24.5074 22.9329 24.78 22.5832 24.788Z" fill="white"/>
<path d="M25.1112 16.3894C24.3049 16.3894 23.4986 16.3924 22.6933 16.3884C22.2162 16.3864 21.9302 16.1609 21.9259 15.7961C21.9205 15.4303 22.2076 15.1908 22.6771 15.1898C24.3297 15.1867 25.9823 15.1867 27.6348 15.1898C28.1022 15.1898 28.3904 15.4333 28.3829 15.7991C28.3753 16.1619 28.0882 16.3854 27.6111 16.3874C26.7778 16.3904 25.9456 16.3874 25.1123 16.3874L25.1112 16.3894Z" fill="white"/>
<path d="M26.4476 12.7907C26.8631 12.7907 27.2798 12.7837 27.6953 12.7927C28.1066 12.8017 28.3775 13.0422 28.3819 13.382C28.3872 13.7217 28.1163 13.9813 27.7115 13.9863C26.8664 13.9963 26.0201 13.9963 25.1749 13.9863C24.7712 13.9813 24.5014 13.7187 24.5089 13.379C24.5165 13.0382 24.7853 12.8017 25.1987 12.7927C25.6143 12.7837 26.0309 12.7907 26.4465 12.7907H26.4476Z" fill="white"/>
<path d="M23.2147 13.3977C23.2093 13.7214 22.9189 13.989 22.5703 13.989C22.2055 13.989 21.9075 13.7004 21.9237 13.3616C21.9399 13.0359 22.2378 12.7793 22.5876 12.7893C22.9384 12.7994 23.219 13.072 23.2147 13.3967V13.3977Z" fill="white"/>
<path d="M28.0579 34.7077C28.0687 35.0074 27.9596 35.1607 27.8128 35.296C26.9083 36.1319 26.0113 36.9737 25.096 37.7995C24.6016 38.2455 24.3814 38.2325 23.8763 37.7755C23.4143 37.3576 22.9588 36.9346 22.5086 36.5067C22.1762 36.191 22.1568 35.8452 22.4396 35.5867C22.7181 35.3321 23.1023 35.3602 23.4315 35.6658C23.7165 35.9304 24.0079 36.19 24.2735 36.4706C24.4462 36.653 24.5498 36.661 24.7398 36.4766C25.4543 35.7821 26.1905 35.1076 26.9159 34.4231C27.1393 34.2126 27.4005 34.1565 27.6866 34.2698C27.9283 34.366 28.0482 34.5564 28.0579 34.7057V34.7077Z" fill="white"/>
</g>
<defs>
<clipPath id="clip0_1952_10699">
<rect width="32.3077" height="30" fill="white" transform="translate(9 10.3862)"/>
</clipPath>
</defs>
</svg>
