<svg width="900" height="600" viewBox="0 0 900 600" fill="none" xmlns="http://www.w3.org/2000/svg">
<path d="M366.332 73.614H363.254V173.82H366.332V73.614Z" fill="#699FF0"/>
<path d="M536.384 73.614H533.306V173.82H536.384V73.614Z" fill="#699FF0"/>
<path d="M553.211 170.739H346.427V288.699H553.211V170.739Z" fill="#466AA5"/>
<path d="M370.445 191.247H359.078V210.036H370.445V191.247Z" fill="white"/>
<path d="M385.289 191.247H373.922V210.036H385.289V191.247Z" fill="white"/>
<path d="M538.844 207.666H388.211V210.033H538.844V207.666Z" fill="white"/>
<path d="M538.844 202.221H388.211V204.588H538.844V202.221Z" fill="white"/>
<path d="M520.961 196.458H388.211V198.825H520.961V196.458Z" fill="white"/>
<path d="M508.25 191.247H388.211V193.614H508.25V191.247Z" fill="white"/>
<path d="M370.445 222.036H359.078V240.825H370.445V222.036Z" fill="white"/>
<path d="M385.289 222.036H373.922V240.825H385.289V222.036Z" fill="white"/>
<path d="M538.844 238.458H388.211V240.825H538.844V238.458Z" fill="white"/>
<path d="M538.844 233.01H388.211V235.377H538.844V233.01Z" fill="white"/>
<path d="M520.961 227.247H388.211V229.614H520.961V227.247Z" fill="white"/>
<path d="M508.25 222.036H388.211V224.403H508.25V222.036Z" fill="white"/>
<path d="M370.445 252.825H359.078V271.614H370.445V252.825Z" fill="white"/>
<path d="M385.289 252.825H373.922V271.614H385.289V252.825Z" fill="white"/>
<path d="M538.844 269.247H388.211V271.614H538.844V269.247Z" fill="white"/>
<path d="M538.844 263.799H388.211V266.166H538.844V263.799Z" fill="white"/>
<path d="M520.961 258.036H388.211V260.403H520.961V258.036Z" fill="white"/>
<path d="M508.25 252.825H388.211V255.192H508.25V252.825Z" fill="white"/>
<path d="M461.156 148.929H359.078V170.736H461.156V148.929Z" fill="#F1A34F"/>
<path d="M457.841 151.062H440.789V168.114H457.841V151.062Z" fill="white"/>
<path d="M446.192 154.833C446.192 155.07 446.285 155.295 446.453 155.463L450.506 159.516L446.453 163.569C446.285 163.737 446.192 163.962 446.192 164.199V164.343C446.192 165.135 447.152 165.534 447.71 164.973L451.982 160.701C452.597 160.086 452.597 159.09 451.982 158.478L447.71 154.206C447.149 153.645 446.192 154.041 446.192 154.833Z" fill="#F1A34F"/>
<path d="M748.697 506.484C748.697 506.484 740.474 497.085 738.146 492.804L731.747 480.987L723.371 483.057L734 498.12L745.103 507.516L748.697 506.484Z" fill="#FFB27D"/>
<path d="M695.738 275.616C693.806 274.518 691.49 274.398 689.873 274.494C690.29 274.065 691.109 273.906 691.109 273.906C690.104 273.756 687.863 274.752 687.863 274.752C673.895 269.37 671.699 289.935 671.993 294.714C672.284 299.493 667.298 301.053 660.032 304.815C646.166 311.997 644.948 321.615 644.948 321.615C645.056 321.678 645.17 321.75 645.29 321.834C645.977 320.67 647.393 318.48 648.587 318.15C648.542 318.255 647.177 321.162 646.667 322.83C650.756 325.941 658.409 332.835 663.743 337.725C663.719 336.771 663.758 335.412 664.106 334.698L664.766 338.667C667.619 341.292 669.587 343.137 669.587 343.137C669.233 339.276 687.05 318.9 696.344 312.798C698.606 309.468 699.41 303.582 699.47 303.12C699.08 307.785 698.282 310.404 697.568 311.877C705.44 304.632 700.859 278.526 695.738 275.616Z" fill="#163560"/>
<path d="M695.795 313.101C695.843 313.122 691.307 315.477 687.896 314.544C684.689 313.668 682.592 309.51 682.637 309.501C683.996 309.231 684.386 307.365 684.359 299.34L684.974 299.46L695.3 301.506C695.3 301.506 695.066 304.755 695.057 307.818C695.051 310.389 695.207 312.828 695.795 313.101Z" fill="#9C5F33"/>
<path d="M684.116 278.985C684.116 278.985 689.21 273.561 695.606 278.709C695.606 278.706 691.883 278.064 684.116 278.985Z" fill="#A8D29F"/>
<path d="M683.906 298.335C683.906 298.335 680.879 293.55 680.15 289.458C679.631 286.536 681.119 275.709 692 277.269C692 277.269 695.159 277.581 698.132 279.588C700.493 281.184 703.904 284.628 700.091 294.078L699.101 297.27L683.906 298.335Z" fill="#163560"/>
<path d="M736.46 488.676L730.985 488.844L725.06 489.027C725.06 489.027 711.374 473.787 703.697 449.361C703.517 448.794 703.328 448.218 703.13 447.636C698.927 435.384 690.218 420.006 685.628 406.086C684.896 403.869 684.242 401.781 683.654 399.807C683.465 399.174 683.282 398.553 683.108 397.941C679.724 386.187 678.746 378.471 677.843 370.224L710.99 370.488C710.987 370.488 716.336 426.789 736.46 488.676Z" fill="#80BDCC"/>
<path d="M708.66 373.983C708.66 373.983 694.467 381.192 677.601 375.885C677.403 375.822 678.713 310.689 683.498 308.895C684.599 310.266 687.857 311.637 690.773 311.571C694.133 311.496 695.222 310.059 695.048 308.487C698.627 310.479 701.487 312.36 701.487 312.36C704.532 317.646 708.66 373.983 708.66 373.983Z" fill="#F1A34F"/>
<path d="M677.84 353.202C676.391 355.254 673.613 367.716 666.701 369.282C670.262 360.399 672.965 356.505 673.388 353.772C674.171 348.672 674.189 343.398 673.799 338.421C676.112 334.365 677.84 331.587 677.84 331.587C678.023 330.93 681.518 320.124 682.637 329.784C683.753 339.447 679.457 350.907 677.84 353.202Z" fill="#5F9AA8"/>
<path d="M697.229 304.404C697.229 304.404 683.555 304.629 683.546 296.112C683.537 287.595 681.767 281.889 690.494 281.385C699.224 280.881 700.922 284.13 701.618 286.971C702.314 289.812 700.787 304.128 697.229 304.404Z" fill="#AB7041"/>
<path d="M696.722 281.178C696.722 281.178 692.978 291.171 687.233 292.647C681.488 294.123 678.995 292.584 678.995 292.584C678.995 292.584 683.402 289.083 684.317 282.972C684.317 282.972 693.899 276.42 696.722 281.178Z" fill="#163560"/>
<path d="M695.795 281.988C695.795 281.988 698.591 284.22 699.272 286.389C699.953 288.558 700.259 293.022 701.561 292.872C701.561 292.872 704.381 286.08 701.21 282.237C697.853 278.163 695.795 281.988 695.795 281.988Z" fill="#163560"/>
<path d="M752.25 318.54C752.25 318.54 754.178 311.592 761.813 312.576C762.689 312.852 765.251 313.872 763.613 316.614C762.407 318.636 761.886 317.592 759.987 320.307C758.088 323.022 756.03 323.637 753.675 323.31L752.25 318.54Z" fill="#AB7041"/>
<path d="M686.984 505.077C686.519 502.518 685.634 498.093 685.634 498.093L685.838 482.391H676.301L679.871 497.421C679.943 498.12 680.138 500.826 679.139 503.697C679.139 503.697 678.224 507.87 682.334 507.948C686.441 508.023 687.449 507.636 686.984 505.077Z" fill="#FFB27D"/>
<path d="M687.374 509.988H678.827C678.401 507.753 679.139 503.703 679.139 503.703C683.789 508.212 686.705 503.589 686.705 503.589C687.398 505.353 687.383 509.328 687.374 509.988Z" fill="#233862"/>
<path d="M752.69 510.018H742.154C741.239 509.169 740.363 507.492 739.298 505.305C738.677 504.039 737.291 503.34 735.866 502.956V510.018H733.682L731.678 502.506C730.334 499.98 731.363 497.706 732.308 495.708C733.406 495.705 736.568 496.458 742.166 502.92C744.005 505.041 746.036 505.8 748.055 505.734C748.085 505.752 748.112 505.767 748.139 505.779C751.292 507.237 752.345 509.022 752.69 510.018Z" fill="#233862"/>
<path d="M752.249 318.54C752.249 318.54 743.273 323.559 740.069 325.005C738.242 325.83 734.036 327.798 731.072 329.19C729.188 330.075 726.944 329.592 725.591 328.008C720.725 322.323 708.059 309.996 695.051 308.484C695.051 308.484 702.962 328.026 703.196 331.983C703.43 335.937 704.126 396.66 704.126 396.66C704.126 396.66 703.661 399.453 709.013 398.289C714.365 397.125 715.76 395.961 715.76 395.961C715.76 395.961 710.642 358.503 712.037 345.477C712.313 342.909 712.061 340.023 711.485 337.041C719.411 341.862 728.789 344.004 728.789 344.004C728.789 344.004 735.8 340.944 745.385 333.921C748.394 331.716 753.68 323.307 753.68 323.307L752.249 318.54Z" fill="#A8D29F"/>
<path d="M730.988 488.841L725.063 489.024C725.063 489.024 711.377 473.784 703.7 449.358C703.52 448.791 703.331 448.215 703.133 447.633C698.93 435.381 690.221 420.003 685.631 406.083C684.899 403.866 684.245 401.778 683.657 399.804C683.468 399.171 683.285 398.55 683.111 397.938L687.992 394.233C687.992 394.233 702.647 417.963 707.183 440.295C711.119 459.696 726.902 483.039 730.988 488.841Z" fill="#5F9AA8"/>
<path d="M688.496 442.377C688.58 453.237 688.031 478.206 686.615 488.541H681.365C678.464 488.541 677.018 488.499 677.018 488.499C673.469 470.526 670.946 455.655 669.107 442.842C667.598 432.327 666.26 423.312 665.228 415.551C664.19 407.742 663.47 401.202 663.212 395.676C663.173 394.806 663.143 393.96 663.125 393.138C663.11 392.313 663.104 391.509 663.11 390.729L691.748 387.936C691.391 406.965 688.448 436.065 688.496 442.377Z" fill="#80BDCC"/>
<path d="M681.368 488.541C678.467 488.541 677.021 488.499 677.021 488.499C673.472 470.526 670.949 455.655 669.11 442.842C667.601 432.327 666.263 423.312 665.231 415.551C664.193 407.742 663.473 401.202 663.215 395.676L673.724 401.859C673.724 401.859 667.016 404.226 669.575 422.139C672.134 440.052 677.804 486.006 681.368 488.541Z" fill="#5F9AA8"/>
<path d="M682.718 395.499C682.718 395.499 680.702 402.786 673.724 401.856C666.743 400.929 656.819 396.738 656.819 396.738C656.819 396.738 659.804 387.315 663.509 374.931C663.548 374.802 663.587 374.667 663.626 374.535C668.003 359.916 673.352 341.304 676.01 329.193C676.067 328.935 676.121 328.68 676.175 328.428C676.91 325.014 677.414 322.161 677.6 320.118L683.498 308.892C683.498 308.892 692.024 328.26 692.492 333.147C692.957 338.034 682.718 395.499 682.718 395.499Z" fill="#A8D29F"/>
<path d="M675.752 332.421L683.501 308.895C683.48 308.904 673.745 311.751 668.897 314.199C668.897 314.199 665.87 318.102 663.995 327.111C663.995 327.111 662.015 348.735 666.437 356.646C666.437 356.646 680.396 359.439 702.731 351.759V346.641C702.731 346.641 678.302 347.922 673.301 348.501L675.752 332.421Z" fill="#AB7041"/>
<path d="M681.74 343.383C681.431 351.186 679.616 366.237 663.629 374.535C668.006 359.916 673.355 341.304 676.013 329.193C678.911 333.645 681.896 339.267 681.74 343.383Z" fill="#82B378"/>
<path d="M683.499 308.895C683.499 308.895 669.228 309.885 665.814 317.484C662.403 325.083 661.317 350.364 665.658 357.81C665.658 357.81 671.637 359.514 682.212 357.534C682.341 357.51 682.473 357.486 682.602 357.459C682.602 357.459 685.974 349.2 682.95 347.571C682.95 347.571 674.031 348.036 674.961 345.09C675.897 342.144 683.499 308.895 683.499 308.895Z" fill="#A8D29F"/>
<path d="M700.223 348.003C700.223 348.003 702.17 345.645 702.584 343.236C702.998 340.827 704.288 339.042 707.645 338.601C711.005 338.16 712.448 338.112 712.439 339.06C712.43 340.008 709.694 346.617 704.876 350.565C700.055 354.513 700.223 348.003 700.223 348.003Z" fill="#AB7041"/>
<path d="M684.923 404.109H665.996C660.926 404.109 656.819 399.999 656.819 394.932V387.012C656.819 381.942 660.929 377.835 665.996 377.835H684.923C689.993 377.835 694.1 381.945 694.1 387.012V394.932C694.1 400.002 689.99 404.109 684.923 404.109Z" fill="#2B478B"/>
<path d="M649.832 389.157V394.932C649.832 400.002 653.942 404.109 659.009 404.109H677.936C683.006 404.109 687.113 399.999 687.113 394.932V389.67L668.471 393.096L649.832 389.157Z" fill="#699DEE"/>
<path d="M687.113 387.012C687.113 381.942 683.003 377.835 677.936 377.835H659.009C653.939 377.835 649.832 381.945 649.832 387.012L668.474 390.972L687.113 387.012Z" fill="#699DEE"/>
<path d="M668.471 390.972L649.832 387.012V389.157L668.471 393.096L687.113 389.67V387.012L668.471 390.972Z" fill="#2B478B"/>
<path d="M680.285 347.568C679.694 346.29 675.986 346.803 675.986 346.803C684.596 348.864 690.035 387.012 690.035 387.012H691.754C688.577 361.785 680.876 348.846 680.285 347.568Z" fill="#2B478B"/>
<path d="M654.521 379.008L663.551 350.709L664.184 353.88L656.315 378.237L654.521 379.008Z" fill="#2B478B"/>
<path d="M307.223 350.712C307.223 350.712 303.752 349.557 302.075 349.905C300.398 350.253 295.196 352.68 295.082 353.199C294.965 353.718 295.082 354.093 295.082 354.093H307.223C307.223 354.093 309.938 353.565 310.4 351.966C310.859 350.367 307.223 350.712 307.223 350.712Z" fill="#FFB27D"/>
<path d="M352.517 503.682C352.424 504.675 351.872 505.317 350.999 505.698C350.996 505.701 350.99 505.701 350.987 505.701C349.37 506.409 346.658 506.25 343.73 505.854C343.355 505.803 343.016 505.764 342.716 505.737C342.638 505.731 342.557 505.722 342.479 505.719C342.416 505.713 342.356 505.71 342.296 505.704C339.38 505.512 339.608 506.412 334.031 506.382C327.677 506.349 325.526 504.207 325.235 503.295C324.989 502.521 327.773 501.921 330.884 501.228C331.034 501.195 331.184 501.159 331.337 501.126C331.751 501.033 332.168 500.937 332.582 500.844C336.29 499.974 339.962 498.876 341.177 495.312C342.464 491.532 342.161 480.321 342.161 480.321H353.417C353.417 480.321 350.462 492.708 350.771 496.278C350.939 498.183 351.851 498.726 352.202 500.379C352.229 500.496 352.25 500.61 352.271 500.727C352.442 501.696 352.61 502.686 352.517 503.682Z" fill="#AD7041"/>
<path d="M365.613 382.482C364.662 387.813 363.309 393.324 362.13 399.057C360.24 408.273 358.812 418.062 360.273 428.604C360.459 429.96 360.561 431.457 360.585 433.068C360.87 451.698 352.545 485.463 352.545 485.463C352.545 485.463 350.283 486.438 346.494 486.252C344.544 486.156 341.55 484.896 341.55 484.896C341.55 484.896 340.761 463.962 340.716 435.81C340.683 415.404 336.675 388.533 335.865 372.744C335.376 363.189 336.438 350.46 336.438 350.46C336.438 350.46 353.031 337.116 358.992 343.944C364.881 350.685 369.168 362.532 365.613 382.482Z" fill="#415DA5"/>
<path d="M360.275 428.601C360.461 429.957 360.563 431.454 360.587 433.065C348.161 415.059 345.41 375.795 345.41 375.795L359.06 382.419C359.06 382.419 360.557 389.781 362.132 399.054C360.239 408.27 358.814 418.059 360.275 428.601Z" fill="#355493"/>
<path d="M388.418 503.682C388.325 504.675 387.773 505.317 386.9 505.698C386.897 505.701 386.891 505.701 386.888 505.701C385.271 506.409 382.559 506.25 379.631 505.854C379.256 505.803 378.917 505.764 378.617 505.737C378.539 505.731 378.458 505.722 378.38 505.719C378.32 505.713 378.257 505.71 378.197 505.704C375.281 505.512 375.509 506.412 369.932 506.382C363.578 506.349 361.427 504.207 361.136 503.295C360.89 502.521 363.674 501.921 366.785 501.228C366.935 501.195 367.085 501.159 367.238 501.126C367.652 501.033 368.069 500.937 368.483 500.844C372.191 499.974 375.863 498.876 377.078 495.312C378.365 491.532 376.526 480.492 376.526 480.492L386.954 479.622C386.954 479.622 386.306 492.201 386.615 495.771C386.783 497.676 387.752 498.726 388.103 500.379C388.13 500.496 388.151 500.61 388.172 500.727C388.343 501.696 388.511 502.686 388.418 503.682Z" fill="#AD7041"/>
<path d="M386.948 486.411C386.948 486.411 384.269 487.68 382.337 488.064C380.408 488.451 376.397 487.695 376.397 487.695C375.674 479.589 373.994 466.911 370.73 452.607C367.013 436.32 361.481 417.075 353.768 398.85C352.121 394.959 345.326 376.533 344.174 371.886C340.688 357.837 344.189 359.352 344.189 359.352L374.657 355.776C374.657 355.776 378.41 357.705 380.141 377.544C380.657 383.484 380.723 409.137 381.5 414C382.238 418.605 383.102 422.433 384.116 424.923C389.78 438.813 386.948 486.411 386.948 486.411Z" fill="#415DA5"/>
<path d="M388.418 503.682C388.325 504.675 387.773 505.317 386.9 505.698C386.897 505.701 386.891 505.701 386.888 505.701C385.178 506.31 382.511 506.181 379.637 505.836C379.262 505.791 378.923 505.758 378.614 505.737C378.536 505.731 378.455 505.722 378.377 505.719C378.317 505.713 378.254 505.71 378.194 505.704C375.278 505.512 375.506 506.412 369.929 506.382C363.575 506.349 361.424 504.207 361.133 503.295C360.887 502.521 363.671 501.921 366.782 501.228C367.601 501.633 371.516 503.403 376.382 502.932C380.66 502.521 385.031 500.808 388.1 500.379C388.127 500.496 388.148 500.61 388.169 500.727C388.343 501.696 388.511 502.686 388.418 503.682Z" fill="#B84C42"/>
<path d="M352.517 503.682C352.424 504.675 351.872 505.317 350.999 505.698C350.996 505.701 350.99 505.701 350.987 505.701C349.277 506.31 346.61 506.181 343.736 505.836C343.361 505.791 343.022 505.758 342.713 505.737C342.635 505.731 342.554 505.722 342.476 505.719C342.413 505.713 342.353 505.71 342.293 505.704C339.377 505.512 339.605 506.412 334.028 506.382C327.674 506.349 325.523 504.207 325.232 503.295C324.986 502.521 327.77 501.921 330.881 501.228C331.7 501.633 335.615 503.403 340.481 502.932C344.759 502.521 349.13 500.808 352.199 500.379C352.226 500.496 352.247 500.61 352.268 500.727C352.442 501.696 352.61 502.686 352.517 503.682Z" fill="#B84C42"/>
<path d="M340.328 264.543C339.299 256.137 341.924 242.688 358.7 244.839C375.476 246.987 380.762 263.475 377.378 270.804C373.994 278.133 382.247 279.903 384.839 287.784C387.065 294.555 387.842 302.964 391.442 306.738C403.055 318.903 380.294 337.614 366.572 333.669C341.579 326.484 338.357 325.41 339.245 305.772C339.701 295.71 347.528 291.81 342.557 288.9C330.551 281.868 342.656 283.56 340.328 264.543Z" fill="#A53D38"/>
<path d="M364.979 286.551L360.368 298.491L350.384 298.98L345.413 291.531C351.053 287.253 350.816 279.069 350.537 276.21C350.474 275.565 350.411 275.193 350.411 275.193L362.891 271.392C363.041 274.692 363.227 277.272 363.425 279.291C364.121 286.383 364.979 286.551 364.979 286.551Z" fill="#FFB27D"/>
<path d="M345.371 286.122C346.013 286.122 356.906 283.905 375.305 288.612C375.305 288.612 365.228 334.776 368.651 343.476C372.074 352.176 373.376 359.898 373.376 359.898L336.245 360.36C336.245 360.36 336.764 330.495 335.054 319.926C333.338 309.354 345.371 286.122 345.371 286.122Z" fill="#FFB27D"/>
<path d="M372.746 337.614C373.289 343.725 378.998 357.687 377.762 360.663C376.469 363.786 374.669 365.37 370.736 366.273C368.024 366.897 364.298 367.2 359.024 367.461C347.837 368.016 335.849 366.612 334.217 361.293C333.434 358.74 333.737 348.864 334.151 344.304C335.009 334.869 333.212 321.33 332.948 312.57C332.732 305.262 337.139 288.633 337.139 288.633C337.139 288.633 339.128 287.379 345.368 286.122C345.368 286.122 346.025 294.759 350.531 295.503C358.325 296.79 364.604 289.65 366.44 286.776C366.44 286.776 375.392 289.035 378.017 292.029C380.504 294.864 377.102 315.873 376.346 317.886C375.692 319.614 375.074 321.303 374.537 322.998C373.118 327.474 372.248 332.019 372.746 337.614Z" fill="#B2CBFD"/>
<path d="M404.619 350.742C404.619 350.742 408.089 349.599 409.763 349.941C411.44 350.286 416.642 352.692 416.756 353.205C416.87 353.721 416.756 354.093 416.756 354.093H404.616C404.616 354.093 401.9 353.571 401.438 351.984C400.979 350.4 404.619 350.742 404.619 350.742Z" fill="#FFB27D"/>
<path d="M363.422 280.083C358.868 277.032 353.144 276.879 350.534 277.002C350.471 276.357 350.408 275.985 350.408 275.985L362.888 272.184C363.041 275.487 363.224 278.064 363.422 280.083Z" fill="#E8945B"/>
<path d="M347.15 276.042C347.15 276.042 362.093 279.042 363.818 269.709C365.543 260.376 368.633 254.475 359.168 252.165C349.7 249.855 347.183 253.074 345.851 256.047C344.513 259.023 343.307 275.022 347.15 276.042Z" fill="#FFB27D"/>
<path d="M366.71 252.786C364.181 249.942 360.533 249.387 357.875 249.435C359.477 247.491 353.03 243.234 345.659 250.497C342.482 253.626 342.962 259.779 344.663 263.346C344.663 263.346 347.276 255.696 352.031 254.028C353.09 253.656 354.095 253.038 355.016 252.3C355.595 253.755 356.759 255.813 359.102 258.372C364.016 263.745 363.059 274.608 363.059 274.608C363.059 274.608 371.126 257.754 366.71 252.786Z" fill="#A53D38"/>
<path d="M351.803 271.449C351.803 271.449 351.404 272.556 348.59 272.055C348.59 272.055 346.229 271.632 346.445 270.39C346.448 270.39 348.857 269.766 351.803 271.449Z" fill="white"/>
<path d="M392.798 328.392C387.146 306.579 384.044 294.126 379.415 290.355C375.32 287.022 366.488 286.716 366.488 286.716C366.35 289.338 366.476 291.972 366.797 294.579L355.931 315.282C355.931 315.282 350.363 326.295 348.386 338.343C346.892 326.379 345.41 315.282 345.41 315.282C345.41 315.282 344.009 308.205 343.568 301.725C344.876 296.673 344.741 291.399 345.356 286.119L344.672 286.158C342.527 286.308 335.837 286.989 332.429 289.788C327.797 293.589 326.759 310.287 319.046 328.161C319.046 328.161 309.698 343.878 306.722 350.112C306.722 350.112 307.28 350.964 308.393 351.606C309.473 352.23 310.838 352.476 310.838 352.476C310.838 352.476 327.701 335.871 328.808 333.246C329.174 332.382 331.214 329.355 333.746 324.9C333.746 324.9 334.418 348.624 332.945 358.863C332.633 361.032 333.671 363.171 335.579 364.248C345.992 370.131 377.192 386.154 382.997 370.59C383.648 368.844 372.248 339.207 373.808 332.79C374.306 330.738 374.966 326.058 375.632 320.643C379.205 327.495 382.562 332.304 383.042 333.429C384.149 336.03 401.012 352.491 401.012 352.491C401.012 352.491 402.377 352.245 403.457 351.63C404.573 350.994 405.128 350.148 405.128 350.148C402.146 343.971 392.798 328.392 392.798 328.392Z" fill="#699DEE"/>
<path d="M365.9 286.656L355.931 315.285L365.897 305.862L365.144 302.931C365.144 302.931 367.436 303.135 368.366 302.535C369.296 301.935 371.459 287.298 371.459 287.298C371.459 287.298 369.431 286.959 368.759 286.881C368.039 286.797 365.9 286.656 365.9 286.656Z" fill="#3B76CA"/>
<path d="M345.353 286.122C345.353 286.122 343.253 308.754 345.407 315.285C345.407 315.285 339.239 305.517 340.394 303.495L342.629 302.022C342.629 302.022 338.312 301.461 339.122 298.983C339.932 296.505 343.4 286.446 343.4 286.446L345.353 286.122Z" fill="#3B76CA"/>
<path d="M510.857 510.084H166.574V432.021L510.857 431.241V510.084Z" fill="#699FF0"/>
<path d="M510.857 368.808H166.574V389.223H510.857V368.808Z" fill="#699FF0"/>
<path d="M161.135 368.808H515.846C519.476 368.808 522.419 365.865 522.419 362.235V360.666C522.419 357.036 519.476 354.093 515.846 354.093H161.135C157.505 354.093 154.562 357.036 154.562 360.666V362.235C154.562 365.865 157.505 368.808 161.135 368.808Z" fill="#466AA5"/>
<path d="M370.187 317.982L363.332 317.559C362.87 317.532 362.519 317.133 362.549 316.671L362.738 313.605C362.765 313.143 363.164 312.792 363.626 312.822L370.481 313.245C370.943 313.272 371.294 313.671 371.264 314.133L371.075 317.199C371.045 317.658 370.649 318.009 370.187 317.982Z" fill="#2B478B"/>
<path d="M366.001 313.821L363.768 313.683L363.583 316.677L365.817 316.815L366.001 313.821Z" fill="#E9F2FF"/>
<path d="M369.911 314.796L367.13 314.625C366.923 314.613 366.767 314.433 366.779 314.229C366.791 314.022 366.971 313.866 367.175 313.878L369.956 314.049C370.163 314.061 370.319 314.241 370.307 314.445C370.295 314.649 370.118 314.808 369.911 314.796Z" fill="#E9F2FF"/>
<path d="M370.079 315.843L366.836 315.642C366.758 315.636 366.698 315.57 366.701 315.492C366.707 315.414 366.773 315.354 366.851 315.357L370.094 315.558C370.172 315.564 370.232 315.63 370.229 315.708C370.226 315.786 370.157 315.846 370.079 315.843Z" fill="#E9F2FF"/>
<path d="M370.052 316.305L366.809 316.104C366.731 316.098 366.671 316.032 366.674 315.954C366.68 315.876 366.746 315.816 366.824 315.819L370.067 316.02C370.145 316.026 370.205 316.092 370.202 316.17C370.199 316.251 370.13 316.311 370.052 316.305Z" fill="#E9F2FF"/>
<path opacity="0.9" d="M507.701 431.241L169.73 432.021V389.223H507.701V431.241Z" fill="#AFCDFB"/>
<path d="M349.34 245.547L351.803 238.32C351.803 238.32 366.605 236.781 371.579 243.531C371.579 243.531 372.173 247.704 370.721 249.969C370.721 249.969 357.248 247.143 352.571 248.979L349.34 245.547Z" fill="#699DEE"/>
<path d="M355.679 240.273C355.679 240.273 366.488 240.984 370.514 243.765C370.514 243.765 364.061 242.226 358.199 242.64C358.199 242.64 365.198 243.717 371.69 246.09C371.744 244.674 371.579 243.528 371.579 243.528C366.605 236.778 351.803 238.317 351.803 238.317L349.34 245.544L352.574 248.976C352.574 248.979 353.753 241.578 355.679 240.273Z" fill="#3B76CA"/>
<path d="M287.447 354.096H252.737L240.14 331.665H274.85L287.447 354.096Z" fill="#699FF0"/>
<path d="M274.85 331.665H240.14L252.737 354.096H253.151L273.998 332.379L286.376 354.096H287.447L274.85 331.665Z" fill="#466AA5"/>
<path d="M436.841 354.096H402.131L389.534 331.665H424.244L436.841 354.096Z" fill="#699FF0"/>
<path d="M424.244 331.665H389.534L402.131 354.096H402.545L423.392 332.379L435.767 354.096H436.841L424.244 331.665Z" fill="#466AA5"/>
<path d="M257.327 349.947C255.983 349.314 253.346 350.22 251.804 350.862C251.081 351.162 250.601 351.402 250.601 351.402L249.008 354.441H249.083H263.765C263.228 352.827 259.166 350.814 257.327 349.947Z" fill="#FFB27D"/>
<path d="M251.805 350.862C250.05 348.786 230.685 343.545 228.867 342.264C227.043 340.977 226.521 324.633 226.521 324.633C224.448 304.308 214.488 297.723 214.335 297.621L214.332 297.618C214.332 297.618 214.434 300.369 214.602 304.545C214.953 313.221 215.589 328.038 216.204 337.026C216.522 341.676 217.59 345.276 218.844 347.991C219.231 348.828 219.636 349.581 220.044 350.256C221.34 352.404 222.651 353.745 223.437 354.441H249.006H249.081C251.211 353.208 251.835 350.898 251.835 350.898C251.826 350.883 251.817 350.874 251.805 350.862Z" fill="#E58638"/>
<path d="M210.992 267.549C210.992 267.549 209.675 248.763 185.279 255.876C179.744 257.49 180.464 274.203 193.868 280.566L210.992 267.549Z" fill="#2B478B"/>
<path d="M201.239 292.35C201.239 292.35 210.788 294.078 214.328 297.621C217.868 301.161 226.226 311.61 220.967 346.443C220.967 346.443 220.544 356.94 208.742 357.954C196.94 358.962 201.239 292.35 201.239 292.35Z" fill="#EE9849"/>
<path d="M179.294 378.972C180.935 390.402 191.951 420.111 191.633 430.38C191.378 438.471 191.513 457.167 192.581 469.584C192.875 472.962 193.223 475.86 193.664 477.969C194.612 482.55 195.827 487.824 196.481 491.148C197.936 498.612 197.174 502.965 198.365 506.97C199.673 511.35 214.697 510.549 210.17 507.891C208.553 506.943 206.204 504.927 205.043 502.323C200.822 492.87 206.738 452.103 208.502 436.386C208.73 434.424 208.889 432.861 208.955 431.793C209.543 422.085 216.206 357.414 216.206 357.414C200.018 348.42 177.665 367.542 179.294 378.972Z" fill="#D9935C"/>
<path d="M179.294 378.972C180.935 390.402 191.951 420.111 191.633 430.38C191.378 438.471 191.513 457.167 192.581 469.584L208.499 436.389C208.727 434.427 208.886 432.864 208.952 431.796C209.54 422.088 216.371 357.393 216.371 357.393C200.186 348.393 177.665 367.542 179.294 378.972Z" fill="#CB8757"/>
<path d="M214.403 359.52C214.403 359.52 200.504 423.411 198.926 433.002C197.348 442.593 184.688 487.761 187.448 499.08C189.074 505.755 191.912 507.732 191.912 507.732C192.581 508.956 181.586 511.386 180.698 506.703C179.57 500.754 179.333 492.405 177.683 478.251C174.839 453.882 180.479 440.013 181.847 429.828C183.215 419.643 177.257 387.27 180.563 376.206C186.347 356.844 199.235 348.906 214.403 359.52Z" fill="#D9935C"/>
<path d="M218.145 415.893C215.694 416.907 212.982 417.657 210.153 418.2C210.147 418.203 210.138 418.206 210.129 418.206C207.36 418.737 204.486 419.073 201.639 419.265C197.631 419.538 193.68 419.523 190.17 419.382L189.156 407.55L188.088 411.834L186.258 419.169C184.566 419.052 183.045 418.914 181.761 418.779C178.998 418.494 177.312 418.236 177.312 418.236C174.198 392.568 177.93 376.389 182.148 366.831C182.148 366.831 182.148 366.831 182.148 366.828C183.483 363.798 184.869 361.434 186.102 359.646C186.765 358.683 187.383 357.888 187.923 357.243C188.364 356.718 188.757 356.295 189.081 355.962C189.705 355.323 190.08 355.032 190.08 355.032C191.52 355.584 192.939 356.052 194.322 356.442C195.309 356.721 196.281 356.961 197.232 357.168C197.247 357.174 197.262 357.177 197.28 357.177C197.931 357.321 198.573 357.444 199.206 357.555C199.44 357.597 199.674 357.636 199.905 357.672C200.649 357.789 201.375 357.888 202.083 357.969C206.169 358.44 209.649 358.32 212.151 358.071C214.305 357.858 215.736 357.546 216.204 357.438C216.315 357.411 216.372 357.396 216.372 357.396L216.39 358.05L216.729 369.207L218.145 415.893Z" fill="#2C3A64"/>
<path d="M194.189 510.084H181.055C180.041 508.242 178.691 502.731 177.659 501.579C177.584 501.498 177.503 501.402 177.422 501.297L177.317 510.087H176.135C176.105 508.215 175.961 501.663 175.316 497.982C174.614 496.641 174.11 495.342 174.329 494.793C174.785 493.653 178.991 491.115 178.991 491.115C178.991 491.115 182.105 506.682 183.575 507.054C187.085 507.939 190.616 507.609 191.615 507.489C191.798 507.465 193.379 508.17 193.973 509.112C194.171 509.415 194.27 509.745 194.189 510.084Z" fill="#2C3A64"/>
<path d="M211.772 510.084H198.638C197.636 508.266 196.304 502.869 195.278 501.627L195.176 510.084H193.994C193.991 509.835 193.985 509.505 193.976 509.106C193.925 506.706 193.763 501.927 193.295 498.702C192.398 497.13 191.654 495.438 191.915 494.787C192.368 493.647 196.484 491.133 196.484 491.133C196.484 491.133 196.502 491.271 196.547 491.493C196.553 491.526 196.559 491.559 196.565 491.595C196.571 491.637 196.583 491.685 196.592 491.736C196.598 491.772 196.607 491.805 196.613 491.844C197.213 494.856 199.649 506.67 201.164 507.051C205.169 508.059 209.198 507.492 209.471 507.45C209.48 507.447 209.486 507.447 209.486 507.447C209.486 507.447 212.093 508.716 211.772 510.084Z" fill="#2C3A64"/>
<path d="M218.843 347.994C218.405 350.4 217.958 352.476 217.577 354.102C217.55 354.219 217.523 354.333 217.496 354.444C216.965 356.691 216.584 357.987 216.584 357.987C216.518 358.011 216.452 358.032 216.386 358.053C216.356 358.065 216.326 358.074 216.296 358.083C216.239 358.101 216.182 358.119 216.128 358.137C215.225 358.428 214.34 358.68 213.473 358.896C208.628 360.105 204.338 360.207 200.762 359.796C198.812 359.571 197.072 359.196 195.569 358.764C195.224 358.665 194.888 358.563 194.57 358.458C194.555 358.455 194.54 358.449 194.525 358.443C193.697 358.173 192.956 357.891 192.308 357.618C190.304 356.778 189.179 356.025 189.083 355.959C189.077 355.956 189.077 355.953 189.077 355.953C189.245 355.545 189.389 355.035 189.509 354.441C189.74 353.316 189.887 351.879 189.971 350.196C190.121 347.286 190.076 343.644 189.917 339.642C189.914 339.525 189.908 339.408 189.905 339.291C189.701 334.272 189.326 328.71 188.939 323.307C188.642 319.158 188.336 315.105 188.093 311.469C188.018 310.353 187.949 309.279 187.889 308.253C187.55 302.517 187.457 298.287 187.967 297.177C188.741 295.494 191.141 294.471 193.694 293.85C194.06 293.76 194.429 293.679 194.798 293.607C194.849 293.598 194.69 293.193 194.738 293.184C195.092 293.115 195.653 293.448 195.998 293.394C196.145 293.37 196.292 293.346 196.439 293.325C198.731 292.986 200.708 292.914 201.203 292.899C201.281 292.896 201.32 292.896 201.32 292.896C201.32 292.896 202.937 293.685 205.235 295.314C205.409 295.437 207.659 293.973 207.839 294.108C210.461 296.028 213.569 299.499 215.015 304.197C216.974 310.566 219.857 313.719 220.46 320.007C221.441 330.222 220.181 340.653 218.843 347.994Z" fill="#A8D29F"/>
<path d="M180.452 359.13C185.339 360.132 193.136 359.625 198.92 357.969C200.843 357.423 202.538 356.742 203.822 355.953C208.991 352.776 211.499 329.247 210.605 320.34C209.723 311.448 194.744 293.184 194.744 293.184C191.072 295.908 189.455 302.247 187.253 310.566C181.946 330.582 180.452 359.13 180.452 359.13Z" fill="#EE9849"/>
<path d="M180.452 359.13C185.339 360.132 193.136 359.625 198.92 357.969C201.044 354.951 202.739 351.267 203.648 346.767C206.279 333.789 195.902 319.701 187.25 310.566C181.946 330.582 180.452 359.13 180.452 359.13Z" fill="#E58638"/>
<path d="M211.569 339.363L200.055 331.053C198.63 330.024 196.623 330.348 195.594 331.773L182.751 349.566C181.722 350.991 182.046 352.998 183.471 354.027L194.985 362.337C196.41 363.366 198.417 363.042 199.446 361.617L212.289 343.824C213.318 342.399 212.994 340.392 211.569 339.363Z" fill="#A53D38"/>
<path d="M201.365 348.273C201.365 348.273 206.993 347.703 207.689 348.651C208.385 349.599 207.752 353.268 204.59 353.646C201.428 354.024 197.822 351.432 197.822 351.432L201.365 348.273Z" fill="#DA935B"/>
<path d="M194.738 293.184C194.738 293.184 184.733 294.363 180.395 303.375C176.054 312.387 171.383 335.589 172.55 337.758C173.717 339.927 187.739 351.612 199.256 353.115C199.256 353.115 201.761 349.944 201.593 347.106C201.593 347.106 186.071 337.425 184.736 334.755C183.401 332.085 196.586 309.885 196.421 306.045C196.253 302.208 194.738 293.184 194.738 293.184Z" fill="#EE9849"/>
<path d="M206.021 263.823C206.021 263.823 211.886 264.543 212.222 271.317C212.222 271.317 214.79 260.583 205.496 260.799C196.202 261.012 206.021 263.823 206.021 263.823Z" fill="#2B478B"/>
<path d="M207.842 294.108C207.842 294.102 207.314 288.444 207.437 286.986V286.983C207.503 286.233 207.581 285.792 207.581 285.792L207.437 285.75L195.686 282.171C195.68 282.264 195.68 282.36 195.674 282.45C195.524 285.624 195.341 288.087 195.143 290.001C195.119 290.25 195.092 290.49 195.068 290.721C194.96 291.693 194.849 292.506 194.741 293.184C197.015 294.177 198.896 294.861 200.453 295.314C204.668 296.541 206.495 296.052 207.275 295.314C207.929 294.696 207.857 294.204 207.842 294.108Z" fill="#FFB27D"/>
<path d="M206.507 285.75V286.986C206.507 286.986 199.739 287.061 195.146 290.001C195.341 288.09 195.524 285.627 195.674 282.45L206.507 285.75Z" fill="#E8945B"/>
<path d="M209.753 286.599C209.753 286.599 195.515 289.458 193.871 280.563C192.227 271.668 189.281 266.049 198.302 263.847C207.323 261.645 209.72 264.711 210.992 267.546C212.264 270.384 213.413 285.627 209.753 286.599Z" fill="#FFB27D"/>
<path d="M204.92 261.876C204.92 261.876 208.943 266.919 201.602 271.53C194.258 276.141 194.822 285.363 196.772 287.958C196.772 287.958 182.153 273.693 188.924 265.191C195.698 256.689 204.92 261.876 204.92 261.876Z" fill="#2B478B"/>
<path d="M470.393 488.439C470.393 491.676 467.768 494.298 464.534 494.298C461.297 494.298 458.675 491.676 458.675 488.439C458.675 485.202 461.3 482.58 464.534 482.58C467.771 482.577 470.393 485.202 470.393 488.439Z" fill="#66A357"/>
<path d="M472.7 488.439C472.7 491.676 470.075 494.298 466.841 494.298C463.604 494.298 460.982 491.676 460.982 488.439C460.982 485.202 463.604 482.58 466.841 482.58C470.078 482.577 472.7 485.202 472.7 488.439Z" fill="#A8D29F"/>
<path d="M503.576 509.91C506.812 509.91 509.435 507.287 509.435 504.051C509.435 500.815 506.812 498.192 503.576 498.192C500.34 498.192 497.717 500.815 497.717 504.051C497.717 507.287 500.34 509.91 503.576 509.91Z" fill="#66A357"/>
<path d="M505.883 509.91C509.119 509.91 511.742 507.287 511.742 504.051C511.742 500.815 509.119 498.192 505.883 498.192C502.648 498.192 500.024 500.815 500.024 504.051C500.024 507.287 502.648 509.91 505.883 509.91Z" fill="#A8D29F"/>
<path d="M459.932 482.085L466.415 488.115C467.072 488.724 467.831 489.213 468.656 489.558L512.315 507.714L520.427 501.876L459.932 482.085Z" fill="#66A357"/>
<path d="M551.858 416.625L549.779 415.188C559.349 401.334 577.853 374.043 579.377 369.909C580.337 367.302 580.343 365.127 579.395 363.441C577.874 360.735 574.331 360.015 574.295 360.006L574.163 359.973L564.47 356.979C553.37 352.554 548.618 361.272 548.423 361.644L548.357 361.755L522.449 400.902L520.343 399.507L546.221 360.408C546.467 359.958 547.919 357.468 550.784 355.536C553.643 353.61 558.491 351.891 565.361 354.612L574.853 357.54C575.495 357.678 579.605 358.677 581.591 362.181C582.929 364.545 582.983 367.44 581.753 370.782C579.734 376.245 552.995 414.978 551.858 416.625Z" fill="#66A357"/>
<path d="M548.93 406.779L570.38 421.506C570.38 421.506 576.029 427.215 569.543 438.621C563.837 448.659 533.276 505.599 533.276 505.599C533.276 505.599 526.913 517.446 502.139 502.62L548.93 406.779Z" fill="#66A357"/>
<path d="M554.969 428.622L520.298 492.201C518.894 494.772 516.89 496.83 514.544 498.27C510.2 500.943 504.686 501.522 499.682 499.416L477.869 490.242L477.329 490.017L463.667 484.272C462.293 483.693 461.045 482.952 459.932 482.085C459.671 481.881 459.419 481.671 459.173 481.455C455.126 477.873 453.14 472.482 453.815 467.184C454.103 464.928 454.871 462.693 456.167 460.62L493.184 401.433C497.132 395.121 504.86 392.289 511.952 394.554L515.951 395.832L516.905 396.138H516.908L517.709 396.396L531.08 400.665L532.721 401.19L545.624 405.312C547.649 405.96 549.449 406.956 550.985 408.213C551.087 408.297 551.186 408.378 551.285 408.465L551.897 409.017C557.033 413.898 558.641 421.89 554.969 428.622Z" fill="#A8D29F"/>
<path d="M514.544 498.27C510.2 500.943 504.686 501.522 499.682 499.416L477.869 490.242L477.329 490.017L463.667 484.272C462.293 483.693 461.045 482.952 459.932 482.085C459.671 481.881 459.419 481.671 459.173 481.455C455.126 477.873 452.132 469.836 454.646 463.743C454.646 463.743 500.927 482.835 509.912 488.436C514.544 491.328 514.544 495.432 514.544 498.27Z" fill="#82B378"/>
<path d="M517.706 396.39C517.586 396.408 504.863 398.238 501.224 403.074C497.486 408.042 460.682 468.858 460.313 469.473C460.283 469.521 457.358 475.668 460.55 482.547L459.929 482.085C459.668 481.881 459.416 481.671 459.17 481.455C456.368 474.534 459.41 469.242 459.548 469.011C461.066 466.5 496.748 407.541 500.51 402.537C503.81 398.154 513.014 396.312 515.948 395.826L516.902 396.132H516.905L517.706 396.39Z" fill="#66A357"/>
<path d="M532.718 401.184C530.846 401.544 523.502 403.386 518.993 410.652C513.704 419.178 479.948 483.09 479.609 483.732L479.585 483.78L479.552 483.819C479.528 483.849 477.224 487.092 478.415 490.473L477.866 490.242L477.326 490.017C476.306 486.501 478.517 483.666 478.841 483.273C479.885 481.296 512.99 418.638 518.234 410.184C522.119 403.92 528.026 401.52 531.077 400.659L532.718 401.184Z" fill="#66A357"/>
<path d="M551.891 409.008C551.837 409.014 549.236 409.302 546.551 410.58C543.869 411.858 540.554 414.177 537.971 418.338C532.685 426.858 500.144 491.031 499.817 491.676L499.793 491.727L499.757 491.766C499.733 491.796 497.816 495.753 499.004 499.134L497.63 498.555C496.877 495.606 498.698 491.64 499.046 491.223C500.087 489.171 531.968 426.318 537.215 417.864C542.147 409.914 549.464 408.429 550.982 408.204C551.084 408.288 551.183 408.369 551.282 408.456L551.891 409.008Z" fill="#66A357"/>
<path d="M563.183 488.061C563.183 488.061 558.53 492.375 559.436 495.441C560.345 498.507 564.545 500.55 565.112 504.294C565.679 508.041 567.95 510.084 569.993 510.084C572.036 510.084 579.734 510.084 579.734 510.084C579.734 510.084 581.237 507.447 577.604 506.652C573.971 505.857 572.603 501.456 572.828 497.37C573.056 493.284 572.486 487.836 572.486 487.836L564.767 486.021L563.183 488.061Z" fill="#233862"/>
<path d="M647.564 510.075H621.695C621.47 510.027 621.299 509.979 621.191 509.922C619.466 509.061 620.003 502.464 620.213 500.421C620.252 500.043 620.282 499.818 620.282 499.818C620.282 499.818 629.366 492.555 630.614 498.117C630.653 498.291 630.698 498.459 630.749 498.63C632.318 503.835 639.371 506.199 643.442 506.859C646.547 507.366 647.354 509.169 647.564 510.075Z" fill="#233862"/>
<path d="M642.362 361.149C642.362 361.149 640.982 378.357 639.362 399.042C637.16 427.14 634.508 461.655 634.247 468.195C633.794 479.55 631.976 497.712 631.976 497.712C631.976 497.712 627.665 502.026 619.034 500.208C619.034 500.208 611.345 474.282 609.149 446.85C609.116 446.4 609.08 445.947 609.047 445.494C607.004 417.57 603.827 358.767 603.827 358.767L642.362 361.149Z" fill="#2B478B"/>
<path d="M642.362 361.149C642.362 361.149 640.982 378.357 639.362 399.042L609.149 446.847C609.116 446.397 609.08 445.944 609.047 445.491C607.004 417.567 603.827 358.764 603.827 358.764L642.362 361.149Z" fill="#233862"/>
<path d="M636.062 363.192C636.062 363.192 611.201 425.514 594.854 454.8C578.507 484.086 573.398 492.261 573.398 492.261C573.398 492.261 564.032 488.514 563.18 485.961C563.18 485.961 569.432 429.42 580.379 415.638C586.565 407.85 593.831 384.477 594.17 376.305C594.512 368.133 596.384 351.957 596.384 351.957L636.062 363.192Z" fill="#2B478B"/>
<path d="M661.202 345.987L662.624 348.819C662.624 348.819 669.851 349.83 667.862 357.36C667.862 357.36 666.791 360.459 664.799 359.478C662.807 358.497 663.788 358.581 660.932 357.261C658.076 355.941 656.423 353.406 657.062 351.081L656.606 348.615L661.202 345.987Z" fill="#FFB27D"/>
<path d="M623.313 266.994C624.417 260.469 624.453 256.599 624.453 256.599L611.841 246.435C612.309 260.412 603.354 267.135 603.354 267.135C603.354 267.135 620.162 275.409 629.876 272.343C629.873 272.343 627.483 269.286 623.313 266.994Z" fill="#FFB27D"/>
<path d="M627.422 256.371C627.422 256.371 611.375 259.038 609.869 249.018C608.363 239.001 605.276 232.596 615.458 230.472C625.64 228.345 628.208 231.87 629.525 235.092C630.842 238.311 631.559 255.417 627.422 256.371Z" fill="#FFB27D"/>
<path d="M609.977 249.708C609.977 249.708 610.301 236.289 624.923 234.135C634.937 232.659 628.874 224.292 627.728 222.966C627.728 222.966 620.072 224.427 612.236 226.146C595.787 229.755 608.237 247.713 609.977 249.708Z" fill="#233862"/>
<path d="M659.519 349.926C661.664 347.724 663.257 344.859 663.257 344.859C663.257 344.859 645.026 322.206 643.544 319.857C642.062 317.508 630.989 279.831 630.989 279.831L602.99 274.158C602.99 274.158 626.363 322.377 630.233 328.254C636.632 337.968 655.772 352.425 655.772 352.425C655.772 352.425 657.836 351.654 659.519 349.926Z" fill="#A53D38"/>
<path d="M643.434 362.583C643.143 362.826 642.8 362.973 642.413 362.973C638.765 362.922 628.128 364.95 619.125 364.026C611.538 363.297 604.82 361.05 597.605 357.816C596.648 357.387 594.443 356.211 594.491 355.14C594.524 353.967 594.641 352.269 594.785 350.127C595.295 342.681 596.186 329.877 595.319 315.105C595.163 312.354 595.083 309.624 595.071 306.939C594.996 286.917 598.899 269.208 606.876 263.247C607.557 262.758 611.808 264.903 615.654 266.799C619.206 268.551 621.69 268.512 625.044 267.831L629.466 271.032C633.552 274.827 638.028 279.984 639.975 287.814C641.631 294.477 642.603 306.495 643.137 318.948C643.38 324.591 643.575 330.285 643.626 335.685V335.877C643.674 336.411 643.673 336.996 643.673 337.533C643.871 351.393 643.677 362.388 643.434 362.583Z" fill="#B64C41"/>
<path d="M594.788 350.124C595.298 342.678 596.189 329.874 595.322 315.102C595.166 312.351 595.085 309.621 595.073 306.936C598.397 298.875 601.112 293.028 601.112 293.028H609.488C609.491 293.028 615.632 334.974 594.788 350.124Z" fill="#A53D38"/>
<path d="M578.493 352.731L576.903 355.473C576.903 355.473 580.017 362.07 572.628 364.536C572.628 364.536 569.448 365.337 569.175 363.135C568.902 360.93 569.373 361.797 568.911 358.686C568.449 355.575 569.664 352.803 571.959 352.062L573.771 350.328L578.493 352.731Z" fill="#FFB27D"/>
<path d="M574.277 353.481C577.292 354.069 580.562 353.832 580.562 353.832C580.562 353.832 589.517 326.169 590.669 323.64C591.821 321.114 617.27 291.204 617.27 291.204L606.668 264.675C606.668 264.675 579.143 310.65 576.35 317.109C571.733 327.783 570.128 351.72 570.128 351.72C570.128 351.72 571.907 353.019 574.277 353.481Z" fill="#B64C41"/>
<path d="M623.801 263.799C623.801 263.799 621.059 257.865 614.06 254.883C614.06 254.883 618.077 257.277 624.452 256.602C624.452 256.599 624.122 261.636 623.801 263.799Z" fill="#E8945B"/>
<path d="M155.135 456.255H139.196C133.319 456.255 128.54 451.473 128.54 445.599V388.404C128.54 382.527 133.322 377.748 139.196 377.748H155.135C161.012 377.748 165.791 382.53 165.791 388.404V445.599C165.791 451.473 161.012 456.255 155.135 456.255ZM139.196 380.586C134.888 380.586 131.381 384.093 131.381 388.401V445.596C131.381 449.904 134.888 453.411 139.196 453.411H155.135C159.443 453.411 162.95 449.904 162.95 445.596V388.401C162.95 384.093 159.443 380.586 155.135 380.586H139.196Z" fill="#D86713"/>
<path d="M158.399 500.589H155.975C153.218 500.589 150.983 502.824 150.983 505.581C150.983 508.338 153.218 510.573 155.975 510.573H158.399C161.156 510.573 163.391 508.338 163.391 505.581C163.391 502.824 161.156 500.589 158.399 500.589Z" fill="#D86713"/>
<path d="M158.399 510.576C161.156 510.576 163.391 508.341 163.391 505.584C163.391 502.827 161.156 500.592 158.399 500.592C155.642 500.592 153.407 502.827 153.407 505.584C153.407 508.341 155.642 510.576 158.399 510.576Z" fill="#F1A34F"/>
<path d="M127.607 500.589H125.183C122.426 500.589 120.191 502.824 120.191 505.581C120.191 508.338 122.426 510.573 125.183 510.573H127.607C130.364 510.573 132.599 508.338 132.599 505.581C132.599 502.824 130.367 500.589 127.607 500.589Z" fill="#D86713"/>
<path d="M127.607 510.576C130.364 510.576 132.599 508.341 132.599 505.584C132.599 502.827 130.364 500.592 127.607 500.592C124.85 500.592 122.615 502.827 122.615 505.584C122.615 508.341 124.85 510.576 127.607 510.576Z" fill="#F1A34F"/>
<path d="M164.747 502.437H134.195C124.892 502.437 117.35 494.895 117.35 485.592V426.915C117.35 417.612 124.892 410.07 134.195 410.07H164.747C174.05 410.07 181.592 417.612 181.592 426.915V485.592C181.589 494.895 174.05 502.437 164.747 502.437Z" fill="#D86713"/>
<path d="M151.247 502.437H120.695C111.392 502.437 103.85 494.895 103.85 485.592V426.915C103.85 417.612 111.392 410.07 120.695 410.07H151.247C160.55 410.07 168.092 417.612 168.092 426.915V485.592C168.089 494.895 160.55 502.437 151.247 502.437Z" fill="#F1A34F"/>
<g opacity="0.4">
<path d="M139.403 488.94H108.854C107.285 488.94 105.767 489.159 104.327 489.561C106.112 496.947 112.76 502.437 120.695 502.437H151.247C152.816 502.437 154.334 502.218 155.774 501.816C153.989 494.43 147.338 488.94 139.403 488.94Z" fill="#D86713"/>
</g>
<path d="M159.062 411.018H160.58V410.07H129.662C122.648 412.458 117.587 419.103 117.587 426.915V485.592C117.587 493.404 122.648 500.049 129.662 502.437H160.58V501.489H159.062C150.296 501.489 143.165 494.358 143.165 485.592V426.915C143.165 418.152 150.299 411.018 159.062 411.018ZM151.088 501.489H135.38C126.614 501.489 119.483 494.358 119.483 485.592V426.915C119.483 418.149 126.614 411.018 135.38 411.018H151.088C145.271 413.949 141.272 419.97 141.272 426.915V485.592C141.272 492.534 145.274 498.558 151.088 501.489Z" fill="#D86713"/>
</svg>
