<svg width="20" height="20" viewBox="0 0 20 20" fill="none" xmlns="http://www.w3.org/2000/svg">
<path d="M9.99984 9.16667C10.6591 9.16667 11.3036 8.97117 11.8517 8.6049C12.3999 8.23863 12.8271 7.71803 13.0794 7.10895C13.3317 6.49986 13.3977 5.82964 13.2691 5.18303C13.1405 4.53643 12.823 3.94249 12.3569 3.47631C11.8907 3.01014 11.2967 2.69267 10.6501 2.56405C10.0035 2.43543 9.33331 2.50144 8.72423 2.75374C8.11514 3.00603 7.59454 3.43327 7.22827 3.98143C6.862 4.5296 6.6665 5.17406 6.6665 5.83334C6.6665 6.71739 7.01769 7.56524 7.64281 8.19036C8.26794 8.81548 9.11578 9.16667 9.99984 9.16667ZM9.99984 4.16667C10.3295 4.16667 10.6517 4.26442 10.9258 4.44755C11.1999 4.63069 11.4135 4.89099 11.5396 5.19553C11.6658 5.50007 11.6988 5.83518 11.6345 6.15849C11.5702 6.48179 11.4114 6.77876 11.1783 7.01185C10.9453 7.24493 10.6483 7.40367 10.325 7.46798C10.0017 7.53229 9.66658 7.49928 9.36203 7.37313C9.05749 7.24699 8.79719 7.03337 8.61405 6.75929C8.43092 6.4852 8.33317 6.16297 8.33317 5.83334C8.33317 5.39131 8.50877 4.96738 8.82133 4.65482C9.13389 4.34226 9.55781 4.16667 9.99984 4.16667Z" fill="#444444"/>
<path d="M9.99984 10.8333C8.45274 10.8333 6.96901 11.4479 5.87505 12.5419C4.78109 13.6358 4.1665 15.1196 4.1665 16.6667C4.1665 16.8877 4.2543 17.0997 4.41058 17.2559C4.56686 17.4122 4.77882 17.5 4.99984 17.5C5.22085 17.5 5.43281 17.4122 5.58909 17.2559C5.74537 17.0997 5.83317 16.8877 5.83317 16.6667C5.83317 15.5616 6.27216 14.5018 7.05356 13.7204C7.83496 12.939 8.89477 12.5 9.99984 12.5C11.1049 12.5 12.1647 12.939 12.9461 13.7204C13.7275 14.5018 14.1665 15.5616 14.1665 16.6667C14.1665 16.8877 14.2543 17.0997 14.4106 17.2559C14.5669 17.4122 14.7788 17.5 14.9998 17.5C15.2209 17.5 15.4328 17.4122 15.5891 17.2559C15.7454 17.0997 15.8332 16.8877 15.8332 16.6667C15.8332 15.1196 15.2186 13.6358 14.1246 12.5419C13.0307 11.4479 11.5469 10.8333 9.99984 10.8333Z" fill="#444444"/>
</svg>
