<svg width="36" height="36" viewBox="0 0 36 36" fill="none" xmlns="http://www.w3.org/2000/svg">
<rect width="36" height="36" rx="18" fill="#AB26A3"/>
<path d="M18.0002 17.1667C18.7254 17.1667 19.4343 16.9712 20.0373 16.6049C20.6402 16.2386 21.1102 15.718 21.3877 15.1089C21.6652 14.4999 21.7379 13.8296 21.5964 13.183C21.4549 12.5364 21.1057 11.9425 20.5929 11.4763C20.0801 11.0101 19.4268 10.6927 18.7155 10.5641C18.0042 10.4354 17.267 10.5014 16.597 10.7537C15.927 11.006 15.3543 11.4333 14.9514 11.9814C14.5485 12.5296 14.3335 13.1741 14.3335 13.8333C14.3335 14.7174 14.7198 15.5652 15.4074 16.1904C16.0951 16.8155 17.0277 17.1667 18.0002 17.1667ZM18.0002 12.1667C18.3628 12.1667 18.7172 12.2644 19.0187 12.4476C19.3202 12.6307 19.5552 12.891 19.6939 13.1955C19.8327 13.5001 19.869 13.8352 19.7983 14.1585C19.7275 14.4818 19.5529 14.7788 19.2965 15.0118C19.0401 15.2449 18.7135 15.4037 18.3578 15.468C18.0022 15.5323 17.6336 15.4993 17.2986 15.3731C16.9636 15.247 16.6773 15.0334 16.4758 14.7593C16.2744 14.4852 16.1668 14.163 16.1668 13.8333C16.1668 13.3913 16.36 12.9674 16.7038 12.6548C17.0476 12.3423 17.5139 12.1667 18.0002 12.1667Z" fill="white"/>
<path d="M18.0002 18.8334C16.2984 18.8334 14.6663 19.448 13.4629 20.5419C12.2595 21.6359 11.5835 23.1196 11.5835 24.6667C11.5835 24.8877 11.6801 25.0997 11.852 25.256C12.0239 25.4122 12.257 25.5 12.5002 25.5C12.7433 25.5 12.9764 25.4122 13.1483 25.256C13.3203 25.0997 13.4168 24.8877 13.4168 24.6667C13.4168 23.5616 13.8997 22.5018 14.7593 21.7204C15.6188 20.939 16.7846 20.5 18.0002 20.5C19.2157 20.5 20.3815 20.939 21.2411 21.7204C22.1006 22.5018 22.5835 23.5616 22.5835 24.6667C22.5835 24.8877 22.6801 25.0997 22.852 25.256C23.0239 25.4122 23.257 25.5 23.5002 25.5C23.7433 25.5 23.9764 25.4122 24.1483 25.256C24.3203 25.0997 24.4168 24.8877 24.4168 24.6667C24.4168 23.1196 23.7408 21.6359 22.5374 20.5419C21.3341 19.448 19.702 18.8334 18.0002 18.8334Z" fill="white"/>
</svg>
