<svg width="56" height="56" viewBox="0 0 56 56" fill="none" xmlns="http://www.w3.org/2000/svg">
<rect width="56" height="56" rx="8" fill="url(#paint0_linear_2665_25844)"/>
<path d="M30.3235 45.9964H29.503C29.079 45.7958 28.6387 45.6216 28.3469 45.2241C28.2895 45.1457 28.2329 45.1804 28.1773 45.2305C27.7178 45.6517 27.148 45.8395 26.5636 45.9964H13.0291C13.0072 45.9061 12.9243 45.9243 12.8641 45.907C11.6852 45.5688 10.9267 44.812 10.5884 43.6323C10.5711 43.5721 10.5893 43.4891 10.5 43.4672V33.5559C10.5893 33.5331 10.5702 33.4502 10.5884 33.39C11.058 31.8592 12.1757 31.0296 13.7767 31.0268C14.414 31.0259 15.0522 31.0186 15.6895 31.0314C15.9019 31.0359 15.9886 30.994 15.9749 30.7579C15.953 30.3832 15.9612 30.0066 15.9721 29.631C16.0004 28.6454 16.8027 27.8313 17.7901 27.8194C19.1787 27.803 20.5681 27.7966 21.9567 27.8221C22.7572 27.8367 23.3206 28.2589 23.6452 28.9955C23.7983 29.342 23.7737 29.7067 23.7792 30.0695C23.7838 30.375 23.6771 30.7825 23.8312 30.9585C24.0117 31.1636 24.4302 30.9922 24.7429 31.0296C24.9918 31.0587 25.0656 30.9849 25.0638 30.7214C25.051 28.763 25.0465 26.8047 25.0602 24.8472C25.0729 22.9472 26.508 21.4428 28.4043 21.3453C28.7034 21.3298 28.7426 21.2322 28.7417 20.9687C28.7317 18.6347 28.7289 16.3007 28.7389 13.9667C28.7444 12.5755 29.5303 11.5343 30.8478 11.1131C30.9253 11.0884 31.0383 11.1112 31.0766 11C33.8564 11 36.6363 11 39.4161 11C39.4261 11.0182 39.4343 11.0501 39.448 11.0529C41.0408 11.4331 41.8741 12.4861 41.875 14.1254C41.875 16.401 41.8787 18.6767 41.8704 20.9523C41.8695 21.2122 41.885 21.3316 42.2142 21.3517C43.6775 21.4419 44.8718 22.3938 45.3304 23.7677C45.3851 23.9318 45.3687 24.1224 45.5 24.26V40.3227C45.3806 40.403 45.4043 40.5424 45.3696 40.6546C45.0305 41.7705 44.3248 42.5528 43.2444 42.9877C42.6837 43.2129 42.6801 43.2019 42.6709 43.8155C42.6573 44.8184 42.144 45.5697 41.286 45.8815C41.1639 45.9262 41.0116 45.8696 40.9195 45.9964H40.099C40.0798 45.9717 40.0662 45.9325 40.0406 45.9234C38.9274 45.5305 38.4752 44.7099 38.539 43.5721C38.5545 43.2904 38.4761 43.2138 38.1889 43.2156C36.2889 43.2293 34.3889 43.2229 32.4889 43.2229C32.0211 43.2229 32.0111 43.2229 32.023 43.6888C32.043 44.4929 31.7777 45.1557 31.1122 45.639C30.8724 45.8131 30.5834 45.8678 30.3244 45.9964H30.3235ZM44.1315 32.2996C44.1315 29.8735 44.1315 27.4474 44.1315 25.0204C44.1315 23.5936 43.2344 22.6974 41.8084 22.6964C39.7352 22.6955 37.6619 22.6964 35.5887 22.6964C33.2647 22.6964 30.9408 22.6919 28.6168 22.6983C27.4197 22.7019 26.4442 23.5945 26.4323 24.7369C26.4104 26.7645 26.4259 28.7922 26.4204 30.8199C26.4204 30.9676 26.4496 31.035 26.6092 31.0733C28.4053 31.5027 29.2459 32.5804 29.2468 34.4357C29.2468 36.7935 29.2522 39.1521 29.2395 41.5098C29.2377 41.7997 29.3215 41.8635 29.6005 41.8626C33.6677 41.8535 37.734 41.8581 41.8012 41.8553C43.2563 41.8553 44.1315 40.97 44.1315 39.5104C44.1315 37.1071 44.1315 34.7038 44.1315 32.2996ZM22.4107 38.5458C22.4107 36.5865 22.4071 34.6281 22.4162 32.6688C22.4171 32.4464 22.3596 32.3871 22.1363 32.3889C20.6329 32.399 19.1294 32.4008 17.626 32.3889C17.3844 32.3871 17.3297 32.4491 17.3306 32.6871C17.3388 36.571 17.3388 40.454 17.3306 44.3379C17.3306 44.5759 17.3844 44.6379 17.626 44.6361C19.1176 44.6233 20.6101 44.6233 22.1016 44.6361C22.3578 44.6388 22.418 44.5759 22.4171 44.3206C22.4052 42.396 22.4107 40.4713 22.4107 38.5467V38.5458ZM35.2769 15.7546C33.6486 15.7546 32.0211 15.7574 30.3928 15.751C30.1913 15.751 30.0947 15.7719 30.0965 16.019C30.1084 17.7039 30.1074 19.3887 30.0974 21.0736C30.0965 21.2897 30.1576 21.3343 30.3636 21.3334C33.654 21.327 36.9435 21.3261 40.2339 21.3334C40.4618 21.3334 40.512 21.2678 40.5111 21.0499C40.502 19.3878 40.5001 17.7258 40.5129 16.0637C40.5147 15.8057 40.45 15.7455 40.1947 15.7473C38.5554 15.7601 36.9162 15.7537 35.2769 15.7537V15.7546ZM35.2942 14.3879C35.3735 14.3879 35.4538 14.3879 35.5331 14.3879C37.093 14.3879 38.6539 14.3825 40.2139 14.3934C40.4564 14.3952 40.5138 14.325 40.512 14.0898C40.5065 13.0103 39.8783 12.3667 38.798 12.3667C36.463 12.3658 34.1281 12.3658 31.7932 12.3667C30.7238 12.3667 30.1111 12.9967 30.0929 14.0652C30.0883 14.3524 30.1877 14.3952 30.4402 14.3934C32.0576 14.3834 33.675 14.3879 35.2924 14.3879H35.2942ZM14.6018 38.4774C14.6018 40.186 14.5982 41.8945 14.6046 43.6031C14.6055 43.9395 14.456 44.3899 14.6693 44.5805C14.8553 44.7464 15.2993 44.6042 15.6248 44.6352C15.912 44.6625 15.9749 44.5704 15.974 44.2869C15.963 40.6765 15.9685 37.0661 15.9639 33.4557C15.9639 33.1074 16.1153 32.6415 15.8974 32.4455C15.7059 32.2741 15.2464 32.4181 14.9091 32.3899C14.6511 32.368 14.5927 32.4491 14.5945 32.7035C14.6064 34.6281 14.6009 36.5528 14.6009 38.4783L14.6018 38.4774ZM25.1459 38.5157C25.1459 36.8199 25.1495 35.1232 25.1431 33.4274C25.1422 33.091 25.2899 32.6415 25.0802 32.45C24.8979 32.2832 24.453 32.419 24.1266 32.3889C23.8458 32.3634 23.7692 32.4482 23.7701 32.7372C23.781 36.3458 23.7755 39.9544 23.7801 43.563C23.7801 43.9113 23.6278 44.3771 23.8476 44.575C24.039 44.7473 24.4976 44.6069 24.8359 44.6352C25.093 44.657 25.1532 44.5768 25.1522 44.3215C25.1404 42.3859 25.1459 40.4513 25.1459 38.5157ZM26.5116 38.4956C26.5116 40.4194 26.5189 42.3431 26.5043 44.2668C26.5016 44.5978 26.6101 44.6014 26.849 44.4811C27.4662 44.1702 27.8272 43.6861 27.8746 42.9849C27.8792 42.9166 27.8792 42.8482 27.8792 42.7798C27.8792 39.9343 27.8756 37.0879 27.8819 34.2425C27.8838 33.4575 27.5473 32.8949 26.849 32.5421C26.6092 32.4208 26.5025 32.4281 26.5043 32.7573C26.5189 34.6691 26.5116 36.5819 26.5116 38.4947V38.4956ZM13.2342 44.5504V43.9723C13.2342 40.2388 13.2342 36.5044 13.2342 32.7709C13.2342 32.4117 13.2105 32.3917 12.886 32.554C12.2277 32.884 11.873 33.4201 11.8694 34.1604C11.8621 35.7085 11.8676 37.2566 11.8676 38.8047C11.8676 40.1705 11.8612 41.5371 11.8703 42.9029C11.8758 43.7307 12.472 44.4455 13.2342 44.5504ZM19.8643 31.0268C20.6274 31.0268 21.3905 31.0186 22.1536 31.0323C22.3669 31.0359 22.4262 30.9776 22.4153 30.7679C22.397 30.4269 22.4162 30.085 22.408 29.7431C22.3989 29.3794 22.2192 29.1861 21.8637 29.1842C20.5426 29.1779 19.2215 29.1779 17.9004 29.1842C17.5284 29.1861 17.3443 29.383 17.337 29.7623C17.3306 30.1042 17.347 30.4461 17.3315 30.787C17.3224 30.9803 17.3817 31.035 17.5749 31.0323C18.3381 31.0214 19.1012 31.0277 19.8643 31.0277V31.0268ZM29.9214 43.2211C29.7263 43.2603 29.3817 43.1016 29.2851 43.2913C29.162 43.532 29.2112 43.8684 29.2951 44.1592C29.3343 44.2951 29.4173 44.4036 29.5312 44.4847C29.8029 44.678 30.0819 44.6844 30.3554 44.4929C30.6189 44.3088 30.8003 43.6706 30.6435 43.3296C30.5378 43.0998 30.2788 43.2639 30.0947 43.222C30.0518 43.212 30.0035 43.2202 29.9224 43.2202L29.9214 43.2211ZM40.6013 43.2211C40.1187 43.2211 39.8847 43.4356 39.8993 43.8648C39.9148 44.3297 40.2221 44.6488 40.6351 44.6288C41.111 44.606 41.307 44.2705 41.3088 43.5256C41.3106 42.9503 40.8758 43.336 40.6697 43.222C40.6524 43.212 40.625 43.2211 40.6022 43.2211H40.6013Z" fill="white"/>
<path d="M15.4199 17.9218C15.4136 15.4346 17.784 13.9895 19.7807 15.0289C19.9594 15.1219 20.0834 15.1328 20.2675 15.0353C21.574 14.3478 23.1449 14.6979 24.0293 15.8595C24.9173 17.0246 24.8535 18.6366 23.8315 19.7042C22.8632 20.7153 21.8631 21.6963 20.8647 22.6773C20.3833 23.1505 19.6886 23.1569 19.2072 22.6855C18.1834 21.6808 17.1677 20.6688 16.1703 19.6376C15.6515 19.1015 15.4281 18.425 15.4199 17.9209V17.9218ZM16.7866 17.5334C16.7793 18.1315 16.9689 18.529 17.3081 18.8654C18.043 19.5966 18.7742 20.3315 19.5081 21.0636C19.6768 21.2322 19.8655 21.5358 20.0214 21.5222C20.2156 21.5048 20.3897 21.2258 20.5648 21.0517C21.3151 20.3041 22.0737 19.5638 22.8085 18.8007C23.4294 18.1561 23.4321 17.2152 22.8486 16.5752C22.2815 15.9534 21.316 15.8768 20.6532 16.4001C20.0989 16.8377 19.9649 16.8332 19.4133 16.4092C18.8899 16.0063 18.3092 15.9269 17.7129 16.2087C17.1166 16.4904 16.8149 16.9882 16.7857 17.5334H16.7866Z" fill="white"/>
<path d="M39.2922 32.6187C39.294 33.4511 39.0724 33.9991 38.6303 34.4467C37.6784 35.4104 36.7184 36.365 35.7583 37.3205C35.4484 37.6286 35.184 37.6286 34.8758 37.3214C33.9313 36.3823 32.9858 35.445 32.0513 34.4978C31.1368 33.5705 31.0894 32.2039 31.9237 31.2639C32.7606 30.3221 34.1145 30.2145 35.1457 31.0232C35.3025 31.1463 35.3727 31.1062 35.5076 31.0022C36.2808 30.4087 37.1259 30.2993 38.0021 30.7324C38.8527 31.1527 39.2621 31.8748 39.2931 32.6196L39.2922 32.6187Z" fill="#FFA6FA"/>
<path d="M35.2121 27.4037C33.3777 27.4037 31.5442 27.3991 29.7098 27.41C29.4682 27.4119 29.398 27.3481 29.4144 27.1101C29.4363 26.8038 29.4391 26.4938 29.4144 26.1883C29.3907 25.9021 29.4591 25.8091 29.7746 25.8109C32.2918 25.8264 34.8091 25.82 37.3273 25.82C38.4551 25.82 39.5829 25.8282 40.7107 25.8136C40.9559 25.8109 41.0215 25.8802 41.0051 26.1163C40.9842 26.4336 40.9842 26.7545 41.0051 27.0727C41.0225 27.328 40.9596 27.4146 40.6806 27.4119C38.858 27.3973 37.0355 27.4046 35.213 27.4046L35.2121 27.4037Z" fill="white"/>
<defs>
<linearGradient id="paint0_linear_2665_25844" x1="56" y1="56" x2="6" y2="-1.17081e-06" gradientUnits="userSpaceOnUse">
<stop stop-color="#AB26A3"/>
<stop offset="1" stop-color="#FF77F7"/>
</linearGradient>
</defs>
</svg>
