<svg width="43" height="36" viewBox="0 0 43 36" fill="none" xmlns="http://www.w3.org/2000/svg">
<path d="M14.1086 35C29.2176 35 37.485 21.9088 37.485 10.5754C37.485 10.2071 37.485 9.83886 37.469 9.47056C39.0712 8.2485 40.4652 6.74184 41.5707 5.0343C40.0646 5.72066 38.4784 6.1894 36.8441 6.39028C38.5585 5.3189 39.8403 3.62808 40.4491 1.63596C38.8309 2.6404 37.0684 3.3435 35.2259 3.7118C32.1176 0.246479 26.9104 0.0790794 23.5938 3.3435C21.4628 5.43608 20.5495 8.56656 21.2225 11.5464C14.6373 11.1948 8.46878 7.93042 4.303 2.57342C2.12398 6.49074 3.22951 11.5129 6.85054 14.024C5.53671 13.9906 4.27096 13.6222 3.11736 12.9526V13.053C3.11736 17.1378 5.87318 20.6532 9.71852 21.4736C8.50083 21.8252 7.23507 21.8754 6.00136 21.6242C7.07485 25.123 10.1671 27.517 13.676 27.584C10.76 29.9778 7.17098 31.2668 3.46985 31.2668C2.81294 31.2668 2.15603 31.2166 1.51514 31.1496C5.28036 33.6774 9.6384 35 14.1086 35V35Z" stroke="white" stroke-width="2" stroke-linecap="round" stroke-linejoin="round"/>
</svg>
