<svg width="47" height="45" viewBox="0 0 47 45" fill="none" xmlns="http://www.w3.org/2000/svg">
<g clip-path="url(#clip0_2665_25986)">
<path d="M37.0421 0.0652774C35.7132 1.74037 35.6533 3.55279 35.6556 5.40575C35.6764 16.6766 35.6557 27.9497 35.6741 39.2205C35.6764 40.9654 35.1513 42.4558 33.7994 43.6266C32.1458 45.0585 30.2458 45.3692 28.2352 44.5632C26.2292 43.7594 25.0915 42.2239 24.8935 40.0963C24.8175 39.279 24.8543 38.4505 24.8612 37.6264C24.8635 37.2527 24.7276 37.0681 24.3269 37.0906C24.0597 37.1041 23.7903 37.0906 23.5208 37.0906C18.917 37.0906 14.3155 37.0906 9.71168 37.0906C8.69834 37.0906 8.67991 37.1874 8.67991 36.136C8.67991 26.3241 8.71446 16.5122 8.66609 6.70259C8.64767 2.94715 11.8443 -0.0135238 15.5223 -1.49918e-05C22.5029 0.0270026 29.4834 0.0067394 36.464 0.00899086C36.5769 0.00899086 36.692 0.0315055 37.0421 0.0675289V0.0652774ZM15.4187 11.6536H15.421C15.421 12.401 15.4118 13.1508 15.421 13.8983C15.4739 17.9802 17.3763 21.0151 20.8562 23.2081C21.7751 23.7867 22.4914 23.807 23.4333 23.2193C26.4803 21.3123 28.4263 18.7524 28.8225 15.1726C29.0643 12.9707 28.88 10.7597 28.956 8.55555C28.9768 7.96341 28.682 7.87786 28.1845 7.88911C27.1504 7.90938 26.1141 7.88461 25.08 7.89812C24.495 7.90487 23.94 7.75177 23.7465 7.21367C23.507 6.54274 23.0395 6.54049 22.4891 6.563C22.1436 6.57651 21.7981 6.57876 21.455 6.563C21.0681 6.54499 20.8401 6.65081 20.6835 7.05157C20.4393 7.67748 19.8981 7.91613 19.2118 7.90037C18.3297 7.88011 17.4477 7.89587 16.5679 7.89587C15.3726 7.89587 15.4141 7.80131 15.4164 8.96081C15.4164 9.85914 15.4164 10.7575 15.4164 11.6558L15.4187 11.6536ZM22.314 26.5402C20.5913 26.5402 18.8663 26.5402 17.1437 26.5402C15.9722 26.5402 15.3972 27.1159 15.4187 28.2671C15.4348 29.1835 15.4348 29.197 16.3629 29.1992C19.9234 29.206 23.4863 29.2217 27.0468 29.1947C29.2647 29.1767 28.8916 29.6225 28.9584 27.2922C28.9745 26.6978 28.7626 26.5245 28.173 26.5312C26.22 26.5582 24.267 26.5425 22.314 26.5425V26.5402ZM22.116 34.4316C23.8387 34.4316 25.5636 34.4316 27.2863 34.4316C28.4148 34.4316 28.9706 33.8717 28.9537 32.752C28.9399 31.7816 28.9399 31.7726 27.9335 31.7704C24.3707 31.7659 20.8101 31.7501 17.2473 31.7749C15.1054 31.7906 15.4394 31.3876 15.4164 33.6323C15.4071 34.4068 15.4371 34.4249 16.2547 34.4271C18.2077 34.4361 20.1607 34.4294 22.1137 34.4294L22.116 34.4316Z" fill="white"/>
<path d="M24.2223 44.9685C17.8958 44.9685 11.8019 45 5.71027 44.9549C3.07326 44.9347 0.816263 42.8543 0.53529 40.4047C0.477713 39.9027 0.622806 39.7361 1.12718 39.7383C7.91199 39.7451 14.6945 39.7451 21.4793 39.7406C21.8547 39.7406 22.1725 39.7766 22.2025 40.2449C22.313 41.9718 23.0247 43.4712 24.2223 44.9707V44.9685Z" fill="white"/>
<path d="M42.4407 7.89364C41.3283 7.89364 40.2183 7.87788 39.1059 7.90039C38.6153 7.9094 38.4265 7.74054 38.438 7.25197C38.4656 6.09246 38.4104 4.93071 38.4656 3.77346C38.5716 1.63232 40.3887 -0.0135038 42.549 0.0157652C44.6954 0.0450342 46.3997 1.63006 46.5033 3.75995C46.5609 4.9172 46.4941 6.08121 46.5402 7.23846C46.5632 7.8306 46.2776 7.91165 45.7778 7.90039C44.6678 7.87562 43.5554 7.89364 42.443 7.89364H42.4407Z" fill="white"/>
</g>
<defs>
<clipPath id="clip0_2665_25986">
<rect width="46.0174" height="45" fill="white" transform="translate(0.523438)"/>
</clipPath>
</defs>
</svg>
