<svg width="43" height="51" viewBox="0 0 43 51" fill="none" xmlns="http://www.w3.org/2000/svg">
<g clip-path="url(#clip0_2665_25970)">
<path d="M16.3319 23.4368C16.5088 23.0484 16.8676 22.8079 17.1649 22.5172C22.8143 16.9969 28.4688 11.4791 34.1233 5.96382C34.395 5.69821 34.6616 5.42257 34.964 5.19454C35.8868 4.49793 37.0479 4.57561 37.8656 5.36744C38.6294 6.10916 38.7294 7.21673 38.0707 8.1113C37.799 8.47965 37.4452 8.79538 37.1146 9.12114C32.7366 13.4061 28.3586 17.6885 23.9755 21.9684C23.1193 22.8053 22.3786 23.6949 22.1069 24.8952C21.4584 27.7568 23.3372 30.5508 26.3029 31.0043C26.9514 31.1021 27.2103 31.2524 27.3179 31.9415C27.6691 34.1992 29.1327 35.6351 31.496 36.1037C32.124 36.229 32.3982 36.4219 32.5136 37.0884C32.7955 38.6922 33.7132 39.9175 35.1793 40.7269C35.3588 40.8246 35.5971 40.8547 35.6587 41.1178C35.5331 41.4786 35.1947 41.6841 34.9333 41.9422C32.6033 44.2125 30.2477 46.4577 27.9382 48.7455C26.9744 49.7002 25.8697 50.1287 24.5035 50.1211C19.8487 50.0936 15.1913 50.0986 10.5339 50.1211C9.74696 50.1262 9.14716 49.8856 8.59863 49.3468C6.15844 46.9488 3.69005 44.5783 1.24985 42.1802C0.186109 41.1353 0.214304 40.3736 1.30111 39.2986C2.20337 38.409 3.09538 37.5069 4.04121 36.6625C4.5923 36.1688 4.77942 35.6301 4.77429 34.9084C4.73584 28.9797 4.73328 23.0484 4.7179 17.1197C4.7179 16.7012 4.7179 16.2852 4.7179 15.8668C4.73072 14.1152 5.70987 13.2632 7.50413 13.5539C9.19843 13.8295 10.416 14.7341 10.8491 16.4281C11.3439 18.3701 11.8386 20.3146 12.2461 22.2766C12.5281 23.6348 13.0997 24.7398 14.1737 25.687C15.9218 27.2256 16.6626 29.2202 16.5575 31.5306C16.4831 33.1794 15.9192 34.6227 14.8657 35.8957C14.6504 36.1538 14.3992 36.3868 14.207 36.6625C13.7225 37.3566 13.843 38.1835 14.4736 38.6771C15.0964 39.1658 15.7962 39.1457 16.4293 38.5518C17.957 37.1235 18.8977 35.3619 19.3232 33.3523C20.0588 29.8918 19.1873 26.8247 16.8471 24.146C16.6574 23.9279 16.3909 23.7601 16.3242 23.4393L16.3319 23.4368Z" fill="white"/>
<path d="M32.4547 18.7685C34.1285 18.7986 35.1513 20.6103 34.2798 22.0135C34.1285 22.2591 33.9184 22.4771 33.7107 22.6826C32.1523 24.2161 30.5887 25.7447 29.0175 27.2682C28.7791 27.5012 28.5176 27.7318 28.2254 27.8871C27.2975 28.3833 26.0954 28.1427 25.4494 27.3659C24.7522 26.529 24.783 25.3888 25.6212 24.5394C27.0386 23.1035 28.4997 21.7103 29.9453 20.2995C30.276 19.9763 30.599 19.643 30.9476 19.3398C31.3731 18.969 31.8729 18.756 32.4573 18.7735L32.4547 18.7685Z" fill="white"/>
<path d="M32.3603 33.2796C31.4683 33.2445 30.8044 32.8135 30.4405 32.0443C30.0508 31.2224 30.1482 30.3954 30.8019 29.7239C31.74 28.7592 32.7192 27.8295 33.6829 26.8873C34.0751 26.5039 34.4493 26.1005 34.8697 25.7497C35.7925 24.9779 37.0536 25.023 37.8687 25.8249C38.7146 26.6543 38.794 27.8546 37.9379 28.7466C36.6255 30.1098 35.2414 31.4103 33.8777 32.7258C33.4676 33.1218 32.9524 33.3097 32.3629 33.2821L32.3603 33.2796Z" fill="white"/>
<path d="M42.4167 33.7282C42.4321 34.2594 42.2373 34.7179 41.8733 35.0913C40.9941 35.9909 40.1252 36.9055 39.1973 37.755C38.2643 38.607 36.9263 38.5894 36.0958 37.7926C35.1987 36.9331 35.2064 35.6777 36.1599 34.6904C37.0058 33.8159 37.8644 32.9514 38.759 32.1244C39.4383 31.498 40.2559 31.3727 41.1197 31.7611C41.9759 32.147 42.3885 32.8211 42.4167 33.7282Z" fill="white"/>
<path d="M17.3295 4.67332C17.3295 5.63304 17.35 6.59277 17.3244 7.55249C17.2962 8.59992 16.7221 9.20883 15.8224 9.20632C14.9739 9.20382 14.3716 8.64252 14.3511 7.64521C14.3075 5.60047 14.3049 3.55573 14.3588 1.51099C14.3844 0.478599 14.9457 -0.0125395 15.848 -1.04623e-05C16.7477 0.0125186 17.2783 0.533726 17.3167 1.54357C17.3552 2.58598 17.3244 3.6309 17.3244 4.67332H17.3295Z" fill="white"/>
<path d="M10.8754 7.70783C10.8447 8.84046 9.72198 9.5521 8.77615 9.04844C7.79444 8.52723 7.07417 7.67776 6.4513 6.7882C6.07194 6.24695 6.28982 5.66309 6.72044 5.192C7.12799 4.74597 7.69447 4.53799 8.21737 4.81362C9.31187 5.39497 10.15 6.27702 10.8011 7.31693C10.8831 7.44723 10.8652 7.63767 10.878 7.70783H10.8754Z" fill="white"/>
<path d="M25.3167 6.26453C25.2834 7.13405 23.161 9.19633 22.2819 9.19633C21.6795 9.19633 21.1822 8.94825 20.931 8.4095C20.6875 7.8883 20.6875 7.32198 21.1028 6.87845C21.7051 6.23196 22.3357 5.603 23.0047 5.02416C23.4558 4.63325 24.0197 4.60068 24.558 4.9114C25.0783 5.21209 25.3347 5.66815 25.3167 6.26453Z" fill="white"/>
</g>
<defs>
<clipPath id="clip0_2665_25970">
<rect width="41.9396" height="50.1211" fill="white" transform="translate(0.476562)"/>
</clipPath>
</defs>
</svg>
