<svg width="41" height="39" viewBox="0 0 41 39" fill="none" xmlns="http://www.w3.org/2000/svg">
<g clip-path="url(#clip0_2665_25979)">
<path d="M30.6296 27.1406C30.9486 27.5461 30.8768 27.7781 30.8768 27.9945C30.8828 30.3341 30.8848 32.6717 30.8768 35.0112C30.8768 35.366 30.8449 35.7248 30.7891 36.0776C30.5258 37.7445 29.1777 38.9143 27.4407 38.9942C27.1415 39.0079 26.8424 39.004 26.5433 39.004C19.2661 39.004 11.9909 39.004 4.71377 39.004C4.38072 39.004 4.04768 39.0079 3.71663 38.9865C2.20296 38.889 0.960519 37.8557 0.585593 36.411C0.465936 35.9275 0.455964 35.444 0.455964 34.9566C0.455964 24.6588 0.455964 14.3629 0.455964 4.06503C0.455964 3.93441 0.45397 3.80573 0.455964 3.67511C0.515793 1.45061 1.95168 0.0410369 4.23714 0.0137424C6.26333 -0.0116026 8.29152 0.00789352 10.3177 0.00789352C13.6741 0.00789352 17.0285 0.00594391 20.3849 0.00789352C21.6154 0.00789352 21.5316 -0.118831 21.5336 1.08408C21.5336 3.25984 21.5296 5.43756 21.5356 7.61332C21.5396 8.84353 21.8587 9.14962 23.141 9.15351C25.4344 9.15936 27.7259 9.15351 30.0193 9.15741C30.8729 9.15741 30.8768 9.16911 30.8828 10.0269C30.8888 11.1304 30.8589 12.2358 30.8948 13.3393C30.9127 13.8716 30.7352 14.2498 30.3503 14.6202C28.0071 16.8759 25.6957 19.1648 23.3464 21.4146C22.5427 22.1847 21.9564 23.0523 21.6353 24.109C21.38 24.9473 21.0649 25.77 20.7857 26.6025C20.3829 27.8093 20.5105 28.9265 21.4877 29.8311C22.429 30.7045 23.5399 30.8098 24.7285 30.377C24.7604 30.3653 24.7923 30.3594 24.8242 30.3477C26.9282 29.601 29.2455 29.2442 30.6355 27.1367L30.6296 27.1406ZM14.4918 11.458C11.971 11.458 9.4522 11.458 6.93142 11.458C6.66618 11.458 6.39695 11.4424 6.13769 11.4833C5.60921 11.5652 5.23827 11.9629 5.18442 12.4581C5.12659 12.9787 5.38186 13.4134 5.87844 13.6298C6.18954 13.7643 6.5206 13.7702 6.85364 13.7702C11.9271 13.7702 17.0006 13.7702 22.0741 13.7702C22.4071 13.7702 22.7401 13.7663 23.0532 13.6396C23.5538 13.4349 23.827 12.9981 23.7812 12.4873C23.7373 12.0019 23.3584 11.5749 22.8478 11.4891C22.5886 11.4443 22.3194 11.4599 22.0541 11.4599C19.5333 11.4599 17.0145 11.4599 14.4938 11.4599L14.4918 11.458ZM12.1943 27.4565C13.9194 27.4565 15.6465 27.4565 17.3715 27.4565C17.6368 27.4565 17.908 27.4721 18.1652 27.4214C18.7077 27.3141 19.1245 26.8228 19.1365 26.3257C19.1484 25.8246 18.7635 25.3275 18.2111 25.1969C17.9578 25.1364 17.6846 25.1423 17.4214 25.1423C13.9035 25.1384 10.3855 25.1403 6.86561 25.1423C6.60037 25.1423 6.32715 25.1306 6.07388 25.191C5.51747 25.3197 5.16647 25.7915 5.17645 26.3276C5.18642 26.8618 5.55735 27.3141 6.12174 27.4233C6.379 27.474 6.65022 27.4584 6.91546 27.4584C8.67443 27.4604 10.4334 27.4584 12.1924 27.4584L12.1943 27.4565ZM12.0528 18.3089C13.8117 18.3089 15.5707 18.3089 17.3296 18.3089C17.561 18.3089 17.7963 18.3225 18.0256 18.2952C18.6379 18.2212 19.0966 17.7669 19.1345 17.2249C19.1724 16.6927 18.7595 16.1741 18.1533 16.0415C17.898 15.9849 17.6268 15.9927 17.3615 15.9908C15.7362 15.9869 14.1089 15.9888 12.4835 15.9888C10.5251 15.9888 8.56674 15.9772 6.60834 15.9947C5.68499 16.0044 5.18442 16.4334 5.17645 17.1411C5.16647 17.8624 5.66305 18.2757 6.57444 18.305C6.77387 18.3108 6.9733 18.305 7.17273 18.305C8.79807 18.305 10.4254 18.305 12.0508 18.305L12.0528 18.3089ZM12.1425 20.6055C10.8821 20.6055 9.62171 20.6055 8.36132 20.6055C7.66532 20.6055 6.96732 20.5821 6.2733 20.6192C5.61918 20.6543 5.21434 21.0754 5.18043 21.6603C5.14653 22.2588 5.48955 22.6994 6.13171 22.8339C6.38897 22.8885 6.6582 22.8983 6.92145 22.8983C10.4035 22.9022 13.8855 22.9022 17.3695 22.8983C17.6647 22.8983 17.9718 22.8788 18.255 22.8066C18.8074 22.6663 19.1724 22.1594 19.1325 21.6583C19.0906 21.1475 18.6618 20.6991 18.1114 20.625C17.8841 20.5938 17.6487 20.6075 17.4154 20.6075C15.6584 20.6075 13.8995 20.6075 12.1425 20.6075V20.6055ZM19.1265 34.2957C19.3917 34.2957 19.657 34.2957 19.9222 34.2957C20.7837 34.2957 21.6473 34.3113 22.5088 34.2898C23.2786 34.2703 23.7552 33.8434 23.7852 33.2059C23.8171 32.5293 23.3245 32.0614 22.5168 32.0029C22.3852 31.9932 22.2515 32.001 22.1199 32.001C20.1296 32.001 18.1413 32.001 16.151 32.001C15.9197 32.001 15.6824 31.9834 15.457 32.0263C14.8727 32.1375 14.4319 32.6717 14.4559 33.2C14.4798 33.74 14.9425 34.208 15.5487 34.284C15.7442 34.3093 15.9456 34.2957 16.145 34.2957C17.1402 34.2957 18.1353 34.2957 19.1305 34.2957H19.1265Z" fill="white"/>
<path d="M28.7118 25.8557C27.603 24.7834 26.546 23.7618 25.4531 22.7051C25.485 22.479 25.7263 22.3406 25.9038 22.167C28.0577 20.0537 30.2155 17.9461 32.3713 15.8367C33.0733 15.1504 32.9776 15.1874 33.6636 15.8562C34.3915 16.5639 35.0995 17.2969 35.8533 17.9793C36.2442 18.3341 36.2083 18.5817 35.8533 18.9229C34.573 20.1453 33.3106 21.3872 32.0403 22.6213C30.9374 23.6936 29.8326 24.7659 28.7118 25.8538V25.8557Z" fill="white"/>
<path d="M27.2483 6.85483C26.319 6.85483 25.3917 6.84118 24.4623 6.86068C23.9917 6.87042 23.7364 6.78269 23.7464 6.2251C23.7783 4.34568 23.7504 2.4643 23.7623 0.58488C23.7663 0.0136446 23.8321 -0.023398 24.4045 0.0584856C25.1803 0.169613 25.8882 0.458156 26.4486 0.98845C27.6153 2.09193 28.768 3.2149 29.8868 4.36322C30.3953 4.88572 30.6925 5.54079 30.7683 6.27969C30.8121 6.69691 30.6745 6.86652 30.2318 6.85678C29.2367 6.83728 28.2415 6.85093 27.2464 6.85093L27.2483 6.85483Z" fill="white"/>
<path d="M34.7656 13.4835C35.3021 12.9669 35.8425 12.3976 36.4388 11.8868C37.4101 11.0543 38.7841 11.1089 39.6815 11.9745C40.571 12.8323 40.5909 14.16 39.6955 15.1231C39.165 15.6924 38.5887 16.2188 38.0741 16.7218C36.9693 15.6398 35.9203 14.6123 34.7676 13.4835H34.7656Z" fill="white"/>
<path d="M23.8914 24.7269C24.8167 25.6276 25.6543 26.4426 26.5497 27.3141C25.6164 27.7449 24.6412 28.0218 23.67 28.2811C23.0877 28.4351 22.7885 28.0959 22.964 27.4895C23.2253 26.5888 23.5583 25.7076 23.8914 24.7269Z" fill="white"/>
</g>
<defs>
<clipPath id="clip0_2665_25979">
<rect width="39.8997" height="39" fill="white" transform="translate(0.457031)"/>
</clipPath>
</defs>
</svg>
