<svg width="45" height="43" viewBox="0 0 45 43" fill="none" xmlns="http://www.w3.org/2000/svg">
<g clip-path="url(#clip0_2665_25990)">
<path d="M23.365 31.6513C23.7762 31.4191 24.2204 31.5932 24.647 31.5481C24.9791 31.5115 25.1352 31.6728 25.3155 31.9544C26.0456 33.0959 27.1517 33.0787 27.7169 31.8792C27.9324 31.4213 28.2974 31.3869 28.6251 31.2127C29.8082 30.5871 30.3777 29.6025 30.3535 28.3213C30.3293 27.0679 29.6784 26.165 28.5327 25.5975C28.0225 25.346 27.4772 25.3331 26.9252 25.3202C26.5602 25.3116 26.1907 25.3202 25.8323 25.2664C25.476 25.2105 25.2122 24.9848 25.2495 24.6043C25.2847 24.2281 25.5662 24.0647 25.9444 24.0647C26.7515 24.0647 27.5563 24.0647 28.3634 24.0561C28.6911 24.0518 29.0297 24.0604 29.3442 23.9851C30.0259 23.8218 30.4063 23.2757 30.3403 22.6372C30.2788 22.046 29.8434 21.6204 29.1858 21.5322C29.0055 21.5086 28.8186 21.5129 28.6361 21.5215C28.1831 21.5408 27.8862 21.4763 27.6201 20.9776C27.0704 19.9436 25.8653 20.0188 25.3331 21.0915C25.1528 21.457 24.9285 21.6118 24.581 21.7709C23.0857 22.4459 22.4084 23.8282 22.7558 25.3954C23.0571 26.7562 24.3127 27.7021 25.8961 27.7537C26.2985 27.7666 26.7031 27.7473 27.1055 27.7731C27.475 27.7967 27.7521 28.0031 27.7697 28.3664C27.7916 28.8007 27.4816 29.0113 27.066 29.0221C26.2237 29.0414 25.3815 29.0307 24.537 29.035C23.1736 29.0393 23.0439 29.1296 22.5029 30.5119C21.9378 30.0432 21.4364 29.538 20.8163 29.1984C20.3698 28.9533 19.9278 28.6889 19.4528 28.5147C18.3203 28.0977 18.5468 28.1385 18.538 27.1174C18.5226 25.4363 18.5226 23.7551 18.538 22.074C18.5468 21.1625 18.4325 20.2768 17.8981 19.5114C17.6386 19.1417 17.72 18.9095 17.9641 18.572C18.4941 17.8432 19.1142 17.5551 20.0752 17.568C24.4337 17.6282 28.7944 17.6089 33.1551 17.5809C33.8786 17.5766 34.3668 17.7766 34.833 18.3355C37.263 21.2485 39.6863 24.1636 41.7512 27.3431C42.4395 28.4008 43.0948 29.4757 43.5984 30.6301C46.0746 36.3228 42.202 42.6044 35.8556 42.899C31.4377 43.1032 27 42.9377 22.5865 42.9377C22.4589 42.6969 22.6283 42.5765 22.7448 42.4539C25.3991 39.6721 25.8543 35.0135 23.3891 31.6448L23.3672 31.6577L23.365 31.6513Z" fill="white"/>
<path d="M26.4399 10.0395C24.2079 10.0395 21.9736 10.0266 19.7416 10.0481C19.15 10.0545 18.7124 9.90835 18.3144 9.44184C17.1467 8.06813 15.8405 6.80621 14.7651 5.3551C13.2984 3.373 14.3759 0.905048 16.6959 0.268712C17.2259 0.122527 17.7646 0.0408348 18.321 0.0494339C19.5613 0.068782 20.7026 0.425646 21.7405 1.06843C22.2001 1.35435 22.5168 1.35005 23.005 1.05553C25.3316 -0.346127 27.7087 -0.359025 30.0265 1.07703C30.4773 1.3565 30.7654 1.3565 31.192 1.10498C32.7512 0.182721 34.4137 -0.223589 36.2301 0.253663C38.7172 0.907198 39.654 3.26981 38.229 5.37875C37.4395 6.54608 36.3202 7.45759 35.489 8.58623C34.6336 9.74926 33.6176 10.1792 32.1486 10.076C30.2552 9.94274 28.3443 10.0438 26.4399 10.0438V10.0395Z" fill="white"/>
<path d="M22.4011 36.6194C22.5682 39.7624 19.7908 42.9205 16.0436 42.9506C12.4306 42.9807 9.52564 40.1773 9.52344 36.6581C9.52124 33.1303 12.402 30.312 16.004 30.3206C19.5423 30.3292 22.3879 33.1325 22.4011 36.6194Z" fill="white"/>
<path d="M8.11049 24.0754C5.80589 24.0754 3.50128 24.0819 1.19668 24.0733C0.40502 24.0711 0.398423 24.0561 0.383029 23.3187C0.372034 22.7469 0.354442 22.175 0.391826 21.6053C0.4512 20.6981 0.928394 20.2359 1.86299 20.2338C6.06977 20.2209 10.2766 20.2187 14.4833 20.2338C15.4113 20.2381 15.8951 20.7153 15.9479 21.6161C15.9831 22.2223 15.9303 22.8307 15.9677 23.4369C16.0029 23.9851 15.7368 24.0883 15.2442 24.084C12.867 24.0668 10.4899 24.0776 8.11049 24.0776V24.0754Z" fill="white"/>
<path d="M8.26585 26.4875C10.5727 26.4875 12.8773 26.4897 15.1841 26.4854C15.6129 26.4854 15.9867 26.4703 15.9691 27.0744C15.9559 27.556 15.9207 27.887 15.2896 27.9214C13.3237 28.0311 11.6106 28.7835 10.1065 30.0003C9.83817 30.2174 9.56769 30.3227 9.21584 30.3227C6.50661 30.312 3.79958 30.3098 1.09035 30.3227C0.60436 30.3249 0.342672 30.2324 0.37126 29.6756C0.413042 28.8566 0.408644 28.0311 0.37126 27.212C0.347071 26.6487 0.562578 26.4725 1.12993 26.4768C3.50931 26.5004 5.88868 26.4854 8.26585 26.4854V26.4875Z" fill="white"/>
<path d="M26.4015 15.0592C24.7544 15.0592 23.1051 15.0592 21.458 15.0592C21.2029 15.0592 20.939 15.0764 20.6927 15.0248C20.0814 14.9001 19.668 14.3842 19.668 13.7995C19.668 13.2384 20.0066 12.7654 20.5938 12.6149C20.9038 12.5354 21.2447 12.5375 21.5701 12.5375C24.8665 12.5332 28.1607 12.5332 31.4571 12.5375C31.7847 12.5375 32.1234 12.5354 32.4335 12.6149C33.0206 12.7676 33.3571 13.2405 33.3549 13.8016C33.3549 14.3863 32.9414 14.9001 32.3279 15.0248C32.0816 15.0743 31.8177 15.0592 31.5626 15.0592C29.8408 15.0614 28.1211 15.0592 26.3993 15.0592H26.4015Z" fill="white"/>
<path d="M9.72853 42.9849C8.80933 42.9849 8.12762 42.9849 7.44591 42.9849C5.6163 42.9849 3.78669 42.9978 1.95708 42.9785C0.897142 42.9677 0.428744 42.5055 0.382564 41.4736C0.358374 40.904 0.400156 40.33 0.371569 39.7603C0.347379 39.2744 0.499114 39.0465 1.04448 39.053C2.94666 39.0745 4.84884 39.0659 6.75102 39.0573C7.12046 39.0573 7.36675 39.154 7.49649 39.5259C7.92311 40.7642 8.67738 41.8112 9.72633 42.9871L9.72853 42.9849Z" fill="white"/>
<path d="M7.89403 32.7455C7.34866 33.9558 7.10897 35.0307 6.99461 36.1314C6.95723 36.499 6.77911 36.6087 6.42726 36.6087C4.59765 36.6001 2.77024 36.6001 0.940628 36.6087C0.511814 36.6087 0.366676 36.4195 0.373273 36.0196C0.388667 35.1275 0.386468 34.2332 0.373273 33.341C0.366676 32.9476 0.503017 32.7412 0.93623 32.7434C3.19685 32.7498 5.45748 32.7455 7.89403 32.7455Z" fill="white"/>
</g>
<defs>
<clipPath id="clip0_2665_25990">
<rect width="43.9854" height="42.9935" fill="white" transform="translate(0.367188)"/>
</clipPath>
</defs>
</svg>
