<svg width="56" height="56" viewBox="0 0 56 56" fill="none" xmlns="http://www.w3.org/2000/svg">
<rect width="56" height="56" rx="8" fill="url(#paint0_linear_2665_25864)"/>
<path d="M19.4769 44.9986C19.4516 44.8952 19.3506 44.9137 19.2843 44.8883C18.4248 44.5588 17.9018 43.9341 17.8834 43.0189C17.8452 41.1412 17.8342 39.2601 17.8909 37.3831C17.9455 35.5726 18.9403 34.3388 20.4982 33.5175C21.5271 32.9749 22.6549 32.7776 23.778 32.5612C25.0683 32.3125 26.356 32.0529 27.6477 31.8124C27.8641 31.772 27.8962 31.6809 27.9187 31.4795C27.9904 30.8267 27.8108 30.367 27.2551 29.93C26.2563 29.1449 25.7354 28.0283 25.5387 26.7713C25.5094 26.5822 25.4616 26.4897 25.2506 26.437C24.5932 26.2719 24.1992 25.767 24.148 25.0875C24.1398 24.9744 24.1412 24.86 24.1419 24.7463C24.1446 24.3243 24.1494 23.9763 23.7227 23.6379C22.982 23.0509 23.2311 21.8144 24.1064 21.4328C24.3406 21.3307 24.3849 21.215 24.3856 20.9889C24.3925 17.7097 26.5444 15.0154 29.7614 14.4263C33.3176 13.7748 36.1994 15.2853 37.556 18.2303C37.967 19.1222 38.1376 20.0682 38.1288 21.0471C38.1267 21.2403 38.1697 21.339 38.367 21.4171C38.8784 21.6191 39.1433 22.0302 39.1877 22.572C39.2307 23.0995 39.0463 23.5475 38.5903 23.8263C38.3882 23.9496 38.3438 24.0839 38.3554 24.2908C38.3677 24.5066 38.3602 24.7237 38.3575 24.9395C38.3486 25.7321 37.9622 26.2507 37.201 26.4562C37.0562 26.4952 37.0016 26.5397 36.9798 26.6911C36.7647 28.2112 36.0199 29.4176 34.7971 30.3259C34.6387 30.4437 34.5875 30.5636 34.5971 30.7486C34.6141 31.0767 34.4974 31.4898 34.6544 31.711C34.8155 31.9371 35.2607 31.8768 35.5802 31.944C37.2645 32.2988 38.974 32.5365 40.6371 32.9845C41.8619 33.314 42.9549 33.9018 43.751 34.9382C44.278 35.624 44.5934 36.4056 44.6071 37.2673C44.6365 39.18 44.6399 41.0933 44.6187 43.0065C44.6078 43.9923 43.9292 44.7424 42.9686 44.937C42.9447 44.9418 42.9276 44.9781 42.9071 45H19.4769V44.9986ZM35.5829 43.9731C36.7292 43.9731 37.8748 43.9587 39.0204 43.9827C39.3379 43.9896 39.3898 43.8875 39.3775 43.6053C39.3549 43.1052 39.3659 42.6038 39.3734 42.103C39.3788 41.7338 39.585 41.5166 39.9018 41.5269C40.2029 41.5372 40.3893 41.7475 40.3927 42.1016C40.3975 42.625 40.4056 43.1497 40.3886 43.6724C40.3811 43.9012 40.4261 43.9882 40.678 43.9793C41.2672 43.9587 41.8578 43.9745 42.4477 43.9724C43.1823 43.969 43.6076 43.5491 43.6096 42.8079C43.6144 41.1117 43.6015 39.4149 43.6137 37.7188C43.624 36.2501 42.9556 35.2109 41.6933 34.5115C41.4406 34.371 41.369 34.4176 41.2904 34.6834C40.7859 36.3809 40.4958 38.1127 40.4111 39.8814C40.3899 40.3212 40.1974 40.5158 39.854 40.4884C39.5263 40.4623 39.3741 40.2363 39.3925 39.8232C39.4778 37.951 39.7905 36.1179 40.3435 34.3286C40.433 34.0388 40.3804 33.9258 40.0957 33.8716C39.0163 33.6668 37.9383 33.4558 36.861 33.2387C36.6794 33.2024 36.5776 33.2476 36.4711 33.4031C35.1228 35.3705 33.7662 37.3317 32.4137 39.2964C32.0526 39.8205 31.8341 40.4007 31.7877 41.0391C31.7235 41.9263 31.7829 42.8147 31.7535 43.7019C31.746 43.9389 31.83 43.9793 32.0423 43.9772C33.2221 43.9676 34.4025 43.9724 35.5822 43.9724L35.5829 43.9731ZM26.9533 43.9731C28.1331 43.9731 29.3128 43.9697 30.4926 43.9772C30.6776 43.9786 30.7445 43.9382 30.7417 43.7375C30.7288 42.9182 30.737 42.0982 30.7308 41.2789C30.7254 40.5658 30.513 39.9123 30.1116 39.3279C28.7496 37.3434 27.3794 35.3643 26.0166 33.3791C25.9265 33.2483 25.8432 33.2037 25.6835 33.2359C24.5959 33.4538 23.5063 33.6648 22.416 33.8716C22.1436 33.923 22.0507 34.0107 22.1518 34.3203C22.7109 36.0363 23.012 37.8017 23.098 39.6054C23.1629 40.9597 23.1328 42.314 23.1294 43.6683C23.1294 43.9313 23.2004 43.9827 23.4483 43.98C24.6164 43.9663 25.7852 43.9738 26.9533 43.9738V43.9731ZM31.2627 24.0812H25.8507C25.3929 24.0812 25.1644 24.3086 25.1653 24.7634C25.1667 25.367 25.2459 25.4478 25.8507 25.4622C26.2925 25.4725 26.4727 25.641 26.4891 26.078C26.5034 26.4555 26.5574 26.8268 26.6755 27.1844C27.3213 29.1449 28.7468 30.1478 30.7172 30.4554C32.721 30.7684 35.744 29.3929 36.0164 26.239C36.0779 25.5314 36.1072 25.5074 36.8371 25.4601C37.2091 25.4361 37.33 25.3074 37.3361 24.9231C37.3389 24.7525 37.3204 24.5799 37.3402 24.4113C37.371 24.151 37.289 24.0723 37.0153 24.0743C35.0975 24.088 33.1804 24.0812 31.2627 24.0812ZM34.2502 16.0307C34.2352 16.3197 34.2359 16.5472 34.2093 16.7705C34.1792 17.0226 34.0024 17.1445 33.7676 17.1699C33.5293 17.1952 33.3436 17.089 33.2494 16.8671C33.2111 16.7767 33.2268 16.665 33.2098 16.5643C33.1524 16.2286 33.3873 15.795 33.0924 15.5731C32.8199 15.3682 32.4021 15.3943 32.043 15.3415C31.8245 15.3093 31.7494 15.3689 31.7542 15.6052C31.7699 16.3451 31.7665 17.0856 31.7563 17.8261C31.7501 18.2385 31.4381 18.4653 31.0715 18.3378C30.8032 18.244 30.7377 18.0214 30.7377 17.7645C30.7377 17.2062 30.7377 16.6486 30.7377 16.0903C30.7377 15.5358 30.4675 15.3127 29.9273 15.421C29.5058 15.505 29.2951 15.7594 29.2951 16.1841C29.2951 16.3321 29.2985 16.48 29.2937 16.628C29.2828 16.9609 29.1046 17.161 28.8131 17.1753C28.5086 17.1897 28.2935 16.9828 28.2751 16.6438C28.2648 16.4574 28.273 16.2704 28.273 16.0944C28.2157 16.0848 28.2027 16.0786 28.1952 16.0827C28.1549 16.1026 28.114 16.1231 28.0764 16.1471C26.3341 17.2767 25.4466 18.8811 25.3967 20.9629C25.3899 21.2403 25.4759 21.2903 25.732 21.2896C28.0928 21.2801 30.4536 21.2842 32.8138 21.2842C34.1533 21.2842 35.4921 21.2794 36.8316 21.289C37.0494 21.2903 37.1265 21.241 37.1156 21.0102C37.0958 20.5889 37.0726 20.1682 36.9804 19.7565C36.6186 18.1412 35.714 16.9233 34.2502 16.032V16.0307ZM18.8856 39.9739C18.8856 41.048 18.8795 41.9365 18.8877 42.825C18.8945 43.5374 19.3342 43.969 20.0401 43.9724C20.6532 43.9752 21.2656 43.9683 21.8787 43.9759C22.0425 43.9779 22.1204 43.9505 22.1183 43.7567C22.0972 41.8221 22.1886 39.8842 21.9217 37.9579C21.764 36.8193 21.5196 35.6993 21.1809 34.6005C21.1475 34.4916 21.1591 34.334 20.9509 34.4423C19.8264 35.0273 19.0515 35.8699 18.9252 37.1893C18.831 38.1778 18.9129 39.1697 18.8856 39.9732V39.9739ZM28.9325 31.0705C28.9325 31.3384 28.9537 31.6008 28.9284 31.8576C28.8725 32.4187 29.1046 32.8482 29.4855 33.225C29.9669 33.6997 30.5274 34.0607 31.1131 34.3875C31.2149 34.4443 31.2982 34.4395 31.3958 34.3854C32.0321 34.0313 32.6438 33.6435 33.1388 33.0982C33.3545 32.8605 33.5484 32.5968 33.5682 32.2659C33.5907 31.8713 33.5737 31.4747 33.5737 31.0733C31.757 31.6987 30.6243 31.6576 28.9325 31.0712V31.0705ZM31.2647 23.055C33.3634 23.055 35.4621 23.055 37.5608 23.055C37.6399 23.055 37.7198 23.0563 37.799 23.0543C38.0298 23.0474 38.165 22.9221 38.1704 22.696C38.1766 22.4521 38.0366 22.3199 37.7915 22.3097C37.7123 22.3062 37.6324 22.3083 37.5532 22.3083C33.3559 22.3083 29.1585 22.3083 24.9612 22.3083C24.8478 22.3083 24.7318 22.2987 24.6218 22.3206C24.4307 22.359 24.3269 22.4967 24.3296 22.6864C24.3324 22.8755 24.4355 23.0111 24.6294 23.0454C24.7284 23.0632 24.8328 23.0536 24.9352 23.0536C27.0455 23.0536 29.1551 23.0536 31.2654 23.0536L31.2647 23.055ZM33.0207 36.6173C32.4581 36.4022 31.9802 36.0548 31.4784 35.7527C31.307 35.6493 31.1923 35.6582 31.0271 35.7562C30.5246 36.0548 30.0481 36.4015 29.4903 36.6207C30.0836 37.4824 30.6694 38.3333 31.2538 39.1827C31.8464 38.323 32.4301 37.4749 33.0207 36.6173ZM26.9895 33.0016C27.535 33.786 28.0573 34.5663 28.6137 35.3205C28.8076 35.5835 29.1244 35.6692 29.4384 35.5116C29.6945 35.3835 29.93 35.2143 30.1942 35.052C29.4644 34.5875 28.8062 34.0963 28.3106 33.4086C28.1672 33.2099 28.1829 32.8509 27.8887 32.8229C27.6402 32.7989 27.3794 32.9085 27.1247 32.9599C27.0933 32.966 27.0633 32.9784 26.9895 33.001V33.0016ZM35.5283 32.9818C35.2211 32.9229 34.9637 32.8811 34.7104 32.8229C34.5677 32.79 34.4899 32.8098 34.4278 32.9626C34.2263 33.4579 33.872 33.8408 33.4835 34.1963C33.1306 34.519 32.7312 34.7779 32.3093 35.0588C32.5305 35.1931 32.7312 35.3164 32.9333 35.4369C33.3258 35.6705 33.6877 35.6267 33.9485 35.2629C34.4769 34.5265 34.9814 33.7737 35.5276 32.9818H35.5283Z" fill="white"/>
<path d="M22.3377 31.7653C21.9971 31.7653 21.6557 31.779 21.3164 31.7625C20.6337 31.7283 20.1879 31.2611 20.1701 30.572C20.1619 30.2534 20.1592 29.9335 20.1722 29.615C20.1804 29.4238 20.1148 29.3279 19.9271 29.2766C19.3024 29.1053 18.7064 28.8573 18.1452 28.5326C17.9759 28.4347 17.8639 28.4607 17.7349 28.6025C17.513 28.8464 17.2774 29.0779 17.0378 29.3046C16.5585 29.7581 15.8929 29.7684 15.415 29.3108C14.9139 28.8313 14.4237 28.3401 13.9471 27.8359C13.4897 27.3516 13.5081 26.696 13.969 26.211C14.1881 25.9802 14.41 25.7507 14.6435 25.5356C14.791 25.3993 14.8278 25.2815 14.7213 25.0938C14.4066 24.5396 14.1588 23.9539 13.9956 23.3366C13.9362 23.1126 13.8181 23.0544 13.6058 23.0626C13.2774 23.0756 12.9469 23.0736 12.6186 23.0626C12.0041 23.0414 11.5235 22.5667 11.5105 21.9481C11.4962 21.2418 11.4968 20.5355 11.5105 19.8293C11.5228 19.1874 12.0178 18.7168 12.6807 18.6969C13.0098 18.6873 13.3395 18.6887 13.6679 18.6976C13.8413 18.7024 13.9307 18.6462 13.9813 18.4681C14.1608 17.8324 14.4086 17.2227 14.7357 16.6487C14.8278 16.4877 14.791 16.3815 14.666 16.2637C14.4346 16.0452 14.2107 15.8184 13.9915 15.5876C13.4897 15.0594 13.489 14.4031 13.9935 13.8866C14.4544 13.4146 14.9186 12.9461 15.3904 12.485C15.8826 12.0035 16.5326 11.9952 17.0357 12.4624C17.2774 12.6864 17.5102 12.9207 17.7349 13.1619C17.8618 13.2982 17.9697 13.3345 18.1459 13.2338C18.7084 12.9125 19.3058 12.6666 19.9291 12.4919C20.1203 12.4385 20.179 12.3412 20.1715 12.1528C20.1592 11.8343 20.1612 11.515 20.1701 11.1958C20.1892 10.4841 20.6733 10.0087 21.3867 10.0039C22.0339 9.99906 22.6812 9.99838 23.3277 10.0039C24.0425 10.01 24.5143 10.4861 24.5252 11.2054C24.5293 11.4904 24.5423 11.776 24.5211 12.0596C24.502 12.3179 24.5839 12.4556 24.844 12.52C25.4291 12.6659 25.9787 12.9091 26.501 13.2078C26.6983 13.3208 26.8403 13.3249 27.0007 13.1386C27.2083 12.8981 27.4411 12.6782 27.6732 12.4611C28.2453 11.924 29.1165 12.0453 29.5241 12.7132C29.6722 12.9563 29.6196 13.1769 29.421 13.3564C29.2196 13.5386 28.9629 13.5797 28.7813 13.3715C28.5116 13.0632 28.345 13.192 28.1422 13.4304C27.9729 13.629 27.7804 13.8085 27.5906 13.988C27.1919 14.3641 26.6908 14.4566 26.2122 14.2024C25.6093 13.8825 24.9847 13.6256 24.3354 13.4187C23.8138 13.2523 23.5243 12.8426 23.5059 12.2926C23.4943 11.9514 23.4977 11.6089 23.5052 11.2677C23.5086 11.0931 23.4438 11.0246 23.2662 11.0266C22.6532 11.0335 22.0401 11.0328 21.427 11.0266C21.2447 11.0246 21.1887 11.1109 21.1908 11.2766C21.1949 11.6068 21.1969 11.9377 21.1908 12.2679C21.1799 12.8454 20.9027 13.2489 20.3592 13.4229C19.71 13.6311 19.0866 13.8907 18.4831 14.2079C18.0175 14.4525 17.5184 14.3655 17.1327 14.0031C16.8842 13.7695 16.6439 13.527 16.4097 13.279C16.2827 13.1447 16.1858 13.1262 16.0472 13.2708C15.6287 13.7044 15.2047 14.1332 14.7705 14.5511C14.608 14.7073 14.649 14.8073 14.7889 14.9395C15.0204 15.158 15.2443 15.3848 15.4634 15.6156C15.8683 16.0424 15.9475 16.5302 15.6717 17.0549C15.3699 17.6296 15.1248 18.2249 14.9296 18.8442C14.7432 19.434 14.3547 19.7115 13.7409 19.7224C13.4235 19.7279 13.1053 19.7286 12.7872 19.7224C12.6008 19.7183 12.5237 19.7889 12.5264 19.9834C12.5346 20.5869 12.5353 21.1911 12.5264 21.7946C12.5237 21.9954 12.6076 22.0515 12.7913 22.046C13.0978 22.0365 13.4044 22.0399 13.7109 22.044C14.337 22.0522 14.7411 22.3372 14.9296 22.9332C15.1248 23.5524 15.372 24.147 15.6717 24.7225C15.9516 25.2595 15.8649 25.7459 15.4389 26.1864C15.2252 26.407 15.0122 26.6282 14.7876 26.8372C14.6435 26.9714 14.6135 27.0721 14.7719 27.2256C15.1979 27.6359 15.615 28.0545 16.024 28.4819C16.1858 28.6511 16.2957 28.623 16.4404 28.4655C16.6555 28.2312 16.8842 28.0086 17.1143 27.7887C17.5205 27.4009 17.9916 27.3153 18.4886 27.5708C19.0941 27.8832 19.7147 28.1476 20.3667 28.3497C20.904 28.5162 21.1805 28.934 21.1908 29.5115C21.1969 29.8301 21.2003 30.15 21.1894 30.4685C21.1826 30.6788 21.2713 30.7487 21.4727 30.7466C22.0633 30.7398 22.6532 30.7384 23.2437 30.7473C23.4608 30.7508 23.5141 30.6562 23.5072 30.4576C23.4956 30.1274 23.495 29.7965 23.5072 29.467C23.5277 28.9368 23.8452 28.5107 24.3156 28.3559C24.6078 28.2593 24.8638 28.3586 24.9737 28.61C25.0857 28.8642 25.0065 29.1533 24.7437 29.2752C24.5463 29.367 24.5184 29.4958 24.5238 29.68C24.5327 29.9986 24.5327 30.3178 24.5238 30.637C24.5061 31.2515 24.0746 31.7166 23.4615 31.7571C23.0887 31.7817 22.7126 31.7619 22.3384 31.7619C22.3384 31.7639 22.3384 31.766 22.3384 31.7673L22.3377 31.7653Z" fill="white"/>
<path d="M17.541 20.8814C17.5526 17.5967 20.7362 15.2772 23.8432 16.2903C24.059 16.3609 24.2904 16.4226 24.3662 16.6753C24.4256 16.8726 24.3826 17.0596 24.2372 17.2131C24.0637 17.3953 23.8582 17.3878 23.6411 17.3097C22.7755 16.998 21.9091 16.9993 21.0461 17.3165C19.3386 17.944 18.305 19.7196 18.6054 21.5C18.9147 23.3318 20.5034 24.6875 22.3474 24.693C22.4157 24.693 22.4832 24.6895 22.5515 24.6909C22.9113 24.6964 23.1018 24.8669 23.1079 25.1889C23.1134 25.504 22.9243 25.6958 22.5693 25.7143C21.9391 25.7472 21.3254 25.6472 20.7321 25.4362C18.8252 24.7587 17.5342 22.9119 17.541 20.8807V20.8814Z" fill="white"/>
<defs>
<linearGradient id="paint0_linear_2665_25864" x1="56" y1="56" x2="4.5" y2="5.5" gradientUnits="userSpaceOnUse">
<stop stop-color="#181059"/>
<stop offset="1" stop-color="#6B59FF"/>
</linearGradient>
</defs>
</svg>
