<svg width="53" height="37" viewBox="0 0 53 37" fill="none" xmlns="http://www.w3.org/2000/svg">
<path d="M2.73968 5.98127C3.06345 3.72875 4.91497 2.03765 7.18798 1.87567C12.0381 1.53002 20.4809 1 26.6485 1C32.816 1 41.259 1.53002 46.109 1.87567C48.3819 2.03765 50.2335 3.72875 50.5574 5.98127C51.0548 9.44297 51.6832 14.589 51.6832 18.5003C51.6832 22.4118 51.0548 27.5575 50.5574 31.0192C50.2335 33.2717 48.3819 34.963 46.1087 35.1248C41.2588 35.4703 32.816 36 26.6485 36C20.481 36 12.0383 35.4703 7.18815 35.1248C4.91507 34.963 3.06343 33.2717 2.73966 31.0192C2.24209 27.5575 1.61377 22.4118 1.61377 18.5003C1.61377 14.589 2.24212 9.44297 2.73968 5.98127V5.98127Z" stroke="white" stroke-width="2" stroke-linecap="round" stroke-linejoin="round"/>
<path d="M36.6624 18.5001L21.6416 27.1603V9.83984L36.6624 18.5001Z" stroke="white" stroke-width="2" stroke-linecap="round" stroke-linejoin="round"/>
<path d="M21.6416 26V9.75L36.6624 18.5L21.6416 26Z" stroke="white" stroke-width="2"/>
</svg>
